  0
SECTION
  2
HEADER
  9
$ACADVER
  1
AC1015
  9
$ACADMAINTVER
 70
     6
  9
$DWGCODEPAGE
  3
ANSI_1252
  9
$INSBASE
 10
0.0
 20
0.0
 30
0.0
  9
$EXTMIN
 10
-35.5000023261
 20
-34.7792623527
 30
0.0
  9
$EXTMAX
 10
35.5000023261
 20
34.7792623527
 30
0.0
  9
$LIMMIN
 10
0.0
 20
0.0
  9
$LIMMAX
 10
420.0
 20
297.0
  9
$ORTHOMODE
 70
     0
  9
$REGENMODE
 70
     1
  9
$FILLMODE
 70
     1
  9
$QTEXTMODE
 70
     0
  9
$MIRRTEXT
 70
     1
  9
$LTSCALE
 40
1.0
  9
$ATTMODE
 70
     1
  9
$TEXTSIZE
 40
3.175
  9
$TRACEWID
 40
1.0
  9
$TEXTSTYLE
  7
Standard
  9
$CLAYER
  8
0
  9
$CELTYPE
  6
ByLayer
  9
$CECOLOR
 62
   256
  9
$CELTSCALE
 40
1.0
  9
$DISPSILH
 70
     0
  9
$DIMSCALE
 40
1.0
  9
$DIMASZ
 40
3.302
  9
$DIMEXO
 40
0.0
  9
$DIMDLI
 40
3.75
  9
$DIMRND
 40
0.0
  9
$DIMDLE
 40
0.0
  9
$DIMEXE
 40
3.175
  9
$DIMTP
 40
0.0
  9
$DIMTM
 40
0.0
  9
$DIMTXT
 40
3.175
  9
$DIMCEN
 40
2.5
  9
$DIMTSZ
 40
0.0
  9
$DIMTOL
 70
     0
  9
$DIMLIM
 70
     0
  9
$DIMTIH
 70
     1
  9
$DIMTOH
 70
     1
  9
$DIMSE1
 70
     0
  9
$DIMSE2
 70
     0
  9
$DIMTAD
 70
     0
  9
$DIMZIN
 70
     1
  9
$DIMBLK
  1

  9
$DIMASO
 70
     1
  9
$DIMSHO
 70
     1
  9
$DIMPOST
  1

  9
$DIMAPOST
  1

  9
$DIMALT
 70
     0
  9
$DIMALTD
 70
     3
  9
$DIMALTF
 40
0.0393700787
  9
$DIMLFAC
 40
1.0
  9
$DIMTOFL
 70
     1
  9
$DIMTVP
 40
0.0
  9
$DIMTIX
 70
     0
  9
$DIMSOXD
 70
     0
  9
$DIMSAH
 70
     0
  9
$DIMBLK1
  1

  9
$DIMBLK2
  1

  9
$DIMSTYLE
  2
ISO-25
  9
$DIMCLRD
 70
     0
  9
$DIMCLRE
 70
     0
  9
$DIMCLRT
 70
     0
  9
$DIMTFAC
 40
1.0
  9
$DIMGAP
 40
1.524
  9
$DIMJUST
 70
     0
  9
$DIMSD1
 70
     0
  9
$DIMSD2
 70
     0
  9
$DIMTOLJ
 70
     0
  9
$DIMTZIN
 70
     1
  9
$DIMALTZ
 70
     0
  9
$DIMALTTZ
 70
     0
  9
$DIMUPT
 70
     0
  9
$DIMDEC
 70
     2
  9
$DIMTDEC
 70
     2
  9
$DIMALTU
 70
     2
  9
$DIMALTTD
 70
     3
  9
$DIMTXSTY
  7
Standard
  9
$DIMAUNIT
 70
     0
  9
$DIMADEC
 70
     2
  9
$DIMALTRND
 40
0.0
  9
$DIMAZIN
 70
     0
  9
$DIMDSEP
 70
    44
  9
$DIMATFIT
 70
     3
  9
$DIMFRAC
 70
     0
  9
$DIMLDRBLK
  1

  9
$DIMLUNIT
 70
     2
  9
$DIMLWD
 70
    -2
  9
$DIMLWE
 70
    -2
  9
$DIMTMOVE
 70
     0
  9
$LUNITS
 70
     2
  9
$LUPREC
 70
     6
  9
$SKETCHINC
 40
1.0
  9
$FILLETRAD
 40
0.0
  9
$AUNITS
 70
     0
  9
$AUPREC
 70
     2
  9
$MENU
  1
.
  9
$ELEVATION
 40
0.0
  9
$PELEVATION
 40
0.0
  9
$THICKNESS
 40
0.0
  9
$LIMCHECK
 70
     0
  9
$CHAMFERA
 40
0.0
  9
$CHAMFERB
 40
0.0
  9
$CHAMFERC
 40
0.0
  9
$CHAMFERD
 40
0.0
  9
$SKPOLY
 70
     0
  9
$TDCREATE
 40
2460850.827371956
  9
$TDUCREATE
 40
2460850.994038623
  9
$TDUPDATE
 40
2460850.827398056
  9
$TDUUPDATE
 40
2460850.994064722
  9
$TDINDWG
 40
0.0000000116
  9
$TDUSRTIMER
 40
0.0000000116
  9
$USRTIMER
 70
     1
  9
$ANGBASE
 50
0.0
  9
$ANGDIR
 70
     0
  9
$PDMODE
 70
     0
  9
$PDSIZE
 40
-1.0
  9
$PLINEWID
 40
0.0
  9
$SPLFRAME
 70
     0
  9
$SPLINETYPE
 70
     6
  9
$SPLINESEGS
 70
     8
  9
$HANDSEED
  5
96
  9
$SURFTAB1
 70
     6
  9
$SURFTAB2
 70
     6
  9
$SURFTYPE
 70
     6
  9
$SURFU
 70
     6
  9
$SURFV
 70
     6
  9
$UCSBASE
  2

  9
$UCSNAME
  2

  9
$UCSORG
 10
0.0
 20
0.0
 30
0.0
  9
$UCSXDIR
 10
1.0
 20
0.0
 30
0.0
  9
$UCSYDIR
 10
0.0
 20
1.0
 30
0.0
  9
$UCSORTHOREF
  2

  9
$UCSORTHOVIEW
 70
     0
  9
$UCSORGTOP
 10
0.0
 20
0.0
 30
0.0
  9
$UCSORGBOTTOM
 10
0.0
 20
0.0
 30
0.0
  9
$UCSORGLEFT
 10
0.0
 20
0.0
 30
0.0
  9
$UCSORGRIGHT
 10
0.0
 20
0.0
 30
0.0
  9
$UCSORGFRONT
 10
0.0
 20
0.0
 30
0.0
  9
$UCSORGBACK
 10
0.0
 20
0.0
 30
0.0
  9
$PUCSBASE
  2

  9
$PUCSNAME
  2

  9
$PUCSORG
 10
0.0
 20
0.0
 30
0.0
  9
$PUCSXDIR
 10
1.0
 20
0.0
 30
0.0
  9
$PUCSYDIR
 10
0.0
 20
1.0
 30
0.0
  9
$PUCSORTHOREF
  2

  9
$PUCSORTHOVIEW
 70
     0
  9
$PUCSORGTOP
 10
0.0
 20
0.0
 30
0.0
  9
$PUCSORGBOTTOM
 10
0.0
 20
0.0
 30
0.0
  9
$PUCSORGLEFT
 10
0.0
 20
0.0
 30
0.0
  9
$PUCSORGRIGHT
 10
0.0
 20
0.0
 30
0.0
  9
$PUCSORGFRONT
 10
0.0
 20
0.0
 30
0.0
  9
$PUCSORGBACK
 10
0.0
 20
0.0
 30
0.0
  9
$USERI1
 70
     0
  9
$USERI2
 70
     0
  9
$USERI3
 70
     0
  9
$USERI4
 70
     0
  9
$USERI5
 70
     0
  9
$USERR1
 40
0.0
  9
$USERR2
 40
0.0
  9
$USERR3
 40
0.0
  9
$USERR4
 40
0.0
  9
$USERR5
 40
0.0
  9
$WORLDVIEW
 70
     1
  9
$SHADEDGE
 70
     3
  9
$SHADEDIF
 70
    70
  9
$TILEMODE
 70
     1
  9
$MAXACTVP
 70
    64
  9
$PINSBASE
 10
0.0
 20
0.0
 30
0.0
  9
$PLIMCHECK
 70
     0
  9
$PEXTMIN
 10
1.0000000000E+20
 20
1.0000000000E+20
 30
1.0000000000E+20
  9
$PEXTMAX
 10
-1.0000000000E+20
 20
-1.0000000000E+20
 30
-1.0000000000E+20
  9
$PLIMMIN
 10
0.0
 20
0.0
  9
$PLIMMAX
 10
420.0
 20
297.0
  9
$UNITMODE
 70
     0
  9
$VISRETAIN
 70
     1
  9
$PLINEGEN
 70
     0
  9
$PSLTSCALE
 70
     1
  9
$TREEDEPTH
 70
  3020
  9
$CMLSTYLE
  2
Standard
  9
$CMLJUST
 70
     0
  9
$CMLSCALE
 40
20.0
  9
$PROXYGRAPHICS
 70
     1
  9
$MEASUREMENT
 70
     1
  9
$CELWEIGHT
370
    -1
  9
$ENDCAPS
280
     0
  9
$JOINSTYLE
280
     0
  9
$LWDISPLAY
290
     1
  9
$INSUNITS
 70
     4
  9
$HYPERLINKBASE
  1

  9
$STYLESHEET
  1

  9
$XEDIT
290
     1
  9
$CEPSNTYPE
380
     0
  9
$PSTYLEMODE
290
     1
  9
$FINGERPRINTGUID
  2
{307e83e7-5d85-4482-8c66-a9280fccf52d}
  9
$VERSIONGUID
  2
{FAEB1C32-E019-11D5-929B-00C0DF256EC4}
  9
$EXTNAMES
290
     1
  9
$PSVPSCALE
 40
0.0
  9
$OLESTARTUP
290
     0
  0
ENDSEC
  0
SECTION
  2
CLASSES
  0
CLASS
  1
ACDBDICTIONARYWDFLT
  2
AcDbDictionaryWithDefault
  3
ObjectDBX Classes
 90
        0
280
     0
281
     0
  0
CLASS
  1
VISUALSTYLE
  2
AcDbVisualStyle
  3
ObjectDBX Classes
 90
     4095
280
     0
281
     0
  0
CLASS
  1
MATERIAL
  2
AcDbMaterial
  3
ObjectDBX Classes
 90
     1153
280
     0
281
     0
  0
CLASS
  1
SCALE
  2
AcDbScale
  3
ObjectDBX Classes
 90
     1153
280
     0
281
     0
  0
CLASS
  1
TABLESTYLE
  2
AcDbTableStyle
  3
ObjectDBX Classes
 90
     4095
280
     0
281
     0
  0
CLASS
  1
MLEADERSTYLE
  2
AcDbMLeaderStyle
  3
ACDB_MLEADERSTYLE_CLASS
 90
     4095
280
     0
281
     0
  0
CLASS
  1
SUN
  2
AcDbSun
  3
SCENEOE
 90
     1153
280
     0
281
     0
  0
CLASS
  1
ACDBPLACEHOLDER
  2
AcDbPlaceHolder
  3
ObjectDBX Classes
 90
        0
280
     0
281
     0
  0
CLASS
  1
LAYOUT
  2
AcDbLayout
  3
ObjectDBX Classes
 90
        0
280
     0
281
     0
  0
ENDSEC
  0
SECTION
  2
TABLES
  0
TABLE
  2
VPORT
  5
8
330
0
100
AcDbSymbolTable
 70
     1
  0
VPORT
  5
29
330
8
100
AcDbSymbolTableRecord
100
AcDbViewportTableRecord
  2
*Active
 70
     0
 10
0.0
 20
0.0
 11
1.0
 21
1.0
 12
0.0
 22
0.0
 13
0.0
 23
0.0
 14
10.0
 24
10.0
 15
10.0
 25
10.0
 16
0.0
 26
0.0
 36
1.0
 17
0.0
 27
0.0
 37
0.0
 40
70.9496951995
 41
1.020723268
 42
50.0
 43
0.0
 44
0.0
 50
0.0
 51
0.0
 71
     0
 72
   100
 73
     1
 74
     3
 75
     0
 76
     0
 77
     0
 78
     0
281
     0
 65
     1
110
0.0
120
0.0
130
0.0
111
1.0
121
0.0
131
0.0
112
0.0
122
1.0
132
0.0
 79
     0
146
0.0
  0
ENDTAB
  0
TABLE
  2
LTYPE
  5
5
330
0
100
AcDbSymbolTable
 70
     6
  0
LTYPE
  5
14
330
5
100
AcDbSymbolTableRecord
100
AcDbLinetypeTableRecord
  2
ByBlock
 70
     0
  3

 72
    65
 73
     0
 40
0.0
  0
LTYPE
  5
15
330
5
100
AcDbSymbolTableRecord
100
AcDbLinetypeTableRecord
  2
ByLayer
 70
     0
  3

 72
    65
 73
     0
 40
0.0
  0
LTYPE
  5
16
330
5
100
AcDbSymbolTableRecord
100
AcDbLinetypeTableRecord
  2
Continuous
 70
     0
  3
Solid line
 72
    65
 73
     0
 40
0.0
  0
LTYPE
  5
5E
330
5
100
AcDbSymbolTableRecord
100
AcDbLinetypeTableRecord
  2
HIDDEN
 70
     0
  3
Hidden __ __ __ __ __ __ __ __ __ __ __ __ __ __
 72
    65
 73
     2
 40
1.905
 49
1.27
 74
     0
 49
-0.635
 74
     0
  0
LTYPE
  5
5F
330
5
100
AcDbSymbolTableRecord
100
AcDbLinetypeTableRecord
  2
PHANTOM
 70
     0
  3
Phantom ______  __  __  ______  __  __  ______
 72
    65
 73
     6
 40
12.7
 49
6.35
 74
     0
 49
-1.27
 74
     0
 49
1.27
 74
     0
 49
-1.27
 74
     0
 49
1.27
 74
     0
 49
-1.27
 74
     0
  0
LTYPE
  5
60
330
5
100
AcDbSymbolTableRecord
100
AcDbLinetypeTableRecord
  2
CENTER
 70
     0
  3
Center ____ _ ____ _ ____ _ ____ _ ____ _ ____
 72
    65
 73
     4
 40
10.16
 49
6.35
 74
     0
 49
-1.27
 74
     0
 49
1.27
 74
     0
 49
-1.27
 74
     0
  0
LTYPE
  5
61
330
5
100
AcDbSymbolTableRecord
100
AcDbLinetypeTableRecord
  2
CENTERX2
 70
     0
  3
Center (2x) ________  __  ________  __  _____
 72
    65
 73
     4
 40
20.32
 49
12.7
 74
     0
 49
-2.54
 74
     0
 49
2.54
 74
     0
 49
-2.54
 74
     0
  0
LTYPE
  5
62
330
5
100
AcDbSymbolTableRecord
100
AcDbLinetypeTableRecord
  2
DOT2
 70
     0
  3
Dot (.5x) ........................................
 72
    65
 73
     2
 40
0.635
 49
0.0
 74
     0
 49
-0.635
 74
     0
  0
ENDTAB
  0
TABLE
  2
LAYER
  5
2
330
0
100
AcDbSymbolTable
 70
     1
  0
LAYER
  5
10
330
2
100
AcDbSymbolTableRecord
100
AcDbLayerTableRecord
  2
0
 70
     0
 62
     7
  6
Continuous
370
    -3
390
F
  0
ENDTAB
  0
TABLE
  2
STYLE
  5
3
330
0
100
AcDbSymbolTable
 70
     2
  0
STYLE
  5
11
330
3
100
AcDbSymbolTableRecord
100
AcDbTextStyleTableRecord
  2
Standard
 70
     0
 40
0.0
 41
1.0
 50
0.0
 71
     0
 42
3.175
  3
txt
  4

  0
STYLE
  5
92
330
3
100
AcDbSymbolTableRecord
100
AcDbTextStyleTableRecord
  2
SLDTEXTSTYLE0
 70
     0
 40
0.0
 41
0.7
 50
0.0
 71
     0
 42
3.175
  3
TXT
  4

  0
ENDTAB
  0
TABLE
  2
VIEW
  5
6
330
0
100
AcDbSymbolTable
 70
     0
  0
ENDTAB
  0
TABLE
  2
UCS
  5
7
330
0
100
AcDbSymbolTable
 70
     0
  0
ENDTAB
  0
TABLE
  2
APPID
  5
9
330
0
100
AcDbSymbolTable
 70
     1
  0
APPID
  5
12
330
9
100
AcDbSymbolTableRecord
100
AcDbRegAppTableRecord
  2
ACAD
 70
     0
  0
ENDTAB
  0
TABLE
  2
DIMSTYLE
  5
A
330
0
100
AcDbSymbolTable
 70
     1
100
AcDbDimStyleTable
  0
DIMSTYLE
105
27
330
A
100
AcDbSymbolTableRecord
100
AcDbDimStyleTableRecord
  2
ISO-25
 70
     0
 41
2.5
 42
0.625
 43
3.75
 44
1.25
 73
     0
 74
     0
 77
     1
 78
     8
140
2.5
141
2.5
143
0.0393700787
147
0.625
171
     3
172
     1
178
     0
271
     2
272
     2
274
     3
278
    44
283
     0
284
     8
340
11
  0
ENDTAB
  0
TABLE
  2
BLOCK_RECORD
  5
1
330
0
100
AcDbSymbolTable
 70
     1
  0
BLOCK_RECORD
  5
1F
330
1
100
AcDbSymbolTableRecord
100
AcDbBlockTableRecord
  2
*Model_Space
340
22
  0
BLOCK_RECORD
  5
1B
330
1
100
AcDbSymbolTableRecord
100
AcDbBlockTableRecord
  2
*Paper_Space
340
1E
  0
BLOCK_RECORD
  5
23
330
1
100
AcDbSymbolTableRecord
100
AcDbBlockTableRecord
  2
*Paper_Space0
340
26
  0
ENDTAB
  0
ENDSEC
  0
SECTION
  2
BLOCKS
  0
BLOCK
  5
20
330
1F
100
AcDbEntity
  8
0
100
AcDbBlockBegin
  2
*Model_Space
 70
     0
 10
0.0
 20
0.0
 30
0.0
  3
*Model_Space
  1

  0
ENDBLK
  5
21
330
1F
100
AcDbEntity
  8
0
100
AcDbBlockEnd
  0
BLOCK
  5
1C
330
1B
100
AcDbEntity
 67
     1
  8
0
100
AcDbBlockBegin
  2
*Paper_Space
 70
     0
 10
0.0
 20
0.0
 30
0.0
  3
*Paper_Space
  1

  0
ENDBLK
  5
1D
330
1B
100
AcDbEntity
 67
     1
  8
0
100
AcDbBlockEnd
  0
BLOCK
  5
24
330
23
100
AcDbEntity
  8
0
100
AcDbBlockBegin
  2
*Paper_Space0
 70
     0
 10
0.0
 20
0.0
 30
0.0
  3
*Paper_Space0
  1

  0
ENDBLK
  5
25
330
23
100
AcDbEntity
  8
0
100
AcDbBlockEnd
  0
ENDSEC
  0
SECTION
  2
ENTITIES
  0
CIRCLE
  5
63
330
1F
100
AcDbEntity
  8
0
  6
Continuous
 62
     7
370
    25
100
AcDbCircle
 10
0.0
 20
22.5
 30
0.0
 40
5.875
  0
CIRCLE
  5
64
330
1F
100
AcDbEntity
  8
0
  6
Continuous
 62
     7
370
    25
100
AcDbCircle
 10
0.0
 20
-22.5
 30
0.0
 40
5.875000000000004
  0
CIRCLE
  5
65
330
1F
100
AcDbEntity
  8
0
  6
Continuous
 62
     7
370
    25
100
AcDbCircle
 10
-22.5
 20
0.0
 30
0.0
 40
5.874999999999999
  0
CIRCLE
  5
66
330
1F
100
AcDbEntity
  8
0
  6
Continuous
 62
     7
370
    25
100
AcDbCircle
 10
22.5
 20
0.0
 30
0.0
 40
5.874999999999999
  0
CIRCLE
  5
67
330
1F
100
AcDbEntity
  8
0
  6
Continuous
 62
     7
370
    25
100
AcDbCircle
 10
0.0
 20
0.0
 30
0.0
 40
10.328125
  0
SPLINE
  5
68
330
1F
100
AcDbEntity
  8
0
  6
Continuous
 62
     7
370
    25
100
AcDbSpline
210
0.0
220
0.0
230
1.0
 70
     8
 71
     3
 72
    17
 73
    13
 74
     0
 42
0.00000001
 43
0.00000001
 40
0.0230106502467855
 40
0.0230106502467855
 40
0.0230106502467855
 40
0.0230106502467855
 40
0.2672579876850891
 40
0.3893816564042409
 40
0.5115053251233928
 40
0.6336289938425446
 40
0.7557526625616964
 40
0.8168144969212723
 40
0.8778763312808483
 40
0.9389381656404242
 40
0.9694690828202122
 40
1.0
 40
1.0
 40
1.0
 40
1.0
 10
35.50000232613555
 20
-0.003735881134241
 30
0.0
 10
35.50061523957162
 20
-0.4959193357015173
 30
0.0
 10
35.41826386336237
 20
-1.23361478960232
 30
0.0
 10
35.14956687896225
 20
-2.192738575271878
 30
0.0
 10
34.87071186794254
 20
-2.889611747880331
 30
0.0
 10
34.49974897073149
 20
-3.601492099668294
 30
0.0
 10
34.13937205125529
 20
-4.165162167239151
 30
0.0
 10
33.69388727086954
 20
-4.839357340230459
 30
0.0
 10
33.30681420999321
 20
-5.487322542012234
 30
0.0
 10
32.97508887824762
 20
-6.197475634959258
 30
0.0
 10
32.75796561827413
 20
-6.873262554553368
 30
0.0
 10
32.67479371169512
 20
-7.260710929490195
 30
0.0
 10
32.64481089881378
 20
-7.450965060354799
 30
0.0
  0
LINE
  5
69
330
1F
100
AcDbEntity
  8
0
  6
Continuous
 62
     7
370
    25
100
AcDbLine
 10
35.5000023261
 20
-0.0037358811
 30
0.0
 11
35.5000023261
 21
0.0037358811
 31
0.0
  0
SPLINE
  5
6A
330
1F
100
AcDbEntity
  8
0
  6
Continuous
 62
     7
370
    25
100
AcDbSpline
210
0.0
220
0.0
230
1.0
 70
     8
 71
     3
 72
    17
 73
    13
 74
     0
 42
0.00000001
 43
0.00000001
 40
0.0230106502467868
 40
0.0230106502467868
 40
0.0230106502467868
 40
0.0230106502467868
 40
0.0535415674265747
 40
0.0840724846063626
 40
0.1451343189659384
 40
0.2061961533255142
 40
0.2672579876850901
 40
0.3893816564042417
 40
0.5115053251233934
 40
0.633628993842545
 40
0.7557526625616967
 40
1.0
 40
1.0
 40
1.0
 40
1.0
 10
32.64481089881543
 20
7.45096506035461
 30
0.0
 10
32.67479371169676
 20
7.260710929490021
 30
0.0
 10
32.75796561827579
 20
6.873262554553222
 30
0.0
 10
32.97508887824931
 20
6.197475634959161
 30
0.0
 10
33.30681420999491
 20
5.487322542012108
 30
0.0
 10
33.69388727087129
 20
4.839357340230346
 30
0.0
 10
34.13937205125706
 20
4.165162167239038
 30
0.0
 10
34.49974897073329
 20
3.601492099668218
 30
0.0
 10
34.87071186794434
 20
2.889611747880309
 30
0.0
 10
35.1495668789641
 20
2.192738575271849
 30
0.0
 10
35.41826386336422
 20
1.233614789602286
 30
0.0
 10
35.50061523957353
 20
0.4959193357014635
 30
0.0
 10
35.50000232613748
 20
0.0037358811341751
 30
0.0
  0
SPLINE
  5
6B
330
1F
100
AcDbEntity
  8
0
  6
Continuous
 62
     7
370
    25
100
AcDbSpline
210
0.0
220
0.0
230
1.0
 70
     8
 71
     3
 72
    17
 73
    13
 74
     0
 42
0.00000001
 43
0.00000001
 40
0.0230106502467902
 40
0.0230106502467902
 40
0.0230106502467902
 40
0.0230106502467902
 40
0.2672579876850927
 40
0.3893816564042438
 40
0.5115053251233951
 40
0.6336289938425463
 40
0.7557526625616975
 40
0.8168144969212732
 40
0.8778763312808487
 40
0.9389381656404243
 40
0.9694690828202122
 40
1.0
 40
1.0
 40
1.0
 40
1.0
 10
31.98601784438904
 20
15.39950783534952
 30
0.0
 10
32.20012045791309
 20
14.95633179866115
 30
0.0
 10
32.44599849358806
 20
14.25596023767228
 30
0.0
 10
32.62005909014719
 20
13.27523631403813
 30
0.0
 10
32.67118134438193
 20
12.52638462578859
 30
0.0
 10
32.64582863168595
 20
11.72404782224052
 30
0.0
 10
32.56570752307355
 20
11.05983695427664
 30
0.0
 10
32.45686192737411
 20
10.25911949028766
 30
0.0
 10
32.38926271448797
 20
9.507378309033509
 30
0.0
 10
32.39851239720433
 20
8.723622253545852
 30
0.0
 10
32.49610405499092
 20
8.020553025769232
 30
0.0
 10
32.58927630611173
 20
7.635387164215738
 30
0.0
 10
32.64481089881556
 20
7.450965060354688
 30
0.0
  0
LINE
  5
6C
330
1F
100
AcDbEntity
  8
0
  6
Continuous
 62
     7
370
    25
100
AcDbLine
 10
31.9860178444
 20
15.3995078353
 30
0.0
 11
31.9827759682
 21
15.4062396605
 31
0.0
  0
SPLINE
  5
6D
330
1F
100
AcDbEntity
  8
0
  6
Continuous
 62
     7
370
    25
100
AcDbSpline
210
0.0
220
0.0
230
1.0
 70
     8
 71
     3
 72
    17
 73
    13
 74
     0
 42
0.00000001
 43
0.00000001
 40
0.0230106502467868
 40
0.0230106502467868
 40
0.0230106502467868
 40
0.0230106502467868
 40
0.0535415674265747
 40
0.0840724846063626
 40
0.1451343189659384
 40
0.2061961533255142
 40
0.2672579876850901
 40
0.3893816564042417
 40
0.5115053251233934
 40
0.633628993842545
 40
0.7557526625616967
 40
1.0
 40
1.0
 40
1.0
 40
1.0
 10
26.17910573797524
 20
20.87714017077174
 30
0.0
 10
26.28866749263555
 20
20.71873617683513
 30
0.0
 10
26.53171034077994
 20
20.40574419091373
 30
0.0
 10
27.02054459403376
 20
19.89108746691049
 30
0.0
 10
27.6275426699449
 20
19.39519186601837
 30
0.0
 10
28.25742501196534
 20
18.97934009869359
 30
0.0
 10
28.95131525276974
 20
18.56519983917207
 30
0.0
 10
29.52057091447467
 20
18.21371234183631
 30
0.0
 10
30.16367024484675
 20
17.73328507611978
 30
0.0
 10
30.7172718662562
 20
17.22641469757608
 30
0.0
 10
31.37550769850285
 20
16.47885727850422
 30
0.0
 10
31.76977778656486
 20
15.84994756357759
 30
0.0
 10
31.98277596823971
 20
15.40623966054241
 30
0.0
  0
SPLINE
  5
6E
330
1F
100
AcDbEntity
  8
0
  6
Continuous
 62
     7
370
    25
100
AcDbSpline
210
0.0
220
0.0
230
1.0
 70
     8
 71
     3
 72
    17
 73
    13
 74
     0
 42
0.00000001
 43
0.00000001
 40
0.0230106502467902
 40
0.0230106502467902
 40
0.0230106502467902
 40
0.0230106502467902
 40
0.2672579876850927
 40
0.3893816564042438
 40
0.5115053251233951
 40
0.6336289938425463
 40
0.7557526625616975
 40
0.8168144969212732
 40
0.8778763312808487
 40
0.9389381656404243
 40
0.9694690828202122
 40
1.0
 40
1.0
 40
1.0
 40
1.0
 10
22.13681024579602
 20
27.75269016247357
 30
0.0
 10
22.52199691100338
 20
27.44629799292764
 30
0.0
 10
23.047405198101
 20
26.92196750199798
 30
0.0
 10
23.62974853975771
 20
26.1138878412646
 30
0.0
 10
24.00072266982239
 20
25.46137689829508
 30
0.0
 10
24.3260015573215
 20
24.72749628694461
 30
0.0
 10
24.5420052277546
 20
24.09429972699973
 30
0.0
 10
24.7913570218734
 20
23.32565188591134
 30
0.0
 10
25.05662051013944
 20
22.6190262856327
 30
0.0
 10
25.40501319421587
 20
21.91689976653095
 30
0.0
 10
25.79799054505479
 20
21.32579971371116
 30
0.0
 10
26.04905304685829
 20
21.01920318817094
 30
0.0
 10
26.17910573797527
 20
20.87714017077178
 30
0.0
  0
LINE
  5
6F
330
1F
100
AcDbEntity
  8
0
  6
Continuous
 62
     7
370
    25
100
AcDbLine
 10
22.1368102458
 20
27.7526901625
 30
0.0
 11
22.1309685868
 21
27.7573487301
 31
0.0
  0
SPLINE
  5
70
330
1F
100
AcDbEntity
  8
0
  6
Continuous
 62
     7
370
    25
100
AcDbSpline
210
0.0
220
0.0
230
1.0
 70
     8
 71
     3
 72
    17
 73
    13
 74
     0
 42
0.00000001
 43
0.00000001
 40
0.0230106502467868
 40
0.0230106502467868
 40
0.0230106502467868
 40
0.0230106502467868
 40
0.0535415674265747
 40
0.0840724846063626
 40
0.1451343189659384
 40
0.2061961533255142
 40
0.2672579876850901
 40
0.3893816564042417
 40
0.5115053251233934
 40
0.633628993842545
 40
0.7557526625616967
 40
1.0
 40
1.0
 40
1.0
 40
1.0
 10
14.52830762006735
 20
30.16834162904687
 30
0.0
 10
14.69574826730944
 20
30.07316162573489
 30
0.0
 10
15.05052444021928
 20
29.89661793023542
 30
0.0
 10
15.7142500677378
 20
29.64502547786238
 30
0.0
 10
16.47629747453744
 20
29.4616055745423
 30
0.0
 10
17.22423317486484
 20
29.36023178428045
 30
0.0
 10
18.02909540389123
 20
29.28817199572394
 30
0.0
 10
18.69448174256168
 20
29.21848347818188
 30
0.0
 10
19.48234379661895
 20
29.06466381056566
 30
0.0
 10
20.20104443781963
 20
28.84818812091456
 30
0.0
 10
21.11844743860369
 20
28.46025998347768
 30
0.0
 10
21.74654621217243
 20
28.06469928963797
 30
0.0
 10
22.1309685868262
 20
27.75734873005133
 30
0.0
  0
SPLINE
  5
71
330
1F
100
AcDbEntity
  8
0
  6
Continuous
 62
     7
370
    25
100
AcDbSpline
210
0.0
220
0.0
230
1.0
 70
     8
 71
     3
 72
    17
 73
    13
 74
     0
 42
0.00000001
 43
0.00000001
 40
0.0230106502467902
 40
0.0230106502467902
 40
0.0230106502467902
 40
0.0230106502467902
 40
0.2672579876850927
 40
0.3893816564042438
 40
0.5115053251233951
 40
0.6336289938425463
 40
0.7557526625616975
 40
0.8168144969212732
 40
0.8778763312808487
 40
0.9389381656404243
 40
0.9694690828202122
 40
1.0
 40
1.0
 40
1.0
 40
1.0
 10
7.90313588786226
 20
34.60911183851202
 30
0.0
 10
8.383115661704176
 20
34.50018826294044
 30
0.0
 10
9.083990645254966
 20
34.25574892629009
 30
0.0
 10
9.95927649122177
 20
33.78036361571237
 30
0.0
 10
10.57662652095796
 20
33.35343121279953
 30
0.0
 10
11.1881115356992
 20
32.83336084917966
 30
0.0
 10
11.65745780913733
 20
32.35659094159702
 30
0.0
 10
12.21561981215004
 20
31.77225285518393
 30
0.0
 10
12.76120731447403
 20
31.25069870221025
 30
0.0
 10
13.37973955607332
 20
30.76926648761915
 30
0.0
 10
13.99026861607999
 20
30.40721022458354
 30
0.0
 10
14.34949536100446
 20
30.23990823709945
 30
0.0
 10
14.52830762006726
 20
30.16834162904666
 30
0.0
  0
LINE
  5
72
330
1F
100
AcDbEntity
  8
0
  6
Continuous
 62
     7
370
    25
100
AcDbLine
 10
7.9031358879
 20
34.6091118385
 30
0.0
 11
7.8958514583
 21
34.610774462
 31
0.0
  0
SPLINE
  5
73
330
1F
100
AcDbEntity
  8
0
  6
Continuous
 62
     7
370
    25
100
AcDbSpline
210
0.0
220
0.0
230
1.0
 70
     8
 71
     3
 72
    17
 73
    13
 74
     0
 42
0.00000001
 43
0.00000001
 40
0.0230106502467868
 40
0.0230106502467868
 40
0.0230106502467868
 40
0.0230106502467868
 40
0.0535415674265747
 40
0.0840724846063626
 40
0.1451343189659384
 40
0.2061961533255142
 40
0.2672579876850901
 40
0.3893816564042417
 40
0.5115053251233934
 40
0.633628993842545
 40
0.7557526625616967
 40
1.0
 40
1.0
 40
1.0
 40
1.0
 10
0.000000000005309
 20
33.48433303726062
 30
0.0
 10
0.1921558661180851
 20
33.47122859153533
 30
0.0
 10
0.5883975917043504
 20
33.46609983051781
 30
0.0
 10
1.295555592896919
 20
33.52740262054636
 30
0.0
 10
2.061719495770251
 20
33.69278697614838
 30
0.0
 10
2.779570716125359
 20
33.92596948537874
 30
0.0
 10
3.535992097927605
 20
34.21026249266616
 30
0.0
 10
4.165721188761962
 20
34.43617562049057
 30
0.0
 10
4.942300224204355
 20
34.63942942262047
 30
0.0
 10
5.683752408921558
 20
34.75622408709746
 30
0.0
 10
6.678619662728274
 20
34.80475915654133
 30
0.0
 10
7.416144456572509
 20
34.72089313043703
 30
0.0
 10
7.895851458274004
 20
34.61077446203231
 30
0.0
  0
SPLINE
  5
74
330
1F
100
AcDbEntity
  8
0
  6
Continuous
 62
     7
370
    25
100
AcDbSpline
210
0.0
220
0.0
230
1.0
 70
     8
 71
     3
 72
    17
 73
    13
 74
     0
 42
0.00000001
 43
0.00000001
 40
0.0230106502467902
 40
0.0230106502467902
 40
0.0230106502467902
 40
0.0230106502467902
 40
0.2672579876850927
 40
0.3893816564042438
 40
0.5115053251233951
 40
0.6336289938425463
 40
0.7557526625616975
 40
0.8168144969212732
 40
0.8778763312808487
 40
0.9389381656404243
 40
0.9694690828202122
 40
1.0
 40
1.0
 40
1.0
 40
1.0
 10
-7.895851458263227
 20
34.61077446203218
 30
0.0
 10
-7.416144456561763
 20
34.7208931304369
 30
0.0
 10
-6.678619662717611
 20
34.80475915654121
 30
0.0
 10
-5.683752408910872
 20
34.75622408709734
 30
0.0
 10
-4.94230022419366
 20
34.63942942262037
 30
0.0
 10
-4.16572118875133
 20
34.43617562049049
 30
0.0
 10
-3.535992097916875
 20
34.21026249266607
 30
0.0
 10
-2.779570716114641
 20
33.92596948537869
 30
0.0
 10
-2.061719495759574
 20
33.69278697614835
 30
0.0
 10
-1.295555592886284
 20
33.52740262054632
 30
0.0
 10
-0.5883975916937237
 20
33.46609983051778
 30
0.0
 10
-0.1921558661074499
 20
33.47122859153529
 30
0.0
 10
0.0000000000053295
 20
33.48433303726058
 30
0.0
  0
LINE
  5
75
330
1F
100
AcDbEntity
  8
0
  6
Continuous
 62
     7
370
    25
100
AcDbLine
 10
-7.8958514583
 20
34.610774462
 30
0.0
 11
-7.9031358879
 21
34.6091118385
 31
0.0
  0
SPLINE
  5
76
330
1F
100
AcDbEntity
  8
0
  6
Continuous
 62
     7
370
    25
100
AcDbSpline
210
0.0
220
0.0
230
1.0
 70
     8
 71
     3
 72
    17
 73
    13
 74
     0
 42
0.00000001
 43
0.00000001
 40
0.0230106502467868
 40
0.0230106502467868
 40
0.0230106502467868
 40
0.0230106502467868
 40
0.0535415674265747
 40
0.0840724846063626
 40
0.1451343189659384
 40
0.2061961533255142
 40
0.2672579876850901
 40
0.3893816564042417
 40
0.5115053251233934
 40
0.633628993842545
 40
0.7557526625616967
 40
1.0
 40
1.0
 40
1.0
 40
1.0
 10
-14.52830762005746
 20
30.16834162905026
 30
0.0
 10
-14.34949536099467
 20
30.23990823710304
 30
0.0
 10
-13.99026861607019
 20
30.40721022458711
 30
0.0
 10
-13.37973955606351
 20
30.76926648762272
 30
0.0
 10
-12.76120731446417
 20
31.25069870221381
 30
0.0
 10
-12.21561981214014
 20
31.77225285518752
 30
0.0
 10
-11.65745780912742
 20
32.35659094160066
 30
0.0
 10
-11.18811153568936
 20
32.83336084918322
 30
0.0
 10
-10.57662652094806
 20
33.35343121280309
 30
0.0
 10
-9.959276491211876
 20
33.78036361571594
 30
0.0
 10
-9.083990645245082
 20
34.25574892629362
 30
0.0
 10
-8.38311566169421
 20
34.50018826294399
 30
0.0
 10
-7.903135887852263
 20
34.60911183851558
 30
0.0
  0
SPLINE
  5
77
330
1F
100
AcDbEntity
  8
0
  6
Continuous
 62
     7
370
    25
100
AcDbSpline
210
0.0
220
0.0
230
1.0
 70
     8
 71
     3
 72
    17
 73
    13
 74
     0
 42
0.00000001
 43
0.00000001
 40
0.0230106502467902
 40
0.0230106502467902
 40
0.0230106502467902
 40
0.0230106502467902
 40
0.2672579876850927
 40
0.3893816564042438
 40
0.5115053251233951
 40
0.6336289938425463
 40
0.7557526625616975
 40
0.8168144969212732
 40
0.8778763312808487
 40
0.9389381656404243
 40
0.9694690828202122
 40
1.0
 40
1.0
 40
1.0
 40
1.0
 10
-22.13096858681635
 20
27.75734873005509
 30
0.0
 10
-21.74654621216262
 20
28.06469928964172
 30
0.0
 10
-21.11844743859395
 20
28.4602599834814
 30
0.0
 10
-20.20104443780986
 20
28.84818812091828
 30
0.0
 10
-19.48234379660918
 20
29.06466381056941
 30
0.0
 10
-18.69448174255198
 20
29.21848347818561
 30
0.0
 10
-18.02909540388144
 20
29.28817199572771
 30
0.0
 10
-17.22423317485507
 20
29.36023178428423
 30
0.0
 10
-16.47629747452772
 20
29.46160557454609
 30
0.0
 10
-15.71425006772812
 20
29.64502547786613
 30
0.0
 10
-15.05052444020958
 20
29.89661793023918
 30
0.0
 10
-14.69574826729974
 20
30.07316162573863
 30
0.0
 10
-14.52830762005765
 20
30.16834162905062
 30
0.0
  0
LINE
  5
78
330
1F
100
AcDbEntity
  8
0
  6
Continuous
 62
     7
370
    25
100
AcDbLine
 10
-22.1309685868
 20
27.7573487301
 30
0.0
 11
-22.1368102458
 21
27.7526901625
 31
0.0
  0
SPLINE
  5
79
330
1F
100
AcDbEntity
  8
0
  6
Continuous
 62
     7
370
    25
100
AcDbSpline
210
0.0
220
0.0
230
1.0
 70
     8
 71
     3
 72
    17
 73
    13
 74
     0
 42
0.00000001
 43
0.00000001
 40
0.0230106502467868
 40
0.0230106502467868
 40
0.0230106502467868
 40
0.0230106502467868
 40
0.0535415674265747
 40
0.0840724846063626
 40
0.1451343189659384
 40
0.2061961533255142
 40
0.2672579876850901
 40
0.3893816564042417
 40
0.5115053251233934
 40
0.633628993842545
 40
0.7557526625616967
 40
1.0
 40
1.0
 40
1.0
 40
1.0
 10
-26.17910573796776
 20
20.87714017077824
 30
0.0
 10
-26.04905304685078
 20
21.01920318817739
 30
0.0
 10
-25.79799054504727
 20
21.32579971371759
 30
0.0
 10
-25.40501319420834
 20
21.91689976653739
 30
0.0
 10
-25.05662051013187
 20
22.61902628563917
 30
0.0
 10
-24.79135702186579
 20
23.32565188591784
 30
0.0
 10
-24.542005227747
 20
24.09429972700626
 30
0.0
 10
-24.32600155731393
 20
24.72749628695106
 30
0.0
 10
-24.00072266981478
 20
25.46137689830157
 30
0.0
 10
-23.62974853975011
 20
26.11388784127108
 30
0.0
 10
-23.04740519809339
 20
26.92196750200443
 30
0.0
 10
-22.5219969109957
 20
27.44629799293413
 30
0.0
 10
-22.13681024578832
 20
27.75269016248011
 30
0.0
  0
SPLINE
  5
7A
330
1F
100
AcDbEntity
  8
0
  6
Continuous
 62
     7
370
    25
100
AcDbSpline
210
0.0
220
0.0
230
1.0
 70
     8
 71
     3
 72
    17
 73
    13
 74
     0
 42
0.00000001
 43
0.00000001
 40
0.0230106502467902
 40
0.0230106502467902
 40
0.0230106502467902
 40
0.0230106502467902
 40
0.2672579876850927
 40
0.3893816564042438
 40
0.5115053251233951
 40
0.6336289938425463
 40
0.7557526625616975
 40
0.8168144969212732
 40
0.8778763312808487
 40
0.9389381656404243
 40
0.9694690828202122
 40
1.0
 40
1.0
 40
1.0
 40
1.0
 10
-31.98277596823221
 20
15.40623966054912
 30
0.0
 10
-31.76977778655737
 20
15.84994756358427
 30
0.0
 10
-31.37550769849542
 20
16.47885727851082
 30
0.0
 10
-30.71727186624871
 20
17.22641469758268
 30
0.0
 10
-30.16367024483927
 20
17.7332850761264
 30
0.0
 10
-29.52057091446722
 20
18.21371234184287
 30
0.0
 10
-28.9513152527622
 20
18.56519983917867
 30
0.0
 10
-28.25742501195781
 20
18.97934009870019
 30
0.0
 10
-27.6275426699374
 20
19.39519186602491
 30
0.0
 10
-27.02054459402628
 20
19.89108746691699
 30
0.0
 10
-26.53171034077247
 20
20.40574419092022
 30
0.0
 10
-26.28866749262806
 20
20.71873617684161
 30
0.0
 10
-26.17910573796774
 20
20.87714017077822
 30
0.0
  0
LINE
  5
7B
330
1F
100
AcDbEntity
  8
0
  6
Continuous
 62
     7
370
    25
100
AcDbLine
 10
-31.9827759682
 20
15.4062396605
 30
0.0
 11
-31.9860178444
 21
15.3995078354
 31
0.0
  0
SPLINE
  5
7C
330
1F
100
AcDbEntity
  8
0
  6
Continuous
 62
     7
370
    25
100
AcDbSpline
210
0.0
220
0.0
230
1.0
 70
     8
 71
     3
 72
    17
 73
    13
 74
     0
 42
0.00000001
 43
0.00000001
 40
0.0230106502467868
 40
0.0230106502467868
 40
0.0230106502467868
 40
0.0230106502467868
 40
0.0535415674265747
 40
0.0840724846063626
 40
0.1451343189659384
 40
0.2061961533255142
 40
0.2672579876850901
 40
0.3893816564042417
 40
0.5115053251233934
 40
0.633628993842545
 40
0.7557526625616967
 40
1.0
 40
1.0
 40
1.0
 40
1.0
 10
-32.64481089881126
 20
7.450965060362717
 30
0.0
 10
-32.5892763061074
 20
7.635387164223766
 30
0.0
 10
-32.49610405498656
 20
8.020553025777248
 30
0.0
 10
-32.39851239719998
 20
8.723622253553875
 30
0.0
 10
-32.38926271448361
 20
9.507378309041577
 30
0.0
 10
-32.45686192736977
 20
10.25911949029577
 30
0.0
 10
-32.56570752306924
 20
11.05983695428477
 30
0.0
 10
-32.64582863168163
 20
11.72404782224855
 30
0.0
 10
-32.6711813443776
 20
12.52638462579669
 30
0.0
 10
-32.62005909014289
 20
13.27523631404622
 30
0.0
 10
-32.44599849358378
 20
14.25596023768035
 30
0.0
 10
-32.20012045790876
 20
14.9563317986693
 30
0.0
 10
-31.98601784438471
 20
15.39950783535771
 30
0.0
  0
SPLINE
  5
7D
330
1F
100
AcDbEntity
  8
0
  6
Continuous
 62
     7
370
    25
100
AcDbSpline
210
0.0
220
0.0
230
1.0
 70
     8
 71
     3
 72
    17
 73
    13
 74
     0
 42
0.00000001
 43
0.00000001
 40
0.0230106502467902
 40
0.0230106502467902
 40
0.0230106502467902
 40
0.0230106502467902
 40
0.2672579876850927
 40
0.3893816564042438
 40
0.5115053251233951
 40
0.6336289938425463
 40
0.7557526625616975
 40
0.8168144969212732
 40
0.8778763312808487
 40
0.9389381656404243
 40
0.9694690828202122
 40
1.0
 40
1.0
 40
1.0
 40
1.0
 10
-35.50000232613326
 20
0.0037358811424296
 30
0.0
 10
-35.50061523956932
 20
0.4959193357096857
 30
0.0
 10
-35.41826386336005
 20
1.233614789610426
 30
0.0
 10
-35.14956687895988
 20
2.192738575280008
 30
0.0
 10
-34.87071186794015
 20
2.88961174788848
 30
0.0
 10
-34.49974897072912
 20
3.601492099676327
 30
0.0
 10
-34.13937205125284
 20
4.165162167247238
 30
0.0
 10
-33.69388727086709
 20
4.839357340238536
 30
0.0
 10
-33.30681420999075
 20
5.487322542020258
 30
0.0
 10
-32.97508887824514
 20
6.197475634967265
 30
0.0
 10
-32.75796561827163
 20
6.873262554561316
 30
0.0
 10
-32.67479371169259
 20
7.260710929498122
 30
0.0
 10
-32.64481089881125
 20
7.450965060362715
 30
0.0
  0
LINE
  5
7E
330
1F
100
AcDbEntity
  8
0
  6
Continuous
 62
     7
370
    25
100
AcDbLine
 10
-35.5000023261
 20
0.0037358811
 30
0.0
 11
-35.5000023261
 21
-0.0037358811
 31
0.0
  0
SPLINE
  5
7F
330
1F
100
AcDbEntity
  8
0
  6
Continuous
 62
     7
370
    25
100
AcDbSpline
210
0.0
220
0.0
230
1.0
 70
     8
 71
     3
 72
    17
 73
    13
 74
     0
 42
0.00000001
 43
0.00000001
 40
0.0230106502467868
 40
0.0230106502467868
 40
0.0230106502467868
 40
0.0230106502467868
 40
0.0535415674265747
 40
0.0840724846063626
 40
0.1451343189659384
 40
0.2061961533255142
 40
0.2672579876850901
 40
0.3893816564042417
 40
0.5115053251233934
 40
0.633628993842545
 40
0.7557526625616967
 40
1.0
 40
1.0
 40
1.0
 40
1.0
 10
-32.64481089881316
 20
-7.450965060346463
 30
0.0
 10
-32.6747937116945
 20
-7.260710929481871
 30
0.0
 10
-32.75796561827352
 20
-6.873262554545073
 30
0.0
 10
-32.97508887824704
 20
-6.197475634951014
 30
0.0
 10
-33.30681420999264
 20
-5.487322542003962
 30
0.0
 10
-33.69388727086901
 20
-4.839357340222202
 30
0.0
 10
-34.13937205125477
 20
-4.165162167230895
 30
0.0
 10
-34.49974897073101
 20
-3.601492099660078
 30
0.0
 10
-34.87071186794206
 20
-2.889611747872168
 30
0.0
 10
-35.14956687896183
 20
-2.19273857526371
 30
0.0
 10
-35.41826386336196
 20
-1.233614789594147
 30
0.0
 10
-35.50061523957126
 20
-0.4959193356933265
 30
0.0
 10
-35.50000232613522
 20
-0.0037358811260379
 30
0.0
  0
SPLINE
  5
80
330
1F
100
AcDbEntity
  8
0
  6
Continuous
 62
     7
370
    25
100
AcDbSpline
210
0.0
220
0.0
230
1.0
 70
     8
 71
     3
 72
    17
 73
    13
 74
     0
 42
0.00000001
 43
0.00000001
 40
0.0230106502467902
 40
0.0230106502467902
 40
0.0230106502467902
 40
0.0230106502467902
 40
0.2672579876850927
 40
0.3893816564042438
 40
0.5115053251233951
 40
0.6336289938425463
 40
0.7557526625616975
 40
0.8168144969212732
 40
0.8778763312808487
 40
0.9389381656404243
 40
0.9694690828202122
 40
1.0
 40
1.0
 40
1.0
 40
1.0
 10
-31.98601784438651
 20
-15.39950783534124
 30
0.0
 10
-32.20012045791059
 20
-14.95633179865288
 30
0.0
 10
-32.44599849358558
 20
-14.25596023766401
 30
0.0
 10
-32.6200590901447
 20
-13.27523631402985
 30
0.0
 10
-32.67118134437943
 20
-12.52638462578032
 30
0.0
 10
-32.64582863168344
 20
-11.72404782223224
 30
0.0
 10
-32.56570752307104
 20
-11.05983695426837
 30
0.0
 10
-32.45686192737163
 20
-10.25911949027939
 30
0.0
 10
-32.38926271448545
 20
-9.507378309025235
 30
0.0
 10
-32.39851239720183
 20
-8.723622253537576
 30
0.0
 10
-32.49610405498844
 20
-8.020553025760961
 30
0.0
 10
-32.58927630610924
 20
-7.63538716420747
 30
0.0
 10
-32.64481089881309
 20
-7.45096506034642
 30
0.0
  0
LINE
  5
81
330
1F
100
AcDbEntity
  8
0
  6
Continuous
 62
     7
370
    25
100
AcDbLine
 10
-31.9860178444
 20
-15.3995078353
 30
0.0
 11
-31.9827759682
 21
-15.4062396605
 31
0.0
  0
SPLINE
  5
82
330
1F
100
AcDbEntity
  8
0
  6
Continuous
 62
     7
370
    25
100
AcDbSpline
210
0.0
220
0.0
230
1.0
 70
     8
 71
     3
 72
    17
 73
    13
 74
     0
 42
0.00000001
 43
0.00000001
 40
0.0230106502467868
 40
0.0230106502467868
 40
0.0230106502467868
 40
0.0230106502467868
 40
0.0535415674265747
 40
0.0840724846063626
 40
0.1451343189659384
 40
0.2061961533255142
 40
0.2672579876850901
 40
0.3893816564042417
 40
0.5115053251233934
 40
0.633628993842545
 40
0.7557526625616967
 40
1.0
 40
1.0
 40
1.0
 40
1.0
 10
-26.17910573797268
 20
-20.87714017076338
 30
0.0
 10
-26.288667492633
 20
-20.71873617682676
 30
0.0
 10
-26.53171034077738
 20
-20.40574419090536
 30
0.0
 10
-27.0205445940312
 20
-19.89108746690214
 30
0.0
 10
-27.62754266994235
 20
-19.39519186601002
 30
0.0
 10
-28.25742501196279
 20
-18.97934009868526
 30
0.0
 10
-28.95131525276719
 20
-18.56519983916374
 30
0.0
 10
-29.52057091447213
 20
-18.21371234182799
 30
0.0
 10
-30.16367024484423
 20
-17.73328507611147
 30
0.0
 10
-30.71727186625369
 20
-17.22641469756777
 30
0.0
 10
-31.37550769850036
 20
-16.47885727849592
 30
0.0
 10
-31.76977778656238
 20
-15.84994756356929
 30
0.0
 10
-31.98277596823722
 20
-15.40623966053411
 30
0.0
  0
SPLINE
  5
83
330
1F
100
AcDbEntity
  8
0
  6
Continuous
 62
     7
370
    25
100
AcDbSpline
210
0.0
220
0.0
230
1.0
 70
     8
 71
     3
 72
    17
 73
    13
 74
     0
 42
0.00000001
 43
0.00000001
 40
0.0230106502467902
 40
0.0230106502467902
 40
0.0230106502467902
 40
0.0230106502467902
 40
0.2672579876850927
 40
0.3893816564042438
 40
0.5115053251233951
 40
0.6336289938425463
 40
0.7557526625616975
 40
0.8168144969212732
 40
0.8778763312808487
 40
0.9389381656404243
 40
0.9694690828202122
 40
1.0
 40
1.0
 40
1.0
 40
1.0
 10
-22.1368102457936
 20
-27.75269016246525
 30
0.0
 10
-22.52199691100097
 20
-27.44629799291931
 30
0.0
 10
-23.04740519809859
 20
-26.92196750198966
 30
0.0
 10
-23.62974853975531
 20
-26.11388784125629
 30
0.0
 10
-24.00072266981999
 20
-25.46137689828677
 30
0.0
 10
-24.32600155731909
 20
-24.7274962869363
 30
0.0
 10
-24.54200522775221
 20
-24.09429972699142
 30
0.0
 10
-24.79135702187099
 20
-23.32565188590303
 30
0.0
 10
-25.05662051013704
 20
-22.61902628562439
 30
0.0
 10
-25.40501319421348
 20
-21.91689976652264
 30
0.0
 10
-25.7979905450524
 20
-21.32579971370285
 30
0.0
 10
-26.0490530468559
 20
-21.01920318816262
 30
0.0
 10
-26.17910573797287
 20
-20.87714017076348
 30
0.0
  0
LINE
  5
84
330
1F
100
AcDbEntity
  8
0
  6
Continuous
 62
     7
370
    25
100
AcDbLine
 10
-22.1368102458
 20
-27.7526901625
 30
0.0
 11
-22.1309685868
 21
-27.75734873
 31
0.0
  0
SPLINE
  5
85
330
1F
100
AcDbEntity
  8
0
  6
Continuous
 62
     7
370
    25
100
AcDbSpline
210
0.0
220
0.0
230
1.0
 70
     8
 71
     3
 72
    17
 73
    13
 74
     0
 42
0.00000001
 43
0.00000001
 40
0.0230106502467868
 40
0.0230106502467868
 40
0.0230106502467868
 40
0.0230106502467868
 40
0.0535415674265747
 40
0.0840724846063626
 40
0.1451343189659384
 40
0.2061961533255142
 40
0.2672579876850901
 40
0.3893816564042417
 40
0.5115053251233934
 40
0.633628993842545
 40
0.7557526625616967
 40
1.0
 40
1.0
 40
1.0
 40
1.0
 10
-14.52830762006518
 20
-30.16834162903897
 30
0.0
 10
-14.69574826730726
 20
-30.07316162572698
 30
0.0
 10
-15.0505244402171
 20
-29.89661793022752
 30
0.0
 10
-15.71425006773564
 20
-29.64502547785449
 30
0.0
 10
-16.47629747453528
 20
-29.46160557453443
 30
0.0
 10
-17.22423317486268
 20
-29.36023178427259
 30
0.0
 10
-18.02909540388907
 20
-29.28817199571609
 30
0.0
 10
-18.69448174255952
 20
-29.21848347817404
 30
0.0
 10
-19.48234379661679
 20
-29.06466381055783
 30
0.0
 10
-20.20104443781748
 20
-28.84818812090673
 30
0.0
 10
-21.11844743860154
 20
-28.46025998346988
 30
0.0
 10
-21.74654621217029
 20
-28.06469928963017
 30
0.0
 10
-22.13096858682406
 20
-27.75734873004353
 30
0.0
  0
SPLINE
  5
86
330
1F
100
AcDbEntity
  8
0
  6
Continuous
 62
     7
370
    25
100
AcDbSpline
210
0.0
220
0.0
230
1.0
 70
     8
 71
     3
 72
    17
 73
    13
 74
     0
 42
0.00000001
 43
0.00000001
 40
0.0230106502467902
 40
0.0230106502467902
 40
0.0230106502467902
 40
0.0230106502467902
 40
0.2672579876850927
 40
0.3893816564042438
 40
0.5115053251233951
 40
0.6336289938425463
 40
0.7557526625616975
 40
0.8168144969212732
 40
0.8778763312808487
 40
0.9389381656404243
 40
0.9694690828202122
 40
1.0
 40
1.0
 40
1.0
 40
1.0
 10
-7.903135887860001
 20
-34.60911183850398
 30
0.0
 10
-8.383115661701918
 20
-34.5001882629324
 30
0.0
 10
-9.083990645252712
 20
-34.25574892628207
 30
0.0
 10
-9.959276491219523
 20
-33.78036361570437
 30
0.0
 10
-10.57662652095572
 20
-33.35343121279153
 30
0.0
 10
-11.18811153569697
 20
-32.83336084917166
 30
0.0
 10
-11.6574578091351
 20
-32.35659094158904
 30
0.0
 10
-12.21561981214781
 20
-31.77225285517593
 30
0.0
 10
-12.7612073144718
 20
-31.25069870220226
 30
0.0
 10
-13.3797395560711
 20
-30.76926648761118
 30
0.0
 10
-13.99026861607777
 20
-30.40721022457557
 30
0.0
 10
-14.34949536100225
 20
-30.2399082370915
 30
0.0
 10
-14.52830762006505
 20
-30.16834162903871
 30
0.0
  0
LINE
  5
87
330
1F
100
AcDbEntity
  8
0
  6
Continuous
 62
     7
370
    25
100
AcDbLine
 10
-7.9031358879
 20
-34.6091118385
 30
0.0
 11
-7.8958514583
 21
-34.610774462
 31
0.0
  0
SPLINE
  5
88
330
1F
100
AcDbEntity
  8
0
  6
Continuous
 62
     7
370
    25
100
AcDbSpline
210
0.0
220
0.0
230
1.0
 70
     8
 71
     3
 72
    17
 73
    13
 74
     0
 42
0.00000001
 43
0.00000001
 40
0.0230106502467868
 40
0.0230106502467868
 40
0.0230106502467868
 40
0.0230106502467868
 40
0.0535415674265747
 40
0.0840724846063626
 40
0.1451343189659384
 40
0.2061961533255142
 40
0.2672579876850901
 40
0.3893816564042417
 40
0.5115053251233934
 40
0.633628993842545
 40
0.7557526625616967
 40
1.0
 40
1.0
 40
1.0
 40
1.0
 10
-0.0000000000030182
 20
-33.48433303725243
 30
0.0
 10
-0.1921558661157951
 20
-33.47122859152714
 30
0.0
 10
-0.5883975917020611
 20
-33.46609983050962
 30
0.0
 10
-1.29555559289463
 20
-33.52740262053819
 30
0.0
 10
-2.061719495767959
 20
-33.69278697614021
 30
0.0
 10
-2.779570716123067
 20
-33.92596948537057
 30
0.0
 10
-3.535992097925312
 20
-34.210262492658
 30
0.0
 10
-4.165721188759666
 20
-34.43617562048242
 30
0.0
 10
-4.942300224202055
 20
-34.63942942261231
 30
0.0
 10
-5.683752408919257
 20
-34.75622408708931
 30
0.0
 10
-6.678619662725972
 20
-34.80475915653319
 30
0.0
 10
-7.416144456570207
 20
-34.72089313042889
 30
0.0
 10
-7.895851458271714
 20
-34.61077446202418
 30
0.0
  0
SPLINE
  5
89
330
1F
100
AcDbEntity
  8
0
  6
Continuous
 62
     7
370
    25
100
AcDbSpline
210
0.0
220
0.0
230
1.0
 70
     8
 71
     3
 72
    17
 73
    13
 74
     0
 42
0.00000001
 43
0.00000001
 40
0.0230106502467902
 40
0.0230106502467902
 40
0.0230106502467902
 40
0.0230106502467902
 40
0.2672579876850927
 40
0.3893816564042438
 40
0.5115053251233951
 40
0.6336289938425463
 40
0.7557526625616975
 40
0.8168144969212732
 40
0.8778763312808487
 40
0.9389381656404243
 40
0.9694690828202122
 40
1.0
 40
1.0
 40
1.0
 40
1.0
 10
7.895851458265513
 20
-34.61077446202403
 30
0.0
 10
7.416144456564048
 20
-34.72089313042875
 30
0.0
 10
6.678619662719896
 20
-34.80475915653307
 30
0.0
 10
5.683752408913156
 20
-34.75622408708918
 30
0.0
 10
4.942300224195946
 20
-34.63942942261222
 30
0.0
 10
4.165721188753617
 20
-34.43617562048232
 30
0.0
 10
3.535992097919163
 20
-34.2102624926579
 30
0.0
 10
2.779570716116933
 20
-33.92596948537052
 30
0.0
 10
2.061719495761866
 20
-33.69278697614016
 30
0.0
 10
1.295555592888576
 20
-33.52740262053815
 30
0.0
 10
0.5883975916960169
 20
-33.46609983050959
 30
0.0
 10
0.192155866109743
 20
-33.4712285915271
 30
0.0
 10
-0.0000000000030366
 20
-33.48433303725238
 30
0.0
  0
LINE
  5
8A
330
1F
100
AcDbEntity
  8
0
  6
Continuous
 62
     7
370
    25
100
AcDbLine
 10
7.8958514583
 20
-34.610774462
 30
0.0
 11
7.9031358879
 21
-34.6091118385
 31
0.0
  0
SPLINE
  5
8B
330
1F
100
AcDbEntity
  8
0
  6
Continuous
 62
     7
370
    25
100
AcDbSpline
210
0.0
220
0.0
230
1.0
 70
     8
 71
     3
 72
    17
 73
    13
 74
     0
 42
0.00000001
 43
0.00000001
 40
0.0230106502467868
 40
0.0230106502467868
 40
0.0230106502467868
 40
0.0230106502467868
 40
0.0535415674265747
 40
0.0840724846063626
 40
0.1451343189659384
 40
0.2061961533255142
 40
0.2672579876850901
 40
0.3893816564042417
 40
0.5115053251233934
 40
0.633628993842545
 40
0.7557526625616967
 40
1.0
 40
1.0
 40
1.0
 40
1.0
 10
14.52830762005987
 20
-30.16834162904242
 30
0.0
 10
14.34949536099708
 20
-30.23990823709519
 30
0.0
 10
13.9902686160726
 20
-30.40721022457926
 30
0.0
 10
13.37973955606591
 20
-30.76926648761487
 30
0.0
 10
12.76120731446658
 20
-31.25069870220594
 30
0.0
 10
12.21561981214255
 20
-31.77225285517965
 30
0.0
 10
11.65745780912983
 20
-32.35659094159281
 30
0.0
 10
11.18811153569177
 20
-32.83336084917537
 30
0.0
 10
10.57662652095047
 20
-33.35343121279522
 30
0.0
 10
9.959276491214291
 20
-33.78036361570809
 30
0.0
 10
9.083990645247496
 20
-34.25574892628579
 30
0.0
 10
8.383115661696626
 20
-34.50018826293615
 30
0.0
 10
7.903135887854678
 20
-34.60911183850773
 30
0.0
  0
SPLINE
  5
8C
330
1F
100
AcDbEntity
  8
0
  6
Continuous
 62
     7
370
    25
100
AcDbSpline
210
0.0
220
0.0
230
1.0
 70
     8
 71
     3
 72
    17
 73
    13
 74
     0
 42
0.00000001
 43
0.00000001
 40
0.0230106502467902
 40
0.0230106502467902
 40
0.0230106502467902
 40
0.0230106502467902
 40
0.2672579876850927
 40
0.3893816564042438
 40
0.5115053251233951
 40
0.6336289938425463
 40
0.7557526625616975
 40
0.8168144969212732
 40
0.8778763312808487
 40
0.9389381656404243
 40
0.9694690828202122
 40
1.0
 40
1.0
 40
1.0
 40
1.0
 10
22.13096858681858
 20
-27.75734873004684
 30
0.0
 10
21.74654621216483
 20
-28.06469928963347
 30
0.0
 10
21.11844743859617
 20
-28.46025998347314
 30
0.0
 10
20.20104443781209
 20
-28.84818812091002
 30
0.0
 10
19.4823437966114
 20
-29.06466381056116
 30
0.0
 10
18.6944817425542
 20
-29.21848347817736
 30
0.0
 10
18.02909540388366
 20
-29.28817199571946
 30
0.0
 10
17.22423317485729
 20
-29.36023178427599
 30
0.0
 10
16.47629747452994
 20
-29.46160557453784
 30
0.0
 10
15.71425006773034
 20
-29.64502547785789
 30
0.0
 10
15.05052444021182
 20
-29.89661793023094
 30
0.0
 10
14.69574826730198
 20
-30.0731616257304
 30
0.0
 10
14.52830762005989
 20
-30.16834162904239
 30
0.0
  0
LINE
  5
8D
330
1F
100
AcDbEntity
  8
0
  6
Continuous
 62
     7
370
    25
100
AcDbLine
 10
22.1309685868
 20
-27.75734873
 30
0.0
 11
22.1368102458
 21
-27.7526901625
 31
0.0
  0
SPLINE
  5
8E
330
1F
100
AcDbEntity
  8
0
  6
Continuous
 62
     7
370
    25
100
AcDbSpline
210
0.0
220
0.0
230
1.0
 70
     8
 71
     3
 72
    17
 73
    13
 74
     0
 42
0.00000001
 43
0.00000001
 40
0.0230106502467868
 40
0.0230106502467868
 40
0.0230106502467868
 40
0.0230106502467868
 40
0.0535415674265747
 40
0.0840724846063626
 40
0.1451343189659384
 40
0.2061961533255142
 40
0.2672579876850901
 40
0.3893816564042417
 40
0.5115053251233934
 40
0.633628993842545
 40
0.7557526625616967
 40
1.0
 40
1.0
 40
1.0
 40
1.0
 10
26.17910573797012
 20
-20.87714017077015
 30
0.0
 10
26.04905304685314
 20
-21.01920318816929
 30
0.0
 10
25.79799054504963
 20
-21.32579971370949
 30
0.0
 10
25.4050131942107
 20
-21.91689976652929
 30
0.0
 10
25.05662051013422
 20
-22.61902628563107
 30
0.0
 10
24.79135702186813
 20
-23.32565188590974
 30
0.0
 10
24.54200522774934
 20
-24.09429972699815
 30
0.0
 10
24.32600155731627
 20
-24.72749628694295
 30
0.0
 10
24.00072266981712
 20
-25.46137689829346
 30
0.0
 10
23.62974853975245
 20
-26.11388784126298
 30
0.0
 10
23.04740519809572
 20
-26.92196750199632
 30
0.0
 10
22.52199691099803
 20
-27.44629799292602
 30
0.0
 10
22.13681024579065
 20
-27.75269016247199
 30
0.0
  0
SPLINE
  5
8F
330
1F
100
AcDbEntity
  8
0
  6
Continuous
 62
     7
370
    25
100
AcDbSpline
210
0.0
220
0.0
230
1.0
 70
     8
 71
     3
 72
    17
 73
    13
 74
     0
 42
0.00000001
 43
0.00000001
 40
0.0230106502467902
 40
0.0230106502467902
 40
0.0230106502467902
 40
0.0230106502467902
 40
0.2672579876850927
 40
0.3893816564042438
 40
0.5115053251233951
 40
0.6336289938425463
 40
0.7557526625616975
 40
0.8168144969212732
 40
0.8778763312808487
 40
0.9389381656404243
 40
0.9694690828202122
 40
1.0
 40
1.0
 40
1.0
 40
1.0
 10
31.9827759682343
 20
-15.40623966054087
 30
0.0
 10
31.76977778655949
 20
-15.84994756357603
 30
0.0
 10
31.37550769849751
 20
-16.47885727850259
 30
0.0
 10
30.71727186625084
 20
-17.22641469757445
 30
0.0
 10
30.16367024484139
 20
-17.73328507611816
 30
0.0
 10
29.52057091446933
 20
-18.21371234183464
 30
0.0
 10
28.95131525276433
 20
-18.56519983917045
 30
0.0
 10
28.25742501195995
 20
-18.97934009869197
 30
0.0
 10
27.62754266993955
 20
-19.39519186601671
 30
0.0
 10
27.02054459402841
 20
-19.89108746690879
 30
0.0
 10
26.5317103407746
 20
-20.40574419091201
 30
0.0
 10
26.2886674926302
 20
-20.71873617683341
 30
0.0
 10
26.17910573796988
 20
-20.87714017077001
 30
0.0
  0
LINE
  5
90
330
1F
100
AcDbEntity
  8
0
  6
Continuous
 62
     7
370
    25
100
AcDbLine
 10
31.9827759682
 20
-15.4062396605
 30
0.0
 11
31.9860178444
 21
-15.3995078353
 31
0.0
  0
SPLINE
  5
91
330
1F
100
AcDbEntity
  8
0
  6
Continuous
 62
     7
370
    25
100
AcDbSpline
210
0.0
220
0.0
230
1.0
 70
     8
 71
     3
 72
    17
 73
    13
 74
     0
 42
0.00000001
 43
0.00000001
 40
0.0230106502467916
 40
0.0230106502467916
 40
0.0230106502467916
 40
0.0230106502467916
 40
0.0535415674265794
 40
0.0840724846063672
 40
0.1451343189659427
 40
0.2061961533255182
 40
0.2672579876850937
 40
0.3893816564042448
 40
0.5115053251233959
 40
0.6336289938425469
 40
0.7557526625616979
 40
1.0
 40
1.0
 40
1.0
 40
1.0
 10
32.64481089881377
 20
-7.450965060354801
 30
0.0
 10
32.58927630610991
 20
-7.635387164215839
 30
0.0
 10
32.49610405498911
 20
-8.0205530257693
 30
0.0
 10
32.3985123972025
 20
-8.723622253545921
 30
0.0
 10
32.38926271448609
 20
-9.507378309033557
 30
0.0
 10
32.45686192737224
 20
-10.25911949028776
 30
0.0
 10
32.56570752307167
 20
-11.05983695427677
 30
0.0
 10
32.64582863168403
 20
-11.72404782224052
 30
0.0
 10
32.67118134437996
 20
-12.52638462578868
 30
0.0
 10
32.62005909014525
 20
-13.27523631403822
 30
0.0
 10
32.4459984935861
 20
-14.2559602376723
 30
0.0
 10
32.20012045791106
 20
-14.95633179866126
 30
0.0
 10
31.986017844387
 20
-15.39950783534965
 30
0.0
  0
MTEXT
  5
93
330
1F
100
AcDbEntity
  8
0
  6
Continuous
 62
     7
100
AcDbMText
 10
-35.5000023261
 20
-35.7988287444
 30
0.0
 40
4.83362
 41
0.0
 71
     1
 72
     1
  1
SOLIDWORKS Educational Product.
  7
SLDTEXTSTYLE0
 73
     1
 44
1.0
  0
MTEXT
  5
94
330
1F
100
AcDbEntity
  8
0
  6
Continuous
 62
     7
100
AcDbMText
 10
-35.5000023261
 20
-43.0492587444
 30
0.0
 40
4.83362
 41
0.0
 71
     1
 72
     1
  1
For Instructional Use Only.
  7
SLDTEXTSTYLE0
 73
     1
 44
1.0
  0
ENDSEC
  0
SECTION
  2
OBJECTS
  0
DICTIONARY
  5
C
330
0
100
AcDbDictionary
281
     1
  3
ACAD_GROUP
350
D
  3
ACAD_LAYOUT
350
1A
  3
ACAD_MLINESTYLE
350
17
  3
ACAD_PLOTSETTINGS
350
19
  3
ACAD_PLOTSTYLENAME
350
E
  3
ACAD_SCALELIST
350
47
  3
DWGPROPS
350
95
  0
DICTIONARY
  5
D
102
{ACAD_REACTORS
330
C
102
}
330
C
100
AcDbDictionary
281
     1
  0
DICTIONARY
  5
1A
102
{ACAD_REACTORS
330
C
102
}
330
C
100
AcDbDictionary
281
     1
  3
Layout1
350
1E
  3
Layout2
350
26
  3
Model
350
22
  0
DICTIONARY
  5
17
102
{ACAD_REACTORS
330
C
102
}
330
C
100
AcDbDictionary
281
     1
  3
Standard
350
18
  0
DICTIONARY
  5
19
102
{ACAD_REACTORS
330
C
102
}
330
C
100
AcDbDictionary
281
     1
  0
ACDBDICTIONARYWDFLT
  5
E
102
{ACAD_REACTORS
330
C
102
}
330
C
100
AcDbDictionary
281
     1
  3
Normal
350
F
100
AcDbDictionaryWithDefault
340
F
  0
DICTIONARY
  5
47
102
{ACAD_REACTORS
330
C
102
}
330
C
100
AcDbDictionary
281
     1
  3
A0
350
48
  3
A1
350
49
  3
A2
350
4A
  3
A3
350
4B
  3
A4
350
4C
  3
A5
350
4D
  3
A6
350
4E
  3
A7
350
4F
  3
A8
350
50
  3
A9
350
51
  3
B0
350
52
  3
B1
350
53
  3
B2
350
54
  3
B3
350
55
  3
B4
350
56
  3
B5
350
57
  3
B6
350
58
  0
XRECORD
  5
95
102
{ACAD_REACTORS
330
C
102
}
330
C
100
AcDbXrecord
280
     1
  1
DWGPROPS COOKIE
  2

  3

  4

  6

  7

  8
dampy
  9

300
=
301
=
302
=
303
=
304
=
305
=
306
=
307
=
308
=
309
=
 40
0.0
 41
2460850.994038623
 42
2460850.994064722
  1

 90
        0
  0
LAYOUT
  5
1E
102
{ACAD_REACTORS
330
1A
102
}
330
1A
100
AcDbPlotSettings
  1

  2
none_device
  4

  6

 40
0.0
 41
0.0
 42
0.0
 43
0.0
 44
0.0
 45
0.0
 46
0.0
 47
0.0
 48
0.0
 49
0.0
140
0.0
141
0.0
142
1.0
143
1.0
 70
   688
 72
     1
 73
     0
 74
     5
  7

 75
    16
147
1.0
148
0.0
149
0.0
100
AcDbLayout
  1
Layout1
 70
     1
 71
     1
 10
0.0
 20
0.0
 11
420.0
 21
297.0
 12
0.0
 22
0.0
 32
0.0
 14
1.0000000000E+20
 24
1.0000000000E+20
 34
1.0000000000E+20
 15
-1.0000000000E+20
 25
-1.0000000000E+20
 35
-1.0000000000E+20
146
0.0
 13
0.0
 23
0.0
 33
0.0
 16
1.0
 26
0.0
 36
0.0
 17
0.0
 27
1.0
 37
0.0
 76
     0
330
1B
  0
LAYOUT
  5
26
102
{ACAD_REACTORS
330
1A
102
}
330
1A
100
AcDbPlotSettings
  1

  2
none_device
  4

  6

 40
0.0
 41
0.0
 42
0.0
 43
0.0
 44
0.0
 45
0.0
 46
0.0
 47
0.0
 48
0.0
 49
0.0
140
0.0
141
0.0
142
1.0
143
1.0
 70
   688
 72
     1
 73
     0
 74
     5
  7

 75
    16
147
1.0
148
0.0
149
0.0
100
AcDbLayout
  1
Layout2
 70
     1
 71
     2
 10
0.0
 20
0.0
 11
0.0
 21
0.0
 12
0.0
 22
0.0
 32
0.0
 14
0.0
 24
0.0
 34
0.0
 15
0.0
 25
0.0
 35
0.0
146
0.0
 13
0.0
 23
0.0
 33
0.0
 16
1.0
 26
0.0
 36
0.0
 17
0.0
 27
1.0
 37
0.0
 76
     0
330
23
  0
LAYOUT
  5
22
102
{ACAD_REACTORS
330
1A
102
}
330
1A
100
AcDbPlotSettings
  1

  2
none_device
  4
ANSI_A_(11.00_x_8.50_Inches)
  6

 40
6.35
 41
19.05
 42
6.35000508
 43
19.05000254
 44
279.4
 45
215.9
 46
133.34999746
 47
88.89999873
 48
0.0
 49
0.0
140
0.0
141
0.0
142
0.1209772639
143
1.0
 70
  1696
 72
     0
 73
     0
 74
     0
  7

 75
     0
147
0.0179189148
148
-1300.4909072572
149
0.0
100
AcDbLayout
  1
Model
 70
     1
 71
     0
 10
0.0
 20
0.0
 11
420.0
 21
297.0
 12
0.0
 22
0.0
 32
0.0
 14
-35.5000023261
 24
-34.7792623527
 34
0.0
 15
35.5000023261
 25
34.7792623527
 35
0.0
146
0.0
 13
0.0
 23
0.0
 33
0.0
 16
1.0
 26
0.0
 36
0.0
 17
0.0
 27
1.0
 37
0.0
 76
     0
330
1F
331
29
  0
MLINESTYLE
  5
18
102
{ACAD_REACTORS
330
17
102
}
330
17
100
AcDbMlineStyle
  2
Standard
 70
     0
  3

 62
   256
 51
90.0
 52
90.0
 71
     2
 49
0.5
 62
   256
  6
BYLAYER
 49
-0.5
 62
   256
  6
BYLAYER
  0
ACDBPLACEHOLDER
  5
F
102
{ACAD_REACTORS
330
E
102
}
330
E
  0
SCALE
  5
48
102
{ACAD_REACTORS
330
47
102
}
330
47
100
AcDbScale
 70
     0
300
1:1
140
1.0
141
1.0
290
     1
  0
SCALE
  5
49
102
{ACAD_REACTORS
330
47
102
}
330
47
100
AcDbScale
 70
     0
300
1:2
140
1.0
141
2.0
290
     0
  0
SCALE
  5
4A
102
{ACAD_REACTORS
330
47
102
}
330
47
100
AcDbScale
 70
     0
300
1:4
140
1.0
141
4.0
290
     0
  0
SCALE
  5
4B
102
{ACAD_REACTORS
330
47
102
}
330
47
100
AcDbScale
 70
     0
300
1:5
140
1.0
141
5.0
290
     0
  0
SCALE
  5
4C
102
{ACAD_REACTORS
330
47
102
}
330
47
100
AcDbScale
 70
     0
300
1:8
140
1.0
141
8.0
290
     0
  0
SCALE
  5
4D
102
{ACAD_REACTORS
330
47
102
}
330
47
100
AcDbScale
 70
     0
300
1:10
140
1.0
141
10.0
290
     0
  0
SCALE
  5
4E
102
{ACAD_REACTORS
330
47
102
}
330
47
100
AcDbScale
 70
     0
300
1:16
140
1.0
141
16.0
290
     0
  0
SCALE
  5
4F
102
{ACAD_REACTORS
330
47
102
}
330
47
100
AcDbScale
 70
     0
300
1:20
140
1.0
141
20.0
290
     0
  0
SCALE
  5
50
102
{ACAD_REACTORS
330
47
102
}
330
47
100
AcDbScale
 70
     0
300
1:30
140
1.0
141
30.0
290
     0
  0
SCALE
  5
51
102
{ACAD_REACTORS
330
47
102
}
330
47
100
AcDbScale
 70
     0
300
1:40
140
1.0
141
40.0
290
     0
  0
SCALE
  5
52
102
{ACAD_REACTORS
330
47
102
}
330
47
100
AcDbScale
 70
     0
300
1:50
140
1.0
141
50.0
290
     0
  0
SCALE
  5
53
102
{ACAD_REACTORS
330
47
102
}
330
47
100
AcDbScale
 70
     0
300
1:100
140
1.0
141
100.0
290
     0
  0
SCALE
  5
54
102
{ACAD_REACTORS
330
47
102
}
330
47
100
AcDbScale
 70
     0
300
2:1
140
2.0
141
1.0
290
     0
  0
SCALE
  5
55
102
{ACAD_REACTORS
330
47
102
}
330
47
100
AcDbScale
 70
     0
300
4:1
140
4.0
141
1.0
290
     0
  0
SCALE
  5
56
102
{ACAD_REACTORS
330
47
102
}
330
47
100
AcDbScale
 70
     0
300
8:1
140
8.0
141
1.0
290
     0
  0
SCALE
  5
57
102
{ACAD_REACTORS
330
47
102
}
330
47
100
AcDbScale
 70
     0
300
10:1
140
10.0
141
1.0
290
     0
  0
SCALE
  5
58
102
{ACAD_REACTORS
330
47
102
}
330
47
100
AcDbScale
 70
     0
300
100:1
140
100.0
141
1.0
290
     0
  0
ENDSEC
  0
EOF
