  0
SECTION
  2
HEADER
  9
$ACADVER
  1
AC1015
  9
$ACADMAINTVER
 70
     6
  9
$DWGCODEPAGE
  3
ANSI_1252
  9
$INSBASE
 10
0.0
 20
0.0
 30
0.0
  9
$EXTMIN
 10
-35.4000024037
 20
-34.6793391364
 30
0.0
  9
$EXTMAX
 10
35.4000024037
 20
34.6793391364
 30
0.0
  9
$LIMMIN
 10
0.0
 20
0.0
  9
$LIMMAX
 10
420.0
 20
297.0
  9
$ORTHOMODE
 70
     0
  9
$REGENMODE
 70
     1
  9
$FILLMODE
 70
     1
  9
$QTEXTMODE
 70
     0
  9
$MIRRTEXT
 70
     1
  9
$LTSCALE
 40
1.0
  9
$ATTMODE
 70
     1
  9
$TEXTSIZE
 40
3.175
  9
$TRACEWID
 40
1.0
  9
$TEXTSTYLE
  7
Standard
  9
$CLAYER
  8
0
  9
$CELTYPE
  6
ByLayer
  9
$CECOLOR
 62
   256
  9
$CELTSCALE
 40
1.0
  9
$DISPSILH
 70
     0
  9
$DIMSCALE
 40
1.0
  9
$DIMASZ
 40
3.302
  9
$DIMEXO
 40
0.0
  9
$DIMDLI
 40
3.75
  9
$DIMRND
 40
0.0
  9
$DIMDLE
 40
0.0
  9
$DIMEXE
 40
3.175
  9
$DIMTP
 40
0.0
  9
$DIMTM
 40
0.0
  9
$DIMTXT
 40
3.175
  9
$DIMCEN
 40
2.5
  9
$DIMTSZ
 40
0.0
  9
$DIMTOL
 70
     0
  9
$DIMLIM
 70
     0
  9
$DIMTIH
 70
     1
  9
$DIMTOH
 70
     1
  9
$DIMSE1
 70
     0
  9
$DIMSE2
 70
     0
  9
$DIMTAD
 70
     0
  9
$DIMZIN
 70
     1
  9
$DIMBLK
  1

  9
$DIMASO
 70
     1
  9
$DIMSHO
 70
     1
  9
$DIMPOST
  1

  9
$DIMAPOST
  1

  9
$DIMALT
 70
     0
  9
$DIMALTD
 70
     3
  9
$DIMALTF
 40
0.0393700787
  9
$DIMLFAC
 40
1.0
  9
$DIMTOFL
 70
     1
  9
$DIMTVP
 40
0.0
  9
$DIMTIX
 70
     0
  9
$DIMSOXD
 70
     0
  9
$DIMSAH
 70
     0
  9
$DIMBLK1
  1

  9
$DIMBLK2
  1

  9
$DIMSTYLE
  2
ISO-25
  9
$DIMCLRD
 70
     0
  9
$DIMCLRE
 70
     0
  9
$DIMCLRT
 70
     0
  9
$DIMTFAC
 40
1.0
  9
$DIMGAP
 40
1.524
  9
$DIMJUST
 70
     0
  9
$DIMSD1
 70
     0
  9
$DIMSD2
 70
     0
  9
$DIMTOLJ
 70
     0
  9
$DIMTZIN
 70
     1
  9
$DIMALTZ
 70
     0
  9
$DIMALTTZ
 70
     0
  9
$DIMUPT
 70
     0
  9
$DIMDEC
 70
     2
  9
$DIMTDEC
 70
     2
  9
$DIMALTU
 70
     2
  9
$DIMALTTD
 70
     3
  9
$DIMTXSTY
  7
Standard
  9
$DIMAUNIT
 70
     0
  9
$DIMADEC
 70
     2
  9
$DIMALTRND
 40
0.0
  9
$DIMAZIN
 70
     0
  9
$DIMDSEP
 70
    44
  9
$DIMATFIT
 70
     3
  9
$DIMFRAC
 70
     0
  9
$DIMLDRBLK
  1

  9
$DIMLUNIT
 70
     2
  9
$DIMLWD
 70
    -2
  9
$DIMLWE
 70
    -2
  9
$DIMTMOVE
 70
     0
  9
$LUNITS
 70
     2
  9
$LUPREC
 70
     6
  9
$SKETCHINC
 40
1.0
  9
$FILLETRAD
 40
0.0
  9
$AUNITS
 70
     0
  9
$AUPREC
 70
     2
  9
$MENU
  1
.
  9
$ELEVATION
 40
0.0
  9
$PELEVATION
 40
0.0
  9
$THICKNESS
 40
0.0
  9
$LIMCHECK
 70
     0
  9
$CHAMFERA
 40
0.0
  9
$CHAMFERB
 40
0.0
  9
$CHAMFERC
 40
0.0
  9
$CHAMFERD
 40
0.0
  9
$SKPOLY
 70
     0
  9
$TDCREATE
 40
2460850.832400671
  9
$TDUCREATE
 40
2460850.999067338
  9
$TDUPDATE
 40
2460850.832426736
  9
$TDUUPDATE
 40
2460850.999093403
  9
$TDINDWG
 40
0.0000000116
  9
$TDUSRTIMER
 40
0.0000000116
  9
$USRTIMER
 70
     1
  9
$ANGBASE
 50
0.0
  9
$ANGDIR
 70
     0
  9
$PDMODE
 70
     0
  9
$PDSIZE
 40
-1.0
  9
$PLINEWID
 40
0.0
  9
$SPLFRAME
 70
     0
  9
$SPLINETYPE
 70
     6
  9
$SPLINESEGS
 70
     8
  9
$HANDSEED
  5
96
  9
$SURFTAB1
 70
     6
  9
$SURFTAB2
 70
     6
  9
$SURFTYPE
 70
     6
  9
$SURFU
 70
     6
  9
$SURFV
 70
     6
  9
$UCSBASE
  2

  9
$UCSNAME
  2

  9
$UCSORG
 10
0.0
 20
0.0
 30
0.0
  9
$UCSXDIR
 10
1.0
 20
0.0
 30
0.0
  9
$UCSYDIR
 10
0.0
 20
1.0
 30
0.0
  9
$UCSORTHOREF
  2

  9
$UCSORTHOVIEW
 70
     0
  9
$UCSORGTOP
 10
0.0
 20
0.0
 30
0.0
  9
$UCSORGBOTTOM
 10
0.0
 20
0.0
 30
0.0
  9
$UCSORGLEFT
 10
0.0
 20
0.0
 30
0.0
  9
$UCSORGRIGHT
 10
0.0
 20
0.0
 30
0.0
  9
$UCSORGFRONT
 10
0.0
 20
0.0
 30
0.0
  9
$UCSORGBACK
 10
0.0
 20
0.0
 30
0.0
  9
$PUCSBASE
  2

  9
$PUCSNAME
  2

  9
$PUCSORG
 10
0.0
 20
0.0
 30
0.0
  9
$PUCSXDIR
 10
1.0
 20
0.0
 30
0.0
  9
$PUCSYDIR
 10
0.0
 20
1.0
 30
0.0
  9
$PUCSORTHOREF
  2

  9
$PUCSORTHOVIEW
 70
     0
  9
$PUCSORGTOP
 10
0.0
 20
0.0
 30
0.0
  9
$PUCSORGBOTTOM
 10
0.0
 20
0.0
 30
0.0
  9
$PUCSORGLEFT
 10
0.0
 20
0.0
 30
0.0
  9
$PUCSORGRIGHT
 10
0.0
 20
0.0
 30
0.0
  9
$PUCSORGFRONT
 10
0.0
 20
0.0
 30
0.0
  9
$PUCSORGBACK
 10
0.0
 20
0.0
 30
0.0
  9
$USERI1
 70
     0
  9
$USERI2
 70
     0
  9
$USERI3
 70
     0
  9
$USERI4
 70
     0
  9
$USERI5
 70
     0
  9
$USERR1
 40
0.0
  9
$USERR2
 40
0.0
  9
$USERR3
 40
0.0
  9
$USERR4
 40
0.0
  9
$USERR5
 40
0.0
  9
$WORLDVIEW
 70
     1
  9
$SHADEDGE
 70
     3
  9
$SHADEDIF
 70
    70
  9
$TILEMODE
 70
     1
  9
$MAXACTVP
 70
    64
  9
$PINSBASE
 10
0.0
 20
0.0
 30
0.0
  9
$PLIMCHECK
 70
     0
  9
$PEXTMIN
 10
1.0000000000E+20
 20
1.0000000000E+20
 30
1.0000000000E+20
  9
$PEXTMAX
 10
-1.0000000000E+20
 20
-1.0000000000E+20
 30
-1.0000000000E+20
  9
$PLIMMIN
 10
0.0
 20
0.0
  9
$PLIMMAX
 10
420.0
 20
297.0
  9
$UNITMODE
 70
     0
  9
$VISRETAIN
 70
     1
  9
$PLINEGEN
 70
     0
  9
$PSLTSCALE
 70
     1
  9
$TREEDEPTH
 70
  3020
  9
$CMLSTYLE
  2
Standard
  9
$CMLJUST
 70
     0
  9
$CMLSCALE
 40
20.0
  9
$PROXYGRAPHICS
 70
     1
  9
$MEASUREMENT
 70
     1
  9
$CELWEIGHT
370
    -1
  9
$ENDCAPS
280
     0
  9
$JOINSTYLE
280
     0
  9
$LWDISPLAY
290
     1
  9
$INSUNITS
 70
     4
  9
$HYPERLINKBASE
  1

  9
$STYLESHEET
  1

  9
$XEDIT
290
     1
  9
$CEPSNTYPE
380
     0
  9
$PSTYLEMODE
290
     1
  9
$FINGERPRINTGUID
  2
{4e34a88f-7c60-4088-be93-a04a77924e56}
  9
$VERSIONGUID
  2
{FAEB1C32-E019-11D5-929B-00C0DF256EC4}
  9
$EXTNAMES
290
     1
  9
$PSVPSCALE
 40
0.0
  9
$OLESTARTUP
290
     0
  0
ENDSEC
  0
SECTION
  2
CLASSES
  0
CLASS
  1
ACDBDICTIONARYWDFLT
  2
AcDbDictionaryWithDefault
  3
ObjectDBX Classes
 90
        0
280
     0
281
     0
  0
CLASS
  1
VISUALSTYLE
  2
AcDbVisualStyle
  3
ObjectDBX Classes
 90
     4095
280
     0
281
     0
  0
CLASS
  1
MATERIAL
  2
AcDbMaterial
  3
ObjectDBX Classes
 90
     1153
280
     0
281
     0
  0
CLASS
  1
SCALE
  2
AcDbScale
  3
ObjectDBX Classes
 90
     1153
280
     0
281
     0
  0
CLASS
  1
TABLESTYLE
  2
AcDbTableStyle
  3
ObjectDBX Classes
 90
     4095
280
     0
281
     0
  0
CLASS
  1
MLEADERSTYLE
  2
AcDbMLeaderStyle
  3
ACDB_MLEADERSTYLE_CLASS
 90
     4095
280
     0
281
     0
  0
CLASS
  1
SUN
  2
AcDbSun
  3
SCENEOE
 90
     1153
280
     0
281
     0
  0
CLASS
  1
ACDBPLACEHOLDER
  2
AcDbPlaceHolder
  3
ObjectDBX Classes
 90
        0
280
     0
281
     0
  0
CLASS
  1
LAYOUT
  2
AcDbLayout
  3
ObjectDBX Classes
 90
        0
280
     0
281
     0
  0
ENDSEC
  0
SECTION
  2
TABLES
  0
TABLE
  2
VPORT
  5
8
330
0
100
AcDbSymbolTable
 70
     1
  0
VPORT
  5
29
330
8
100
AcDbSymbolTableRecord
100
AcDbViewportTableRecord
  2
*Active
 70
     0
 10
0.0
 20
0.0
 11
1.0
 21
1.0
 12
0.0
 22
0.0
 13
0.0
 23
0.0
 14
10.0
 24
10.0
 15
10.0
 25
10.0
 16
0.0
 26
0.0
 36
1.0
 17
0.0
 27
0.0
 37
0.0
 40
70.7458518383
 41
1.020780767
 42
50.0
 43
0.0
 44
0.0
 50
0.0
 51
0.0
 71
     0
 72
   100
 73
     1
 74
     3
 75
     0
 76
     0
 77
     0
 78
     0
281
     0
 65
     1
110
0.0
120
0.0
130
0.0
111
1.0
121
0.0
131
0.0
112
0.0
122
1.0
132
0.0
 79
     0
146
0.0
  0
ENDTAB
  0
TABLE
  2
LTYPE
  5
5
330
0
100
AcDbSymbolTable
 70
     6
  0
LTYPE
  5
14
330
5
100
AcDbSymbolTableRecord
100
AcDbLinetypeTableRecord
  2
ByBlock
 70
     0
  3

 72
    65
 73
     0
 40
0.0
  0
LTYPE
  5
15
330
5
100
AcDbSymbolTableRecord
100
AcDbLinetypeTableRecord
  2
ByLayer
 70
     0
  3

 72
    65
 73
     0
 40
0.0
  0
LTYPE
  5
16
330
5
100
AcDbSymbolTableRecord
100
AcDbLinetypeTableRecord
  2
Continuous
 70
     0
  3
Solid line
 72
    65
 73
     0
 40
0.0
  0
LTYPE
  5
5E
330
5
100
AcDbSymbolTableRecord
100
AcDbLinetypeTableRecord
  2
HIDDEN
 70
     0
  3
Hidden __ __ __ __ __ __ __ __ __ __ __ __ __ __
 72
    65
 73
     2
 40
1.905
 49
1.27
 74
     0
 49
-0.635
 74
     0
  0
LTYPE
  5
5F
330
5
100
AcDbSymbolTableRecord
100
AcDbLinetypeTableRecord
  2
PHANTOM
 70
     0
  3
Phantom ______  __  __  ______  __  __  ______
 72
    65
 73
     6
 40
12.7
 49
6.35
 74
     0
 49
-1.27
 74
     0
 49
1.27
 74
     0
 49
-1.27
 74
     0
 49
1.27
 74
     0
 49
-1.27
 74
     0
  0
LTYPE
  5
60
330
5
100
AcDbSymbolTableRecord
100
AcDbLinetypeTableRecord
  2
CENTER
 70
     0
  3
Center ____ _ ____ _ ____ _ ____ _ ____ _ ____
 72
    65
 73
     4
 40
10.16
 49
6.35
 74
     0
 49
-1.27
 74
     0
 49
1.27
 74
     0
 49
-1.27
 74
     0
  0
LTYPE
  5
61
330
5
100
AcDbSymbolTableRecord
100
AcDbLinetypeTableRecord
  2
CENTERX2
 70
     0
  3
Center (2x) ________  __  ________  __  _____
 72
    65
 73
     4
 40
20.32
 49
12.7
 74
     0
 49
-2.54
 74
     0
 49
2.54
 74
     0
 49
-2.54
 74
     0
  0
LTYPE
  5
62
330
5
100
AcDbSymbolTableRecord
100
AcDbLinetypeTableRecord
  2
DOT2
 70
     0
  3
Dot (.5x) ........................................
 72
    65
 73
     2
 40
0.635
 49
0.0
 74
     0
 49
-0.635
 74
     0
  0
ENDTAB
  0
TABLE
  2
LAYER
  5
2
330
0
100
AcDbSymbolTable
 70
     1
  0
LAYER
  5
10
330
2
100
AcDbSymbolTableRecord
100
AcDbLayerTableRecord
  2
0
 70
     0
 62
     7
  6
Continuous
370
    -3
390
F
  0
ENDTAB
  0
TABLE
  2
STYLE
  5
3
330
0
100
AcDbSymbolTable
 70
     2
  0
STYLE
  5
11
330
3
100
AcDbSymbolTableRecord
100
AcDbTextStyleTableRecord
  2
Standard
 70
     0
 40
0.0
 41
1.0
 50
0.0
 71
     0
 42
3.175
  3
txt
  4

  0
STYLE
  5
92
330
3
100
AcDbSymbolTableRecord
100
AcDbTextStyleTableRecord
  2
SLDTEXTSTYLE0
 70
     0
 40
0.0
 41
0.7
 50
0.0
 71
     0
 42
3.175
  3
TXT
  4

  0
ENDTAB
  0
TABLE
  2
VIEW
  5
6
330
0
100
AcDbSymbolTable
 70
     0
  0
ENDTAB
  0
TABLE
  2
UCS
  5
7
330
0
100
AcDbSymbolTable
 70
     0
  0
ENDTAB
  0
TABLE
  2
APPID
  5
9
330
0
100
AcDbSymbolTable
 70
     1
  0
APPID
  5
12
330
9
100
AcDbSymbolTableRecord
100
AcDbRegAppTableRecord
  2
ACAD
 70
     0
  0
ENDTAB
  0
TABLE
  2
DIMSTYLE
  5
A
330
0
100
AcDbSymbolTable
 70
     1
100
AcDbDimStyleTable
  0
DIMSTYLE
105
27
330
A
100
AcDbSymbolTableRecord
100
AcDbDimStyleTableRecord
  2
ISO-25
 70
     0
 41
2.5
 42
0.625
 43
3.75
 44
1.25
 73
     0
 74
     0
 77
     1
 78
     8
140
2.5
141
2.5
143
0.0393700787
147
0.625
171
     3
172
     1
178
     0
271
     2
272
     2
274
     3
278
    44
283
     0
284
     8
340
11
  0
ENDTAB
  0
TABLE
  2
BLOCK_RECORD
  5
1
330
0
100
AcDbSymbolTable
 70
     1
  0
BLOCK_RECORD
  5
1F
330
1
100
AcDbSymbolTableRecord
100
AcDbBlockTableRecord
  2
*Model_Space
340
22
  0
BLOCK_RECORD
  5
1B
330
1
100
AcDbSymbolTableRecord
100
AcDbBlockTableRecord
  2
*Paper_Space
340
1E
  0
BLOCK_RECORD
  5
23
330
1
100
AcDbSymbolTableRecord
100
AcDbBlockTableRecord
  2
*Paper_Space0
340
26
  0
ENDTAB
  0
ENDSEC
  0
SECTION
  2
BLOCKS
  0
BLOCK
  5
20
330
1F
100
AcDbEntity
  8
0
100
AcDbBlockBegin
  2
*Model_Space
 70
     0
 10
0.0
 20
0.0
 30
0.0
  3
*Model_Space
  1

  0
ENDBLK
  5
21
330
1F
100
AcDbEntity
  8
0
100
AcDbBlockEnd
  0
BLOCK
  5
1C
330
1B
100
AcDbEntity
 67
     1
  8
0
100
AcDbBlockBegin
  2
*Paper_Space
 70
     0
 10
0.0
 20
0.0
 30
0.0
  3
*Paper_Space
  1

  0
ENDBLK
  5
1D
330
1B
100
AcDbEntity
 67
     1
  8
0
100
AcDbBlockEnd
  0
BLOCK
  5
24
330
23
100
AcDbEntity
  8
0
100
AcDbBlockBegin
  2
*Paper_Space0
 70
     0
 10
0.0
 20
0.0
 30
0.0
  3
*Paper_Space0
  1

  0
ENDBLK
  5
25
330
23
100
AcDbEntity
  8
0
100
AcDbBlockEnd
  0
ENDSEC
  0
SECTION
  2
ENTITIES
  0
CIRCLE
  5
63
330
1F
100
AcDbEntity
  8
0
  6
Continuous
 62
     7
370
    25
100
AcDbCircle
 10
0.0
 20
0.0
 30
0.0
 40
10.328125
  0
CIRCLE
  5
64
330
1F
100
AcDbEntity
  8
0
  6
Continuous
 62
     7
370
    25
100
AcDbCircle
 10
22.5
 20
0.0
 30
0.0
 40
5.874999999999999
  0
CIRCLE
  5
65
330
1F
100
AcDbEntity
  8
0
  6
Continuous
 62
     7
370
    25
100
AcDbCircle
 10
-22.5
 20
0.0
 30
0.0
 40
5.874999999999999
  0
CIRCLE
  5
66
330
1F
100
AcDbEntity
  8
0
  6
Continuous
 62
     7
370
    25
100
AcDbCircle
 10
0.0
 20
-22.5
 30
0.0
 40
5.875000000000004
  0
CIRCLE
  5
67
330
1F
100
AcDbEntity
  8
0
  6
Continuous
 62
     7
370
    25
100
AcDbCircle
 10
0.0
 20
22.5
 30
0.0
 40
5.875
  0
SPLINE
  5
68
330
1F
100
AcDbEntity
  8
0
  6
Continuous
 62
     7
370
    25
100
AcDbSpline
210
0.0
220
0.0
230
1.0
 70
     8
 71
     3
 72
    20
 73
    16
 74
     0
 42
0.00000001
 43
0.00000001
 40
0.0
 40
0.0
 40
0.0
 40
0.0
 40
0.2499999999999995
 40
0.2499999999999995
 40
0.3749999999999996
 40
0.3749999999999996
 40
0.4999999999999997
 40
0.4999999999999997
 40
0.6249999999999998
 40
0.6249999999999998
 40
0.7499999999999998
 40
0.7499999999999998
 40
0.8749999999999999
 40
0.8749999999999999
 40
1.0
 40
1.0
 40
1.0
 40
1.0
 10
-32.54709602672043
 20
-7.428662278439634
 30
0.0
 10
-32.35226811192691
 20
-8.078739229947574
 30
0.0
 10
-32.28358488546527
 20
-8.740517961638881
 30
0.0
 10
-32.30882788488189
 20
-9.745084792905335
 30
0.0
 10
-32.33925528790302
 20
-10.08214296364508
 30
0.0
 10
-32.42022317744203
 20
-10.75194840104941
 30
0.0
 10
-32.4697981571565
 20
-11.08594931603707
 30
0.0
 10
-32.54143195621077
 20
-11.75668066754486
 30
0.0
 10
-32.56136630067745
 20
-12.09512143535831
 30
0.0
 10
-32.55741065507736
 20
-12.76899959707992
 30
0.0
 10
-32.53322091617337
 20
-13.10261883819387
 30
0.0
 10
-32.43546824674328
 20
-13.76247789924923
 30
0.0
 10
-32.36273189632887
 20
-14.0888412615945
 30
0.0
 10
-32.16660648220539
 20
-14.73399732510944
 30
0.0
 10
-32.043349604928
 20
-15.05095325768141
 30
0.0
 10
-31.89592088358372
 20
-15.35611943638407
 30
0.0
  0
LINE
  5
69
330
1F
100
AcDbEntity
  8
0
  6
Continuous
 62
     7
370
    25
100
AcDbLine
 10
-31.8959209576
 20
-15.3561194615
 30
0.0
 11
-31.89262512
 21
-15.3629635174
 31
0.0
  0
SPLINE
  5
6A
330
1F
100
AcDbEntity
  8
0
  6
Continuous
 62
     7
370
    25
100
AcDbSpline
210
0.0
220
0.0
230
1.0
 70
     8
 71
     3
 72
    18
 73
    14
 74
     0
 42
0.00000001
 43
0.00000001
 40
0.0
 40
0.0
 40
0.0
 40
0.0
 40
0.1250000000000008
 40
0.1250000000000008
 40
0.2500000000000009
 40
0.2500000000000009
 40
0.500000000000001
 40
0.500000000000001
 40
0.6250000000000006
 40
0.6250000000000006
 40
0.7500000000000001
 40
0.7500000000000001
 40
1.0
 40
1.0
 40
1.0
 40
1.0
 10
-31.89262512003699
 20
-15.3629635173513
 30
0.0
 10
-31.74684796548964
 20
-15.66663970390856
 30
0.0
 10
-31.57864723413445
 20
-15.95633290787064
 30
0.0
 10
-31.19956339432831
 20
-16.50910327049728
 30
0.0
 10
-30.98771576123608
 20
-16.77284920737728
 30
0.0
 10
-30.30655086254374
 20
-17.50483374854019
 30
0.0
 10
-29.78309055521185
 20
-17.91796850588907
 30
0.0
 10
-28.93216770255476
 20
-18.46176873798129
 30
0.0
 10
-28.63950064252095
 20
-18.63181031897069
 30
0.0
 10
-28.06501061313315
 20
-18.98537954497986
 30
0.0
 10
-27.78389623268244
 20
-19.16978841421675
 30
0.0
 10
-26.98127637932211
 20
-19.77365982798748
 30
0.0
 10
-26.4984610256879
 20
-20.24123866380745
 30
0.0
 10
-26.10074449469128
 20
-20.81464916452852
 30
0.0
  0
SPLINE
  5
6B
330
1F
100
AcDbEntity
  8
0
  6
Continuous
 62
     7
370
    25
100
AcDbSpline
210
0.0
220
0.0
230
1.0
 70
     8
 71
     3
 72
    20
 73
    16
 74
     0
 42
0.00000001
 43
0.00000001
 40
0.0
 40
0.0
 40
0.0
 40
0.0
 40
0.2500000000000005
 40
0.2500000000000005
 40
0.3750000000000004
 40
0.3750000000000004
 40
0.5000000000000004
 40
0.5000000000000004
 40
0.6250000000000003
 40
0.6250000000000003
 40
0.7500000000000002
 40
0.7500000000000002
 40
0.8750000000000002
 40
0.8750000000000002
 40
1.0
 40
1.0
 40
1.0
 40
1.0
 10
-26.10074449469127
 20
-20.8146491645285
 30
0.0
 10
-25.64315279042988
 20
-21.31581559542309
 30
0.0
 10
-25.29413631106642
 20
-21.88225709500504
 30
0.0
 10
-24.88101425473022
 20
-22.79829306267668
 30
0.0
 10
-24.76218433816278
 20
-23.11517393657971
 30
0.0
 10
-24.54451619827503
 20
-23.75377843389431
 30
0.0
 10
-24.44426414576115
 20
-24.07621263771425
 30
0.0
 10
-24.21778454186299
 20
-24.71160144472958
 30
0.0
 10
-24.08890081982082
 20
-25.02517522807242
 30
0.0
 10
-23.79295212976514
 20
-25.63060218223934
 30
0.0
 10
-23.62640596431385
 20
-25.9206871978523
 30
0.0
 10
-23.25203173570166
 20
-26.47278637534524
 30
0.0
 10
-23.04489479244815
 20
-26.73527048475458
 30
0.0
 10
-22.58826917496645
 20
-27.23144038490377
 30
0.0
 10
-22.33969654062474
 20
-27.46352865786308
 30
0.0
 10
-22.0744612097912
 20
-27.67450695954073
 30
0.0
  0
LINE
  5
6C
330
1F
100
AcDbEntity
  8
0
  6
Continuous
 62
     7
370
    25
100
AcDbLine
 10
-22.0744612656
 20
-27.6745070142
 30
0.0
 11
-22.068522294
 21
-27.6792432852
 31
0.0
  0
SPLINE
  5
6D
330
1F
100
AcDbEntity
  8
0
  6
Continuous
 62
     7
370
    25
100
AcDbSpline
210
0.0
220
0.0
230
1.0
 70
     8
 71
     3
 72
    18
 73
    14
 74
     0
 42
0.00000001
 43
0.00000001
 40
0.0
 40
0.0
 40
0.0
 40
0.0
 40
0.1249999999999994
 40
0.1249999999999994
 40
0.2499999999999988
 40
0.2499999999999988
 40
0.4999999999999988
 40
0.4999999999999988
 40
0.6249999999999987
 40
0.6249999999999987
 40
0.7499999999999988
 40
0.7499999999999988
 40
1.0
 40
1.0
 40
1.0
 40
1.0
 10
-22.0685222939994
 20
-27.6792432852112
 30
0.0
 10
-21.80542145679654
 20
-27.88959573832958
 30
0.0
 10
-21.52818466375521
 20
-28.07762073409954
 30
0.0
 10
-20.94680385395545
 20
-28.41117130807102
 30
0.0
 10
-20.64150065853015
 20
-28.55688094306636
 30
0.0
 10
-19.71019610120495
 20
-28.92082985323964
 30
0.0
 10
-19.05932220743867
 20
-29.06593049243469
 30
0.0
 10
-18.05672113017523
 20
-29.18667598289653
 30
0.0
 10
-17.71925894345927
 20
-29.21289467529287
 30
0.0
 10
-17.04825337424303
 20
-29.28218765853881
 30
0.0
 10
-16.71496605942644
 20
-29.32636335017656
 30
0.0
 10
-15.72982057183567
 20
-29.52218899113382
 30
0.0
 10
-15.09194411564832
 20
-29.73397723455913
 30
0.0
 10
-14.48482041086815
 20
-30.07803950865878
 30
0.0
  0
SPLINE
  5
6E
330
1F
100
AcDbEntity
  8
0
  6
Continuous
 62
     7
370
    25
100
AcDbSpline
210
0.0
220
0.0
230
1.0
 70
     8
 71
     3
 72
    20
 73
    16
 74
     0
 42
0.00000001
 43
0.00000001
 40
0.0
 40
0.0
 40
0.0
 40
0.0
 40
0.2499999999999993
 40
0.2499999999999993
 40
0.3749999999999994
 40
0.3749999999999994
 40
0.4999999999999996
 40
0.4999999999999996
 40
0.6249999999999997
 40
0.6249999999999997
 40
0.7499999999999998
 40
0.7499999999999998
 40
0.8749999999999999
 40
0.8749999999999999
 40
1.0
 40
1.0
 40
1.0
 40
1.0
 10
-14.48482041086815
 20
-30.07803950865879
 30
0.0
 10
-13.85509656616116
 20
-30.33103326089804
 30
0.0
 10
-13.29487382803951
 20
-30.68994684242926
 30
0.0
 10
-12.52521060581674
 20
-31.33601978866502
 30
0.0
 10
-12.28065909199003
 20
-31.56996122236604
 30
0.0
 10
-11.80746676730462
 20
-32.05088132692769
 30
0.0
 10
-11.57724383107348
 20
-32.29788677111748
 30
0.0
 10
-11.09750788736515
 20
-32.77208648787898
 30
0.0
 10
-10.84533310061975
 20
-32.99868615323034
 30
0.0
 10
-10.31600763374676
 20
-33.41574966649561
 30
0.0
 10
-10.04009155237056
 20
-33.60484556160629
 30
0.0
 10
-9.463245171951659
 20
-33.93983484238277
 30
0.0
 10
-9.162733647838285
 20
-34.08645150183163
 30
0.0
 10
-8.53604813068606
 20
-34.33536270476681
 30
0.0
 10
-8.211392598054887
 20
-34.43661538927812
 30
0.0
 10
-7.880883767901456
 20
-34.51161897380448
 30
0.0
  0
LINE
  5
6F
330
1F
100
AcDbEntity
  8
0
  6
Continuous
 62
     7
370
    25
100
AcDbLine
 10
-7.8808837944
 20
-34.5116190473
 30
0.0
 11
-7.873477975
 21
-34.5133094568
 31
0.0
  0
SPLINE
  5
70
330
1F
100
AcDbEntity
  8
0
  6
Continuous
 62
     7
370
    25
100
AcDbSpline
210
0.0
220
0.0
230
1.0
 70
     8
 71
     3
 72
    18
 73
    14
 74
     0
 42
0.00000001
 43
0.00000001
 40
0.0
 40
0.0
 40
0.0
 40
0.0
 40
0.1250000000000001
 40
0.1250000000000001
 40
0.2500000000000001
 40
0.2500000000000001
 40
0.4999999999999999
 40
0.4999999999999999
 40
0.6249999999999998
 40
0.6249999999999998
 40
0.7499999999999997
 40
0.7499999999999997
 40
1.0
 40
1.0
 40
1.0
 40
1.0
 10
-7.873477974970072
 20
-34.51330945679178
 30
0.0
 10
-7.545163802639587
 20
-34.58867529332782
 30
0.0
 10
-7.213801094859928
 20
-34.63779142451832
 30
0.0
 10
-6.545272914614748
 20
-34.68605842793048
 30
0.0
 10
-6.206983199008079
 20
-34.68487218081902
 30
0.0
 10
-5.209995272328362
 20
-34.60870091480259
 30
0.0
 10
-4.560621349232115
 20
-34.45702847470865
 30
0.0
 10
-3.604919486809016
 20
-34.13080409830785
 30
0.0
 10
-3.289500698191894
 20
-34.00800696853091
 30
0.0
 10
-2.654880471473409
 20
-33.77929938385942
 30
0.0
 10
-2.335431862490934
 20
-33.67449236039
 30
0.0
 10
-1.362880886503273
 20
-33.42348655869897
 30
0.0
 10
-0.6962825829519016
 20
-33.33753695070744
 30
0.0
 10
-0.000000000003631
 20
-33.38410524515423
 30
0.0
  0
SPLINE
  5
71
330
1F
100
AcDbEntity
  8
0
  6
Continuous
 62
     7
370
    25
100
AcDbSpline
210
0.0
220
0.0
230
1.0
 70
     8
 71
     3
 72
    20
 73
    16
 74
     0
 42
0.00000001
 43
0.00000001
 40
0.0
 40
0.0
 40
0.0
 40
0.0
 40
0.25
 40
0.25
 40
0.375
 40
0.375
 40
0.5
 40
0.5
 40
0.625
 40
0.625
 40
0.75
 40
0.75
 40
0.875
 40
0.875
 40
1.0
 40
1.0
 40
1.0
 40
1.0
 10
-0.000000000003631
 20
-33.38410524515423
 30
0.0
 10
0.6771314546514242
 20
-33.33881780334266
 30
0.0
 10
1.337601467567984
 20
-33.41911623021596
 30
0.0
 10
2.311364615220065
 20
-33.66726348445171
 30
0.0
 10
2.633201299766466
 20
-33.7719305079038
 30
0.0
 10
3.268196266025296
 20
-33.99991409490765
 30
0.0
 10
3.582791609955631
 20
-34.122568321923
 30
0.0
 10
4.220766306251023
 20
-34.34165787884799
 30
0.0
 10
4.54628584846597
 20
-34.43640258342194
 30
0.0
 10
5.204148691694972
 20
-34.58249811203345
 30
0.0
 10
5.534786125192706
 20
-34.63315212550498
 30
0.0
 10
6.199853157223355
 20
-34.68468277413029
 30
0.0
 10
6.534219269315708
 20
-34.68639275607774
 30
0.0
 10
7.206841933676339
 20
-34.63874534535777
 30
0.0
 10
7.543278354721624
 20
-34.58910810546646
 30
0.0
 10
7.873599356959719
 20
-34.51328159306711
 30
0.0
  0
LINE
  5
72
330
1F
100
AcDbEntity
  8
0
  6
Continuous
 62
     7
370
    25
100
AcDbLine
 10
7.8735993649
 20
-34.5132816708
 30
0.0
 11
7.8810052189
 21
-34.5115914125
 31
0.0
  0
SPLINE
  5
73
330
1F
100
AcDbEntity
  8
0
  6
Continuous
 62
     7
370
    25
100
AcDbSpline
210
0.0
220
0.0
230
1.0
 70
     8
 71
     3
 72
    18
 73
    14
 74
     0
 42
0.00000001
 43
0.00000001
 40
0.0
 40
0.0
 40
0.0
 40
0.0
 40
0.1249999999999998
 40
0.1249999999999998
 40
0.2499999999999997
 40
0.2499999999999997
 40
0.4999999999999993
 40
0.4999999999999993
 40
0.6249999999999998
 40
0.6249999999999998
 40
0.7500000000000003
 40
0.7500000000000003
 40
1.0
 40
1.0
 40
1.0
 40
1.0
 10
7.881005218872652
 20
-34.51159141249139
 30
0.0
 10
8.209506077991543
 20
-34.43704350421776
 30
0.0
 10
8.529364252336789
 20
-34.33752271867666
 30
0.0
 10
9.152629597969648
 20
-34.09094627954772
 30
0.0
 10
9.456903406730545
 20
-33.94309910111823
 30
0.0
 10
10.32210901663095
 20
-33.44189431232594
 30
0.0
 10
10.84136649953934
 20
-33.02348937984402
 30
0.0
 10
11.56088067235491
 20
-32.31490787520625
 30
0.0
 10
11.79178350342992
 20
-32.06741640081632
 30
0.0
 10
12.26432406864266
 20
-31.58600659028586
 30
0.0
 10
12.50666325700194
 20
-31.35297516808119
 30
0.0
 10
13.27399407303711
 20
-30.70485270115071
 30
0.0
 10
13.83728625464246
 20
-30.33818861570759
 30
0.0
 10
14.48482041086056
 20
-30.07803950866348
 30
0.0
  0
SPLINE
  5
74
330
1F
100
AcDbEntity
  8
0
  6
Continuous
 62
     7
370
    25
100
AcDbSpline
210
0.0
220
0.0
230
1.0
 70
     8
 71
     3
 72
    20
 73
    16
 74
     0
 42
0.00000001
 43
0.00000001
 40
0.0
 40
0.0
 40
0.0
 40
0.0
 40
0.25
 40
0.25
 40
0.375
 40
0.375
 40
0.5
 40
0.5
 40
0.625
 40
0.625
 40
0.75
 40
0.75
 40
0.875
 40
0.875
 40
1.0
 40
1.0
 40
1.0
 40
1.0
 10
14.48482041086056
 20
-30.07803950866348
 30
0.0
 10
15.07524528639264
 20
-29.74344060606525
 30
0.0
 10
15.70514838790911
 20
-29.52921979004057
 30
0.0
 10
16.69014572717153
 20
-29.33029274524423
 30
0.0
 10
17.02552387999366
 20
-29.28495477079426
 30
0.0
 10
17.69655294705273
 20
-29.21484689479619
 30
0.0
 10
18.03321123255626
 20
-29.18885673072027
 30
0.0
 10
18.70306596858667
 20
-29.1094427541018
 30
0.0
 10
19.03745712869759
 20
-29.05356714719004
 30
0.0
 10
19.69355954401776
 20
-28.89975867996329
 30
0.0
 10
20.01343153092819
 20
-28.80193816319801
 30
0.0
 10
20.63499453235984
 20
-28.55980390273269
 30
0.0
 10
20.93698992319741
 20
-28.41626852428417
 30
0.0
 10
21.52232856690882
 20
-28.08149965396351
 30
0.0
 10
21.80391051705604
 20
-27.89080375379629
 30
0.0
 10
22.06861956576224
 20
-27.67916551520318
 30
0.0
  0
LINE
  5
75
330
1F
100
AcDbEntity
  8
0
  6
Continuous
 62
     7
370
    25
100
AcDbLine
 10
22.0686196067
 20
-27.6791655818
 30
0.0
 11
22.0745586749
 21
-27.6744294321
 31
0.0
  0
SPLINE
  5
76
330
1F
100
AcDbEntity
  8
0
  6
Continuous
 62
     7
370
    25
100
AcDbSpline
210
0.0
220
0.0
230
1.0
 70
     8
 71
     3
 72
    18
 73
    14
 74
     0
 42
0.00000001
 43
0.00000001
 40
0.0
 40
0.0
 40
0.0
 40
0.0
 40
0.1250000000000003
 40
0.1250000000000003
 40
0.2500000000000006
 40
0.2500000000000006
 40
0.5000000000000019
 40
0.5000000000000019
 40
0.6250000000000018
 40
0.6250000000000018
 40
0.7500000000000016
 40
0.7500000000000016
 40
1.0
 40
1.0
 40
1.0
 40
1.0
 10
22.07455867493168
 20
-27.67442943205378
 30
0.0
 10
22.33818259689177
 20
-27.46473290647421
 30
0.0
 10
22.58318440357039
 20
-27.23628651632033
 30
0.0
 10
23.03774156904041
 20
-26.74370412248147
 30
0.0
 10
23.24773431145707
 20
-26.47847895964866
 30
0.0
 10
23.80979302248697
 20
-25.65151040337441
 30
0.0
 10
24.09608875244234
 20
-25.04924320678252
 30
0.0
 10
24.43690662946193
 20
-24.09864783108341
 30
0.0
 10
24.53756036546304
 20
-23.77548073386725
 30
0.0
 10
24.75442881489979
 20
-23.1367178145574
 30
0.0
 10
24.87166033428615
 20
-22.82161672472798
 30
0.0
 10
25.28179171155784
 20
-21.90474619583416
 30
0.0
 10
25.63021084632472
 20
-21.32998995190145
 30
0.0
 10
26.10074449468797
 20
-20.81464916453582
 30
0.0
  0
SPLINE
  5
77
330
1F
100
AcDbEntity
  8
0
  6
Continuous
 62
     7
370
    25
100
AcDbSpline
210
0.0
220
0.0
230
1.0
 70
     8
 71
     3
 72
    20
 73
    16
 74
     0
 42
0.00000001
 43
0.00000001
 40
0.0
 40
0.0
 40
0.0
 40
0.0
 40
0.2500000000000007
 40
0.2500000000000007
 40
0.3750000000000006
 40
0.3750000000000006
 40
0.5000000000000006
 40
0.5000000000000006
 40
0.6250000000000004
 40
0.6250000000000004
 40
0.7500000000000003
 40
0.7500000000000003
 40
0.8750000000000002
 40
0.8750000000000002
 40
1.0
 40
1.0
 40
1.0
 40
1.0
 10
26.10074449468797
 20
-20.81464916453582
 30
0.0
 10
26.48752190341251
 20
-20.25701021739767
 30
0.0
 10
26.96209805901912
 20
-19.79069921833577
 30
0.0
 10
27.76323878665115
 20
-19.18409781541113
 30
0.0
 10
28.04573265143939
 20
-18.99773458493332
 30
0.0
 10
28.61989028293615
 20
-18.64342097059265
 30
0.0
 10
28.91193220772609
 20
-18.47393408616978
 30
0.0
 10
29.48099403779216
 20
-18.11174548802702
 30
0.0
 10
29.75802654550115
 20
-17.91631641884844
 30
0.0
 10
30.28241940299155
 20
-17.4930676090559
 30
0.0
 10
30.52817137333537
 20
-17.26614711508958
 30
0.0
 10
30.9831221687662
 20
-16.77830560540152
 30
0.0
 10
31.19293294746408
 20
-16.517953808605
 30
0.0
 10
31.57505407343392
 20
-15.96236855912204
 30
0.0
 10
31.74601079408227
 20
-15.66838366043846
 30
0.0
 10
31.89267901571729
 20
-15.36285124437808
 30
0.0
  0
LINE
  5
78
330
1F
100
AcDbEntity
  8
0
  6
Continuous
 62
     7
370
    25
100
AcDbLine
 10
31.8926790815
 20
-15.3628512866
 30
0.0
 11
31.8959750587
 21
-15.356007298
 31
0.0
  0
SPLINE
  5
79
330
1F
100
AcDbEntity
  8
0
  6
Continuous
 62
     7
370
    25
100
AcDbSpline
210
0.0
220
0.0
230
1.0
 70
     8
 71
     3
 72
    18
 73
    14
 74
     0
 42
0.00000001
 43
0.00000001
 40
0.0
 40
0.0
 40
0.0
 40
0.0
 40
0.1250000000000001
 40
0.1250000000000001
 40
0.2500000000000002
 40
0.2500000000000002
 40
0.5000000000000001
 40
0.5000000000000001
 40
0.6250000000000003
 40
0.6250000000000003
 40
0.7500000000000004
 40
0.7500000000000004
 40
1.0
 40
1.0
 40
1.0
 40
1.0
 10
31.89597505872512
 20
-15.35600729799378
 30
0.0
 10
32.04250809264713
 20
-15.05269512375832
 30
0.0
 10
32.16412791909656
 20
-14.7405697382726
 30
0.0
 10
32.35994628300476
 20
-14.09954337394997
 30
0.0
 10
32.43406632104967
 20
-13.76947132298586
 30
0.0
 10
32.58165551229201
 20
-12.78053026390298
 30
0.0
 10
32.57828510878996
 20
-12.11368720780822
 30
0.0
 10
32.47290352961297
 20
-11.10935503349169
 30
0.0
 10
32.4233724636881
 20
-10.77451952043713
 30
0.0
 10
32.34161534122109
 20
-10.10491832243007
 30
0.0
 10
32.31052005146994
 20
-9.77015720027777
 30
0.0
 10
32.28222044077875
 20
-8.76613606234689
 30
0.0
 10
32.34675784598672
 20
-8.097125182958095
 30
0.0
 10
32.54709602672092
 20
-7.428662278448753
 30
0.0
  0
SPLINE
  5
7A
330
1F
100
AcDbEntity
  8
0
  6
Continuous
 62
     7
370
    25
100
AcDbSpline
210
0.0
220
0.0
230
1.0
 70
     8
 71
     3
 72
    20
 73
    16
 74
     0
 42
0.00000001
 43
0.00000001
 40
0.0
 40
0.0
 40
0.0
 40
0.0
 40
0.2500000000000009
 40
0.2500000000000009
 40
0.3750000000000007
 40
0.3750000000000007
 40
0.5000000000000006
 40
0.5000000000000006
 40
0.6250000000000004
 40
0.6250000000000004
 40
0.7500000000000003
 40
0.7500000000000003
 40
0.8750000000000002
 40
0.8750000000000002
 40
1.0
 40
1.0
 40
1.0
 40
1.0
 10
32.54709602672092
 20
-7.428662278448753
 30
0.0
 10
32.65361995932773
 20
-6.758430519246351
 30
0.0
 10
32.87887354111227
 20
-6.13238794944272
 30
0.0
 10
33.33748191066011
 20
-5.238257035720511
 30
0.0
 10
33.51114011293311
 20
-4.947780072607158
 30
0.0
 10
33.87470734836823
 20
-4.379436876617457
 30
0.0
 10
34.06429042758077
 20
-4.100022227928801
 30
0.0
 10
34.41984967715315
 20
-3.526794902077284
 30
0.0
 10
34.58465384672832
 20
-3.230519494563862
 30
0.0
 10
34.87347470970809
 20
-2.62165995979211
 30
0.0
 10
34.99643247180947
 20
-2.310583875452537
 30
0.0
 10
35.19466247660101
 20
-1.673658110520015
 30
0.0
 10
35.27073304527885
 20
-1.348055761736872
 30
0.0
 10
35.37395287810322
 20
-0.6816946055587504
 30
0.0
 10
35.40042429408391
 20
-0.3426480230304172
 30
0.0
 10
35.40000224858579
 20
-0.0037358716134359
 30
0.0
  0
LINE
  5
7B
330
1F
100
AcDbEntity
  8
0
  6
Continuous
 62
     7
370
    25
100
AcDbLine
 10
35.4000023261
 20
-0.0037358811
 30
0.0
 11
35.4000024037
 21
0.0038604105
 31
0.0
  0
SPLINE
  5
7C
330
1F
100
AcDbEntity
  8
0
  6
Continuous
 62
     7
370
    25
100
AcDbSpline
210
0.0
220
0.0
230
1.0
 70
     8
 71
     3
 72
    18
 73
    14
 74
     0
 42
0.00000001
 43
0.00000001
 40
0.0
 40
0.0
 40
0.0
 40
0.0
 40
0.1250000000000004
 40
0.1250000000000004
 40
0.2500000000000007
 40
0.2500000000000007
 40
0.5000000000000007
 40
0.5000000000000007
 40
0.6250000000000006
 40
0.6250000000000006
 40
0.7500000000000006
 40
0.7500000000000006
 40
1.0
 40
1.0
 40
1.0
 40
1.0
 10
35.40000240367532
 20
0.0038604105053121
 30
0.0
 10
35.40042188508118
 20
0.3407135374096188
 30
0.0
 10
35.37457143310375
 20
0.6746976576650409
 30
0.0
 10
35.27286676692333
 20
1.337204859344864
 30
0.0
 10
35.196433718039
 20
1.666748980678731
 30
0.0
 10
34.90032154010537
 20
2.621790637252526
 30
0.0
 10
34.60795255289466
 20
3.22113310729704
 30
0.0
 10
34.07724363169716
 20
4.080281775781639
 30
0.0
 10
33.88733799891132
 20
4.36046742482599
 30
0.0
 10
33.5231483053303
 20
4.928284172145109
 30
0.0
 10
33.34988500993547
 20
5.21640178080229
 30
0.0
 10
32.88875949625043
 20
6.108714827891846
 30
0.0
 10
32.65663274729852
 20
6.739474533193846
 30
0.0
 10
32.54709602672243
 20
7.428662278449475
 30
0.0
  0
SPLINE
  5
7D
330
1F
100
AcDbEntity
  8
0
  6
Continuous
 62
     7
370
    25
100
AcDbSpline
210
0.0
220
0.0
230
1.0
 70
     8
 71
     3
 72
    20
 73
    16
 74
     0
 42
0.00000001
 43
0.00000001
 40
0.0
 40
0.0
 40
0.0
 40
0.0
 40
0.2500000000000005
 40
0.2500000000000005
 40
0.3750000000000004
 40
0.3750000000000004
 40
0.5000000000000003
 40
0.5000000000000003
 40
0.6250000000000002
 40
0.6250000000000002
 40
0.7500000000000001
 40
0.7500000000000001
 40
0.8750000000000001
 40
0.8750000000000001
 40
1.0
 40
1.0
 40
1.0
 40
1.0
 10
32.54709602672243
 20
7.428662278449474
 30
0.0
 10
32.35226811193044
 20
8.078739229953303
 30
0.0
 10
32.28358488546855
 20
8.740517961640212
 30
0.0
 10
32.30882788488358
 20
9.745084792899828
 30
0.0
 10
32.33925528790392
 20
10.08214296363738
 30
0.0
 10
32.42022317744175
 20
10.75194840103745
 30
0.0
 10
32.46979815715595
 20
11.08594931602295
 30
0.0
 10
32.54143195621106
 20
11.75668066752628
 30
0.0
 10
32.5613663006788
 20
12.09512143533721
 30
0.0
 10
32.5574106550814
 20
12.76899959705518
 30
0.0
 10
32.53322091617925
 20
13.10261883816732
 30
0.0
 10
32.43546824675331
 20
13.7624778992189
 30
0.0
 10
32.36273189634135
 20
14.08884126156225
 30
0.0
 10
32.16660648222375
 20
14.73399732507329
 30
0.0
 10
32.04334960495182
 20
15.05095325764561
 30
0.0
 10
31.8959208836084
 20
15.35611943634648
 30
0.0
  0
LINE
  5
7E
330
1F
100
AcDbEntity
  8
0
  6
Continuous
 62
     7
370
    25
100
AcDbLine
 10
31.8959209576
 20
15.3561194614
 30
0.0
 11
31.89262512
 21
15.3629635174
 31
0.0
  0
SPLINE
  5
7F
330
1F
100
AcDbEntity
  8
0
  6
Continuous
 62
     7
370
    25
100
AcDbSpline
210
0.0
220
0.0
230
1.0
 70
     8
 71
     3
 72
    18
 73
    14
 74
     0
 42
0.00000001
 43
0.00000001
 40
0.0
 40
0.0
 40
0.0
 40
0.0
 40
0.1249999999999997
 40
0.1249999999999997
 40
0.2499999999999993
 40
0.2499999999999993
 40
0.4999999999999996
 40
0.4999999999999996
 40
0.6249999999999997
 40
0.6249999999999997
 40
0.7499999999999998
 40
0.7499999999999998
 40
1.0
 40
1.0
 40
1.0
 40
1.0
 10
31.89262512003949
 20
15.3629635173596
 30
0.0
 10
31.74684796549213
 20
15.6666397039168
 30
0.0
 10
31.57864723413699
 20
15.95633290787885
 30
0.0
 10
31.19956339433092
 20
16.50910327050542
 30
0.0
 10
30.98771576123873
 20
16.7728492073854
 30
0.0
 10
30.30655086254655
 20
17.50483374854826
 30
0.0
 10
29.78309055521478
 20
17.91796850589711
 30
0.0
 10
28.93216770255785
 20
18.46176873798927
 30
0.0
 10
28.6395006425241
 20
18.63181031897866
 30
0.0
 10
28.06501061313637
 20
18.98537954498777
 30
0.0
 10
27.78389623268569
 20
19.16978841422462
 30
0.0
 10
26.98127637932541
 20
19.77365982799517
 30
0.0
 10
26.49846102569121
 20
20.24123866381503
 30
0.0
 10
26.10074449469453
 20
20.81464916453588
 30
0.0
  0
SPLINE
  5
80
330
1F
100
AcDbEntity
  8
0
  6
Continuous
 62
     7
370
    25
100
AcDbSpline
210
0.0
220
0.0
230
1.0
 70
     8
 71
     3
 72
    20
 73
    16
 74
     0
 42
0.00000001
 43
0.00000001
 40
0.0
 40
0.0
 40
0.0
 40
0.0
 40
0.25
 40
0.25
 40
0.375
 40
0.375
 40
0.5
 40
0.5
 40
0.625
 40
0.625
 40
0.75
 40
0.75
 40
0.875
 40
0.875
 40
1.0
 40
1.0
 40
1.0
 40
1.0
 10
26.10074449469453
 20
20.81464916453588
 30
0.0
 10
25.64315279043308
 20
21.31581559543024
 30
0.0
 10
25.29413631106955
 20
21.882257095012
 30
0.0
 10
24.88101425473329
 20
22.79829306268342
 30
0.0
 10
24.76218433816581
 20
23.11517393658636
 30
0.0
 10
24.54451619827802
 20
23.75377843390081
 30
0.0
 10
24.44426414576415
 20
24.07621263772068
 30
0.0
 10
24.21778454186617
 20
24.71160144473594
 30
0.0
 10
24.0889008198241
 20
25.02517522807875
 30
0.0
 10
23.79295212976866
 20
25.63060218224561
 30
0.0
 10
23.62640596431748
 20
25.92068719785854
 30
0.0
 10
23.25203173570559
 20
26.47278637535152
 30
0.0
 10
23.04489479245224
 20
26.73527048476089
 30
0.0
 10
22.5882691749708
 20
27.23144038491019
 30
0.0
 10
22.33969654062936
 20
27.46352865786965
 30
0.0
 10
22.07446120979586
 20
27.67450695954726
 30
0.0
  0
LINE
  5
81
330
1F
100
AcDbEntity
  8
0
  6
Continuous
 62
     7
370
    25
100
AcDbLine
 10
22.0744612656
 20
27.6745070142
 30
0.0
 11
22.068522294
 21
27.6792432852
 31
0.0
  0
SPLINE
  5
82
330
1F
100
AcDbEntity
  8
0
  6
Continuous
 62
     7
370
    25
100
AcDbSpline
210
0.0
220
0.0
230
1.0
 70
     8
 71
     3
 72
    18
 73
    14
 74
     0
 42
0.00000001
 43
0.00000001
 40
0.0
 40
0.0
 40
0.0
 40
0.0
 40
0.1250000000000009
 40
0.1250000000000009
 40
0.2500000000000019
 40
0.2500000000000019
 40
0.5000000000000026
 40
0.5000000000000026
 40
0.6250000000000022
 40
0.6250000000000022
 40
0.750000000000002
 40
0.750000000000002
 40
1.0
 40
1.0
 40
1.0
 40
1.0
 10
22.06852229400154
 20
27.67924328521899
 30
0.0
 10
21.80542145679867
 20
27.88959573833738
 30
0.0
 10
21.52818466375733
 20
28.07762073410736
 30
0.0
 10
20.94680385395754
 20
28.41117130807885
 30
0.0
 10
20.64150065853222
 20
28.55688094307421
 30
0.0
 10
19.71019610120697
 20
28.92082985324753
 30
0.0
 10
19.05932220744065
 20
29.06593049244258
 30
0.0
 10
18.05672113017718
 20
29.18667598290438
 30
0.0
 10
17.7192589434612
 20
29.21289467530075
 30
0.0
 10
17.04825337424494
 20
29.28218765854674
 30
0.0
 10
16.71496605942834
 20
29.32636335018447
 30
0.0
 10
15.72982057183755
 20
29.52218899114177
 30
0.0
 10
15.09194411565019
 20
29.73397723456714
 30
0.0
 10
14.48482041087003
 20
30.07803950866685
 30
0.0
  0
SPLINE
  5
83
330
1F
100
AcDbEntity
  8
0
  6
Continuous
 62
     7
370
    25
100
AcDbSpline
210
0.0
220
0.0
230
1.0
 70
     8
 71
     3
 72
    20
 73
    16
 74
     0
 42
0.00000001
 43
0.00000001
 40
0.0
 40
0.0
 40
0.0
 40
0.0
 40
0.2500000000000007
 40
0.2500000000000007
 40
0.3750000000000006
 40
0.3750000000000006
 40
0.5000000000000006
 40
0.5000000000000006
 40
0.6250000000000004
 40
0.6250000000000004
 40
0.7500000000000003
 40
0.7500000000000003
 40
0.8750000000000002
 40
0.8750000000000002
 40
1.0
 40
1.0
 40
1.0
 40
1.0
 10
14.48482041087003
 20
30.07803950866685
 30
0.0
 10
13.85509656616295
 20
30.33103326090616
 30
0.0
 10
13.29487382804127
 20
30.68994684243752
 30
0.0
 10
12.52521060581849
 20
31.33601978867347
 30
0.0
 10
12.28065909199175
 20
31.56996122237455
 30
0.0
 10
11.80746676730628
 20
32.0508813269363
 30
0.0
 10
11.5772438310751
 20
32.2978867711261
 30
0.0
 10
11.09750788736667
 20
32.77208648788765
 30
0.0
 10
10.84533310062123
 20
32.99868615323903
 30
0.0
 10
10.31600763374808
 20
33.41574966650429
 30
0.0
 10
10.04009155237179
 20
33.60484556161494
 30
0.0
 10
9.463245171952765
 20
33.93983484239138
 30
0.0
 10
9.162733647839323
 20
34.08645150184019
 30
0.0
 10
8.53604813068699
 20
34.33536270477529
 30
0.0
 10
8.211392598055701
 20
34.43661538928649
 30
0.0
 10
7.880883767902219
 20
34.51161897381286
 30
0.0
  0
LINE
  5
84
330
1F
100
AcDbEntity
  8
0
  6
Continuous
 62
     7
370
    25
100
AcDbLine
 10
7.8808837944
 20
34.5116190473
 30
0.0
 11
7.873477975
 21
34.5133094568
 31
0.0
  0
SPLINE
  5
85
330
1F
100
AcDbEntity
  8
0
  6
Continuous
 62
     7
370
    25
100
AcDbSpline
210
0.0
220
0.0
230
1.0
 70
     8
 71
     3
 72
    18
 73
    14
 74
     0
 42
0.00000001
 43
0.00000001
 40
0.0
 40
0.0
 40
0.0
 40
0.0
 40
0.1249999999999999
 40
0.1249999999999999
 40
0.2499999999999999
 40
0.2499999999999999
 40
0.5
 40
0.5
 40
0.6249999999999998
 40
0.6249999999999998
 40
0.7499999999999997
 40
0.7499999999999997
 40
1.0
 40
1.0
 40
1.0
 40
1.0
 10
7.873477974972362
 20
34.51330945679992
 30
0.0
 10
7.545163802641873
 20
34.58867529333595
 30
0.0
 10
7.213801094862212
 20
34.63779142452645
 30
0.0
 10
6.545272914617017
 20
34.68605842793859
 30
0.0
 10
6.206983199010338
 20
34.68487218082714
 30
0.0
 10
5.209995272330602
 20
34.60870091481073
 30
0.0
 10
4.560621349234355
 20
34.45702847471676
 30
0.0
 10
3.604919486811231
 20
34.130804098316
 30
0.0
 10
3.289500698194103
 20
34.00800696853902
 30
0.0
 10
2.65488047147561
 20
33.77929938386754
 30
0.0
 10
2.335431862493115
 20
33.67449236039813
 30
0.0
 10
1.362880886505427
 20
33.42348655870713
 30
0.0
 10
0.6962825829540517
 20
33.33753695071556
 30
0.0
 10
0.0000000000057635
 20
33.38410524516243
 30
0.0
  0
SPLINE
  5
86
330
1F
100
AcDbEntity
  8
0
  6
Continuous
 62
     7
370
    25
100
AcDbSpline
210
0.0
220
0.0
230
1.0
 70
     8
 71
     3
 72
    20
 73
    16
 74
     0
 42
0.00000001
 43
0.00000001
 40
0.0
 40
0.0
 40
0.0
 40
0.0
 40
0.2500000000000007
 40
0.2500000000000007
 40
0.3750000000000006
 40
0.3750000000000006
 40
0.5000000000000006
 40
0.5000000000000006
 40
0.6250000000000004
 40
0.6250000000000004
 40
0.7500000000000003
 40
0.7500000000000003
 40
0.8750000000000002
 40
0.8750000000000002
 40
1.0
 40
1.0
 40
1.0
 40
1.0
 10
0.0000000000057777
 20
33.38410524516241
 30
0.0
 10
-0.6771314546459295
 20
33.33881780335109
 30
0.0
 10
-1.337601467559318
 20
33.41911623022335
 30
0.0
 10
-2.311364615206738
 20
33.66726348445665
 30
0.0
 10
-2.633201299751661
 20
33.77193050790777
 30
0.0
 10
-3.26819626600754
 20
33.99991409490998
 30
0.0
 10
-3.582791609936312
 20
34.12256832192478
 30
0.0
 10
-4.220766306228231
 20
34.34165787884967
 30
0.0
 10
-4.546285848441169
 20
34.43640258342401
 30
0.0
 10
-5.204148691666773
 20
34.58249811203694
 30
0.0
 10
-5.534786125162768
 20
34.63315212550956
 30
0.0
 10
-6.199853157189918
 20
34.68468277413746
 30
0.0
 10
-6.534219269280501
 20
34.68639275608644
 30
0.0
 10
-7.206841933637524
 20
34.63874534537027
 30
0.0
 10
-7.543278354681994
 20
34.58910810548316
 30
0.0
 10
-7.87359935691858
 20
34.51328159308417
 30
0.0
  0
LINE
  5
87
330
1F
100
AcDbEntity
  8
0
  6
Continuous
 62
     7
370
    25
100
AcDbLine
 10
-7.8735993649
 20
34.5132816708
 30
0.0
 11
-7.8810052189
 21
34.5115914125
 31
0.0
  0
SPLINE
  5
88
330
1F
100
AcDbEntity
  8
0
  6
Continuous
 62
     7
370
    25
100
AcDbSpline
210
0.0
220
0.0
230
1.0
 70
     8
 71
     3
 72
    18
 73
    14
 74
     0
 42
0.00000001
 43
0.00000001
 40
0.0
 40
0.0
 40
0.0
 40
0.0
 40
0.1249999999999998
 40
0.1249999999999998
 40
0.2499999999999997
 40
0.2499999999999997
 40
0.4999999999999988
 40
0.4999999999999988
 40
0.624999999999999
 40
0.624999999999999
 40
0.7499999999999992
 40
0.7499999999999992
 40
1.0
 40
1.0
 40
1.0
 40
1.0
 10
-7.881005218870236
 20
34.51159141249924
 30
0.0
 10
-8.209506077989257
 20
34.43704350422558
 30
0.0
 10
-8.529364252334613
 20
34.33752271868443
 30
0.0
 10
-9.152629597967703
 20
34.09094627955538
 30
0.0
 10
-9.456903406728715
 20
33.94309910112579
 30
0.0
 10
-10.32210901662942
 20
33.4418943123332
 30
0.0
 10
-10.84136649953792
 20
33.02348937985102
 30
0.0
 10
-11.56088067235368
 20
32.31490787521288
 30
0.0
 10
-11.79178350342879
 20
32.06741640082286
 30
0.0
 10
-12.26432406864174
 20
31.58600659029224
 30
0.0
 10
-12.50666325700117
 20
31.35297516808754
 30
0.0
 10
-13.27399407303679
 20
30.70485270115703
 30
0.0
 10
-13.83728625464249
 20
30.33818861571402
 30
0.0
 10
-14.48482041086105
 20
30.07803950867017
 30
0.0
  0
SPLINE
  5
89
330
1F
100
AcDbEntity
  8
0
  6
Continuous
 62
     7
370
    25
100
AcDbSpline
210
0.0
220
0.0
230
1.0
 70
     8
 71
     3
 72
    20
 73
    16
 74
     0
 42
0.00000001
 43
0.00000001
 40
0.0
 40
0.0
 40
0.0
 40
0.0
 40
0.2499999999999991
 40
0.2499999999999991
 40
0.3749999999999992
 40
0.3749999999999992
 40
0.4999999999999993
 40
0.4999999999999993
 40
0.6249999999999994
 40
0.6249999999999994
 40
0.7499999999999996
 40
0.7499999999999996
 40
0.8749999999999998
 40
0.8749999999999998
 40
1.0
 40
1.0
 40
1.0
 40
1.0
 10
-14.48482041086105
 20
30.07803950867017
 30
0.0
 10
-15.07524528639129
 20
29.74344060607346
 30
0.0
 10
-15.70514838790556
 20
29.52921979004941
 30
0.0
 10
-16.69014572716434
 20
29.3302927452533
 30
0.0
 10
-17.02552387998527
 20
29.28495477080328
 30
0.0
 10
-17.696552947042
 20
29.21484689480518
 30
0.0
 10
-18.03321123254437
 20
29.18885673072938
 30
0.0
 10
-18.70306596857255
 20
29.10944275411176
 30
0.0
 10
-19.03745712868228
 20
29.05356714720074
 30
0.0
 10
-19.69355954400075
 20
28.89975867997562
 30
0.0
 10
-20.01343153091041
 20
28.80193816321142
 30
0.0
 10
-20.63499453234054
 20
28.55980390274852
 30
0.0
 10
-20.93698992317737
 20
28.41626852430135
 30
0.0
 10
-21.52232856688747
 20
28.08149965398395
 30
0.0
 10
-21.80391051703531
 20
27.89080375381935
 30
0.0
 10
-22.06861956574067
 20
27.67916551522691
 30
0.0
  0
LINE
  5
8A
330
1F
100
AcDbEntity
  8
0
  6
Continuous
 62
     7
370
    25
100
AcDbLine
 10
-22.0686196066
 20
27.6791655818
 30
0.0
 11
-22.0745586749
 21
27.6744294321
 31
0.0
  0
SPLINE
  5
8B
330
1F
100
AcDbEntity
  8
0
  6
Continuous
 62
     7
370
    25
100
AcDbSpline
210
0.0
220
0.0
230
1.0
 70
     8
 71
     3
 72
    18
 73
    14
 74
     0
 42
0.00000001
 43
0.00000001
 40
0.0
 40
0.0
 40
0.0
 40
0.0
 40
0.1249999999999995
 40
0.1249999999999995
 40
0.2499999999999989
 40
0.2499999999999989
 40
0.499999999999999
 40
0.499999999999999
 40
0.6249999999999992
 40
0.6249999999999992
 40
0.7499999999999994
 40
0.7499999999999994
 40
1.0
 40
1.0
 40
1.0
 40
1.0
 10
-22.07455867492935
 20
27.6744294320619
 30
0.0
 10
-22.33818259688951
 20
27.46473290648228
 30
0.0
 10
-22.58318440356818
 20
27.23628651632832
 30
0.0
 10
-23.03774156903827
 20
26.74370412248934
 30
0.0
 10
-23.24773431145499
 20
26.47847895965643
 30
0.0
 10
-23.80979302248499
 20
25.65151040338187
 30
0.0
 10
-24.09608875244033
 20
25.04924320678983
 30
0.0
 10
-24.43690662945995
 20
24.0986478310905
 30
0.0
 10
-24.53756036546105
 20
23.77548073387426
 30
0.0
 10
-24.75442881489788
 20
23.13671781456429
 30
0.0
 10
-24.87166033428431
 20
22.82161672473482
 30
0.0
 10
-25.28179171155623
 20
21.9047461958409
 30
0.0
 10
-25.63021084632332
 20
21.32998995190817
 30
0.0
 10
-26.10074449468683
 20
20.81464916454258
 30
0.0
  0
SPLINE
  5
8C
330
1F
100
AcDbEntity
  8
0
  6
Continuous
 62
     7
370
    25
100
AcDbSpline
210
0.0
220
0.0
230
1.0
 70
     8
 71
     3
 72
    20
 73
    16
 74
     0
 42
0.00000001
 43
0.00000001
 40
0.0
 40
0.0
 40
0.0
 40
0.0
 40
0.2499999999999994
 40
0.2499999999999994
 40
0.3749999999999994
 40
0.3749999999999994
 40
0.4999999999999996
 40
0.4999999999999996
 40
0.6249999999999996
 40
0.6249999999999996
 40
0.7499999999999997
 40
0.7499999999999997
 40
0.8749999999999999
 40
0.8749999999999999
 40
1.0
 40
1.0
 40
1.0
 40
1.0
 10
-26.10074449468684
 20
20.81464916454258
 30
0.0
 10
-26.48752190341138
 20
20.25701021740495
 30
0.0
 10
-26.96209805901771
 20
19.79069921834335
 30
0.0
 10
-27.76323878664928
 20
19.18409781541918
 30
0.0
 10
-28.04573265143733
 20
18.9977345849415
 30
0.0
 10
-28.61989028293375
 20
18.64342097060103
 30
0.0
 10
-28.9119322077235
 20
18.47393408617826
 30
0.0
 10
-29.48099403778924
 20
18.11174548803576
 30
0.0
 10
-29.75802654549809
 20
17.91631641885735
 30
0.0
 10
-30.28241940298832
 20
17.49306760906508
 30
0.0
 10
-30.52817137333207
 20
17.26614711509895
 30
0.0
 10
-30.98312216876275
 20
16.77830560541131
 30
0.0
 10
-31.19293294746058
 20
16.51795380861504
 30
0.0
 10
-31.57505407343033
 20
15.96236855913268
 30
0.0
 10
-31.74601079407888
 20
15.66838366044937
 30
0.0
 10
-31.89267901571385
 20
15.36285124438916
 30
0.0
  0
LINE
  5
8D
330
1F
100
AcDbEntity
  8
0
  6
Continuous
 62
     7
370
    25
100
AcDbLine
 10
-31.8926790815
 20
15.3628512866
 30
0.0
 11
-31.8959750587
 21
15.356007298
 31
0.0
  0
SPLINE
  5
8E
330
1F
100
AcDbEntity
  8
0
  6
Continuous
 62
     7
370
    25
100
AcDbSpline
210
0.0
220
0.0
230
1.0
 70
     8
 71
     3
 72
    18
 73
    14
 74
     0
 42
0.00000001
 43
0.00000001
 40
0.0
 40
0.0
 40
0.0
 40
0.0
 40
0.1250000000000002
 40
0.1250000000000002
 40
0.2500000000000004
 40
0.2500000000000004
 40
0.4999999999999998
 40
0.4999999999999998
 40
0.6249999999999997
 40
0.6249999999999997
 40
0.7499999999999994
 40
0.7499999999999994
 40
1.0
 40
1.0
 40
1.0
 40
1.0
 10
-31.89597505872284
 20
15.35600729800183
 30
0.0
 10
-32.04250809264482
 20
15.05269512376637
 30
0.0
 10
-32.16412791909427
 20
14.74056973828065
 30
0.0
 10
-32.35994628300244
 20
14.09954337395802
 30
0.0
 10
-32.4340663210473
 20
13.76947132299392
 30
0.0
 10
-32.58165551228961
 20
12.78053026391104
 30
0.0
 10
-32.5782851087876
 20
12.11368720781629
 30
0.0
 10
-32.47290352961055
 20
11.10935503349976
 30
0.0
 10
-32.42337246368567
 20
10.77451952044521
 30
0.0
 10
-32.34161534121861
 20
10.10491832243816
 30
0.0
 10
-32.31052005146748
 20
9.770157200285858
 30
0.0
 10
-32.28222044077623
 20
8.76613606235499
 30
0.0
 10
-32.34675784598419
 20
8.097125182966186
 30
0.0
 10
-32.54709602671836
 20
7.428662278456839
 30
0.0
  0
SPLINE
  5
8F
330
1F
100
AcDbEntity
  8
0
  6
Continuous
 62
     7
370
    25
100
AcDbSpline
210
0.0
220
0.0
230
1.0
 70
     8
 71
     3
 72
    20
 73
    16
 74
     0
 42
0.00000001
 43
0.00000001
 40
0.0
 40
0.0
 40
0.0
 40
0.0
 40
0.2500000000000011
 40
0.2500000000000011
 40
0.3750000000000008
 40
0.3750000000000008
 40
0.5000000000000007
 40
0.5000000000000007
 40
0.6250000000000004
 40
0.6250000000000004
 40
0.7500000000000002
 40
0.7500000000000002
 40
0.8750000000000001
 40
0.8750000000000001
 40
1.0
 40
1.0
 40
1.0
 40
1.0
 10
-32.54709602671836
 20
7.428662278456835
 30
0.0
 10
-32.65361995932549
 20
6.758430519252346
 30
0.0
 10
-32.87887354111116
 20
6.132387949446924
 30
0.0
 10
-33.33748191066118
 20
5.238257035722233
 30
0.0
 10
-33.51114011293497
 20
4.947780072608112
 30
0.0
 10
-33.87470734837154
 20
4.379436876616845
 30
0.0
 10
-34.06429042758469
 20
4.100022227927311
 30
0.0
 10
-34.41984967715761
 20
3.526794902073676
 30
0.0
 10
-34.58465384673285
 20
3.230519494558978
 30
0.0
 10
-34.87347470971222
 20
2.621659959784957
 30
0.0
 10
-34.99643247181316
 20
2.310583875444164
 30
0.0
 10
-35.19466247660363
 20
1.673658110509142
 30
0.0
 10
-35.27073304528079
 20
1.348055761724694
 30
0.0
 10
-35.37395287810336
 20
0.6816946055438308
 30
0.0
 10
-35.40042429408159
 20
0.3426480230144052
 30
0.0
 10
-35.40000224858346
 20
0.0037358715964531
 30
0.0
  0
LINE
  5
90
330
1F
100
AcDbEntity
  8
0
  6
Continuous
 62
     7
370
    25
100
AcDbLine
 10
-35.4000023261
 20
0.0037358811
 30
0.0
 11
-35.4000024037
 21
-0.0038604105
 31
0.0
  0
SPLINE
  5
91
330
1F
100
AcDbEntity
  8
0
  6
Continuous
 62
     7
370
    25
100
AcDbSpline
210
0.0
220
0.0
230
1.0
 70
     8
 71
     3
 72
    18
 73
    14
 74
     0
 42
0.00000001
 43
0.00000001
 40
0.0
 40
0.0
 40
0.0
 40
0.0
 40
0.1249999999999995
 40
0.1249999999999995
 40
0.2499999999999991
 40
0.2499999999999991
 40
0.499999999999999
 40
0.499999999999999
 40
0.6249999999999997
 40
0.6249999999999997
 40
0.7500000000000002
 40
0.7500000000000002
 40
1.0
 40
1.0
 40
1.0
 40
1.0
 10
-35.40000240367306
 20
-0.0038604104971721
 30
0.0
 10
-35.40042188507891
 20
-0.34071353740139
 30
0.0
 10
-35.37457143310149
 20
-0.6746976576567362
 30
0.0
 10
-35.27286676692114
 20
-1.337204859336423
 30
0.0
 10
-35.19643371803683
 20
-1.66674898067019
 30
0.0
 10
-34.90032154010334
 20
-2.621790637243711
 30
0.0
 10
-34.60795255289277
 20
-3.221133107288172
 30
0.0
 10
-34.07724363169542
 20
-4.080281775772622
 30
0.0
 10
-33.88733799890964
 20
-4.360467424816912
 30
0.0
 10
-33.5231483053287
 20
-4.928284172135909
 30
0.0
 10
-33.34988500993384
 20
-5.21640178079301
 30
0.0
 10
-32.88875949624875
 20
-6.108714827882338
 30
0.0
 10
-32.65663274729671
 20
-6.739474533184177
 30
0.0
 10
-32.54709602672042
 20
-7.428662278439631
 30
0.0
  0
MTEXT
  5
93
330
1F
100
AcDbEntity
  8
0
  6
Continuous
 62
     7
100
AcDbMText
 10
-35.4000024037
 20
-35.6989055281
 30
0.0
 40
4.83362
 41
0.0
 71
     1
 72
     1
  1
SOLIDWORKS Educational Product.
  7
SLDTEXTSTYLE0
 73
     1
 44
1.0
  0
MTEXT
  5
94
330
1F
100
AcDbEntity
  8
0
  6
Continuous
 62
     7
100
AcDbMText
 10
-35.4000024037
 20
-42.9493355281
 30
0.0
 40
4.83362
 41
0.0
 71
     1
 72
     1
  1
For Instructional Use Only.
  7
SLDTEXTSTYLE0
 73
     1
 44
1.0
  0
ENDSEC
  0
SECTION
  2
OBJECTS
  0
DICTIONARY
  5
C
330
0
100
AcDbDictionary
281
     1
  3
ACAD_GROUP
350
D
  3
ACAD_LAYOUT
350
1A
  3
ACAD_MLINESTYLE
350
17
  3
ACAD_PLOTSETTINGS
350
19
  3
ACAD_PLOTSTYLENAME
350
E
  3
ACAD_SCALELIST
350
47
  3
DWGPROPS
350
95
  0
DICTIONARY
  5
D
102
{ACAD_REACTORS
330
C
102
}
330
C
100
AcDbDictionary
281
     1
  0
DICTIONARY
  5
1A
102
{ACAD_REACTORS
330
C
102
}
330
C
100
AcDbDictionary
281
     1
  3
Layout1
350
1E
  3
Layout2
350
26
  3
Model
350
22
  0
DICTIONARY
  5
17
102
{ACAD_REACTORS
330
C
102
}
330
C
100
AcDbDictionary
281
     1
  3
Standard
350
18
  0
DICTIONARY
  5
19
102
{ACAD_REACTORS
330
C
102
}
330
C
100
AcDbDictionary
281
     1
  0
ACDBDICTIONARYWDFLT
  5
E
102
{ACAD_REACTORS
330
C
102
}
330
C
100
AcDbDictionary
281
     1
  3
Normal
350
F
100
AcDbDictionaryWithDefault
340
F
  0
DICTIONARY
  5
47
102
{ACAD_REACTORS
330
C
102
}
330
C
100
AcDbDictionary
281
     1
  3
A0
350
48
  3
A1
350
49
  3
A2
350
4A
  3
A3
350
4B
  3
A4
350
4C
  3
A5
350
4D
  3
A6
350
4E
  3
A7
350
4F
  3
A8
350
50
  3
A9
350
51
  3
B0
350
52
  3
B1
350
53
  3
B2
350
54
  3
B3
350
55
  3
B4
350
56
  3
B5
350
57
  3
B6
350
58
  0
XRECORD
  5
95
102
{ACAD_REACTORS
330
C
102
}
330
C
100
AcDbXrecord
280
     1
  1
DWGPROPS COOKIE
  2

  3

  4

  6

  7

  8
dampy
  9

300
=
301
=
302
=
303
=
304
=
305
=
306
=
307
=
308
=
309
=
 40
0.0
 41
2460850.999067338
 42
2460850.999093403
  1

 90
        0
  0
LAYOUT
  5
1E
102
{ACAD_REACTORS
330
1A
102
}
330
1A
100
AcDbPlotSettings
  1

  2
none_device
  4

  6

 40
0.0
 41
0.0
 42
0.0
 43
0.0
 44
0.0
 45
0.0
 46
0.0
 47
0.0
 48
0.0
 49
0.0
140
0.0
141
0.0
142
1.0
143
1.0
 70
   688
 72
     1
 73
     0
 74
     5
  7

 75
    16
147
1.0
148
0.0
149
0.0
100
AcDbLayout
  1
Layout1
 70
     1
 71
     1
 10
0.0
 20
0.0
 11
420.0
 21
297.0
 12
0.0
 22
0.0
 32
0.0
 14
1.0000000000E+20
 24
1.0000000000E+20
 34
1.0000000000E+20
 15
-1.0000000000E+20
 25
-1.0000000000E+20
 35
-1.0000000000E+20
146
0.0
 13
0.0
 23
0.0
 33
0.0
 16
1.0
 26
0.0
 36
0.0
 17
0.0
 27
1.0
 37
0.0
 76
     0
330
1B
  0
LAYOUT
  5
26
102
{ACAD_REACTORS
330
1A
102
}
330
1A
100
AcDbPlotSettings
  1

  2
none_device
  4

  6

 40
0.0
 41
0.0
 42
0.0
 43
0.0
 44
0.0
 45
0.0
 46
0.0
 47
0.0
 48
0.0
 49
0.0
140
0.0
141
0.0
142
1.0
143
1.0
 70
   688
 72
     1
 73
     0
 74
     5
  7

 75
    16
147
1.0
148
0.0
149
0.0
100
AcDbLayout
  1
Layout2
 70
     1
 71
     2
 10
0.0
 20
0.0
 11
0.0
 21
0.0
 12
0.0
 22
0.0
 32
0.0
 14
0.0
 24
0.0
 34
0.0
 15
0.0
 25
0.0
 35
0.0
146
0.0
 13
0.0
 23
0.0
 33
0.0
 16
1.0
 26
0.0
 36
0.0
 17
0.0
 27
1.0
 37
0.0
 76
     0
330
23
  0
LAYOUT
  5
22
102
{ACAD_REACTORS
330
1A
102
}
330
1A
100
AcDbPlotSettings
  1

  2
none_device
  4
ANSI_A_(11.00_x_8.50_Inches)
  6

 40
6.35
 41
19.05
 42
6.35000508
 43
19.05000254
 44
279.4
 45
215.9
 46
133.34999746
 47
88.89999873
 48
0.0
 49
0.0
140
0.0
141
0.0
142
0.1213258414
143
1.0
 70
  1696
 72
     0
 73
     0
 74
     0
  7

 75
     0
147
0.0179189148
148
-1300.4909072572
149
0.0
100
AcDbLayout
  1
Model
 70
     1
 71
     0
 10
0.0
 20
0.0
 11
420.0
 21
297.0
 12
0.0
 22
0.0
 32
0.0
 14
-35.4000024037
 24
-34.6793391364
 34
0.0
 15
35.4000024037
 25
34.6793391364
 35
0.0
146
0.0
 13
0.0
 23
0.0
 33
0.0
 16
1.0
 26
0.0
 36
0.0
 17
0.0
 27
1.0
 37
0.0
 76
     0
330
1F
331
29
  0
MLINESTYLE
  5
18
102
{ACAD_REACTORS
330
17
102
}
330
17
100
AcDbMlineStyle
  2
Standard
 70
     0
  3

 62
   256
 51
90.0
 52
90.0
 71
     2
 49
0.5
 62
   256
  6
BYLAYER
 49
-0.5
 62
   256
  6
BYLAYER
  0
ACDBPLACEHOLDER
  5
F
102
{ACAD_REACTORS
330
E
102
}
330
E
  0
SCALE
  5
48
102
{ACAD_REACTORS
330
47
102
}
330
47
100
AcDbScale
 70
     0
300
1:1
140
1.0
141
1.0
290
     1
  0
SCALE
  5
49
102
{ACAD_REACTORS
330
47
102
}
330
47
100
AcDbScale
 70
     0
300
1:2
140
1.0
141
2.0
290
     0
  0
SCALE
  5
4A
102
{ACAD_REACTORS
330
47
102
}
330
47
100
AcDbScale
 70
     0
300
1:4
140
1.0
141
4.0
290
     0
  0
SCALE
  5
4B
102
{ACAD_REACTORS
330
47
102
}
330
47
100
AcDbScale
 70
     0
300
1:5
140
1.0
141
5.0
290
     0
  0
SCALE
  5
4C
102
{ACAD_REACTORS
330
47
102
}
330
47
100
AcDbScale
 70
     0
300
1:8
140
1.0
141
8.0
290
     0
  0
SCALE
  5
4D
102
{ACAD_REACTORS
330
47
102
}
330
47
100
AcDbScale
 70
     0
300
1:10
140
1.0
141
10.0
290
     0
  0
SCALE
  5
4E
102
{ACAD_REACTORS
330
47
102
}
330
47
100
AcDbScale
 70
     0
300
1:16
140
1.0
141
16.0
290
     0
  0
SCALE
  5
4F
102
{ACAD_REACTORS
330
47
102
}
330
47
100
AcDbScale
 70
     0
300
1:20
140
1.0
141
20.0
290
     0
  0
SCALE
  5
50
102
{ACAD_REACTORS
330
47
102
}
330
47
100
AcDbScale
 70
     0
300
1:30
140
1.0
141
30.0
290
     0
  0
SCALE
  5
51
102
{ACAD_REACTORS
330
47
102
}
330
47
100
AcDbScale
 70
     0
300
1:40
140
1.0
141
40.0
290
     0
  0
SCALE
  5
52
102
{ACAD_REACTORS
330
47
102
}
330
47
100
AcDbScale
 70
     0
300
1:50
140
1.0
141
50.0
290
     0
  0
SCALE
  5
53
102
{ACAD_REACTORS
330
47
102
}
330
47
100
AcDbScale
 70
     0
300
1:100
140
1.0
141
100.0
290
     0
  0
SCALE
  5
54
102
{ACAD_REACTORS
330
47
102
}
330
47
100
AcDbScale
 70
     0
300
2:1
140
2.0
141
1.0
290
     0
  0
SCALE
  5
55
102
{ACAD_REACTORS
330
47
102
}
330
47
100
AcDbScale
 70
     0
300
4:1
140
4.0
141
1.0
290
     0
  0
SCALE
  5
56
102
{ACAD_REACTORS
330
47
102
}
330
47
100
AcDbScale
 70
     0
300
8:1
140
8.0
141
1.0
290
     0
  0
SCALE
  5
57
102
{ACAD_REACTORS
330
47
102
}
330
47
100
AcDbScale
 70
     0
300
10:1
140
10.0
141
1.0
290
     0
  0
SCALE
  5
58
102
{ACAD_REACTORS
330
47
102
}
330
47
100
AcDbScale
 70
     0
300
100:1
140
100.0
141
1.0
290
     0
  0
ENDSEC
  0
EOF
