  0
SECTION
  2
HEADER
  9
$ACADVER
  1
AC1015
  9
$ACADMAINTVER
 70
     6
  9
$DWGCODEPAGE
  3
ANSI_1252
  9
$INSBASE
 10
0.0
 20
0.0
 30
0.0
  9
$EXTMIN
 10
-35.5000023261
 20
-34.7792623527
 30
0.0
  9
$EXTMAX
 10
35.5000023261
 20
34.7792623527
 30
0.0
  9
$LIMMIN
 10
0.0
 20
0.0
  9
$LIMMAX
 10
420.0
 20
297.0
  9
$ORTHOMODE
 70
     0
  9
$REGENMODE
 70
     1
  9
$FILLMODE
 70
     1
  9
$QTEXTMODE
 70
     0
  9
$MIRRTEXT
 70
     1
  9
$LTSCALE
 40
1.0
  9
$ATTMODE
 70
     1
  9
$TEXTSIZE
 40
3.175
  9
$TRACEWID
 40
1.0
  9
$TEXTSTYLE
  7
Standard
  9
$CLAYER
  8
0
  9
$CELTYPE
  6
ByLayer
  9
$CECOLOR
 62
   256
  9
$CELTSCALE
 40
1.0
  9
$DISPSILH
 70
     0
  9
$DIMSCALE
 40
1.0
  9
$DIMASZ
 40
3.302
  9
$DIMEXO
 40
0.0
  9
$DIMDLI
 40
3.75
  9
$DIMRND
 40
0.0
  9
$DIMDLE
 40
0.0
  9
$DIMEXE
 40
3.175
  9
$DIMTP
 40
0.0
  9
$DIMTM
 40
0.0
  9
$DIMTXT
 40
3.175
  9
$DIMCEN
 40
2.5
  9
$DIMTSZ
 40
0.0
  9
$DIMTOL
 70
     0
  9
$DIMLIM
 70
     0
  9
$DIMTIH
 70
     1
  9
$DIMTOH
 70
     1
  9
$DIMSE1
 70
     0
  9
$DIMSE2
 70
     0
  9
$DIMTAD
 70
     0
  9
$DIMZIN
 70
     1
  9
$DIMBLK
  1

  9
$DIMASO
 70
     1
  9
$DIMSHO
 70
     1
  9
$DIMPOST
  1

  9
$DIMAPOST
  1

  9
$DIMALT
 70
     0
  9
$DIMALTD
 70
     3
  9
$DIMALTF
 40
0.0393700787
  9
$DIMLFAC
 40
1.0
  9
$DIMTOFL
 70
     1
  9
$DIMTVP
 40
0.0
  9
$DIMTIX
 70
     0
  9
$DIMSOXD
 70
     0
  9
$DIMSAH
 70
     0
  9
$DIMBLK1
  1

  9
$DIMBLK2
  1

  9
$DIMSTYLE
  2
ISO-25
  9
$DIMCLRD
 70
     0
  9
$DIMCLRE
 70
     0
  9
$DIMCLRT
 70
     0
  9
$DIMTFAC
 40
1.0
  9
$DIMGAP
 40
1.524
  9
$DIMJUST
 70
     0
  9
$DIMSD1
 70
     0
  9
$DIMSD2
 70
     0
  9
$DIMTOLJ
 70
     0
  9
$DIMTZIN
 70
     1
  9
$DIMALTZ
 70
     0
  9
$DIMALTTZ
 70
     0
  9
$DIMUPT
 70
     0
  9
$DIMDEC
 70
     2
  9
$DIMTDEC
 70
     2
  9
$DIMALTU
 70
     2
  9
$DIMALTTD
 70
     3
  9
$DIMTXSTY
  7
Standard
  9
$DIMAUNIT
 70
     0
  9
$DIMADEC
 70
     2
  9
$DIMALTRND
 40
0.0
  9
$DIMAZIN
 70
     0
  9
$DIMDSEP
 70
    44
  9
$DIMATFIT
 70
     3
  9
$DIMFRAC
 70
     0
  9
$DIMLDRBLK
  1

  9
$DIMLUNIT
 70
     2
  9
$DIMLWD
 70
    -2
  9
$DIMLWE
 70
    -2
  9
$DIMTMOVE
 70
     0
  9
$LUNITS
 70
     2
  9
$LUPREC
 70
     6
  9
$SKETCHINC
 40
1.0
  9
$FILLETRAD
 40
0.0
  9
$AUNITS
 70
     0
  9
$AUPREC
 70
     2
  9
$MENU
  1
.
  9
$ELEVATION
 40
0.0
  9
$PELEVATION
 40
0.0
  9
$THICKNESS
 40
0.0
  9
$LIMCHECK
 70
     0
  9
$CHAMFERA
 40
0.0
  9
$CHAMFERB
 40
0.0
  9
$CHAMFERC
 40
0.0
  9
$CHAMFERD
 40
0.0
  9
$SKPOLY
 70
     0
  9
$TDCREATE
 40
2460720.036770093
  9
$TDUCREATE
 40
2460720.245103426
  9
$TDUPDATE
 40
2460720.036796297
  9
$TDUUPDATE
 40
2460720.24512963
  9
$TDINDWG
 40
0.0000000116
  9
$TDUSRTIMER
 40
0.0000000116
  9
$USRTIMER
 70
     1
  9
$ANGBASE
 50
0.0
  9
$ANGDIR
 70
     0
  9
$PDMODE
 70
     0
  9
$PDSIZE
 40
-1.0
  9
$PLINEWID
 40
0.0
  9
$SPLFRAME
 70
     0
  9
$SPLINETYPE
 70
     6
  9
$SPLINESEGS
 70
     8
  9
$HANDSEED
  5
96
  9
$SURFTAB1
 70
     6
  9
$SURFTAB2
 70
     6
  9
$SURFTYPE
 70
     6
  9
$SURFU
 70
     6
  9
$SURFV
 70
     6
  9
$UCSBASE
  2

  9
$UCSNAME
  2

  9
$UCSORG
 10
0.0
 20
0.0
 30
0.0
  9
$UCSXDIR
 10
1.0
 20
0.0
 30
0.0
  9
$UCSYDIR
 10
0.0
 20
1.0
 30
0.0
  9
$UCSORTHOREF
  2

  9
$UCSORTHOVIEW
 70
     0
  9
$UCSORGTOP
 10
0.0
 20
0.0
 30
0.0
  9
$UCSORGBOTTOM
 10
0.0
 20
0.0
 30
0.0
  9
$UCSORGLEFT
 10
0.0
 20
0.0
 30
0.0
  9
$UCSORGRIGHT
 10
0.0
 20
0.0
 30
0.0
  9
$UCSORGFRONT
 10
0.0
 20
0.0
 30
0.0
  9
$UCSORGBACK
 10
0.0
 20
0.0
 30
0.0
  9
$PUCSBASE
  2

  9
$PUCSNAME
  2

  9
$PUCSORG
 10
0.0
 20
0.0
 30
0.0
  9
$PUCSXDIR
 10
1.0
 20
0.0
 30
0.0
  9
$PUCSYDIR
 10
0.0
 20
1.0
 30
0.0
  9
$PUCSORTHOREF
  2

  9
$PUCSORTHOVIEW
 70
     0
  9
$PUCSORGTOP
 10
0.0
 20
0.0
 30
0.0
  9
$PUCSORGBOTTOM
 10
0.0
 20
0.0
 30
0.0
  9
$PUCSORGLEFT
 10
0.0
 20
0.0
 30
0.0
  9
$PUCSORGRIGHT
 10
0.0
 20
0.0
 30
0.0
  9
$PUCSORGFRONT
 10
0.0
 20
0.0
 30
0.0
  9
$PUCSORGBACK
 10
0.0
 20
0.0
 30
0.0
  9
$USERI1
 70
     0
  9
$USERI2
 70
     0
  9
$USERI3
 70
     0
  9
$USERI4
 70
     0
  9
$USERI5
 70
     0
  9
$USERR1
 40
0.0
  9
$USERR2
 40
0.0
  9
$USERR3
 40
0.0
  9
$USERR4
 40
0.0
  9
$USERR5
 40
0.0
  9
$WORLDVIEW
 70
     1
  9
$SHADEDGE
 70
     3
  9
$SHADEDIF
 70
    70
  9
$TILEMODE
 70
     1
  9
$MAXACTVP
 70
    64
  9
$PINSBASE
 10
0.0
 20
0.0
 30
0.0
  9
$PLIMCHECK
 70
     0
  9
$PEXTMIN
 10
1.0000000000E+20
 20
1.0000000000E+20
 30
1.0000000000E+20
  9
$PEXTMAX
 10
-1.0000000000E+20
 20
-1.0000000000E+20
 30
-1.0000000000E+20
  9
$PLIMMIN
 10
0.0
 20
0.0
  9
$PLIMMAX
 10
420.0
 20
297.0
  9
$UNITMODE
 70
     0
  9
$VISRETAIN
 70
     1
  9
$PLINEGEN
 70
     0
  9
$PSLTSCALE
 70
     1
  9
$TREEDEPTH
 70
  3020
  9
$CMLSTYLE
  2
Standard
  9
$CMLJUST
 70
     0
  9
$CMLSCALE
 40
20.0
  9
$PROXYGRAPHICS
 70
     1
  9
$MEASUREMENT
 70
     1
  9
$CELWEIGHT
370
    -1
  9
$ENDCAPS
280
     0
  9
$JOINSTYLE
280
     0
  9
$LWDISPLAY
290
     1
  9
$INSUNITS
 70
     4
  9
$HYPERLINKBASE
  1

  9
$STYLESHEET
  1

  9
$XEDIT
290
     1
  9
$CEPSNTYPE
380
     0
  9
$PSTYLEMODE
290
     1
  9
$FINGERPRINTGUID
  2
{f59b3a0c-12f2-4a12-ac7d-df32bf630080}
  9
$VERSIONGUID
  2
{FAEB1C32-E019-11D5-929B-00C0DF256EC4}
  9
$EXTNAMES
290
     1
  9
$PSVPSCALE
 40
0.0
  9
$OLESTARTUP
290
     0
  0
ENDSEC
  0
SECTION
  2
CLASSES
  0
CLASS
  1
ACDBDICTIONARYWDFLT
  2
AcDbDictionaryWithDefault
  3
ObjectDBX Classes
 90
        0
280
     0
281
     0
  0
CLASS
  1
VISUALSTYLE
  2
AcDbVisualStyle
  3
ObjectDBX Classes
 90
     4095
280
     0
281
     0
  0
CLASS
  1
MATERIAL
  2
AcDbMaterial
  3
ObjectDBX Classes
 90
     1153
280
     0
281
     0
  0
CLASS
  1
SCALE
  2
AcDbScale
  3
ObjectDBX Classes
 90
     1153
280
     0
281
     0
  0
CLASS
  1
TABLESTYLE
  2
AcDbTableStyle
  3
ObjectDBX Classes
 90
     4095
280
     0
281
     0
  0
CLASS
  1
MLEADERSTYLE
  2
AcDbMLeaderStyle
  3
ACDB_MLEADERSTYLE_CLASS
 90
     4095
280
     0
281
     0
  0
CLASS
  1
SUN
  2
AcDbSun
  3
SCENEOE
 90
     1153
280
     0
281
     0
  0
CLASS
  1
ACDBPLACEHOLDER
  2
AcDbPlaceHolder
  3
ObjectDBX Classes
 90
        0
280
     0
281
     0
  0
CLASS
  1
LAYOUT
  2
AcDbLayout
  3
ObjectDBX Classes
 90
        0
280
     0
281
     0
  0
ENDSEC
  0
SECTION
  2
TABLES
  0
TABLE
  2
VPORT
  5
8
330
0
100
AcDbSymbolTable
 70
     1
  0
VPORT
  5
29
330
8
100
AcDbSymbolTableRecord
100
AcDbViewportTableRecord
  2
*Active
 70
     0
 10
0.0
 20
0.0
 11
1.0
 21
1.0
 12
0.0
 22
0.0
 13
0.0
 23
0.0
 14
10.0
 24
10.0
 15
10.0
 25
10.0
 16
0.0
 26
0.0
 36
1.0
 17
0.0
 27
0.0
 37
0.0
 40
70.9496951995
 41
1.020723268
 42
50.0
 43
0.0
 44
0.0
 50
0.0
 51
0.0
 71
     0
 72
   100
 73
     1
 74
     3
 75
     0
 76
     0
 77
     0
 78
     0
281
     0
 65
     1
110
0.0
120
0.0
130
0.0
111
1.0
121
0.0
131
0.0
112
0.0
122
1.0
132
0.0
 79
     0
146
0.0
  0
ENDTAB
  0
TABLE
  2
LTYPE
  5
5
330
0
100
AcDbSymbolTable
 70
     6
  0
LTYPE
  5
14
330
5
100
AcDbSymbolTableRecord
100
AcDbLinetypeTableRecord
  2
ByBlock
 70
     0
  3

 72
    65
 73
     0
 40
0.0
  0
LTYPE
  5
15
330
5
100
AcDbSymbolTableRecord
100
AcDbLinetypeTableRecord
  2
ByLayer
 70
     0
  3

 72
    65
 73
     0
 40
0.0
  0
LTYPE
  5
16
330
5
100
AcDbSymbolTableRecord
100
AcDbLinetypeTableRecord
  2
Continuous
 70
     0
  3
Solid line
 72
    65
 73
     0
 40
0.0
  0
LTYPE
  5
5E
330
5
100
AcDbSymbolTableRecord
100
AcDbLinetypeTableRecord
  2
HIDDEN
 70
     0
  3
Hidden __ __ __ __ __ __ __ __ __ __ __ __ __ __
 72
    65
 73
     2
 40
1.905
 49
1.27
 74
     0
 49
-0.635
 74
     0
  0
LTYPE
  5
5F
330
5
100
AcDbSymbolTableRecord
100
AcDbLinetypeTableRecord
  2
PHANTOM
 70
     0
  3
Phantom ______  __  __  ______  __  __  ______
 72
    65
 73
     6
 40
12.7
 49
6.35
 74
     0
 49
-1.27
 74
     0
 49
1.27
 74
     0
 49
-1.27
 74
     0
 49
1.27
 74
     0
 49
-1.27
 74
     0
  0
LTYPE
  5
60
330
5
100
AcDbSymbolTableRecord
100
AcDbLinetypeTableRecord
  2
CENTER
 70
     0
  3
Center ____ _ ____ _ ____ _ ____ _ ____ _ ____
 72
    65
 73
     4
 40
10.16
 49
6.35
 74
     0
 49
-1.27
 74
     0
 49
1.27
 74
     0
 49
-1.27
 74
     0
  0
LTYPE
  5
61
330
5
100
AcDbSymbolTableRecord
100
AcDbLinetypeTableRecord
  2
CENTERX2
 70
     0
  3
Center (2x) ________  __  ________  __  _____
 72
    65
 73
     4
 40
20.32
 49
12.7
 74
     0
 49
-2.54
 74
     0
 49
2.54
 74
     0
 49
-2.54
 74
     0
  0
LTYPE
  5
62
330
5
100
AcDbSymbolTableRecord
100
AcDbLinetypeTableRecord
  2
DOT2
 70
     0
  3
Dot (.5x) ........................................
 72
    65
 73
     2
 40
0.635
 49
0.0
 74
     0
 49
-0.635
 74
     0
  0
ENDTAB
  0
TABLE
  2
LAYER
  5
2
330
0
100
AcDbSymbolTable
 70
     1
  0
LAYER
  5
10
330
2
100
AcDbSymbolTableRecord
100
AcDbLayerTableRecord
  2
0
 70
     0
 62
     7
  6
Continuous
370
    -3
390
F
  0
ENDTAB
  0
TABLE
  2
STYLE
  5
3
330
0
100
AcDbSymbolTable
 70
     2
  0
STYLE
  5
11
330
3
100
AcDbSymbolTableRecord
100
AcDbTextStyleTableRecord
  2
Standard
 70
     0
 40
0.0
 41
1.0
 50
0.0
 71
     0
 42
3.175
  3
txt
  4

  0
STYLE
  5
92
330
3
100
AcDbSymbolTableRecord
100
AcDbTextStyleTableRecord
  2
SLDTEXTSTYLE0
 70
     0
 40
0.0
 41
0.7
 50
0.0
 71
     0
 42
3.175
  3
TXT
  4

  0
ENDTAB
  0
TABLE
  2
VIEW
  5
6
330
0
100
AcDbSymbolTable
 70
     0
  0
ENDTAB
  0
TABLE
  2
UCS
  5
7
330
0
100
AcDbSymbolTable
 70
     0
  0
ENDTAB
  0
TABLE
  2
APPID
  5
9
330
0
100
AcDbSymbolTable
 70
     1
  0
APPID
  5
12
330
9
100
AcDbSymbolTableRecord
100
AcDbRegAppTableRecord
  2
ACAD
 70
     0
  0
ENDTAB
  0
TABLE
  2
DIMSTYLE
  5
A
330
0
100
AcDbSymbolTable
 70
     1
100
AcDbDimStyleTable
  0
DIMSTYLE
105
27
330
A
100
AcDbSymbolTableRecord
100
AcDbDimStyleTableRecord
  2
ISO-25
 70
     0
 41
2.5
 42
0.625
 43
3.75
 44
1.25
 73
     0
 74
     0
 77
     1
 78
     8
140
2.5
141
2.5
143
0.0393700787
147
0.625
171
     3
172
     1
178
     0
271
     2
272
     2
274
     3
278
    44
283
     0
284
     8
340
11
  0
ENDTAB
  0
TABLE
  2
BLOCK_RECORD
  5
1
330
0
100
AcDbSymbolTable
 70
     1
  0
BLOCK_RECORD
  5
1F
330
1
100
AcDbSymbolTableRecord
100
AcDbBlockTableRecord
  2
*Model_Space
340
22
  0
BLOCK_RECORD
  5
1B
330
1
100
AcDbSymbolTableRecord
100
AcDbBlockTableRecord
  2
*Paper_Space
340
1E
  0
BLOCK_RECORD
  5
23
330
1
100
AcDbSymbolTableRecord
100
AcDbBlockTableRecord
  2
*Paper_Space0
340
26
  0
ENDTAB
  0
ENDSEC
  0
SECTION
  2
BLOCKS
  0
BLOCK
  5
20
330
1F
100
AcDbEntity
  8
0
100
AcDbBlockBegin
  2
*Model_Space
 70
     0
 10
0.0
 20
0.0
 30
0.0
  3
*Model_Space
  1

  0
ENDBLK
  5
21
330
1F
100
AcDbEntity
  8
0
100
AcDbBlockEnd
  0
BLOCK
  5
1C
330
1B
100
AcDbEntity
 67
     1
  8
0
100
AcDbBlockBegin
  2
*Paper_Space
 70
     0
 10
0.0
 20
0.0
 30
0.0
  3
*Paper_Space
  1

  0
ENDBLK
  5
1D
330
1B
100
AcDbEntity
 67
     1
  8
0
100
AcDbBlockEnd
  0
BLOCK
  5
24
330
23
100
AcDbEntity
  8
0
100
AcDbBlockBegin
  2
*Paper_Space0
 70
     0
 10
0.0
 20
0.0
 30
0.0
  3
*Paper_Space0
  1

  0
ENDBLK
  5
25
330
23
100
AcDbEntity
  8
0
100
AcDbBlockEnd
  0
ENDSEC
  0
SECTION
  2
ENTITIES
  0
CIRCLE
  5
63
330
1F
100
AcDbEntity
  8
0
  6
Continuous
 62
     7
370
    25
100
AcDbCircle
 10
0.0
 20
22.5
 30
0.0
 40
6.0
  0
CIRCLE
  5
64
330
1F
100
AcDbEntity
  8
0
  6
Continuous
 62
     7
370
    25
100
AcDbCircle
 10
0.0
 20
-22.5
 30
0.0
 40
6.000000000000004
  0
CIRCLE
  5
65
330
1F
100
AcDbEntity
  8
0
  6
Continuous
 62
     7
370
    25
100
AcDbCircle
 10
-22.5
 20
0.0
 30
0.0
 40
6.000000000000005
  0
CIRCLE
  5
66
330
1F
100
AcDbEntity
  8
0
  6
Continuous
 62
     7
370
    25
100
AcDbCircle
 10
22.5
 20
0.0
 30
0.0
 40
6.000000000000003
  0
CIRCLE
  5
67
330
1F
100
AcDbEntity
  8
0
  6
Continuous
 62
     7
370
    25
100
AcDbCircle
 10
0.0
 20
0.0
 30
0.0
 40
10.36
  0
SPLINE
  5
68
330
1F
100
AcDbEntity
  8
0
  6
Continuous
 62
     7
370
    25
100
AcDbSpline
210
0.0
220
0.0
230
1.0
 70
     8
 71
     3
 72
    17
 73
    13
 74
     0
 42
0.00000001
 43
0.00000001
 40
0.0230106502467837
 40
0.0230106502467837
 40
0.0230106502467837
 40
0.0230106502467837
 40
0.2672579876850878
 40
0.3893816564042398
 40
0.5115053251233919
 40
0.6336289938425439
 40
0.7557526625616959
 40
0.816814496921272
 40
0.877876331280848
 40
0.938938165640424
 40
0.969469082820212
 40
1.0
 40
1.0
 40
1.0
 40
1.0
 10
35.50000232613555
 20
-0.00373588113426
 30
0.0
 10
35.50061523957163
 20
-0.4959193357015299
 30
0.0
 10
35.41826386336236
 20
-1.233614789602318
 30
0.0
 10
35.14956687896227
 20
-2.192738575271878
 30
0.0
 10
34.87071186794254
 20
-2.889611747880356
 30
0.0
 10
34.4997489707315
 20
-3.601492099668298
 30
0.0
 10
34.13937205125529
 20
-4.165162167239122
 30
0.0
 10
33.69388727086955
 20
-4.839357340230454
 30
0.0
 10
33.30681420999317
 20
-5.487322542012247
 30
0.0
 10
32.97508887824762
 20
-6.197475634959293
 30
0.0
 10
32.75796561827411
 20
-6.873262554553412
 30
0.0
 10
32.67479371169512
 20
-7.260710929490217
 30
0.0
 10
32.64481089881378
 20
-7.450965060354814
 30
0.0
  0
LINE
  5
69
330
1F
100
AcDbEntity
  8
0
  6
Continuous
 62
     7
370
    25
100
AcDbLine
 10
35.5000023261
 20
-0.0037358811
 30
0.0
 11
35.5000023261
 21
0.0037358811
 31
0.0
  0
SPLINE
  5
6A
330
1F
100
AcDbEntity
  8
0
  6
Continuous
 62
     7
370
    25
100
AcDbSpline
210
0.0
220
0.0
230
1.0
 70
     8
 71
     3
 72
    17
 73
    13
 74
     0
 42
0.00000001
 43
0.00000001
 40
0.0230106502467868
 40
0.0230106502467868
 40
0.0230106502467868
 40
0.0230106502467868
 40
0.0535415674265747
 40
0.0840724846063626
 40
0.1451343189659384
 40
0.2061961533255142
 40
0.2672579876850901
 40
0.3893816564042417
 40
0.5115053251233934
 40
0.633628993842545
 40
0.7557526625616967
 40
1.0
 40
1.0
 40
1.0
 40
1.0
 10
32.64481089881537
 20
7.450965060354605
 30
0.0
 10
32.67479371169671
 20
7.260710929490013
 30
0.0
 10
32.75796561827573
 20
6.873262554553214
 30
0.0
 10
32.97508887824925
 20
6.197475634959154
 30
0.0
 10
33.30681420999487
 20
5.487322542012101
 30
0.0
 10
33.69388727087123
 20
4.839357340230339
 30
0.0
 10
34.13937205125701
 20
4.165162167239032
 30
0.0
 10
34.49974897073324
 20
3.601492099668213
 30
0.0
 10
34.87071186794429
 20
2.889611747880303
 30
0.0
 10
35.14956687896404
 20
2.192738575271843
 30
0.0
 10
35.41826386336416
 20
1.23361478960228
 30
0.0
 10
35.50061523957348
 20
0.4959193357014575
 30
0.0
 10
35.50000232613742
 20
0.003735881134169
 30
0.0
  0
SPLINE
  5
6B
330
1F
100
AcDbEntity
  8
0
  6
Continuous
 62
     7
370
    25
100
AcDbSpline
210
0.0
220
0.0
230
1.0
 70
     8
 71
     3
 72
    17
 73
    13
 74
     0
 42
0.00000001
 43
0.00000001
 40
0.0230106502467902
 40
0.0230106502467902
 40
0.0230106502467902
 40
0.0230106502467902
 40
0.2672579876850927
 40
0.3893816564042438
 40
0.5115053251233951
 40
0.6336289938425463
 40
0.7557526625616975
 40
0.8168144969212732
 40
0.8778763312808487
 40
0.9389381656404243
 40
0.9694690828202122
 40
1.0
 40
1.0
 40
1.0
 40
1.0
 10
31.98601784438877
 20
15.39950783534938
 30
0.0
 10
32.20012045791283
 20
14.95633179866102
 30
0.0
 10
32.44599849358779
 20
14.25596023767214
 30
0.0
 10
32.62005909014692
 20
13.27523631403798
 30
0.0
 10
32.67118134438164
 20
12.52638462578845
 30
0.0
 10
32.64582863168566
 20
11.72404782224038
 30
0.0
 10
32.56570752307325
 20
11.0598369542765
 30
0.0
 10
32.45686192737382
 20
10.25911949028752
 30
0.0
 10
32.38926271448766
 20
9.507378309033372
 30
0.0
 10
32.39851239720401
 20
8.723622253545713
 30
0.0
 10
32.4961040549906
 20
8.020553025769095
 30
0.0
 10
32.5892763061114
 20
7.635387164215596
 30
0.0
 10
32.64481089881525
 20
7.450965060354546
 30
0.0
  0
LINE
  5
6C
330
1F
100
AcDbEntity
  8
0
  6
Continuous
 62
     7
370
    25
100
AcDbLine
 10
31.9860178444
 20
15.3995078353
 30
0.0
 11
31.9827759682
 21
15.4062396605
 31
0.0
  0
SPLINE
  5
6D
330
1F
100
AcDbEntity
  8
0
  6
Continuous
 62
     7
370
    25
100
AcDbSpline
210
0.0
220
0.0
230
1.0
 70
     8
 71
     3
 72
    17
 73
    13
 74
     0
 42
0.00000001
 43
0.00000001
 40
0.0230106502467868
 40
0.0230106502467868
 40
0.0230106502467868
 40
0.0230106502467868
 40
0.0535415674265747
 40
0.0840724846063626
 40
0.1451343189659384
 40
0.2061961533255142
 40
0.2672579876850901
 40
0.3893816564042417
 40
0.5115053251233934
 40
0.633628993842545
 40
0.7557526625616967
 40
1.0
 40
1.0
 40
1.0
 40
1.0
 10
26.17910573797514
 20
20.87714017077169
 30
0.0
 10
26.28866749263545
 20
20.71873617683508
 30
0.0
 10
26.53171034077986
 20
20.40574419091368
 30
0.0
 10
27.02054459403369
 20
19.89108746691047
 30
0.0
 10
27.62754266994485
 20
19.39519186601837
 30
0.0
 10
28.25742501196531
 20
18.97934009869362
 30
0.0
 10
28.95131525276972
 20
18.56519983917212
 30
0.0
 10
29.52057091447467
 20
18.21371234183639
 30
0.0
 10
30.16367024484677
 20
17.73328507611989
 30
0.0
 10
30.71727186625624
 20
17.2264146975762
 30
0.0
 10
31.37550769850293
 20
16.47885727850437
 30
0.0
 10
31.76977778656495
 20
15.84994756357775
 30
0.0
 10
31.98277596823984
 20
15.40623966054258
 30
0.0
  0
SPLINE
  5
6E
330
1F
100
AcDbEntity
  8
0
  6
Continuous
 62
     7
370
    25
100
AcDbSpline
210
0.0
220
0.0
230
1.0
 70
     8
 71
     3
 72
    17
 73
    13
 74
     0
 42
0.00000001
 43
0.00000001
 40
0.0230106502467902
 40
0.0230106502467902
 40
0.0230106502467902
 40
0.0230106502467902
 40
0.2672579876850927
 40
0.3893816564042438
 40
0.5115053251233951
 40
0.6336289938425463
 40
0.7557526625616975
 40
0.8168144969212732
 40
0.8778763312808487
 40
0.9389381656404243
 40
0.9694690828202122
 40
1.0
 40
1.0
 40
1.0
 40
1.0
 10
22.13681024579593
 20
27.75269016247346
 30
0.0
 10
22.52199691100328
 20
27.44629799292752
 30
0.0
 10
23.04740519810089
 20
26.92196750199785
 30
0.0
 10
23.62974853975759
 20
26.11388784126446
 30
0.0
 10
24.00072266982226
 20
25.46137689829494
 30
0.0
 10
24.32600155732136
 20
24.72749628694447
 30
0.0
 10
24.54200522775445
 20
24.09429972699959
 30
0.0
 10
24.79135702187324
 20
23.32565188591119
 30
0.0
 10
25.05662051013926
 20
22.61902628563255
 30
0.0
 10
25.40501319421569
 20
21.91689976653079
 30
0.0
 10
25.7979905450546
 20
21.32579971371099
 30
0.0
 10
26.04905304685809
 20
21.01920318817077
 30
0.0
 10
26.17910573797507
 20
20.87714017077161
 30
0.0
  0
LINE
  5
6F
330
1F
100
AcDbEntity
  8
0
  6
Continuous
 62
     7
370
    25
100
AcDbLine
 10
22.1368102458
 20
27.7526901625
 30
0.0
 11
22.1309685868
 21
27.7573487301
 31
0.0
  0
SPLINE
  5
70
330
1F
100
AcDbEntity
  8
0
  6
Continuous
 62
     7
370
    25
100
AcDbSpline
210
0.0
220
0.0
230
1.0
 70
     8
 71
     3
 72
    17
 73
    13
 74
     0
 42
0.00000001
 43
0.00000001
 40
0.0230106502467868
 40
0.0230106502467868
 40
0.0230106502467868
 40
0.0230106502467868
 40
0.0535415674265747
 40
0.0840724846063626
 40
0.1451343189659384
 40
0.2061961533255142
 40
0.2672579876850901
 40
0.3893816564042417
 40
0.5115053251233934
 40
0.633628993842545
 40
0.7557526625616967
 40
1.0
 40
1.0
 40
1.0
 40
1.0
 10
14.52830762006719
 20
30.16834162904657
 30
0.0
 10
14.69574826730928
 20
30.07316162573458
 30
0.0
 10
15.05052444021912
 20
29.89661793023512
 30
0.0
 10
15.71425006773765
 20
29.64502547786208
 30
0.0
 10
16.47629747453729
 20
29.46160557454202
 30
0.0
 10
17.22423317486469
 20
29.36023178428018
 30
0.0
 10
18.02909540389108
 20
29.28817199572368
 30
0.0
 10
18.69448174256153
 20
29.21848347818162
 30
0.0
 10
19.4823437966188
 20
29.06466381056541
 30
0.0
 10
20.20104443781949
 20
28.84818812091432
 30
0.0
 10
21.11844743860355
 20
28.46025998347745
 30
0.0
 10
21.74654621217229
 20
28.06469928963775
 30
0.0
 10
22.13096858682608
 20
27.75734873005111
 30
0.0
  0
SPLINE
  5
71
330
1F
100
AcDbEntity
  8
0
  6
Continuous
 62
     7
370
    25
100
AcDbSpline
210
0.0
220
0.0
230
1.0
 70
     8
 71
     3
 72
    17
 73
    13
 74
     0
 42
0.00000001
 43
0.00000001
 40
0.0230106502467902
 40
0.0230106502467902
 40
0.0230106502467902
 40
0.0230106502467902
 40
0.2672579876850927
 40
0.3893816564042438
 40
0.5115053251233951
 40
0.6336289938425463
 40
0.7557526625616975
 40
0.8168144969212732
 40
0.8778763312808487
 40
0.9389381656404243
 40
0.9694690828202122
 40
1.0
 40
1.0
 40
1.0
 40
1.0
 10
7.90313588786226
 20
34.60911183851202
 30
0.0
 10
8.383115661704178
 20
34.50018826294044
 30
0.0
 10
9.083990645254968
 20
34.2557489262901
 30
0.0
 10
9.959276491221772
 20
33.78036361571237
 30
0.0
 10
10.57662652095796
 20
33.35343121279953
 30
0.0
 10
11.18811153569921
 20
32.83336084917968
 30
0.0
 10
11.65745780913733
 20
32.35659094159704
 30
0.0
 10
12.21561981215004
 20
31.77225285518394
 30
0.0
 10
12.76120731447403
 20
31.25069870221026
 30
0.0
 10
13.37973955607332
 20
30.76926648761916
 30
0.0
 10
13.99026861607999
 20
30.40721022458354
 30
0.0
 10
14.34949536100447
 20
30.23990823709946
 30
0.0
 10
14.52830762006726
 20
30.16834162904667
 30
0.0
  0
LINE
  5
72
330
1F
100
AcDbEntity
  8
0
  6
Continuous
 62
     7
370
    25
100
AcDbLine
 10
7.9031358879
 20
34.6091118385
 30
0.0
 11
7.8958514583
 21
34.610774462
 31
0.0
  0
SPLINE
  5
73
330
1F
100
AcDbEntity
  8
0
  6
Continuous
 62
     7
370
    25
100
AcDbSpline
210
0.0
220
0.0
230
1.0
 70
     8
 71
     3
 72
    17
 73
    13
 74
     0
 42
0.00000001
 43
0.00000001
 40
0.0230106502467868
 40
0.0230106502467868
 40
0.0230106502467868
 40
0.0230106502467868
 40
0.0535415674265747
 40
0.0840724846063626
 40
0.1451343189659384
 40
0.2061961533255142
 40
0.2672579876850901
 40
0.3893816564042417
 40
0.5115053251233934
 40
0.633628993842545
 40
0.7557526625616967
 40
1.0
 40
1.0
 40
1.0
 40
1.0
 10
0.0000000000053035
 20
33.48433303726058
 30
0.0
 10
0.1921558661180796
 20
33.47122859153529
 30
0.0
 10
0.5883975917043448
 20
33.46609983051776
 30
0.0
 10
1.295555592896914
 20
33.52740262054631
 30
0.0
 10
2.061719495770246
 20
33.69278697614833
 30
0.0
 10
2.779570716125354
 20
33.9259694853787
 30
0.0
 10
3.5359920979276
 20
34.21026249266612
 30
0.0
 10
4.165721188761959
 20
34.43617562049052
 30
0.0
 10
4.942300224204351
 20
34.63942942262042
 30
0.0
 10
5.683752408921555
 20
34.75622408709742
 30
0.0
 10
6.67861966272827
 20
34.80475915654129
 30
0.0
 10
7.416144456572504
 20
34.72089313043698
 30
0.0
 10
7.895851458273994
 20
34.61077446203227
 30
0.0
  0
SPLINE
  5
74
330
1F
100
AcDbEntity
  8
0
  6
Continuous
 62
     7
370
    25
100
AcDbSpline
210
0.0
220
0.0
230
1.0
 70
     8
 71
     3
 72
    17
 73
    13
 74
     0
 42
0.00000001
 43
0.00000001
 40
0.0230106502467902
 40
0.0230106502467902
 40
0.0230106502467902
 40
0.0230106502467902
 40
0.2672579876850927
 40
0.3893816564042438
 40
0.5115053251233951
 40
0.6336289938425463
 40
0.7557526625616975
 40
0.8168144969212732
 40
0.8778763312808487
 40
0.9389381656404243
 40
0.9694690828202122
 40
1.0
 40
1.0
 40
1.0
 40
1.0
 10
-7.895851458263254
 20
34.6107744620323
 30
0.0
 10
-7.416144456561788
 20
34.72089313043702
 30
0.0
 10
-6.678619662717637
 20
34.80475915654132
 30
0.0
 10
-5.683752408910897
 20
34.75622408709742
 30
0.0
 10
-4.942300224193688
 20
34.63942942262045
 30
0.0
 10
-4.165721188751358
 20
34.43617562049056
 30
0.0
 10
-3.535992097916908
 20
34.21026249266612
 30
0.0
 10
-2.779570716114677
 20
33.92596948537873
 30
0.0
 10
-2.061719495759614
 20
33.69278697614838
 30
0.0
 10
-1.295555592886325
 20
33.52740262054635
 30
0.0
 10
-0.5883975916937662
 20
33.4660998305178
 30
0.0
 10
-0.1921558661074922
 20
33.4712285915353
 30
0.0
 10
0.0000000000052874
 20
33.48433303726059
 30
0.0
  0
LINE
  5
75
330
1F
100
AcDbEntity
  8
0
  6
Continuous
 62
     7
370
    25
100
AcDbLine
 10
-7.8958514583
 20
34.610774462
 30
0.0
 11
-7.9031358879
 21
34.6091118385
 31
0.0
  0
SPLINE
  5
76
330
1F
100
AcDbEntity
  8
0
  6
Continuous
 62
     7
370
    25
100
AcDbSpline
210
0.0
220
0.0
230
1.0
 70
     8
 71
     3
 72
    17
 73
    13
 74
     0
 42
0.00000001
 43
0.00000001
 40
0.0230106502467868
 40
0.0230106502467868
 40
0.0230106502467868
 40
0.0230106502467868
 40
0.0535415674265747
 40
0.0840724846063626
 40
0.1451343189659384
 40
0.2061961533255142
 40
0.2672579876850901
 40
0.3893816564042417
 40
0.5115053251233934
 40
0.633628993842545
 40
0.7557526625616967
 40
1.0
 40
1.0
 40
1.0
 40
1.0
 10
-14.52830762005756
 20
30.1683416290505
 30
0.0
 10
-14.34949536099477
 20
30.23990823710327
 30
0.0
 10
-13.99026861607029
 20
30.40721022458735
 30
0.0
 10
-13.37973955606361
 20
30.76926648762297
 30
0.0
 10
-12.76120731446428
 20
31.25069870221407
 30
0.0
 10
-12.21561981214025
 20
31.77225285518779
 30
0.0
 10
-11.65745780912753
 20
32.35659094160091
 30
0.0
 10
-11.18811153568948
 20
32.83336084918349
 30
0.0
 10
-10.57662652094818
 20
33.35343121280336
 30
0.0
 10
-9.959276491212002
 20
33.78036361571621
 30
0.0
 10
-9.083990645245208
 20
34.2557489262939
 30
0.0
 10
-8.38311566169434
 20
34.50018826294426
 30
0.0
 10
-7.903135887852394
 20
34.60911183851587
 30
0.0
  0
SPLINE
  5
77
330
1F
100
AcDbEntity
  8
0
  6
Continuous
 62
     7
370
    25
100
AcDbSpline
210
0.0
220
0.0
230
1.0
 70
     8
 71
     3
 72
    17
 73
    13
 74
     0
 42
0.00000001
 43
0.00000001
 40
0.0230106502467902
 40
0.0230106502467902
 40
0.0230106502467902
 40
0.0230106502467902
 40
0.2672579876850927
 40
0.3893816564042438
 40
0.5115053251233951
 40
0.6336289938425463
 40
0.7557526625616975
 40
0.8168144969212732
 40
0.8778763312808487
 40
0.9389381656404243
 40
0.9694690828202122
 40
1.0
 40
1.0
 40
1.0
 40
1.0
 10
-22.13096858681616
 20
27.75734873005485
 30
0.0
 10
-21.74654621216242
 20
28.06469928964147
 30
0.0
 10
-21.11844743859375
 20
28.46025998348114
 30
0.0
 10
-20.20104443780966
 20
28.84818812091802
 30
0.0
 10
-19.48234379660898
 20
29.06466381056915
 30
0.0
 10
-18.69448174255178
 20
29.21848347818534
 30
0.0
 10
-18.02909540388123
 20
29.28817199572743
 30
0.0
 10
-17.22423317485487
 20
29.36023178428396
 30
0.0
 10
-16.47629747452751
 20
29.46160557454581
 30
0.0
 10
-15.71425006772791
 20
29.64502547786586
 30
0.0
 10
-15.05052444020938
 20
29.8966179302389
 30
0.0
 10
-14.69574826729954
 20
30.07316162573836
 30
0.0
 10
-14.52830762005745
 20
30.16834162905034
 30
0.0
  0
LINE
  5
78
330
1F
100
AcDbEntity
  8
0
  6
Continuous
 62
     7
370
    25
100
AcDbLine
 10
-22.1309685868
 20
27.7573487301
 30
0.0
 11
-22.1368102458
 21
27.7526901625
 31
0.0
  0
SPLINE
  5
79
330
1F
100
AcDbEntity
  8
0
  6
Continuous
 62
     7
370
    25
100
AcDbSpline
210
0.0
220
0.0
230
1.0
 70
     8
 71
     3
 72
    17
 73
    13
 74
     0
 42
0.00000001
 43
0.00000001
 40
0.0230106502467868
 40
0.0230106502467868
 40
0.0230106502467868
 40
0.0230106502467868
 40
0.0535415674265747
 40
0.0840724846063626
 40
0.1451343189659384
 40
0.2061961533255142
 40
0.2672579876850901
 40
0.3893816564042417
 40
0.5115053251233934
 40
0.633628993842545
 40
0.7557526625616967
 40
1.0
 40
1.0
 40
1.0
 40
1.0
 10
-26.17910573796775
 20
20.87714017077827
 30
0.0
 10
-26.04905304685078
 20
21.01920318817742
 30
0.0
 10
-25.79799054504728
 20
21.32579971371763
 30
0.0
 10
-25.40501319420836
 20
21.91689976653743
 30
0.0
 10
-25.05662051013191
 20
22.61902628563923
 30
0.0
 10
-24.79135702186584
 20
23.3256518859179
 30
0.0
 10
-24.54200522774707
 20
24.09429972700633
 30
0.0
 10
-24.32600155731402
 20
24.72749628695112
 30
0.0
 10
-24.00072266981489
 20
25.46137689830164
 30
0.0
 10
-23.62974853975023
 20
26.11388784127117
 30
0.0
 10
-23.04740519809354
 20
26.92196750200454
 30
0.0
 10
-22.52199691099586
 20
27.44629799293426
 30
0.0
 10
-22.13681024578849
 20
27.75269016248023
 30
0.0
  0
SPLINE
  5
7A
330
1F
100
AcDbEntity
  8
0
  6
Continuous
 62
     7
370
    25
100
AcDbSpline
210
0.0
220
0.0
230
1.0
 70
     8
 71
     3
 72
    17
 73
    13
 74
     0
 42
0.00000001
 43
0.00000001
 40
0.0230106502467902
 40
0.0230106502467902
 40
0.0230106502467902
 40
0.0230106502467902
 40
0.2672579876850927
 40
0.3893816564042438
 40
0.5115053251233951
 40
0.6336289938425463
 40
0.7557526625616975
 40
0.8168144969212732
 40
0.8778763312808487
 40
0.9389381656404243
 40
0.9694690828202122
 40
1.0
 40
1.0
 40
1.0
 40
1.0
 10
-31.98277596823221
 20
15.40623966054912
 30
0.0
 10
-31.76977778655737
 20
15.84994756358427
 30
0.0
 10
-31.37550769849541
 20
16.47885727851082
 30
0.0
 10
-30.71727186624872
 20
17.22641469758268
 30
0.0
 10
-30.16367024483927
 20
17.7332850761264
 30
0.0
 10
-29.52057091446722
 20
18.21371234184286
 30
0.0
 10
-28.9513152527622
 20
18.56519983917867
 30
0.0
 10
-28.25742501195781
 20
18.97934009870019
 30
0.0
 10
-27.62754266993741
 20
19.39519186602492
 30
0.0
 10
-27.02054459402628
 20
19.89108746691699
 30
0.0
 10
-26.53171034077247
 20
20.40574419092022
 30
0.0
 10
-26.28866749262806
 20
20.71873617684161
 30
0.0
 10
-26.17910573796774
 20
20.87714017077822
 30
0.0
  0
LINE
  5
7B
330
1F
100
AcDbEntity
  8
0
  6
Continuous
 62
     7
370
    25
100
AcDbLine
 10
-31.9827759682
 20
15.4062396605
 30
0.0
 11
-31.9860178444
 21
15.3995078354
 31
0.0
  0
SPLINE
  5
7C
330
1F
100
AcDbEntity
  8
0
  6
Continuous
 62
     7
370
    25
100
AcDbSpline
210
0.0
220
0.0
230
1.0
 70
     8
 71
     3
 72
    17
 73
    13
 74
     0
 42
0.00000001
 43
0.00000001
 40
0.0230106502467868
 40
0.0230106502467868
 40
0.0230106502467868
 40
0.0230106502467868
 40
0.0535415674265747
 40
0.0840724846063626
 40
0.1451343189659384
 40
0.2061961533255142
 40
0.2672579876850901
 40
0.3893816564042417
 40
0.5115053251233934
 40
0.633628993842545
 40
0.7557526625616967
 40
1.0
 40
1.0
 40
1.0
 40
1.0
 10
-32.6448108988114
 20
7.450965060362746
 30
0.0
 10
-32.58927630610756
 20
7.635387164223797
 30
0.0
 10
-32.49610405498673
 20
8.020553025777286
 30
0.0
 10
-32.39851239720017
 20
8.723622253553916
 30
0.0
 10
-32.38926271448383
 20
9.507378309041616
 30
0.0
 10
-32.45686192737003
 20
10.25911949029581
 30
0.0
 10
-32.56570752306951
 20
11.05983695428481
 30
0.0
 10
-32.64582863168193
 20
11.72404782224858
 30
0.0
 10
-32.67118134437793
 20
12.52638462579672
 30
0.0
 10
-32.62005909014324
 20
13.27523631404625
 30
0.0
 10
-32.44599849358418
 20
14.25596023768039
 30
0.0
 10
-32.20012045790917
 20
14.95633179866935
 30
0.0
 10
-31.98601784438515
 20
15.39950783535776
 30
0.0
  0
SPLINE
  5
7D
330
1F
100
AcDbEntity
  8
0
  6
Continuous
 62
     7
370
    25
100
AcDbSpline
210
0.0
220
0.0
230
1.0
 70
     8
 71
     3
 72
    17
 73
    13
 74
     0
 42
0.00000001
 43
0.00000001
 40
0.0230106502467902
 40
0.0230106502467902
 40
0.0230106502467902
 40
0.0230106502467902
 40
0.2672579876850927
 40
0.3893816564042438
 40
0.5115053251233951
 40
0.6336289938425463
 40
0.7557526625616975
 40
0.8168144969212732
 40
0.8778763312808487
 40
0.9389381656404243
 40
0.9694690828202122
 40
1.0
 40
1.0
 40
1.0
 40
1.0
 10
-35.50000232613326
 20
0.0037358811424296
 30
0.0
 10
-35.50061523956932
 20
0.4959193357096855
 30
0.0
 10
-35.41826386336005
 20
1.233614789610426
 30
0.0
 10
-35.14956687895987
 20
2.192738575280008
 30
0.0
 10
-34.87071186794016
 20
2.88961174788848
 30
0.0
 10
-34.49974897072912
 20
3.601492099676327
 30
0.0
 10
-34.13937205125283
 20
4.165162167247237
 30
0.0
 10
-33.6938872708671
 20
4.839357340238535
 30
0.0
 10
-33.30681420999074
 20
5.487322542020258
 30
0.0
 10
-32.97508887824515
 20
6.197475634967264
 30
0.0
 10
-32.75796561827163
 20
6.873262554561314
 30
0.0
 10
-32.67479371169259
 20
7.260710929498122
 30
0.0
 10
-32.64481089881124
 20
7.450965060362714
 30
0.0
  0
LINE
  5
7E
330
1F
100
AcDbEntity
  8
0
  6
Continuous
 62
     7
370
    25
100
AcDbLine
 10
-35.5000023261
 20
0.0037358811
 30
0.0
 11
-35.5000023261
 21
-0.0037358811
 31
0.0
  0
SPLINE
  5
7F
330
1F
100
AcDbEntity
  8
0
  6
Continuous
 62
     7
370
    25
100
AcDbSpline
210
0.0
220
0.0
230
1.0
 70
     8
 71
     3
 72
    17
 73
    13
 74
     0
 42
0.00000001
 43
0.00000001
 40
0.0230106502467868
 40
0.0230106502467868
 40
0.0230106502467868
 40
0.0230106502467868
 40
0.0535415674265747
 40
0.0840724846063626
 40
0.1451343189659384
 40
0.2061961533255142
 40
0.2672579876850901
 40
0.3893816564042417
 40
0.5115053251233934
 40
0.633628993842545
 40
0.7557526625616967
 40
1.0
 40
1.0
 40
1.0
 40
1.0
 10
-32.64481089881306
 20
-7.45096506034645
 30
0.0
 10
-32.67479371169441
 20
-7.260710929481858
 30
0.0
 10
-32.75796561827343
 20
-6.873262554545061
 30
0.0
 10
-32.97508887824695
 20
-6.197475634951002
 30
0.0
 10
-33.30681420999255
 20
-5.48732254200395
 30
0.0
 10
-33.69388727086892
 20
-4.83935734022219
 30
0.0
 10
-34.13937205125469
 20
-4.165162167230883
 30
0.0
 10
-34.49974897073093
 20
-3.601492099660067
 30
0.0
 10
-34.87071186794198
 20
-2.889611747872157
 30
0.0
 10
-35.14956687896174
 20
-2.192738575263699
 30
0.0
 10
-35.41826386336188
 20
-1.233614789594136
 30
0.0
 10
-35.50061523957118
 20
-0.4959193356933156
 30
0.0
 10
-35.50000232613514
 20
-0.0037358811260271
 30
0.0
  0
SPLINE
  5
80
330
1F
100
AcDbEntity
  8
0
  6
Continuous
 62
     7
370
    25
100
AcDbSpline
210
0.0
220
0.0
230
1.0
 70
     8
 71
     3
 72
    17
 73
    13
 74
     0
 42
0.00000001
 43
0.00000001
 40
0.0230106502467902
 40
0.0230106502467902
 40
0.0230106502467902
 40
0.0230106502467902
 40
0.2672579876850927
 40
0.3893816564042438
 40
0.5115053251233951
 40
0.6336289938425463
 40
0.7557526625616975
 40
0.8168144969212732
 40
0.8778763312808487
 40
0.9389381656404243
 40
0.9694690828202122
 40
1.0
 40
1.0
 40
1.0
 40
1.0
 10
-31.98601784438672
 20
-15.39950783534134
 30
0.0
 10
-32.20012045791078
 20
-14.95633179865297
 30
0.0
 10
-32.44599849358576
 20
-14.25596023766409
 30
0.0
 10
-32.62005909014486
 20
-13.27523631402993
 30
0.0
 10
-32.67118134437958
 20
-12.5263846257804
 30
0.0
 10
-32.64582863168359
 20
-11.72404782223232
 30
0.0
 10
-32.56570752307118
 20
-11.05983695426845
 30
0.0
 10
-32.45686192737176
 20
-10.25911949027947
 30
0.0
 10
-32.38926271448556
 20
-9.50737830902532
 30
0.0
 10
-32.39851239720192
 20
-8.723622253537659
 30
0.0
 10
-32.49610405498853
 20
-8.020553025761044
 30
0.0
 10
-32.58927630610933
 20
-7.635387164207549
 30
0.0
 10
-32.64481089881318
 20
-7.450965060346499
 30
0.0
  0
LINE
  5
81
330
1F
100
AcDbEntity
  8
0
  6
Continuous
 62
     7
370
    25
100
AcDbLine
 10
-31.9860178444
 20
-15.3995078353
 30
0.0
 11
-31.9827759682
 21
-15.4062396605
 31
0.0
  0
SPLINE
  5
82
330
1F
100
AcDbEntity
  8
0
  6
Continuous
 62
     7
370
    25
100
AcDbSpline
210
0.0
220
0.0
230
1.0
 70
     8
 71
     3
 72
    17
 73
    13
 74
     0
 42
0.00000001
 43
0.00000001
 40
0.0230106502467868
 40
0.0230106502467868
 40
0.0230106502467868
 40
0.0230106502467868
 40
0.0535415674265747
 40
0.0840724846063626
 40
0.1451343189659384
 40
0.2061961533255142
 40
0.2672579876850901
 40
0.3893816564042417
 40
0.5115053251233934
 40
0.633628993842545
 40
0.7557526625616967
 40
1.0
 40
1.0
 40
1.0
 40
1.0
 10
-26.17910573797336
 20
-20.87714017076391
 30
0.0
 10
-26.28866749263367
 20
-20.71873617682729
 30
0.0
 10
-26.53171034077806
 20
-20.4057441909059
 30
0.0
 10
-27.02054459403188
 20
-19.89108746690268
 30
0.0
 10
-27.62754266994303
 20
-19.39519186601056
 30
0.0
 10
-28.25742501196347
 20
-18.9793400986858
 30
0.0
 10
-28.95131525276788
 20
-18.56519983916428
 30
0.0
 10
-29.52057091447282
 20
-18.21371234182854
 30
0.0
 10
-30.16367024484493
 20
-17.73328507611202
 30
0.0
 10
-30.71727186625438
 20
-17.22641469756832
 30
0.0
 10
-31.37550769850105
 20
-16.47885727849648
 30
0.0
 10
-31.76977778656306
 20
-15.84994756356986
 30
0.0
 10
-31.98277596823791
 20
-15.40623966053468
 30
0.0
  0
SPLINE
  5
83
330
1F
100
AcDbEntity
  8
0
  6
Continuous
 62
     7
370
    25
100
AcDbSpline
210
0.0
220
0.0
230
1.0
 70
     8
 71
     3
 72
    17
 73
    13
 74
     0
 42
0.00000001
 43
0.00000001
 40
0.0230106502467902
 40
0.0230106502467902
 40
0.0230106502467902
 40
0.0230106502467902
 40
0.2672579876850927
 40
0.3893816564042438
 40
0.5115053251233951
 40
0.6336289938425463
 40
0.7557526625616975
 40
0.8168144969212732
 40
0.8778763312808487
 40
0.9389381656404243
 40
0.9694690828202122
 40
1.0
 40
1.0
 40
1.0
 40
1.0
 10
-22.13681024579372
 20
-27.75269016246539
 30
0.0
 10
-22.52199691100108
 20
-27.44629799291945
 30
0.0
 10
-23.0474051980987
 20
-26.92196750198979
 30
0.0
 10
-23.62974853975541
 20
-26.11388784125642
 30
0.0
 10
-24.00072266982009
 20
-25.46137689828689
 30
0.0
 10
-24.32600155731919
 20
-24.72749628693643
 30
0.0
 10
-24.5420052277523
 20
-24.09429972699155
 30
0.0
 10
-24.79135702187108
 20
-23.32565188590315
 30
0.0
 10
-25.05662051013713
 20
-22.61902628562452
 30
0.0
 10
-25.40501319421357
 20
-21.91689976652277
 30
0.0
 10
-25.79799054505249
 20
-21.32579971370297
 30
0.0
 10
-26.04905304685599
 20
-21.01920318816275
 30
0.0
 10
-26.17910573797295
 20
-20.87714017076359
 30
0.0
  0
LINE
  5
84
330
1F
100
AcDbEntity
  8
0
  6
Continuous
 62
     7
370
    25
100
AcDbLine
 10
-22.1368102458
 20
-27.7526901625
 30
0.0
 11
-22.1309685868
 21
-27.75734873
 31
0.0
  0
SPLINE
  5
85
330
1F
100
AcDbEntity
  8
0
  6
Continuous
 62
     7
370
    25
100
AcDbSpline
210
0.0
220
0.0
230
1.0
 70
     8
 71
     3
 72
    17
 73
    13
 74
     0
 42
0.00000001
 43
0.00000001
 40
0.0230106502467868
 40
0.0230106502467868
 40
0.0230106502467868
 40
0.0230106502467868
 40
0.0535415674265747
 40
0.0840724846063626
 40
0.1451343189659384
 40
0.2061961533255142
 40
0.2672579876850901
 40
0.3893816564042417
 40
0.5115053251233934
 40
0.633628993842545
 40
0.7557526625616967
 40
1.0
 40
1.0
 40
1.0
 40
1.0
 10
-14.52830762006514
 20
-30.1683416290389
 30
0.0
 10
-14.69574826730722
 20
-30.0731616257269
 30
0.0
 10
-15.05052444021706
 20
-29.89661793022744
 30
0.0
 10
-15.7142500677356
 20
-29.6450254778544
 30
0.0
 10
-16.47629747453524
 20
-29.46160557453435
 30
0.0
 10
-17.22423317486264
 20
-29.3602317842725
 30
0.0
 10
-18.02909540388903
 20
-29.28817199571601
 30
0.0
 10
-18.69448174255947
 20
-29.21848347817394
 30
0.0
 10
-19.48234379661674
 20
-29.06466381055773
 30
0.0
 10
-20.20104443781744
 20
-28.84818812090663
 30
0.0
 10
-21.1184474386015
 20
-28.46025998346977
 30
0.0
 10
-21.74654621217024
 20
-28.06469928963006
 30
0.0
 10
-22.13096858682402
 20
-27.75734873004342
 30
0.0
  0
SPLINE
  5
86
330
1F
100
AcDbEntity
  8
0
  6
Continuous
 62
     7
370
    25
100
AcDbSpline
210
0.0
220
0.0
230
1.0
 70
     8
 71
     3
 72
    17
 73
    13
 74
     0
 42
0.00000001
 43
0.00000001
 40
0.0230106502467902
 40
0.0230106502467902
 40
0.0230106502467902
 40
0.0230106502467902
 40
0.2672579876850927
 40
0.3893816564042438
 40
0.5115053251233951
 40
0.6336289938425463
 40
0.7557526625616975
 40
0.8168144969212732
 40
0.8778763312808487
 40
0.9389381656404243
 40
0.9694690828202122
 40
1.0
 40
1.0
 40
1.0
 40
1.0
 10
-7.903135887859998
 20
-34.60911183850397
 30
0.0
 10
-8.383115661701913
 20
-34.50018826293239
 30
0.0
 10
-9.083990645252705
 20
-34.25574892628203
 30
0.0
 10
-9.95927649121951
 20
-33.78036361570434
 30
0.0
 10
-10.57662652095569
 20
-33.35343121279147
 30
0.0
 10
-11.18811153569694
 20
-32.83336084917159
 30
0.0
 10
-11.65745780913507
 20
-32.35659094158896
 30
0.0
 10
-12.21561981214777
 20
-31.77225285517585
 30
0.0
 10
-12.76120731447176
 20
-31.25069870220218
 30
0.0
 10
-13.37973955607104
 20
-30.76926648761109
 30
0.0
 10
-13.99026861607771
 20
-30.40721022457547
 30
0.0
 10
-14.34949536100219
 20
-30.23990823709139
 30
0.0
 10
-14.52830762006499
 20
-30.1683416290386
 30
0.0
  0
LINE
  5
87
330
1F
100
AcDbEntity
  8
0
  6
Continuous
 62
     7
370
    25
100
AcDbLine
 10
-7.9031358879
 20
-34.6091118385
 30
0.0
 11
-7.8958514583
 21
-34.610774462
 31
0.0
  0
SPLINE
  5
88
330
1F
100
AcDbEntity
  8
0
  6
Continuous
 62
     7
370
    25
100
AcDbSpline
210
0.0
220
0.0
230
1.0
 70
     8
 71
     3
 72
    17
 73
    13
 74
     0
 42
0.00000001
 43
0.00000001
 40
0.0230106502467868
 40
0.0230106502467868
 40
0.0230106502467868
 40
0.0230106502467868
 40
0.0535415674265747
 40
0.0840724846063626
 40
0.1451343189659384
 40
0.2061961533255142
 40
0.2672579876850901
 40
0.3893816564042417
 40
0.5115053251233934
 40
0.633628993842545
 40
0.7557526625616967
 40
1.0
 40
1.0
 40
1.0
 40
1.0
 10
-0.0000000000030104
 20
-33.48433303725238
 30
0.0
 10
-0.1921558661157873
 20
-33.47122859152709
 30
0.0
 10
-0.5883975917020534
 20
-33.46609983050957
 30
0.0
 10
-1.295555592894622
 20
-33.52740262053814
 30
0.0
 10
-2.061719495767951
 20
-33.69278697614016
 30
0.0
 10
-2.779570716123059
 20
-33.92596948537052
 30
0.0
 10
-3.535992097925304
 20
-34.21026249265795
 30
0.0
 10
-4.165721188759659
 20
-34.43617562048237
 30
0.0
 10
-4.942300224202048
 20
-34.63942942261227
 30
0.0
 10
-5.683752408919251
 20
-34.75622408708927
 30
0.0
 10
-6.678619662725965
 20
-34.80475915653314
 30
0.0
 10
-7.416144456570199
 20
-34.72089313042884
 30
0.0
 10
-7.895851458271707
 20
-34.61077446202413
 30
0.0
  0
SPLINE
  5
89
330
1F
100
AcDbEntity
  8
0
  6
Continuous
 62
     7
370
    25
100
AcDbSpline
210
0.0
220
0.0
230
1.0
 70
     8
 71
     3
 72
    17
 73
    13
 74
     0
 42
0.00000001
 43
0.00000001
 40
0.0230106502467902
 40
0.0230106502467902
 40
0.0230106502467902
 40
0.0230106502467902
 40
0.2672579876850927
 40
0.3893816564042438
 40
0.5115053251233951
 40
0.6336289938425463
 40
0.7557526625616975
 40
0.8168144969212732
 40
0.8778763312808487
 40
0.9389381656404243
 40
0.9694690828202122
 40
1.0
 40
1.0
 40
1.0
 40
1.0
 10
7.895851458265539
 20
-34.61077446202415
 30
0.0
 10
7.416144456564072
 20
-34.72089313042886
 30
0.0
 10
6.678619662719919
 20
-34.80475915653317
 30
0.0
 10
5.683752408913179
 20
-34.75622408708927
 30
0.0
 10
4.942300224195971
 20
-34.63942942261229
 30
0.0
 10
4.165721188753645
 20
-34.43617562048239
 30
0.0
 10
3.535992097919193
 20
-34.21026249265794
 30
0.0
 10
2.779570716116966
 20
-33.92596948537055
 30
0.0
 10
2.061719495761903
 20
-33.69278697614018
 30
0.0
 10
1.295555592888616
 20
-33.52740262053818
 30
0.0
 10
0.5883975916960572
 20
-33.46609983050961
 30
0.0
 10
0.1921558661097835
 20
-33.4712285915271
 30
0.0
 10
-0.0000000000029963
 20
-33.48433303725238
 30
0.0
  0
LINE
  5
8A
330
1F
100
AcDbEntity
  8
0
  6
Continuous
 62
     7
370
    25
100
AcDbLine
 10
7.8958514583
 20
-34.610774462
 30
0.0
 11
7.9031358879
 21
-34.6091118385
 31
0.0
  0
SPLINE
  5
8B
330
1F
100
AcDbEntity
  8
0
  6
Continuous
 62
     7
370
    25
100
AcDbSpline
210
0.0
220
0.0
230
1.0
 70
     8
 71
     3
 72
    17
 73
    13
 74
     0
 42
0.00000001
 43
0.00000001
 40
0.0230106502467868
 40
0.0230106502467868
 40
0.0230106502467868
 40
0.0230106502467868
 40
0.0535415674265747
 40
0.0840724846063626
 40
0.1451343189659384
 40
0.2061961533255142
 40
0.2672579876850901
 40
0.3893816564042417
 40
0.5115053251233934
 40
0.633628993842545
 40
0.7557526625616967
 40
1.0
 40
1.0
 40
1.0
 40
1.0
 10
14.52830762005981
 20
-30.1683416290423
 30
0.0
 10
14.34949536099702
 20
-30.23990823709507
 30
0.0
 10
13.99026861607254
 20
-30.40721022457913
 30
0.0
 10
13.37973955606586
 20
-30.76926648761475
 30
0.0
 10
12.76120731446652
 20
-31.25069870220582
 30
0.0
 10
12.21561981214249
 20
-31.77225285517952
 30
0.0
 10
11.65745780912978
 20
-32.35659094159268
 30
0.0
 10
11.18811153569172
 20
-32.83336084917525
 30
0.0
 10
10.57662652095041
 20
-33.35343121279509
 30
0.0
 10
9.959276491214233
 20
-33.78036361570796
 30
0.0
 10
9.083990645247438
 20
-34.25574892628565
 30
0.0
 10
8.383115661696568
 20
-34.50018826293603
 30
0.0
 10
7.903135887854618
 20
-34.6091118385076
 30
0.0
  0
SPLINE
  5
8C
330
1F
100
AcDbEntity
  8
0
  6
Continuous
 62
     7
370
    25
100
AcDbSpline
210
0.0
220
0.0
230
1.0
 70
     8
 71
     3
 72
    17
 73
    13
 74
     0
 42
0.00000001
 43
0.00000001
 40
0.0230106502467902
 40
0.0230106502467902
 40
0.0230106502467902
 40
0.0230106502467902
 40
0.2672579876850927
 40
0.3893816564042438
 40
0.5115053251233951
 40
0.6336289938425463
 40
0.7557526625616975
 40
0.8168144969212732
 40
0.8778763312808487
 40
0.9389381656404243
 40
0.9694690828202122
 40
1.0
 40
1.0
 40
1.0
 40
1.0
 10
22.13096858681849
 20
-27.75734873004677
 30
0.0
 10
21.74654621216474
 20
-28.0646992896334
 30
0.0
 10
21.11844743859608
 20
-28.46025998347306
 30
0.0
 10
20.20104443781199
 20
-28.84818812090993
 30
0.0
 10
19.4823437966113
 20
-29.06466381056106
 30
0.0
 10
18.69448174255409
 20
-29.21848347817726
 30
0.0
 10
18.02909540388355
 20
-29.28817199571935
 30
0.0
 10
17.22423317485719
 20
-29.36023178427587
 30
0.0
 10
16.47629747452983
 20
-29.46160557453771
 30
0.0
 10
15.71425006773023
 20
-29.64502547785775
 30
0.0
 10
15.05052444021172
 20
-29.8966179302308
 30
0.0
 10
14.69574826730187
 20
-30.07316162573025
 30
0.0
 10
14.52830762005978
 20
-30.16834162904225
 30
0.0
  0
LINE
  5
8D
330
1F
100
AcDbEntity
  8
0
  6
Continuous
 62
     7
370
    25
100
AcDbLine
 10
22.1309685868
 20
-27.75734873
 30
0.0
 11
22.1368102458
 21
-27.7526901625
 31
0.0
  0
SPLINE
  5
8E
330
1F
100
AcDbEntity
  8
0
  6
Continuous
 62
     7
370
    25
100
AcDbSpline
210
0.0
220
0.0
230
1.0
 70
     8
 71
     3
 72
    17
 73
    13
 74
     0
 42
0.00000001
 43
0.00000001
 40
0.0230106502467868
 40
0.0230106502467868
 40
0.0230106502467868
 40
0.0230106502467868
 40
0.0535415674265747
 40
0.0840724846063626
 40
0.1451343189659384
 40
0.2061961533255142
 40
0.2672579876850901
 40
0.3893816564042417
 40
0.5115053251233934
 40
0.633628993842545
 40
0.7557526625616967
 40
1.0
 40
1.0
 40
1.0
 40
1.0
 10
26.17910573797003
 20
-20.87714017077006
 30
0.0
 10
26.04905304685305
 20
-21.01920318816921
 30
0.0
 10
25.79799054504955
 20
-21.32579971370943
 30
0.0
 10
25.40501319421064
 20
-21.91689976652923
 30
0.0
 10
25.05662051013419
 20
-22.61902628563103
 30
0.0
 10
24.79135702186813
 20
-23.32565188590971
 30
0.0
 10
24.54200522774937
 20
-24.09429972699812
 30
0.0
 10
24.32600155731632
 20
-24.72749628694293
 30
0.0
 10
24.00072266981719
 20
-25.46137689829345
 30
0.0
 10
23.62974853975254
 20
-26.11388784126299
 30
0.0
 10
23.04740519809585
 20
-26.92196750199636
 30
0.0
 10
22.52199691099818
 20
-27.44629799292607
 30
0.0
 10
22.13681024579081
 20
-27.75269016247206
 30
0.0
  0
SPLINE
  5
8F
330
1F
100
AcDbEntity
  8
0
  6
Continuous
 62
     7
370
    25
100
AcDbSpline
210
0.0
220
0.0
230
1.0
 70
     8
 71
     3
 72
    17
 73
    13
 74
     0
 42
0.00000001
 43
0.00000001
 40
0.0230106502467902
 40
0.0230106502467902
 40
0.0230106502467902
 40
0.0230106502467902
 40
0.2672579876850927
 40
0.3893816564042438
 40
0.5115053251233951
 40
0.6336289938425463
 40
0.7557526625616975
 40
0.8168144969212732
 40
0.8778763312808487
 40
0.9389381656404243
 40
0.9694690828202122
 40
1.0
 40
1.0
 40
1.0
 40
1.0
 10
31.98277596823471
 20
-15.40623966054108
 30
0.0
 10
31.76977778655991
 20
-15.84994756357625
 30
0.0
 10
31.37550769849792
 20
-16.4788572785028
 30
0.0
 10
30.71727186625125
 20
-17.22641469757467
 30
0.0
 10
30.1636702448418
 20
-17.73328507611838
 30
0.0
 10
29.52057091446975
 20
-18.21371234183486
 30
0.0
 10
28.95131525276475
 20
-18.56519983917068
 30
0.0
 10
28.25742501196037
 20
-18.9793400986922
 30
0.0
 10
27.62754266993998
 20
-19.39519186601694
 30
0.0
 10
27.02054459402883
 20
-19.89108746690902
 30
0.0
 10
26.53171034077502
 20
-20.40574419091224
 30
0.0
 10
26.28866749263063
 20
-20.71873617683364
 30
0.0
 10
26.17910573797031
 20
-20.87714017077024
 30
0.0
  0
LINE
  5
90
330
1F
100
AcDbEntity
  8
0
  6
Continuous
 62
     7
370
    25
100
AcDbLine
 10
31.9827759682
 20
-15.4062396605
 30
0.0
 11
31.9860178444
 21
-15.3995078353
 31
0.0
  0
SPLINE
  5
91
330
1F
100
AcDbEntity
  8
0
  6
Continuous
 62
     7
370
    25
100
AcDbSpline
210
0.0
220
0.0
230
1.0
 70
     8
 71
     3
 72
    17
 73
    13
 74
     0
 42
0.00000001
 43
0.00000001
 40
0.0230106502467919
 40
0.0230106502467919
 40
0.0230106502467919
 40
0.0230106502467919
 40
0.0535415674265797
 40
0.0840724846063674
 40
0.1451343189659429
 40
0.2061961533255184
 40
0.267257987685094
 40
0.3893816564042449
 40
0.511505325123396
 40
0.633628993842547
 40
0.7557526625616979
 40
1.0
 40
1.0
 40
1.0
 40
1.0
 10
32.64481089881377
 20
-7.450965060354807
 30
0.0
 10
32.58927630610992
 20
-7.635387164215848
 30
0.0
 10
32.49610405498912
 20
-8.020553025769319
 30
0.0
 10
32.39851239720247
 20
-8.723622253545932
 30
0.0
 10
32.38926271448611
 20
-9.507378309033582
 30
0.0
 10
32.45686192737225
 20
-10.25911949028776
 30
0.0
 10
32.56570752307165
 20
-11.05983695427675
 30
0.0
 10
32.64582863168403
 20
-11.72404782224051
 30
0.0
 10
32.67118134437996
 20
-12.52638462578869
 30
0.0
 10
32.62005909014526
 20
-13.27523631403822
 30
0.0
 10
32.44599849358609
 20
-14.25596023767231
 30
0.0
 10
32.20012045791106
 20
-14.95633179866125
 30
0.0
 10
31.986017844387
 20
-15.39950783534965
 30
0.0
  0
MTEXT
  5
93
330
1F
100
AcDbEntity
  8
0
  6
Continuous
 62
     7
100
AcDbMText
 10
-35.5000023261
 20
-35.7988287444
 30
0.0
 40
4.83362
 41
0.0
 71
     1
 72
     1
  1
SOLIDWORKS Educational Product.
  7
SLDTEXTSTYLE0
 73
     1
 44
1.0
  0
MTEXT
  5
94
330
1F
100
AcDbEntity
  8
0
  6
Continuous
 62
     7
100
AcDbMText
 10
-35.5000023261
 20
-43.0492587444
 30
0.0
 40
4.83362
 41
0.0
 71
     1
 72
     1
  1
For Instructional Use Only.
  7
SLDTEXTSTYLE0
 73
     1
 44
1.0
  0
ENDSEC
  0
SECTION
  2
OBJECTS
  0
DICTIONARY
  5
C
330
0
100
AcDbDictionary
281
     1
  3
ACAD_GROUP
350
D
  3
ACAD_LAYOUT
350
1A
  3
ACAD_MLINESTYLE
350
17
  3
ACAD_PLOTSETTINGS
350
19
  3
ACAD_PLOTSTYLENAME
350
E
  3
ACAD_SCALELIST
350
47
  3
DWGPROPS
350
95
  0
DICTIONARY
  5
D
102
{ACAD_REACTORS
330
C
102
}
330
C
100
AcDbDictionary
281
     1
  0
DICTIONARY
  5
1A
102
{ACAD_REACTORS
330
C
102
}
330
C
100
AcDbDictionary
281
     1
  3
Layout1
350
1E
  3
Layout2
350
26
  3
Model
350
22
  0
DICTIONARY
  5
17
102
{ACAD_REACTORS
330
C
102
}
330
C
100
AcDbDictionary
281
     1
  3
Standard
350
18
  0
DICTIONARY
  5
19
102
{ACAD_REACTORS
330
C
102
}
330
C
100
AcDbDictionary
281
     1
  0
ACDBDICTIONARYWDFLT
  5
E
102
{ACAD_REACTORS
330
C
102
}
330
C
100
AcDbDictionary
281
     1
  3
Normal
350
F
100
AcDbDictionaryWithDefault
340
F
  0
DICTIONARY
  5
47
102
{ACAD_REACTORS
330
C
102
}
330
C
100
AcDbDictionary
281
     1
  3
A0
350
48
  3
A1
350
49
  3
A2
350
4A
  3
A3
350
4B
  3
A4
350
4C
  3
A5
350
4D
  3
A6
350
4E
  3
A7
350
4F
  3
A8
350
50
  3
A9
350
51
  3
B0
350
52
  3
B1
350
53
  3
B2
350
54
  3
B3
350
55
  3
B4
350
56
  3
B5
350
57
  3
B6
350
58
  0
XRECORD
  5
95
102
{ACAD_REACTORS
330
C
102
}
330
C
100
AcDbXrecord
280
     1
  1
DWGPROPS COOKIE
  2

  3

  4

  6

  7

  8
dampy
  9

300
=
301
=
302
=
303
=
304
=
305
=
306
=
307
=
308
=
309
=
 40
0.0
 41
2460720.245103426
 42
2460720.24512963
  1

 90
        0
  0
LAYOUT
  5
1E
102
{ACAD_REACTORS
330
1A
102
}
330
1A
100
AcDbPlotSettings
  1

  2
none_device
  4

  6

 40
0.0
 41
0.0
 42
0.0
 43
0.0
 44
0.0
 45
0.0
 46
0.0
 47
0.0
 48
0.0
 49
0.0
140
0.0
141
0.0
142
1.0
143
1.0
 70
   688
 72
     1
 73
     0
 74
     5
  7

 75
    16
147
1.0
148
0.0
149
0.0
100
AcDbLayout
  1
Layout1
 70
     1
 71
     1
 10
0.0
 20
0.0
 11
420.0
 21
297.0
 12
0.0
 22
0.0
 32
0.0
 14
1.0000000000E+20
 24
1.0000000000E+20
 34
1.0000000000E+20
 15
-1.0000000000E+20
 25
-1.0000000000E+20
 35
-1.0000000000E+20
146
0.0
 13
0.0
 23
0.0
 33
0.0
 16
1.0
 26
0.0
 36
0.0
 17
0.0
 27
1.0
 37
0.0
 76
     0
330
1B
  0
LAYOUT
  5
26
102
{ACAD_REACTORS
330
1A
102
}
330
1A
100
AcDbPlotSettings
  1

  2
none_device
  4

  6

 40
0.0
 41
0.0
 42
0.0
 43
0.0
 44
0.0
 45
0.0
 46
0.0
 47
0.0
 48
0.0
 49
0.0
140
0.0
141
0.0
142
1.0
143
1.0
 70
   688
 72
     1
 73
     0
 74
     5
  7

 75
    16
147
1.0
148
0.0
149
0.0
100
AcDbLayout
  1
Layout2
 70
     1
 71
     2
 10
0.0
 20
0.0
 11
0.0
 21
0.0
 12
0.0
 22
0.0
 32
0.0
 14
0.0
 24
0.0
 34
0.0
 15
0.0
 25
0.0
 35
0.0
146
0.0
 13
0.0
 23
0.0
 33
0.0
 16
1.0
 26
0.0
 36
0.0
 17
0.0
 27
1.0
 37
0.0
 76
     0
330
23
  0
LAYOUT
  5
22
102
{ACAD_REACTORS
330
1A
102
}
330
1A
100
AcDbPlotSettings
  1

  2
none_device
  4
ANSI_A_(11.00_x_8.50_Inches)
  6

 40
6.35
 41
19.05
 42
6.35000508
 43
19.05000254
 44
279.4
 45
215.9
 46
133.34999746
 47
88.89999873
 48
0.0
 49
0.0
140
0.0
141
0.0
142
0.1209772639
143
1.0
 70
  1696
 72
     0
 73
     0
 74
     0
  7

 75
     0
147
0.0179189148
148
-1300.4909072572
149
0.0
100
AcDbLayout
  1
Model
 70
     1
 71
     0
 10
0.0
 20
0.0
 11
420.0
 21
297.0
 12
0.0
 22
0.0
 32
0.0
 14
-35.5000023261
 24
-34.7792623527
 34
0.0
 15
35.5000023261
 25
34.7792623527
 35
0.0
146
0.0
 13
0.0
 23
0.0
 33
0.0
 16
1.0
 26
0.0
 36
0.0
 17
0.0
 27
1.0
 37
0.0
 76
     0
330
1F
331
29
  0
MLINESTYLE
  5
18
102
{ACAD_REACTORS
330
17
102
}
330
17
100
AcDbMlineStyle
  2
Standard
 70
     0
  3

 62
   256
 51
90.0
 52
90.0
 71
     2
 49
0.5
 62
   256
  6
BYLAYER
 49
-0.5
 62
   256
  6
BYLAYER
  0
ACDBPLACEHOLDER
  5
F
102
{ACAD_REACTORS
330
E
102
}
330
E
  0
SCALE
  5
48
102
{ACAD_REACTORS
330
47
102
}
330
47
100
AcDbScale
 70
     0
300
1:1
140
1.0
141
1.0
290
     1
  0
SCALE
  5
49
102
{ACAD_REACTORS
330
47
102
}
330
47
100
AcDbScale
 70
     0
300
1:2
140
1.0
141
2.0
290
     0
  0
SCALE
  5
4A
102
{ACAD_REACTORS
330
47
102
}
330
47
100
AcDbScale
 70
     0
300
1:4
140
1.0
141
4.0
290
     0
  0
SCALE
  5
4B
102
{ACAD_REACTORS
330
47
102
}
330
47
100
AcDbScale
 70
     0
300
1:5
140
1.0
141
5.0
290
     0
  0
SCALE
  5
4C
102
{ACAD_REACTORS
330
47
102
}
330
47
100
AcDbScale
 70
     0
300
1:8
140
1.0
141
8.0
290
     0
  0
SCALE
  5
4D
102
{ACAD_REACTORS
330
47
102
}
330
47
100
AcDbScale
 70
     0
300
1:10
140
1.0
141
10.0
290
     0
  0
SCALE
  5
4E
102
{ACAD_REACTORS
330
47
102
}
330
47
100
AcDbScale
 70
     0
300
1:16
140
1.0
141
16.0
290
     0
  0
SCALE
  5
4F
102
{ACAD_REACTORS
330
47
102
}
330
47
100
AcDbScale
 70
     0
300
1:20
140
1.0
141
20.0
290
     0
  0
SCALE
  5
50
102
{ACAD_REACTORS
330
47
102
}
330
47
100
AcDbScale
 70
     0
300
1:30
140
1.0
141
30.0
290
     0
  0
SCALE
  5
51
102
{ACAD_REACTORS
330
47
102
}
330
47
100
AcDbScale
 70
     0
300
1:40
140
1.0
141
40.0
290
     0
  0
SCALE
  5
52
102
{ACAD_REACTORS
330
47
102
}
330
47
100
AcDbScale
 70
     0
300
1:50
140
1.0
141
50.0
290
     0
  0
SCALE
  5
53
102
{ACAD_REACTORS
330
47
102
}
330
47
100
AcDbScale
 70
     0
300
1:100
140
1.0
141
100.0
290
     0
  0
SCALE
  5
54
102
{ACAD_REACTORS
330
47
102
}
330
47
100
AcDbScale
 70
     0
300
2:1
140
2.0
141
1.0
290
     0
  0
SCALE
  5
55
102
{ACAD_REACTORS
330
47
102
}
330
47
100
AcDbScale
 70
     0
300
4:1
140
4.0
141
1.0
290
     0
  0
SCALE
  5
56
102
{ACAD_REACTORS
330
47
102
}
330
47
100
AcDbScale
 70
     0
300
8:1
140
8.0
141
1.0
290
     0
  0
SCALE
  5
57
102
{ACAD_REACTORS
330
47
102
}
330
47
100
AcDbScale
 70
     0
300
10:1
140
10.0
141
1.0
290
     0
  0
SCALE
  5
58
102
{ACAD_REACTORS
330
47
102
}
330
47
100
AcDbScale
 70
     0
300
100:1
140
100.0
141
1.0
290
     0
  0
ENDSEC
  0
EOF
