  0
SECTION
  2
HEADER
  9
$ACADVER
  1
AC1015
  9
$ACADMAINTVER
 70
     6
  9
$DWGCODEPAGE
  3
ANSI_1252
  9
$INSBASE
 10
0.0
 20
0.0
 30
0.0
  9
$EXTMIN
 10
-35.3000024812
 20
-34.5792431579
 30
0.0
  9
$EXTMAX
 10
35.3000024812
 20
34.5792431579
 30
0.0
  9
$LIMMIN
 10
0.0
 20
0.0
  9
$LIMMAX
 10
420.0
 20
297.0
  9
$ORTHOMODE
 70
     0
  9
$REGENMODE
 70
     1
  9
$FILLMODE
 70
     1
  9
$QTEXTMODE
 70
     0
  9
$MIRRTEXT
 70
     1
  9
$LTSCALE
 40
1.0
  9
$ATTMODE
 70
     1
  9
$TEXTSIZE
 40
3.175
  9
$TRACEWID
 40
1.0
  9
$TEXTSTYLE
  7
Standard
  9
$CLAYER
  8
0
  9
$CELTYPE
  6
ByLayer
  9
$CECOLOR
 62
   256
  9
$CELTSCALE
 40
1.0
  9
$DISPSILH
 70
     0
  9
$DIMSCALE
 40
1.0
  9
$DIMASZ
 40
3.302
  9
$DIMEXO
 40
0.0
  9
$DIMDLI
 40
3.75
  9
$DIMRND
 40
0.0
  9
$DIMDLE
 40
0.0
  9
$DIMEXE
 40
3.175
  9
$DIMTP
 40
0.0
  9
$DIMTM
 40
0.0
  9
$DIMTXT
 40
3.175
  9
$DIMCEN
 40
2.5
  9
$DIMTSZ
 40
0.0
  9
$DIMTOL
 70
     0
  9
$DIMLIM
 70
     0
  9
$DIMTIH
 70
     1
  9
$DIMTOH
 70
     1
  9
$DIMSE1
 70
     0
  9
$DIMSE2
 70
     0
  9
$DIMTAD
 70
     0
  9
$DIMZIN
 70
     1
  9
$DIMBLK
  1

  9
$DIMASO
 70
     1
  9
$DIMSHO
 70
     1
  9
$DIMPOST
  1

  9
$DIMAPOST
  1

  9
$DIMALT
 70
     0
  9
$DIMALTD
 70
     3
  9
$DIMALTF
 40
0.0393700787
  9
$DIMLFAC
 40
1.0
  9
$DIMTOFL
 70
     1
  9
$DIMTVP
 40
0.0
  9
$DIMTIX
 70
     0
  9
$DIMSOXD
 70
     0
  9
$DIMSAH
 70
     0
  9
$DIMBLK1
  1

  9
$DIMBLK2
  1

  9
$DIMSTYLE
  2
ISO-25
  9
$DIMCLRD
 70
     0
  9
$DIMCLRE
 70
     0
  9
$DIMCLRT
 70
     0
  9
$DIMTFAC
 40
1.0
  9
$DIMGAP
 40
1.524
  9
$DIMJUST
 70
     0
  9
$DIMSD1
 70
     0
  9
$DIMSD2
 70
     0
  9
$DIMTOLJ
 70
     0
  9
$DIMTZIN
 70
     1
  9
$DIMALTZ
 70
     0
  9
$DIMALTTZ
 70
     0
  9
$DIMUPT
 70
     0
  9
$DIMDEC
 70
     2
  9
$DIMTDEC
 70
     2
  9
$DIMALTU
 70
     2
  9
$DIMALTTD
 70
     3
  9
$DIMTXSTY
  7
Standard
  9
$DIMAUNIT
 70
     0
  9
$DIMADEC
 70
     2
  9
$DIMALTRND
 40
0.0
  9
$DIMAZIN
 70
     0
  9
$DIMDSEP
 70
    44
  9
$DIMATFIT
 70
     3
  9
$DIMFRAC
 70
     0
  9
$DIMLDRBLK
  1

  9
$DIMLUNIT
 70
     2
  9
$DIMLWD
 70
    -2
  9
$DIMLWE
 70
    -2
  9
$DIMTMOVE
 70
     0
  9
$LUNITS
 70
     2
  9
$LUPREC
 70
     6
  9
$SKETCHINC
 40
1.0
  9
$FILLETRAD
 40
0.0
  9
$AUNITS
 70
     0
  9
$AUPREC
 70
     2
  9
$MENU
  1
.
  9
$ELEVATION
 40
0.0
  9
$PELEVATION
 40
0.0
  9
$THICKNESS
 40
0.0
  9
$LIMCHECK
 70
     0
  9
$CHAMFERA
 40
0.0
  9
$CHAMFERB
 40
0.0
  9
$CHAMFERC
 40
0.0
  9
$CHAMFERD
 40
0.0
  9
$SKPOLY
 70
     0
  9
$TDCREATE
 40
2460715.029383125
  9
$TDUCREATE
 40
2460715.237716459
  9
$TDUPDATE
 40
2460715.029408681
  9
$TDUUPDATE
 40
2460715.237742014
  9
$TDINDWG
 40
0.0000000116
  9
$TDUSRTIMER
 40
0.0000000116
  9
$USRTIMER
 70
     1
  9
$ANGBASE
 50
0.0
  9
$ANGDIR
 70
     0
  9
$PDMODE
 70
     0
  9
$PDSIZE
 40
-1.0
  9
$PLINEWID
 40
0.0
  9
$SPLFRAME
 70
     0
  9
$SPLINETYPE
 70
     6
  9
$SPLINESEGS
 70
     8
  9
$HANDSEED
  5
96
  9
$SURFTAB1
 70
     6
  9
$SURFTAB2
 70
     6
  9
$SURFTYPE
 70
     6
  9
$SURFU
 70
     6
  9
$SURFV
 70
     6
  9
$UCSBASE
  2

  9
$UCSNAME
  2

  9
$UCSORG
 10
0.0
 20
0.0
 30
0.0
  9
$UCSXDIR
 10
1.0
 20
0.0
 30
0.0
  9
$UCSYDIR
 10
0.0
 20
1.0
 30
0.0
  9
$UCSORTHOREF
  2

  9
$UCSORTHOVIEW
 70
     0
  9
$UCSORGTOP
 10
0.0
 20
0.0
 30
0.0
  9
$UCSORGBOTTOM
 10
0.0
 20
0.0
 30
0.0
  9
$UCSORGLEFT
 10
0.0
 20
0.0
 30
0.0
  9
$UCSORGRIGHT
 10
0.0
 20
0.0
 30
0.0
  9
$UCSORGFRONT
 10
0.0
 20
0.0
 30
0.0
  9
$UCSORGBACK
 10
0.0
 20
0.0
 30
0.0
  9
$PUCSBASE
  2

  9
$PUCSNAME
  2

  9
$PUCSORG
 10
0.0
 20
0.0
 30
0.0
  9
$PUCSXDIR
 10
1.0
 20
0.0
 30
0.0
  9
$PUCSYDIR
 10
0.0
 20
1.0
 30
0.0
  9
$PUCSORTHOREF
  2

  9
$PUCSORTHOVIEW
 70
     0
  9
$PUCSORGTOP
 10
0.0
 20
0.0
 30
0.0
  9
$PUCSORGBOTTOM
 10
0.0
 20
0.0
 30
0.0
  9
$PUCSORGLEFT
 10
0.0
 20
0.0
 30
0.0
  9
$PUCSORGRIGHT
 10
0.0
 20
0.0
 30
0.0
  9
$PUCSORGFRONT
 10
0.0
 20
0.0
 30
0.0
  9
$PUCSORGBACK
 10
0.0
 20
0.0
 30
0.0
  9
$USERI1
 70
     0
  9
$USERI2
 70
     0
  9
$USERI3
 70
     0
  9
$USERI4
 70
     0
  9
$USERI5
 70
     0
  9
$USERR1
 40
0.0
  9
$USERR2
 40
0.0
  9
$USERR3
 40
0.0
  9
$USERR4
 40
0.0
  9
$USERR5
 40
0.0
  9
$WORLDVIEW
 70
     1
  9
$SHADEDGE
 70
     3
  9
$SHADEDIF
 70
    70
  9
$TILEMODE
 70
     1
  9
$MAXACTVP
 70
    64
  9
$PINSBASE
 10
0.0
 20
0.0
 30
0.0
  9
$PLIMCHECK
 70
     0
  9
$PEXTMIN
 10
1.0000000000E+20
 20
1.0000000000E+20
 30
1.0000000000E+20
  9
$PEXTMAX
 10
-1.0000000000E+20
 20
-1.0000000000E+20
 30
-1.0000000000E+20
  9
$PLIMMIN
 10
0.0
 20
0.0
  9
$PLIMMAX
 10
420.0
 20
297.0
  9
$UNITMODE
 70
     0
  9
$VISRETAIN
 70
     1
  9
$PLINEGEN
 70
     0
  9
$PSLTSCALE
 70
     1
  9
$TREEDEPTH
 70
  3020
  9
$CMLSTYLE
  2
Standard
  9
$CMLJUST
 70
     0
  9
$CMLSCALE
 40
20.0
  9
$PROXYGRAPHICS
 70
     1
  9
$MEASUREMENT
 70
     1
  9
$CELWEIGHT
370
    -1
  9
$ENDCAPS
280
     0
  9
$JOINSTYLE
280
     0
  9
$LWDISPLAY
290
     1
  9
$INSUNITS
 70
     4
  9
$HYPERLINKBASE
  1

  9
$STYLESHEET
  1

  9
$XEDIT
290
     1
  9
$CEPSNTYPE
380
     0
  9
$PSTYLEMODE
290
     1
  9
$FINGERPRINTGUID
  2
{33b05868-6c6b-48fb-8785-c69b9942e4d6}
  9
$VERSIONGUID
  2
{FAEB1C32-E019-11D5-929B-00C0DF256EC4}
  9
$EXTNAMES
290
     1
  9
$PSVPSCALE
 40
0.0
  9
$OLESTARTUP
290
     0
  0
ENDSEC
  0
SECTION
  2
CLASSES
  0
CLASS
  1
ACDBDICTIONARYWDFLT
  2
AcDbDictionaryWithDefault
  3
ObjectDBX Classes
 90
        0
280
     0
281
     0
  0
CLASS
  1
VISUALSTYLE
  2
AcDbVisualStyle
  3
ObjectDBX Classes
 90
     4095
280
     0
281
     0
  0
CLASS
  1
MATERIAL
  2
AcDbMaterial
  3
ObjectDBX Classes
 90
     1153
280
     0
281
     0
  0
CLASS
  1
SCALE
  2
AcDbScale
  3
ObjectDBX Classes
 90
     1153
280
     0
281
     0
  0
CLASS
  1
TABLESTYLE
  2
AcDbTableStyle
  3
ObjectDBX Classes
 90
     4095
280
     0
281
     0
  0
CLASS
  1
MLEADERSTYLE
  2
AcDbMLeaderStyle
  3
ACDB_MLEADERSTYLE_CLASS
 90
     4095
280
     0
281
     0
  0
CLASS
  1
SUN
  2
AcDbSun
  3
SCENEOE
 90
     1153
280
     0
281
     0
  0
CLASS
  1
ACDBPLACEHOLDER
  2
AcDbPlaceHolder
  3
ObjectDBX Classes
 90
        0
280
     0
281
     0
  0
CLASS
  1
LAYOUT
  2
AcDbLayout
  3
ObjectDBX Classes
 90
        0
280
     0
281
     0
  0
ENDSEC
  0
SECTION
  2
TABLES
  0
TABLE
  2
VPORT
  5
8
330
0
100
AcDbSymbolTable
 70
     1
  0
VPORT
  5
29
330
8
100
AcDbSymbolTableRecord
100
AcDbViewportTableRecord
  2
*Active
 70
     0
 10
0.0
 20
0.0
 11
1.0
 21
1.0
 12
0.0
 22
0.0
 13
0.0
 23
0.0
 14
10.0
 24
10.0
 15
10.0
 25
10.0
 16
0.0
 26
0.0
 36
1.0
 17
0.0
 27
0.0
 37
0.0
 40
70.5416560421
 41
1.0208436986
 42
50.0
 43
0.0
 44
0.0
 50
0.0
 51
0.0
 71
     0
 72
   100
 73
     1
 74
     3
 75
     0
 76
     0
 77
     0
 78
     0
281
     0
 65
     1
110
0.0
120
0.0
130
0.0
111
1.0
121
0.0
131
0.0
112
0.0
122
1.0
132
0.0
 79
     0
146
0.0
  0
ENDTAB
  0
TABLE
  2
LTYPE
  5
5
330
0
100
AcDbSymbolTable
 70
     6
  0
LTYPE
  5
14
330
5
100
AcDbSymbolTableRecord
100
AcDbLinetypeTableRecord
  2
ByBlock
 70
     0
  3

 72
    65
 73
     0
 40
0.0
  0
LTYPE
  5
15
330
5
100
AcDbSymbolTableRecord
100
AcDbLinetypeTableRecord
  2
ByLayer
 70
     0
  3

 72
    65
 73
     0
 40
0.0
  0
LTYPE
  5
16
330
5
100
AcDbSymbolTableRecord
100
AcDbLinetypeTableRecord
  2
Continuous
 70
     0
  3
Solid line
 72
    65
 73
     0
 40
0.0
  0
LTYPE
  5
5E
330
5
100
AcDbSymbolTableRecord
100
AcDbLinetypeTableRecord
  2
HIDDEN
 70
     0
  3
Hidden __ __ __ __ __ __ __ __ __ __ __ __ __ __
 72
    65
 73
     2
 40
1.905
 49
1.27
 74
     0
 49
-0.635
 74
     0
  0
LTYPE
  5
5F
330
5
100
AcDbSymbolTableRecord
100
AcDbLinetypeTableRecord
  2
PHANTOM
 70
     0
  3
Phantom ______  __  __  ______  __  __  ______
 72
    65
 73
     6
 40
12.7
 49
6.35
 74
     0
 49
-1.27
 74
     0
 49
1.27
 74
     0
 49
-1.27
 74
     0
 49
1.27
 74
     0
 49
-1.27
 74
     0
  0
LTYPE
  5
60
330
5
100
AcDbSymbolTableRecord
100
AcDbLinetypeTableRecord
  2
CENTER
 70
     0
  3
Center ____ _ ____ _ ____ _ ____ _ ____ _ ____
 72
    65
 73
     4
 40
10.16
 49
6.35
 74
     0
 49
-1.27
 74
     0
 49
1.27
 74
     0
 49
-1.27
 74
     0
  0
LTYPE
  5
61
330
5
100
AcDbSymbolTableRecord
100
AcDbLinetypeTableRecord
  2
CENTERX2
 70
     0
  3
Center (2x) ________  __  ________  __  _____
 72
    65
 73
     4
 40
20.32
 49
12.7
 74
     0
 49
-2.54
 74
     0
 49
2.54
 74
     0
 49
-2.54
 74
     0
  0
LTYPE
  5
62
330
5
100
AcDbSymbolTableRecord
100
AcDbLinetypeTableRecord
  2
DOT2
 70
     0
  3
Dot (.5x) ........................................
 72
    65
 73
     2
 40
0.635
 49
0.0
 74
     0
 49
-0.635
 74
     0
  0
ENDTAB
  0
TABLE
  2
LAYER
  5
2
330
0
100
AcDbSymbolTable
 70
     1
  0
LAYER
  5
10
330
2
100
AcDbSymbolTableRecord
100
AcDbLayerTableRecord
  2
0
 70
     0
 62
     7
  6
Continuous
370
    -3
390
F
  0
ENDTAB
  0
TABLE
  2
STYLE
  5
3
330
0
100
AcDbSymbolTable
 70
     2
  0
STYLE
  5
11
330
3
100
AcDbSymbolTableRecord
100
AcDbTextStyleTableRecord
  2
Standard
 70
     0
 40
0.0
 41
1.0
 50
0.0
 71
     0
 42
3.175
  3
txt
  4

  0
STYLE
  5
92
330
3
100
AcDbSymbolTableRecord
100
AcDbTextStyleTableRecord
  2
SLDTEXTSTYLE0
 70
     0
 40
0.0
 41
0.7
 50
0.0
 71
     0
 42
3.175
  3
TXT
  4

  0
ENDTAB
  0
TABLE
  2
VIEW
  5
6
330
0
100
AcDbSymbolTable
 70
     0
  0
ENDTAB
  0
TABLE
  2
UCS
  5
7
330
0
100
AcDbSymbolTable
 70
     0
  0
ENDTAB
  0
TABLE
  2
APPID
  5
9
330
0
100
AcDbSymbolTable
 70
     1
  0
APPID
  5
12
330
9
100
AcDbSymbolTableRecord
100
AcDbRegAppTableRecord
  2
ACAD
 70
     0
  0
ENDTAB
  0
TABLE
  2
DIMSTYLE
  5
A
330
0
100
AcDbSymbolTable
 70
     1
100
AcDbDimStyleTable
  0
DIMSTYLE
105
27
330
A
100
AcDbSymbolTableRecord
100
AcDbDimStyleTableRecord
  2
ISO-25
 70
     0
 41
2.5
 42
0.625
 43
3.75
 44
1.25
 73
     0
 74
     0
 77
     1
 78
     8
140
2.5
141
2.5
143
0.0393700787
147
0.625
171
     3
172
     1
178
     0
271
     2
272
     2
274
     3
278
    44
283
     0
284
     8
340
11
  0
ENDTAB
  0
TABLE
  2
BLOCK_RECORD
  5
1
330
0
100
AcDbSymbolTable
 70
     1
  0
BLOCK_RECORD
  5
1F
330
1
100
AcDbSymbolTableRecord
100
AcDbBlockTableRecord
  2
*Model_Space
340
22
  0
BLOCK_RECORD
  5
1B
330
1
100
AcDbSymbolTableRecord
100
AcDbBlockTableRecord
  2
*Paper_Space
340
1E
  0
BLOCK_RECORD
  5
23
330
1
100
AcDbSymbolTableRecord
100
AcDbBlockTableRecord
  2
*Paper_Space0
340
26
  0
ENDTAB
  0
ENDSEC
  0
SECTION
  2
BLOCKS
  0
BLOCK
  5
20
330
1F
100
AcDbEntity
  8
0
100
AcDbBlockBegin
  2
*Model_Space
 70
     0
 10
0.0
 20
0.0
 30
0.0
  3
*Model_Space
  1

  0
ENDBLK
  5
21
330
1F
100
AcDbEntity
  8
0
100
AcDbBlockEnd
  0
BLOCK
  5
1C
330
1B
100
AcDbEntity
 67
     1
  8
0
100
AcDbBlockBegin
  2
*Paper_Space
 70
     0
 10
0.0
 20
0.0
 30
0.0
  3
*Paper_Space
  1

  0
ENDBLK
  5
1D
330
1B
100
AcDbEntity
 67
     1
  8
0
100
AcDbBlockEnd
  0
BLOCK
  5
24
330
23
100
AcDbEntity
  8
0
100
AcDbBlockBegin
  2
*Paper_Space0
 70
     0
 10
0.0
 20
0.0
 30
0.0
  3
*Paper_Space0
  1

  0
ENDBLK
  5
25
330
23
100
AcDbEntity
  8
0
100
AcDbBlockEnd
  0
ENDSEC
  0
SECTION
  2
ENTITIES
  0
CIRCLE
  5
63
330
1F
100
AcDbEntity
  8
0
  6
Continuous
 62
     7
370
    25
100
AcDbCircle
 10
0.0
 20
0.0
 30
0.0
 40
10.36
  0
CIRCLE
  5
64
330
1F
100
AcDbEntity
  8
0
  6
Continuous
 62
     7
370
    25
100
AcDbCircle
 10
22.5
 20
0.0
 30
0.0
 40
6.000000000000003
  0
CIRCLE
  5
65
330
1F
100
AcDbEntity
  8
0
  6
Continuous
 62
     7
370
    25
100
AcDbCircle
 10
-22.5
 20
0.0
 30
0.0
 40
6.000000000000005
  0
CIRCLE
  5
66
330
1F
100
AcDbEntity
  8
0
  6
Continuous
 62
     7
370
    25
100
AcDbCircle
 10
0.0
 20
-22.5
 30
0.0
 40
6.000000000000004
  0
CIRCLE
  5
67
330
1F
100
AcDbEntity
  8
0
  6
Continuous
 62
     7
370
    25
100
AcDbCircle
 10
0.0
 20
22.5
 30
0.0
 40
6.0
  0
SPLINE
  5
68
330
1F
100
AcDbEntity
  8
0
  6
Continuous
 62
     7
370
    25
100
AcDbSpline
210
0.0
220
0.0
230
1.0
 70
     8
 71
     3
 72
    20
 73
    16
 74
     0
 42
0.00000001
 43
0.00000001
 40
0.0
 40
0.0
 40
0.0
 40
0.0
 40
0.25
 40
0.25
 40
0.375
 40
0.375
 40
0.5
 40
0.5
 40
0.625
 40
0.625
 40
0.75
 40
0.75
 40
0.875
 40
0.875
 40
1.0
 40
1.0
 40
1.0
 40
1.0
 10
32.44938953308749
 20
-7.406361408871351
 30
0.0
 10
32.25595910988521
 20
-8.054732346456149
 30
0.0
 10
32.18538155221203
 20
-8.714767258853861
 30
0.0
 10
32.20693186165294
 20
-9.716916899603701
 30
0.0
 10
32.23586140553908
 20
-10.05321850646347
 30
0.0
 10
32.31506243317066
 20
-10.72134856714113
 30
0.0
 10
32.36466163137343
 20
-11.0544132063992
 30
0.0
 10
32.43832895882592
 20
-11.72309692634727
 30
0.0
 10
32.45998971010839
 20
-12.06043104328972
 30
0.0
 10
32.45904571157341
 20
-12.73232120728618
 30
0.0
 10
32.43645632850271
 20
-13.065023613301
 30
0.0
 10
32.34136464698508
 20
-13.7231105882212
 30
0.0
 10
32.26975940165449
 20
-14.04862667596367
 30
0.0
 10
32.07545800652095
 20
-14.69216830688961
 30
0.0
 10
31.95283917858066
 20
-15.00842070079143
 30
0.0
 10
31.80582392278604
 20
-15.31273103742573
 30
0.0
  0
SPLINE
  5
69
330
1F
100
AcDbEntity
  8
0
  6
Continuous
 62
     7
370
    25
100
AcDbSpline
210
0.0
220
0.0
230
1.0
 70
     8
 71
     3
 72
    18
 73
    14
 74
     0
 42
0.00000001
 43
0.00000001
 40
0.0
 40
0.0
 40
0.0
 40
0.0
 40
0.1250000000000003
 40
0.1250000000000003
 40
0.2500000000000007
 40
0.2500000000000007
 40
0.5000000000000021
 40
0.5000000000000021
 40
0.625000000000002
 40
0.625000000000002
 40
0.7500000000000018
 40
0.7500000000000018
 40
1.0
 40
1.0
 40
1.0
 40
1.0
 10
35.30000248121126
 20
-0.0039849398765453
 30
0.0
 10
35.30042076635842
 20
-0.3398774437908473
 30
0.0
 10
35.27431039728963
 20
-0.6728793300798654
 30
0.0
 10
35.17162640061788
 20
-1.333384520507449
 30
0.0
 10
35.09450859850855
 20
-1.661703861320502
 30
0.0
 10
34.79590987759977
 20
-2.612643628199767
 30
0.0
 10
34.50065245591857
 20
-3.208931832617934
 30
0.0
 10
33.96818701794753
 20
-4.064132321773219
 30
0.0
 10
33.77860009473248
 20
-4.343437170167515
 30
0.0
 10
33.41683414721066
 20
-4.910337518985619
 30
0.0
 10
33.24536554460473
 20
-5.198271363465018
 30
0.0
 10
32.78888543269436
 20
-6.089660476016984
 30
0.0
 10
32.5594283631603
 20
-6.719573993373873
 30
0.0
 10
32.44938953308749
 20
-7.406361408871364
 30
0.0
  0
LINE
  5
6A
330
1F
100
AcDbEntity
  8
0
  6
Continuous
 62
     7
370
    25
100
AcDbLine
 10
35.3000023261
 20
0.0037358811
 30
0.0
 11
35.3000024812
 21
-0.0039849399
 31
0.0
  0
SPLINE
  5
6B
330
1F
100
AcDbEntity
  8
0
  6
Continuous
 62
     7
370
    25
100
AcDbSpline
210
0.0
220
0.0
230
1.0
 70
     8
 71
     3
 72
    20
 73
    16
 74
     0
 42
0.00000001
 43
0.00000001
 40
0.0
 40
0.0
 40
0.0
 40
0.0
 40
0.2500000000000011
 40
0.2500000000000011
 40
0.3750000000000008
 40
0.3750000000000008
 40
0.5000000000000007
 40
0.5000000000000007
 40
0.6250000000000006
 40
0.6250000000000006
 40
0.7500000000000003
 40
0.7500000000000003
 40
0.8750000000000002
 40
0.8750000000000002
 40
1.0
 40
1.0
 40
1.0
 40
1.0
 10
32.44938953308927
 20
7.406361408870044
 30
0.0
 10
32.55643235041401
 20
6.738273063971809
 30
0.0
 10
32.77922258391909
 20
6.112979701548701
 30
0.0
 10
33.23345517510664
 20
5.219424403088677
 30
0.0
 10
33.40543559216764
 20
4.928979183753478
 30
0.0
 10
33.76668402131573
 20
4.36137883738122
 30
0.0
 10
33.95588268581954
 20
4.082818251982537
 30
0.0
 10
34.31238564713487
 20
3.512318093318413
 30
0.0
 10
34.47826509768668
 20
3.217788803628228
 30
0.0
 10
34.76893680102574
 20
2.612027097599482
 30
0.0
 10
34.89293863406823
 20
2.302471421510696
 30
0.0
 10
35.09279722676533
 20
1.668296810395362
 30
0.0
 10
35.1695192672353
 20
1.343948597751308
 30
0.0
 10
35.27368200833068
 20
0.6798334072469625
 30
0.0
 10
35.30042303290442
 20
0.3416975303870433
 30
0.0
 10
35.30000217103778
 20
0.0037358620054702
 30
0.0
  0
SPLINE
  5
6C
330
1F
100
AcDbEntity
  8
0
  6
Continuous
 62
     7
370
    25
100
AcDbSpline
210
0.0
220
0.0
230
1.0
 70
     8
 71
     3
 72
    18
 73
    14
 74
     0
 42
0.00000001
 43
0.00000001
 40
0.0
 40
0.0
 40
0.0
 40
0.0
 40
0.1249999999999999
 40
0.1249999999999999
 40
0.2499999999999999
 40
0.2499999999999999
 40
0.4999999999999995
 40
0.4999999999999995
 40
0.6249999999999997
 40
0.6249999999999997
 40
0.7499999999999998
 40
0.7499999999999998
 40
1.0
 40
1.0
 40
1.0
 40
1.0
 10
31.80593227306503
 20
15.31250676063762
 30
0.0
 10
31.95204743050045
 20
15.01005955877268
 30
0.0
 10
32.07300690439629
 20
14.69870636171214
 30
0.0
 10
32.2670742818925
 20
14.05905883162537
 30
0.0
 10
32.3400459662475
 20
13.72979316649083
 30
0.0
 10
32.48361511644228
 20
12.74346891175851
 30
0.0
 10
32.47631712721498
 20
12.07812440915894
 30
0.0
 10
32.36763993029883
 20
11.07658729743724
 30
0.0
 10
32.31801384669561
 20
10.74268364124739
 30
0.0
 10
32.2380428335635
 20
10.074959713763
 30
0.0
 10
32.20848477385404
 20
9.741142845431655
 30
0.0
 10
32.183969645369
 20
8.739969708046573
 30
0.0
 10
32.25054520143029
 20
8.072879548140651
 30
0.0
 10
32.44938953308927
 20
7.406361408870044
 30
0.0
  0
LINE
  5
6D
330
1F
100
AcDbEntity
  8
0
  6
Continuous
 62
     7
370
    25
100
AcDbLine
 10
31.8025821947
 20
15.3194629127
 30
0.0
 11
31.8059322731
 21
15.3125067606
 31
0.0
  0
SPLINE
  5
6E
330
1F
100
AcDbEntity
  8
0
  6
Continuous
 62
     7
370
    25
100
AcDbSpline
210
0.0
220
0.0
230
1.0
 70
     8
 71
     3
 72
    20
 73
    16
 74
     0
 42
0.00000001
 43
0.00000001
 40
0.0
 40
0.0
 40
0.0
 40
0.0
 40
0.2499999999999998
 40
0.2499999999999998
 40
0.3749999999999998
 40
0.3749999999999998
 40
0.4999999999999997
 40
0.4999999999999997
 40
0.6249999999999996
 40
0.6249999999999996
 40
0.7499999999999996
 40
0.7499999999999996
 40
0.8749999999999994
 40
0.8749999999999994
 40
1.0
 40
1.0
 40
1.0
 40
1.0
 10
26.02238997041723
 20
20.75216351652483
 30
0.0
 10
26.40870488550661
 20
20.19668085458682
 30
0.0
 10
26.88073657210368
 20
19.72997606128776
 30
0.0
 10
27.67768510955924
 20
19.1219946907174
 30
0.0
 10
27.95865356899574
 20
18.93493209667418
 30
0.0
 10
28.53039971784842
 20
18.58028167436999
 30
0.0
 10
28.82172473278009
 20
18.41139748309121
 30
0.0
 10
29.39045354425092
 20
18.05207543886085
 30
0.0
 10
29.66769723451418
 20
17.85868611441093
 30
0.0
 10
30.19241354402995
 20
17.43903140140837
 30
0.0
 10
30.4384465093708
 20
17.21393375334575
 30
0.0
 10
30.89367093089796
 20
16.72927756540649
 30
0.0
 10
31.10352451612134
 20
16.4703383692439
 30
0.0
 10
31.48552068510368
 20
15.91718577747647
 30
0.0
 10
31.65632517431937
 20
15.62413837503141
 30
0.0
 10
31.80258206323633
 20
15.31946282815348
 30
0.0
  0
SPLINE
  5
6F
330
1F
100
AcDbEntity
  8
0
  6
Continuous
 62
     7
370
    25
100
AcDbSpline
210
0.0
220
0.0
230
1.0
 70
     8
 71
     3
 72
    18
 73
    14
 74
     0
 42
0.00000001
 43
0.00000001
 40
0.0
 40
0.0
 40
0.0
 40
0.0
 40
0.1250000000000005
 40
0.1250000000000005
 40
0.2500000000000011
 40
0.2500000000000011
 40
0.5000000000000003
 40
0.5000000000000003
 40
0.625
 40
0.625
 40
0.7499999999999996
 40
0.7499999999999996
 40
1.0
 40
1.0
 40
1.0
 40
1.0
 10
22.012307104078
 20
27.59616870163704
 30
0.0
 10
22.27517923488676
 20
27.38707017942236
 30
0.0
 10
22.51925104447161
 20
27.15903299076455
 30
0.0
 10
22.97163237194252
 20
26.66693315911451
 30
0.0
 10
23.18024060573635
 20
26.40193627281674
 30
0.0
 10
23.73754199607862
 20
25.57558114535433
 30
0.0
 10
24.01964889557576
 20
24.97295998322817
 30
0.0
 10
24.35628479140219
 20
24.02345295696323
 30
0.0
 10
24.45644860189246
 20
23.70108420714592
 30
0.0
 10
24.67411176308092
 20
23.06478761393017
 30
0.0
 10
24.79231858249926
 20
22.75120424651514
 30
0.0
 10
25.20462395929421
 20
21.83854170273894
 30
0.0
 10
25.5540460355772
 20
21.26640028777733
 30
0.0
 10
26.02238997041724
 20
20.75216351652483
 30
0.0
  0
LINE
  5
70
330
1F
100
AcDbEntity
  8
0
  6
Continuous
 62
     7
370
    25
100
AcDbLine
 10
22.0062706264
 20
27.6009824336
 30
0.0
 11
22.0123071041
 21
27.5961687016
 31
0.0
  0
SPLINE
  5
71
330
1F
100
AcDbEntity
  8
0
  6
Continuous
 62
     7
370
    25
100
AcDbSpline
210
0.0
220
0.0
230
1.0
 70
     8
 71
     3
 72
    20
 73
    16
 74
     0
 42
0.00000001
 43
0.00000001
 40
0.0
 40
0.0
 40
0.0
 40
0.0
 40
0.2500000000000002
 40
0.2500000000000002
 40
0.3750000000000001
 40
0.3750000000000001
 40
0.5000000000000001
 40
0.5000000000000001
 40
0.6250000000000001
 40
0.6250000000000001
 40
0.75
 40
0.75
 40
0.875
 40
0.875
 40
1.0
 40
1.0
 40
1.0
 40
1.0
 10
14.44133693043355
 20
29.98774513114971
 30
0.0
 10
15.03040953650535
 20
29.65488830592339
 30
0.0
 10
15.65819101156589
 20
29.4392086898237
 30
0.0
 10
16.64001006349863
 20
29.23721941399005
 30
0.0
 10
16.97431731606196
 20
29.19058948616182
 30
0.0
 10
17.64331984782259
 20
29.119131853567
 30
0.0
 10
17.97907072110331
 20
29.09337364172125
 30
0.0
 10
18.64738166660847
 20
29.01639784958662
 30
0.0
 10
18.98107808355211
 20
28.96245161785369
 30
0.0
 10
19.63591249891673
 20
28.81202166052494
 30
0.0
 10
19.95524675037207
 20
28.71596539033478
 30
0.0
 10
20.57567422108194
 20
28.47681972752411
 30
0.0
 10
20.87709527481897
 20
28.3345756313309
 30
0.0
 10
21.46126584554516
 20
28.0019442930871
 30
0.0
 10
21.74230387554084
 20
27.81202699711299
 30
0.0
 10
22.00627054466563
 20
27.60098230040202
 30
0.0
  0
SPLINE
  5
72
330
1F
100
AcDbEntity
  8
0
  6
Continuous
 62
     7
370
    25
100
AcDbSpline
210
0.0
220
0.0
230
1.0
 70
     8
 71
     3
 72
    18
 73
    14
 74
     0
 42
0.00000001
 43
0.00000001
 40
0.0
 40
0.0
 40
0.0
 40
0.0
 40
0.1249999999999996
 40
0.1249999999999996
 40
0.2499999999999992
 40
0.2499999999999992
 40
0.4999999999999998
 40
0.4999999999999998
 40
0.6249999999999993
 40
0.6249999999999993
 40
0.749999999999999
 40
0.749999999999999
 40
1.0
 40
1.0
 40
1.0
 40
1.0
 10
7.858874549898207
 20
34.41407098647935
 30
0.0
 10
8.186438604658475
 20
34.33973567066463
 30
0.0
 10
8.505281334699665
 20
34.24018005231585
 30
0.0
 10
9.126376942146642
 20
33.99309432596927
 30
0.0
 10
9.429304306264353
 20
33.8448521018131
 30
0.0
 10
10.28995756154374
 20
33.34213586919517
 30
0.0
 10
10.80559461850571
 20
32.92159455936513
 30
0.0
 10
11.52086873933787
 20
32.21217913004842
 30
0.0
 10
11.75098377282542
 20
31.96519437109823
 30
0.0
 10
12.22317024979755
 20
31.48635145610316
 30
0.0
 10
12.46572963804626
 20
31.25511062136866
 30
0.0
 10
13.23319338365316
 20
30.61172268106777
 30
0.0
 10
13.79625465256933
 20
30.24784963513766
 30
0.0
 10
14.44133693043354
 20
29.9877451311497
 30
0.0
  0
LINE
  5
73
330
1F
100
AcDbEntity
  8
0
  6
Continuous
 62
     7
370
    25
100
AcDbLine
 10
7.8513472714
 20
34.4157888796
 30
0.0
 11
7.8588745499
 21
34.4140709865
 31
0.0
  0
SPLINE
  5
74
330
1F
100
AcDbEntity
  8
0
  6
Continuous
 62
     7
370
    25
100
AcDbSpline
210
0.0
220
0.0
230
1.0
 70
     8
 71
     3
 72
    20
 73
    16
 74
     0
 42
0.00000001
 43
0.00000001
 40
0.0
 40
0.0
 40
0.0
 40
0.0
 40
0.2499999999999996
 40
0.2499999999999996
 40
0.3749999999999997
 40
0.3749999999999997
 40
0.4999999999999999
 40
0.4999999999999999
 40
0.6249999999999999
 40
0.6249999999999999
 40
0.7499999999999999
 40
0.7499999999999999
 40
0.875
 40
0.875
 40
1.0
 40
1.0
 40
1.0
 40
1.0
 10
0.0000000000051925
 20
33.28388604699136
 30
0.0
 10
0.6751572429299421
 20
33.23958143492794
 30
0.0
 10
1.33434868609004
 20
33.31764498912897
 30
0.0
 10
2.30657694805509
 20
33.56165426134214
 30
0.0
 10
2.628009342369479
 20
33.66469262881265
 30
0.0
 10
3.261764100852358
 20
33.89058084643013
 30
0.0
 10
3.575441254317928
 20
34.01305034377529
 30
0.0
 10
4.210967154809341
 20
34.23366680340881
 30
0.0
 10
4.535023630541691
 20
34.32984837719035
 30
0.0
 10
5.19027816477739
 20
34.4784376734785
 30
0.0
 10
5.519665637469352
 20
34.53044790352008
 30
0.0
 10
6.182412887744342
 20
34.5841784972766
 30
0.0
 10
6.515701273615385
 20
34.58680268880779
 30
0.0
 10
7.186344100169187
 20
34.54057432007054
 30
0.0
 10
7.521952642392278
 20
34.49140258021043
 30
0.0
 10
7.851347255567463
 20
34.41578872414021
 30
0.0
  0
SPLINE
  5
75
330
1F
100
AcDbEntity
  8
0
  6
Continuous
 62
     7
370
    25
100
AcDbSpline
210
0.0
220
0.0
230
1.0
 70
     8
 71
     3
 72
    18
 73
    14
 74
     0
 42
0.00000001
 43
0.00000001
 40
0.0
 40
0.0
 40
0.0
 40
0.0
 40
0.125
 40
0.125
 40
0.2499999999999999
 40
0.2499999999999999
 40
0.4999999999999998
 40
0.4999999999999998
 40
0.6249999999999997
 40
0.6249999999999997
 40
0.7499999999999997
 40
0.7499999999999997
 40
1.0
 40
1.0
 40
1.0
 40
1.0
 10
-7.851104491659962
 20
34.41584445156751
 30
0.0
 10
-7.523726591302879
 20
34.49099536311266
 30
0.0
 10
-7.193263653839382
 20
34.53963952625634
 30
0.0
 10
-6.526469368708815
 20
34.5865062636236
 30
0.0
 10
-6.189221353891029
 20
34.58437989217473
 30
0.0
 10
-5.19567916610199
 20
34.50487166968105
 30
0.0
 10
-4.548640194679909
 20
34.34970357615949
 30
0.0
 10
-3.596396660734145
 20
34.02088816997608
 30
0.0
 10
-3.28190750880713
 20
33.89820576247231
 30
0.0
 10
-2.648720038802634
 20
33.67165723763554
 30
0.0
 10
-2.329849943361807
 20
33.56855901888338
 30
0.0
 10
-1.359233436085185
 20
33.32187655426959
 30
0.0
 10
-0.69405416433776
 20
33.23834139672731
 30
0.0
 10
0.0000000000051969
 20
33.28388604699138
 30
0.0
  0
LINE
  5
76
330
1F
100
AcDbEntity
  8
0
  6
Continuous
 62
     7
370
    25
100
AcDbLine
 10
-7.8586317011
 20
34.4141262561
 30
0.0
 11
-7.8511044917
 21
34.4158444516
 31
0.0
  0
SPLINE
  5
77
330
1F
100
AcDbEntity
  8
0
  6
Continuous
 62
     7
370
    25
100
AcDbSpline
210
0.0
220
0.0
230
1.0
 70
     8
 71
     3
 72
    20
 73
    16
 74
     0
 42
0.00000001
 43
0.00000001
 40
0.0
 40
0.0
 40
0.0
 40
0.0
 40
0.25
 40
0.25
 40
0.375
 40
0.375
 40
0.5
 40
0.5
 40
0.625
 40
0.625
 40
0.75
 40
0.75
 40
0.875
 40
0.875
 40
1.0
 40
1.0
 40
1.0
 40
1.0
 10
-14.44133693042334
 20
29.98774513115374
 30
0.0
 10
-13.8138182228669
 20
30.24076780403276
 30
0.0
 10
-13.25377776137747
 20
30.5971130842387
 30
0.0
 10
-12.48370202025915
 20
31.23879187555999
 30
0.0
 10
-12.23880811199719
 20
31.4710905259692
 30
0.0
 10
-11.76582402920148
 20
31.94958466196284
 30
0.0
 10
-11.53634820279264
 20
32.19602528255993
 30
0.0
 10
-11.05948104612062
 20
32.67053819844788
 30
0.0
 10
-10.80924787090995
 20
32.89779763746696
 30
0.0
 10
-10.28335441447778
 20
33.31597625491384
 30
0.0
 10
-10.00915294918791
 20
33.50575172126372
 30
0.0
 10
-9.435351140325906
 20
33.84171656853126
 30
0.0
 10
-9.13620727465611
 20
33.98868929447038
 30
0.0
 10
-8.51192122896746
 20
34.23801999062151
 30
0.0
 10
-8.188213562272791
 20
34.33933287300605
 30
0.0
 10
-7.85863164794626
 20
34.41412610911436
 30
0.0
  0
SPLINE
  5
78
330
1F
100
AcDbEntity
  8
0
  6
Continuous
 62
     7
370
    25
100
AcDbSpline
210
0.0
220
0.0
230
1.0
 70
     8
 71
     3
 72
    18
 73
    14
 74
     0
 42
0.00000001
 43
0.00000001
 40
0.0
 40
0.0
 40
0.0
 40
0.0
 40
0.1250000000000009
 40
0.1250000000000009
 40
0.2500000000000019
 40
0.2500000000000019
 40
0.5000000000000026
 40
0.5000000000000026
 40
0.6250000000000021
 40
0.6250000000000021
 40
0.7500000000000018
 40
0.7500000000000018
 40
1.0
 40
1.0
 40
1.0
 40
1.0
 10
-22.00607600116683
 20
27.60113784039018
 30
0.0
 10
-21.74372546340511
 20
27.81089041959827
 30
0.0
 10
-21.46709455614588
 20
27.99809979114237
 30
0.0
 10
-20.88666837919702
 20
28.32963646010514
 30
0.0
 10
-20.58189581908927
 20
28.47404709530724
 30
0.0
 10
-19.65224791407741
 20
28.83349446150718
 30
0.0
 10
-19.00196103189748
 20
28.97443252822783
 30
0.0
 10
-18.00135159523645
 20
29.09134306902877
 30
0.0
 10
-17.66477675836543
 20
29.11726176837856
 30
0.0
 10
-16.99599883929761
 20
29.18787834747938
 30
0.0
 10
-16.66397416975175
 20
29.23334261135019
 30
0.0
 10
-15.6824474039018
 20
29.4322241099023
 30
0.0
 10
-15.04689704198107
 20
29.64557200319087
 30
0.0
 10
-14.44133693042334
 20
29.98774513115374
 30
0.0
  0
LINE
  5
79
330
1F
100
AcDbEntity
  8
0
  6
Continuous
 62
     7
370
    25
100
AcDbLine
 10
-22.0121122855
 20
27.596323866
 30
0.0
 11
-22.0060760012
 21
27.6011378404
 31
0.0
  0
SPLINE
  5
7A
330
1F
100
AcDbEntity
  8
0
  6
Continuous
 62
     7
370
    25
100
AcDbSpline
210
0.0
220
0.0
230
1.0
 70
     8
 71
     3
 72
    20
 73
    16
 74
     0
 42
0.00000001
 43
0.00000001
 40
0.0
 40
0.0
 40
0.0
 40
0.0
 40
0.2499999999999992
 40
0.2499999999999992
 40
0.3749999999999993
 40
0.3749999999999993
 40
0.4999999999999994
 40
0.4999999999999994
 40
0.6249999999999996
 40
0.6249999999999996
 40
0.7499999999999997
 40
0.7499999999999997
 40
0.8749999999999999
 40
0.8749999999999999
 40
1.0
 40
1.0
 40
1.0
 40
1.0
 10
-26.02238997040914
 20
20.75216351653232
 30
0.0
 10
-25.56679757426491
 20
21.25239923087026
 30
0.0
 10
-25.21683097628988
 20
21.81644768404743
 30
0.0
 10
-24.80143070090627
 20
22.72870364018057
 30
0.0
 10
-24.68157952065479
 20
23.04425297685861
 30
0.0
 10
-24.46304641191325
 20
23.68058139924883
 30
0.0
 10
-24.36322241431789
 20
24.00218255579255
 30
0.0
 10
-24.13946339023661
 20
24.6366088254241
 30
0.0
 10
-24.01261526480701
 20
24.94993461062876
 30
0.0
 10
-23.72024253488533
 20
25.55487714542505
 30
0.0
 10
-23.55553604005886
 20
25.84483048952941
 30
0.0
 10
-23.18432815807322
 20
26.39648763196845
 30
0.0
 10
-22.97857792395985
 20
26.6586991414412
 30
0.0
 10
-22.52429616685209
 20
27.15420590026806
 30
0.0
 10
-22.27660364908916
 20
27.38593714602089
 30
0.0
 10
-22.01211217380078
 20
27.59632375661758
 30
0.0
  0
SPLINE
  5
7B
330
1F
100
AcDbEntity
  8
0
  6
Continuous
 62
     7
370
    25
100
AcDbSpline
210
0.0
220
0.0
230
1.0
 70
     8
 71
     3
 72
    18
 73
    14
 74
     0
 42
0.00000001
 43
0.00000001
 40
0.0
 40
0.0
 40
0.0
 40
0.0
 40
0.1250000000000007
 40
0.1250000000000007
 40
0.2500000000000015
 40
0.2500000000000015
 40
0.5000000000000021
 40
0.5000000000000021
 40
0.6250000000000019
 40
0.6250000000000019
 40
0.7500000000000016
 40
0.7500000000000016
 40
1.0
 40
1.0
 40
1.0
 40
1.0
 10
-31.80247427183176
 20
15.3196873741835
 30
0.0
 10
-31.65711283818733
 20
15.62249755029575
 30
0.0
 10
-31.48910410497062
 20
15.91119301823362
 30
0.0
 10
-31.11000655900828
 20
16.46173471547337
 30
0.0
 10
-30.89807339693012
 20
16.72408005994445
 30
0.0
 10
-30.2164479436666
 20
17.45129005562941
 30
0.0
 10
-29.69171044299002
 20
17.86041976998636
 30
0.0
 10
-28.84091807421417
 20
18.39990069135241
 30
0.0
 10
-28.54892032666102
 20
18.56928698127754
 30
0.0
 10
-27.97701162742437
 20
18.92308218476948
 30
0.0
 10
-27.69759394159252
 20
19.10810417622097
 30
0.0
 10
-26.8995603307819
 20
19.71315871802895
 30
0.0
 10
-26.41951742238011
 20
20.18113349534207
 30
0.0
 10
-26.02238997040913
 20
20.75216351653233
 30
0.0
  0
LINE
  5
7C
330
1F
100
AcDbEntity
  8
0
  6
Continuous
 62
     7
370
    25
100
AcDbLine
 10
-31.8058240708
 20
15.3127310875
 30
0.0
 11
-31.8024742718
 21
15.3196873742
 31
0.0
  0
SPLINE
  5
7D
330
1F
100
AcDbEntity
  8
0
  6
Continuous
 62
     7
370
    25
100
AcDbSpline
210
0.0
220
0.0
230
1.0
 70
     8
 71
     3
 72
    20
 73
    16
 74
     0
 42
0.00000001
 43
0.00000001
 40
0.0
 40
0.0
 40
0.0
 40
0.0
 40
0.25
 40
0.25
 40
0.375
 40
0.375
 40
0.5
 40
0.5
 40
0.625
 40
0.625
 40
0.75
 40
0.75
 40
0.875
 40
0.875
 40
1.0
 40
1.0
 40
1.0
 40
1.0
 10
-32.44938953308476
 20
7.406361408880452
 30
0.0
 10
-32.25595910988292
 20
8.054732346464752
 30
0.0
 10
-32.18538155220977
 20
8.714767258861833
 30
0.0
 10
-32.20693186165061
 20
9.716916899610654
 30
0.0
 10
-32.23586140553669
 20
10.05321850647013
 30
0.0
 10
-32.3150624331682
 20
10.72134856714721
 30
0.0
 10
-32.36466163137096
 20
11.05441320640499
 30
0.0
 10
-32.43832895882359
 20
11.72309692635246
 30
0.0
 10
-32.45998971010618
 20
12.06043104329454
 30
0.0
 10
-32.4590457115715
 20
12.73232120729064
 30
0.0
 10
-32.43645632850102
 20
13.06502361330523
 30
0.0
 10
-32.34136464698395
 20
13.72311058822489
 30
0.0
 10
-32.26975940165369
 20
14.04862667596706
 30
0.0
 10
-32.07545800652098
 20
14.69216830689227
 30
0.0
 10
-31.95283917858137
 20
15.0084207007942
 30
0.0
 10
-31.80582392278689
 20
15.31273103742828
 30
0.0
  0
SPLINE
  5
7E
330
1F
100
AcDbEntity
  8
0
  6
Continuous
 62
     7
370
    25
100
AcDbSpline
210
0.0
220
0.0
230
1.0
 70
     8
 71
     3
 72
    18
 73
    14
 74
     0
 42
0.00000001
 43
0.00000001
 40
0.0
 40
0.0
 40
0.0
 40
0.0
 40
0.1250000000000004
 40
0.1250000000000004
 40
0.2500000000000007
 40
0.2500000000000007
 40
0.5000000000000014
 40
0.5000000000000014
 40
0.625000000000001
 40
0.625000000000001
 40
0.7500000000000006
 40
0.7500000000000006
 40
1.0
 40
1.0
 40
1.0
 40
1.0
 10
-35.30000248120896
 20
0.0039849398847064
 30
0.0
 10
-35.30042076635612
 20
0.3398774437990515
 30
0.0
 10
-35.27431039728732
 20
0.6728793300881224
 30
0.0
 10
-35.17162640061554
 20
1.333384520515787
 30
0.0
 10
-35.09450859850616
 20
1.661703861328861
 30
0.0
 10
-34.7959098775972
 20
2.612643628208207
 30
0.0
 10
-34.50065245591593
 20
3.208931832626453
 30
0.0
 10
-33.96818701794474
 20
4.064132321781812
 30
0.0
 10
-33.77860009472968
 20
4.343437170176131
 30
0.0
 10
-33.41683414720783
 20
4.910337518994309
 30
0.0
 10
-33.2453655446019
 20
5.198271363473762
 30
0.0
 10
-32.7888854326915
 20
6.089660476025848
 30
0.0
 10
-32.55942836315754
 20
6.719573993382858
 30
0.0
 10
-32.44938953308477
 20
7.406361408880455
 30
0.0
  0
LINE
  5
7F
330
1F
100
AcDbEntity
  8
0
  6
Continuous
 62
     7
370
    25
100
AcDbLine
 10
-35.3000023261
 20
-0.0037358812
 30
0.0
 11
-35.3000024812
 21
0.0039849399
 31
0.0
  0
SPLINE
  5
80
330
1F
100
AcDbEntity
  8
0
  6
Continuous
 62
     7
370
    25
100
AcDbSpline
210
0.0
220
0.0
230
1.0
 70
     8
 71
     3
 72
    20
 73
    16
 74
     0
 42
0.00000001
 43
0.00000001
 40
0.0
 40
0.0
 40
0.0
 40
0.0
 40
0.2499999999999992
 40
0.2499999999999992
 40
0.3749999999999994
 40
0.3749999999999994
 40
0.4999999999999996
 40
0.4999999999999996
 40
0.6249999999999997
 40
0.6249999999999997
 40
0.7499999999999999
 40
0.7499999999999999
 40
0.8749999999999999
 40
0.8749999999999999
 40
1.0
 40
1.0
 40
1.0
 40
1.0
 10
-32.44938953308664
 20
-7.406361408863825
 30
0.0
 10
-32.55643235041052
 20
-6.738273063969531
 30
0.0
 10
-32.77922258391333
 20
-6.112979701549849
 30
0.0
 10
-33.23345517509655
 20
-5.21942440309457
 30
0.0
 10
-33.40543559215593
 20
-4.92897918376077
 30
0.0
 10
-33.76668402130126
 20
-4.361378837391508
 30
0.0
 10
-33.9558826858039
 20
-4.082818251994472
 30
0.0
 10
-34.31238564711823
 20
-3.512318093334438
 30
0.0
 10
-34.47826509767005
 20
-3.217788803646792
 30
0.0
 10
-34.76893680101004
 20
-2.612027097622426
 30
0.0
 10
-34.89293863405344
 20
-2.302471421535986
 30
0.0
 10
-35.09279722675289
 20
-1.66829681042556
 30
0.0
 10
-35.1695192672243
 20
-1.343948597784063
 30
0.0
 10
-35.27368200832341
 20
-0.679833407285129
 30
0.0
 10
-35.3004230329022
 20
-0.3416975304271662
 30
0.0
 10
-35.30000217103556
 20
-0.0037358620474365
 30
0.0
  0
SPLINE
  5
81
330
1F
100
AcDbEntity
  8
0
  6
Continuous
 62
     7
370
    25
100
AcDbSpline
210
0.0
220
0.0
230
1.0
 70
     8
 71
     3
 72
    18
 73
    14
 74
     0
 42
0.00000001
 43
0.00000001
 40
0.0
 40
0.0
 40
0.0
 40
0.0
 40
0.1249999999999998
 40
0.1249999999999998
 40
0.2499999999999997
 40
0.2499999999999997
 40
0.5
 40
0.5
 40
0.625
 40
0.625
 40
0.7500000000000001
 40
0.7500000000000001
 40
1.0
 40
1.0
 40
1.0
 40
1.0
 10
-31.80593227306298
 20
-15.31250676062957
 30
0.0
 10
-31.95204743049838
 20
-15.01005955876468
 30
0.0
 10
-32.0730069043942
 20
-14.6987063617042
 30
0.0
 10
-32.26707428189042
 20
-14.05905883161759
 30
0.0
 10
-32.34004596624541
 20
-13.72979316648309
 30
0.0
 10
-32.48361511644018
 20
-12.74346891175087
 30
0.0
 10
-32.47631712721297
 20
-12.07812440915151
 30
0.0
 10
-32.36763993029687
 20
-11.07658729743006
 30
0.0
 10
-32.31801384669367
 20
-10.7426836412403
 30
0.0
 10
-32.23804283356156
 20
-10.07495971375609
 30
0.0
 10
-32.20848477385206
 20
-9.741142845424827
 30
0.0
 10
-32.1839696453668
 20
-8.739969708040007
 30
0.0
 10
-32.25054520142799
 20
-8.072879548134265
 30
0.0
 10
-32.44938953308664
 20
-7.406361408863831
 30
0.0
  0
LINE
  5
82
330
1F
100
AcDbEntity
  8
0
  6
Continuous
 62
     7
370
    25
100
AcDbLine
 10
-31.8025821946
 20
-15.3194629128
 30
0.0
 11
-31.8059322731
 21
-15.3125067606
 31
0.0
  0
SPLINE
  5
83
330
1F
100
AcDbEntity
  8
0
  6
Continuous
 62
     7
370
    25
100
AcDbSpline
210
0.0
220
0.0
230
1.0
 70
     8
 71
     3
 72
    20
 73
    16
 74
     0
 42
0.00000001
 43
0.00000001
 40
0.0
 40
0.0
 40
0.0
 40
0.0
 40
0.2500000000000016
 40
0.2500000000000016
 40
0.3750000000000014
 40
0.3750000000000014
 40
0.5000000000000013
 40
0.5000000000000013
 40
0.6250000000000012
 40
0.6250000000000012
 40
0.7500000000000011
 40
0.7500000000000011
 40
0.875000000000001
 40
0.875000000000001
 40
1.0
 40
1.0
 40
1.0
 40
1.0
 10
-26.02238997041714
 20
-20.75216351651457
 30
0.0
 10
-26.40870488550249
 20
-20.19668085458301
 30
0.0
 10
-26.8807365720935
 20
-19.72997606128839
 30
0.0
 10
-27.67768510953837
 20
-19.1219946907231
 30
0.0
 10
-27.95865356897113
 20
-18.93493209668118
 30
0.0
 10
-28.53039971781675
 20
-18.58028167437998
 30
0.0
 10
-28.82172473274511
 20
-18.41139748310306
 30
0.0
 10
-29.39045354421068
 20
-18.05207543887847
 30
0.0
 10
-29.66769723447176
 20
-17.85868611443259
 30
0.0
 10
-30.19241354398503
 20
-17.43903140143788
 30
0.0
 10
-30.43844650932526
 20
-17.21393375337977
 30
0.0
 10
-30.89367093085192
 20
-16.72927756545026
 30
0.0
 10
-31.10352451607543
 20
-16.47033836929292
 30
0.0
 10
-31.48552068505919
 20
-15.91718577753709
 30
0.0
 10
-31.6563251742811
 20
-15.6241383750992
 30
0.0
 10
-31.80258206319654
 20
-15.31946282822443
 30
0.0
  0
SPLINE
  5
84
330
1F
100
AcDbEntity
  8
0
  6
Continuous
 62
     7
370
    25
100
AcDbSpline
210
0.0
220
0.0
230
1.0
 70
     8
 71
     3
 72
    18
 73
    14
 74
     0
 42
0.00000001
 43
0.00000001
 40
0.0
 40
0.0
 40
0.0
 40
0.0
 40
0.1250000000000008
 40
0.1250000000000008
 40
0.2500000000000017
 40
0.2500000000000017
 40
0.5000000000000022
 40
0.5000000000000022
 40
0.6250000000000017
 40
0.6250000000000017
 40
0.7500000000000012
 40
0.7500000000000012
 40
1.0
 40
1.0
 40
1.0
 40
1.0
 10
-22.01230710407579
 20
-27.59616870162898
 30
0.0
 10
-22.27517923488465
 20
-27.38707017941422
 30
0.0
 10
-22.51925104446958
 20
-27.15903299075631
 30
0.0
 10
-22.97163237194065
 20
-26.66693315910608
 30
0.0
 10
-23.18024060573457
 20
-26.40193627280819
 30
0.0
 10
-23.73754199607696
 20
-25.57558114534534
 30
0.0
 10
-24.01964889557409
 20
-24.97295998321889
 30
0.0
 10
-24.35628479140057
 20
-24.02345295695356
 30
0.0
 10
-24.45644860189086
 20
-23.7010842071361
 30
0.0
 10
-24.67411176307951
 20
-23.06478761392016
 30
0.0
 10
-24.79231858249793
 20
-22.75120424650506
 30
0.0
 10
-25.20462395929331
 20
-21.83854170272869
 30
0.0
 10
-25.5540460355767
 20
-21.26640028776706
 30
0.0
 10
-26.02238997041714
 20
-20.75216351651457
 30
0.0
  0
LINE
  5
85
330
1F
100
AcDbEntity
  8
0
  6
Continuous
 62
     7
370
    25
100
AcDbLine
 10
-22.0062706264
 20
-27.6009824336
 30
0.0
 11
-22.0123071041
 21
-27.5961687016
 31
0.0
  0
SPLINE
  5
86
330
1F
100
AcDbEntity
  8
0
  6
Continuous
 62
     7
370
    25
100
AcDbSpline
210
0.0
220
0.0
230
1.0
 70
     8
 71
     3
 72
    20
 73
    16
 74
     0
 42
0.00000001
 43
0.00000001
 40
0.0
 40
0.0
 40
0.0
 40
0.0
 40
0.250000000000001
 40
0.250000000000001
 40
0.3750000000000008
 40
0.3750000000000008
 40
0.5000000000000007
 40
0.5000000000000007
 40
0.6250000000000004
 40
0.6250000000000004
 40
0.7500000000000003
 40
0.7500000000000003
 40
0.8750000000000001
 40
0.8750000000000001
 40
1.0
 40
1.0
 40
1.0
 40
1.0
 10
-14.44133693043443
 20
-29.98774513114036
 30
0.0
 10
-15.0304095365064
 20
-29.65488830591443
 30
0.0
 10
-15.65819101156702
 20
-29.43920868981509
 30
0.0
 10
-16.64001006349981
 20
-29.23721941398185
 30
0.0
 10
-16.97431731606314
 20
-29.19058948615372
 30
0.0
 10
-17.64331984782375
 20
-29.11913185355905
 30
0.0
 10
-17.97907072110445
 20
-29.09337364171328
 30
0.0
 10
-18.64738166660955
 20
-29.01639784957853
 30
0.0
 10
-18.98107808355315
 20
-28.96245161784542
 30
0.0
 10
-19.63591249891768
 20
-28.81202166051643
 30
0.0
 10
-19.95524675037295
 20
-28.71596539032613
 30
0.0
 10
-20.57567422108268
 20
-28.47681972751517
 30
0.0
 10
-20.87709527481964
 20
-28.33457563132184
 30
0.0
 10
-21.46126584554568
 20
-28.00194429307777
 30
0.0
 10
-21.74230387554113
 20
-27.81202699710344
 30
0.0
 10
-22.00627054466589
 20
-27.60098230039247
 30
0.0
  0
SPLINE
  5
87
330
1F
100
AcDbEntity
  8
0
  6
Continuous
 62
     7
370
    25
100
AcDbSpline
210
0.0
220
0.0
230
1.0
 70
     8
 71
     3
 72
    18
 73
    14
 74
     0
 42
0.00000001
 43
0.00000001
 40
0.0
 40
0.0
 40
0.0
 40
0.0
 40
0.125
 40
0.125
 40
0.2499999999999999
 40
0.2499999999999999
 40
0.4999999999999992
 40
0.4999999999999992
 40
0.6249999999999991
 40
0.6249999999999991
 40
0.749999999999999
 40
0.749999999999999
 40
1.0
 40
1.0
 40
1.0
 40
1.0
 10
-7.858874549895945
 20
-34.4140709864713
 30
0.0
 10
-8.186438604656354
 20
-34.33973567065656
 30
0.0
 10
-8.505281334697674
 20
-34.24018005230771
 30
0.0
 10
-9.126376942144883
 20
-33.99309432596097
 30
0.0
 10
-9.429304306262724
 20
-33.84485210180476
 30
0.0
 10
-10.28995756154244
 20
-33.34213586918651
 30
0.0
 10
-10.8055946185045
 20
-32.92159455935617
 30
0.0
 10
-11.52086873933687
 20
-32.21217913003901
 30
0.0
 10
-11.75098377282452
 20
-31.9651943710887
 30
0.0
 10
-12.2231702497969
 20
-31.48635145609351
 30
0.0
 10
-12.46572963804575
 20
-31.25511062135896
 30
0.0
 10
-13.23319338365316
 20
-30.61172268105807
 30
0.0
 10
-13.79625465256969
 20
-30.24784963512798
 30
0.0
 10
-14.44133693043444
 20
-29.98774513114036
 30
0.0
  0
LINE
  5
88
330
1F
100
AcDbEntity
  8
0
  6
Continuous
 62
     7
370
    25
100
AcDbLine
 10
-7.8513472714
 20
-34.4157888796
 30
0.0
 11
-7.8588745499
 21
-34.4140709865
 31
0.0
  0
SPLINE
  5
89
330
1F
100
AcDbEntity
  8
0
  6
Continuous
 62
     7
370
    25
100
AcDbSpline
210
0.0
220
0.0
230
1.0
 70
     8
 71
     3
 72
    20
 73
    16
 74
     0
 42
0.00000001
 43
0.00000001
 40
0.0
 40
0.0
 40
0.0
 40
0.0
 40
0.2499999999999994
 40
0.2499999999999994
 40
0.3749999999999994
 40
0.3749999999999994
 40
0.4999999999999996
 40
0.4999999999999996
 40
0.6249999999999996
 40
0.6249999999999996
 40
0.7499999999999997
 40
0.7499999999999997
 40
0.8749999999999999
 40
0.8749999999999999
 40
1.0
 40
1.0
 40
1.0
 40
1.0
 10
-0.0000000000030011
 20
-33.28388604698317
 30
0.0
 10
-0.6751572429279682
 20
-33.23958143491972
 30
0.0
 10
-1.334348686088265
 20
-33.31764498912088
 30
0.0
 10
-2.306576948053612
 20
-33.56165426133422
 30
0.0
 10
-2.628009342368097
 20
-33.66469262880479
 30
0.0
 10
-3.261764100851166
 20
-33.89058084642236
 30
0.0
 10
-3.575441254316825
 20
-34.01305034376755
 30
0.0
 10
-4.210967154808456
 20
-34.23366680340109
 30
0.0
 10
-4.535023630540936
 20
-34.32984837718261
 30
0.0
 10
-5.190278164776853
 20
-34.47843767347066
 30
0.0
 10
-5.519665637468935
 20
-34.53044790351219
 30
0.0
 10
-6.182412887744158
 20
-34.58417849726852
 30
0.0
 10
-6.51570127361532
 20
-34.58680268879961
 30
0.0
 10
-7.186344100169369
 20
-34.54057432006209
 30
0.0
 10
-7.521952642392505
 20
-34.49140258020173
 30
0.0
 10
-7.851347255567785
 20
-34.41578872413147
 30
0.0
  0
SPLINE
  5
8A
330
1F
100
AcDbEntity
  8
0
  6
Continuous
 62
     7
370
    25
100
AcDbSpline
210
0.0
220
0.0
230
1.0
 70
     8
 71
     3
 72
    18
 73
    14
 74
     0
 42
0.00000001
 43
0.00000001
 40
0.0
 40
0.0
 40
0.0
 40
0.0
 40
0.1250000000000003
 40
0.1250000000000003
 40
0.2500000000000006
 40
0.2500000000000006
 40
0.500000000000001
 40
0.500000000000001
 40
0.6250000000000008
 40
0.6250000000000008
 40
0.7500000000000004
 40
0.7500000000000004
 40
1.0
 40
1.0
 40
1.0
 40
1.0
 10
7.85110449166225
 20
-34.41584445155935
 30
0.0
 10
7.523726591305163
 20
-34.49099536310451
 30
0.0
 10
7.193263653841659
 20
-34.53963952624819
 30
0.0
 10
6.526469368711078
 20
-34.58650626361545
 30
0.0
 10
6.189221353893303
 20
-34.58437989216657
 30
0.0
 10
5.195679166104276
 20
-34.50487166967289
 30
0.0
 10
4.548640194682187
 20
-34.34970357615132
 30
0.0
 10
3.596396660736409
 20
-34.02088816996788
 30
0.0
 10
3.281907508809398
 20
-33.89820576246412
 30
0.0
 10
2.648720038804896
 20
-33.67165723762732
 30
0.0
 10
2.329849943364053
 20
-33.56855901887519
 30
0.0
 10
1.359233436087409
 20
-33.32187655426139
 30
0.0
 10
0.6940541643399588
 20
-33.23834139671912
 30
0.0
 10
-0.0000000000030146
 20
-33.28388604698317
 30
0.0
  0
LINE
  5
8B
330
1F
100
AcDbEntity
  8
0
  6
Continuous
 62
     7
370
    25
100
AcDbLine
 10
7.8586317012
 20
-34.414126256
 30
0.0
 11
7.8511044917
 21
-34.4158444516
 31
0.0
  0
SPLINE
  5
8C
330
1F
100
AcDbEntity
  8
0
  6
Continuous
 62
     7
370
    25
100
AcDbSpline
210
0.0
220
0.0
230
1.0
 70
     8
 71
     3
 72
    20
 73
    16
 74
     0
 42
0.00000001
 43
0.00000001
 40
0.0
 40
0.0
 40
0.0
 40
0.0
 40
0.2499999999999993
 40
0.2499999999999993
 40
0.3749999999999994
 40
0.3749999999999994
 40
0.4999999999999996
 40
0.4999999999999996
 40
0.6249999999999997
 40
0.6249999999999997
 40
0.7499999999999998
 40
0.7499999999999998
 40
0.8749999999999999
 40
0.8749999999999999
 40
1.0
 40
1.0
 40
1.0
 40
1.0
 10
14.44133693042659
 20
-29.98774513114513
 30
0.0
 10
13.81381822287621
 20
-30.24076780402159
 30
0.0
 10
13.2537777613915
 20
-30.59711308422288
 30
0.0
 10
12.48370202027923
 20
-31.23879187553575
 30
0.0
 10
12.23880811201901
 20
-31.47109052594196
 30
0.0
 10
11.76582402922708
 20
-31.94958466193011
 30
0.0
 10
11.53634820282046
 20
-32.1960252825248
 30
0.0
 10
11.0594810461545
 20
-32.6705381984096
 30
0.0
 10
10.80924787094777
 20
-32.89779763742767
 30
0.0
 10
10.28335441452289
 20
-33.31597625487418
 30
0.0
 10
10.00915294923707
 20
-33.50575172122461
 30
0.0
 10
9.435351140383585
 20
-33.84171656849394
 30
0.0
 10
9.136207274718288
 20
-33.98868929443433
 30
0.0
 10
8.51192122903932
 20
-34.23801999058928
 30
0.0
 10
8.188213562349619
 20
-34.33933287298088
 30
0.0
 10
7.858631648026034
 20
-34.41412610908851
 30
0.0
  0
SPLINE
  5
8D
330
1F
100
AcDbEntity
  8
0
  6
Continuous
 62
     7
370
    25
100
AcDbSpline
210
0.0
220
0.0
230
1.0
 70
     8
 71
     3
 72
    18
 73
    14
 74
     0
 42
0.00000001
 43
0.00000001
 40
0.0
 40
0.0
 40
0.0
 40
0.0
 40
0.1250000000000003
 40
0.1250000000000003
 40
0.2500000000000007
 40
0.2500000000000007
 40
0.5000000000000001
 40
0.5000000000000001
 40
0.6249999999999999
 40
0.6249999999999999
 40
0.7499999999999997
 40
0.7499999999999997
 40
1.0
 40
1.0
 40
1.0
 40
1.0
 10
22.00607600116917
 20
-27.6011378403821
 30
0.0
 10
21.74372546340748
 20
-27.81089041959016
 30
0.0
 10
21.46709455614829
 20
-27.99809979113423
 30
0.0
 10
20.88666837919951
 20
-28.32963646009697
 30
0.0
 10
20.58189581909179
 20
-28.47404709529907
 30
0.0
 10
19.65224791408005
 20
-28.83349446149897
 30
0.0
 10
19.00196103190023
 20
-28.97443252821964
 30
0.0
 10
18.00135159523934
 20
-29.09134306902063
 30
0.0
 10
17.66477675836835
 20
-29.1172617683704
 30
0.0
 10
16.99599883930061
 20
-29.18787834747121
 30
0.0
 10
16.66397416975478
 20
-29.23334261134197
 30
0.0
 10
15.68244740390495
 20
-29.43222410989397
 30
0.0
 10
15.04689704198428
 20
-29.64557200318239
 30
0.0
 10
14.44133693042659
 20
-29.98774513114513
 30
0.0
  0
LINE
  5
8E
330
1F
100
AcDbEntity
  8
0
  6
Continuous
 62
     7
370
    25
100
AcDbLine
 10
22.0121122855
 20
-27.5963238659
 30
0.0
 11
22.0060760012
 21
-27.6011378404
 31
0.0
  0
SPLINE
  5
8F
330
1F
100
AcDbEntity
  8
0
  6
Continuous
 62
     7
370
    25
100
AcDbSpline
210
0.0
220
0.0
230
1.0
 70
     8
 71
     3
 72
    20
 73
    16
 74
     0
 42
0.00000001
 43
0.00000001
 40
0.0
 40
0.0
 40
0.0
 40
0.0
 40
0.2499999999999992
 40
0.2499999999999992
 40
0.3749999999999993
 40
0.3749999999999993
 40
0.4999999999999994
 40
0.4999999999999994
 40
0.6249999999999996
 40
0.6249999999999996
 40
0.7499999999999997
 40
0.7499999999999997
 40
0.8749999999999999
 40
0.8749999999999999
 40
1.0
 40
1.0
 40
1.0
 40
1.0
 10
26.02238997041326
 20
-20.75216351652212
 30
0.0
 10
25.56679757427105
 20
-21.25239923085724
 30
0.0
 10
25.21683097629701
 20
-21.81644768403109
 30
0.0
 10
24.80143070091412
 20
-22.72870364015887
 30
0.0
 10
24.6815795206627
 20
-23.04425297683508
 30
0.0
 10
24.46304641192164
 20
-23.68058139922182
 30
0.0
 10
24.36322241432677
 20
-24.00218255576391
 30
0.0
 10
24.13946339024773
 20
-24.63660882539262
 30
0.0
 10
24.01261526481984
 20
-24.94993461059598
 30
0.0
 10
23.72024253490178
 20
-25.55487714539039
 30
0.0
 10
23.55553604007744
 20
-25.84483048949408
 30
0.0
 10
23.18432815809641
 20
-26.39648763193219
 30
0.0
 10
22.9785779239855
 20
-26.65869914140463
 30
0.0
 10
22.52429616688321
 20
-27.15420590023138
 30
0.0
 10
22.27660364912444
 20
-27.38593714598648
 30
0.0
 10
22.01211217383732
 20
-27.59632375658218
 30
0.0
  0
SPLINE
  5
90
330
1F
100
AcDbEntity
  8
0
  6
Continuous
 62
     7
370
    25
100
AcDbSpline
210
0.0
220
0.0
230
1.0
 70
     8
 71
     3
 72
    18
 73
    14
 74
     0
 42
0.00000001
 43
0.00000001
 40
0.0
 40
0.0
 40
0.0
 40
0.0
 40
0.1250000000000004
 40
0.1250000000000004
 40
0.2500000000000016
 40
0.2500000000000016
 40
0.5000000000000021
 40
0.5000000000000021
 40
0.6250000000000018
 40
0.6250000000000018
 40
0.7500000000000014
 40
0.7500000000000014
 40
1.0
 40
1.0
 40
1.0
 40
1.0
 10
31.80247427183424
 20
-15.31968737417548
 30
0.0
 10
31.65711283818989
 20
-15.62249755028764
 30
0.0
 10
31.48910410497324
 20
-15.91119301822542
 30
0.0
 10
31.11000655901106
 20
-16.461734715465
 30
0.0
 10
30.898073396933
 20
-16.72408005993601
 30
0.0
 10
30.21644794366976
 20
-17.45129005562078
 30
0.0
 10
29.69171044299343
 20
-17.86041976997767
 30
0.0
 10
28.84091807421797
 20
-18.39990069134367
 30
0.0
 10
28.54892032666494
 20
-18.56928698126874
 30
0.0
 10
27.97701162742847
 20
-18.92308218476053
 30
0.0
 10
27.69759394159665
 20
-19.1081041762119
 30
0.0
 10
26.89956033078613
 20
-19.7131587180195
 30
0.0
 10
26.41951742238439
 20
-20.18113349533231
 30
0.0
 10
26.02238997041327
 20
-20.75216351652211
 30
0.0
  0
LINE
  5
91
330
1F
100
AcDbEntity
  8
0
  6
Continuous
 62
     7
370
    25
100
AcDbLine
 10
31.8058239228
 20
-15.3127310374
 30
0.0
 11
31.8024742718
 21
-15.3196873742
 31
0.0
  0
MTEXT
  5
93
330
1F
100
AcDbEntity
  8
0
  6
Continuous
 62
     7
100
AcDbMText
 10
-35.3000024812
 20
-35.5988095496
 30
0.0
 40
4.83362
 41
0.0
 71
     1
 72
     1
  1
SOLIDWORKS Educational Product.
  7
SLDTEXTSTYLE0
 73
     1
 44
1.0
  0
MTEXT
  5
94
330
1F
100
AcDbEntity
  8
0
  6
Continuous
 62
     7
100
AcDbMText
 10
-35.3000024812
 20
-42.8492395496
 30
0.0
 40
4.83362
 41
0.0
 71
     1
 72
     1
  1
For Instructional Use Only.
  7
SLDTEXTSTYLE0
 73
     1
 44
1.0
  0
ENDSEC
  0
SECTION
  2
OBJECTS
  0
DICTIONARY
  5
C
330
0
100
AcDbDictionary
281
     1
  3
ACAD_GROUP
350
D
  3
ACAD_LAYOUT
350
1A
  3
ACAD_MLINESTYLE
350
17
  3
ACAD_PLOTSETTINGS
350
19
  3
ACAD_PLOTSTYLENAME
350
E
  3
ACAD_SCALELIST
350
47
  3
DWGPROPS
350
95
  0
DICTIONARY
  5
D
102
{ACAD_REACTORS
330
C
102
}
330
C
100
AcDbDictionary
281
     1
  0
DICTIONARY
  5
1A
102
{ACAD_REACTORS
330
C
102
}
330
C
100
AcDbDictionary
281
     1
  3
Layout1
350
1E
  3
Layout2
350
26
  3
Model
350
22
  0
DICTIONARY
  5
17
102
{ACAD_REACTORS
330
C
102
}
330
C
100
AcDbDictionary
281
     1
  3
Standard
350
18
  0
DICTIONARY
  5
19
102
{ACAD_REACTORS
330
C
102
}
330
C
100
AcDbDictionary
281
     1
  0
ACDBDICTIONARYWDFLT
  5
E
102
{ACAD_REACTORS
330
C
102
}
330
C
100
AcDbDictionary
281
     1
  3
Normal
350
F
100
AcDbDictionaryWithDefault
340
F
  0
DICTIONARY
  5
47
102
{ACAD_REACTORS
330
C
102
}
330
C
100
AcDbDictionary
281
     1
  3
A0
350
48
  3
A1
350
49
  3
A2
350
4A
  3
A3
350
4B
  3
A4
350
4C
  3
A5
350
4D
  3
A6
350
4E
  3
A7
350
4F
  3
A8
350
50
  3
A9
350
51
  3
B0
350
52
  3
B1
350
53
  3
B2
350
54
  3
B3
350
55
  3
B4
350
56
  3
B5
350
57
  3
B6
350
58
  0
XRECORD
  5
95
102
{ACAD_REACTORS
330
C
102
}
330
C
100
AcDbXrecord
280
     1
  1
DWGPROPS COOKIE
  2

  3

  4

  6

  7

  8
dampy
  9

300
=
301
=
302
=
303
=
304
=
305
=
306
=
307
=
308
=
309
=
 40
0.0
 41
2460715.237716459
 42
2460715.237742014
  1

 90
        0
  0
LAYOUT
  5
1E
102
{ACAD_REACTORS
330
1A
102
}
330
1A
100
AcDbPlotSettings
  1

  2
none_device
  4

  6

 40
0.0
 41
0.0
 42
0.0
 43
0.0
 44
0.0
 45
0.0
 46
0.0
 47
0.0
 48
0.0
 49
0.0
140
0.0
141
0.0
142
1.0
143
1.0
 70
   688
 72
     1
 73
     0
 74
     5
  7

 75
    16
147
1.0
148
0.0
149
0.0
100
AcDbLayout
  1
Layout1
 70
     1
 71
     1
 10
0.0
 20
0.0
 11
420.0
 21
297.0
 12
0.0
 22
0.0
 32
0.0
 14
1.0000000000E+20
 24
1.0000000000E+20
 34
1.0000000000E+20
 15
-1.0000000000E+20
 25
-1.0000000000E+20
 35
-1.0000000000E+20
146
0.0
 13
0.0
 23
0.0
 33
0.0
 16
1.0
 26
0.0
 36
0.0
 17
0.0
 27
1.0
 37
0.0
 76
     0
330
1B
  0
LAYOUT
  5
26
102
{ACAD_REACTORS
330
1A
102
}
330
1A
100
AcDbPlotSettings
  1

  2
none_device
  4

  6

 40
0.0
 41
0.0
 42
0.0
 43
0.0
 44
0.0
 45
0.0
 46
0.0
 47
0.0
 48
0.0
 49
0.0
140
0.0
141
0.0
142
1.0
143
1.0
 70
   688
 72
     1
 73
     0
 74
     5
  7

 75
    16
147
1.0
148
0.0
149
0.0
100
AcDbLayout
  1
Layout2
 70
     1
 71
     2
 10
0.0
 20
0.0
 11
0.0
 21
0.0
 12
0.0
 22
0.0
 32
0.0
 14
0.0
 24
0.0
 34
0.0
 15
0.0
 25
0.0
 35
0.0
146
0.0
 13
0.0
 23
0.0
 33
0.0
 16
1.0
 26
0.0
 36
0.0
 17
0.0
 27
1.0
 37
0.0
 76
     0
330
23
  0
LAYOUT
  5
22
102
{ACAD_REACTORS
330
1A
102
}
330
1A
100
AcDbPlotSettings
  1

  2
none_device
  4
ANSI_A_(11.00_x_8.50_Inches)
  6

 40
6.35
 41
19.05
 42
6.35000508
 43
19.05000254
 44
279.4
 45
215.9
 46
133.34999746
 47
88.89999873
 48
0.0
 49
0.0
140
0.0
141
0.0
142
0.1216770414
143
1.0
 70
  1696
 72
     0
 73
     0
 74
     0
  7

 75
     0
147
0.0179189148
148
-1300.4909072572
149
0.0
100
AcDbLayout
  1
Model
 70
     1
 71
     0
 10
0.0
 20
0.0
 11
420.0
 21
297.0
 12
0.0
 22
0.0
 32
0.0
 14
-35.3000024812
 24
-34.5792431579
 34
0.0
 15
35.3000024812
 25
34.5792431579
 35
0.0
146
0.0
 13
0.0
 23
0.0
 33
0.0
 16
1.0
 26
0.0
 36
0.0
 17
0.0
 27
1.0
 37
0.0
 76
     0
330
1F
331
29
  0
MLINESTYLE
  5
18
102
{ACAD_REACTORS
330
17
102
}
330
17
100
AcDbMlineStyle
  2
Standard
 70
     0
  3

 62
   256
 51
90.0
 52
90.0
 71
     2
 49
0.5
 62
   256
  6
BYLAYER
 49
-0.5
 62
   256
  6
BYLAYER
  0
ACDBPLACEHOLDER
  5
F
102
{ACAD_REACTORS
330
E
102
}
330
E
  0
SCALE
  5
48
102
{ACAD_REACTORS
330
47
102
}
330
47
100
AcDbScale
 70
     0
300
1:1
140
1.0
141
1.0
290
     1
  0
SCALE
  5
49
102
{ACAD_REACTORS
330
47
102
}
330
47
100
AcDbScale
 70
     0
300
1:2
140
1.0
141
2.0
290
     0
  0
SCALE
  5
4A
102
{ACAD_REACTORS
330
47
102
}
330
47
100
AcDbScale
 70
     0
300
1:4
140
1.0
141
4.0
290
     0
  0
SCALE
  5
4B
102
{ACAD_REACTORS
330
47
102
}
330
47
100
AcDbScale
 70
     0
300
1:5
140
1.0
141
5.0
290
     0
  0
SCALE
  5
4C
102
{ACAD_REACTORS
330
47
102
}
330
47
100
AcDbScale
 70
     0
300
1:8
140
1.0
141
8.0
290
     0
  0
SCALE
  5
4D
102
{ACAD_REACTORS
330
47
102
}
330
47
100
AcDbScale
 70
     0
300
1:10
140
1.0
141
10.0
290
     0
  0
SCALE
  5
4E
102
{ACAD_REACTORS
330
47
102
}
330
47
100
AcDbScale
 70
     0
300
1:16
140
1.0
141
16.0
290
     0
  0
SCALE
  5
4F
102
{ACAD_REACTORS
330
47
102
}
330
47
100
AcDbScale
 70
     0
300
1:20
140
1.0
141
20.0
290
     0
  0
SCALE
  5
50
102
{ACAD_REACTORS
330
47
102
}
330
47
100
AcDbScale
 70
     0
300
1:30
140
1.0
141
30.0
290
     0
  0
SCALE
  5
51
102
{ACAD_REACTORS
330
47
102
}
330
47
100
AcDbScale
 70
     0
300
1:40
140
1.0
141
40.0
290
     0
  0
SCALE
  5
52
102
{ACAD_REACTORS
330
47
102
}
330
47
100
AcDbScale
 70
     0
300
1:50
140
1.0
141
50.0
290
     0
  0
SCALE
  5
53
102
{ACAD_REACTORS
330
47
102
}
330
47
100
AcDbScale
 70
     0
300
1:100
140
1.0
141
100.0
290
     0
  0
SCALE
  5
54
102
{ACAD_REACTORS
330
47
102
}
330
47
100
AcDbScale
 70
     0
300
2:1
140
2.0
141
1.0
290
     0
  0
SCALE
  5
55
102
{ACAD_REACTORS
330
47
102
}
330
47
100
AcDbScale
 70
     0
300
4:1
140
4.0
141
1.0
290
     0
  0
SCALE
  5
56
102
{ACAD_REACTORS
330
47
102
}
330
47
100
AcDbScale
 70
     0
300
8:1
140
8.0
141
1.0
290
     0
  0
SCALE
  5
57
102
{ACAD_REACTORS
330
47
102
}
330
47
100
AcDbScale
 70
     0
300
10:1
140
10.0
141
1.0
290
     0
  0
SCALE
  5
58
102
{ACAD_REACTORS
330
47
102
}
330
47
100
AcDbScale
 70
     0
300
100:1
140
100.0
141
1.0
290
     0
  0
ENDSEC
  0
EOF
