  0
SECTION
  2
HEADER
  9
$ACADVER
  1
AC1015
  9
$ACADMAINTVER
 70
     6
  9
$DWGCODEPAGE
  3
ANSI_1252
  9
$INSBASE
 10
0.0
 20
0.0
 30
0.0
  9
$EXTMIN
 10
-35.0500026751
 20
-34.3291566024
 30
0.0
  9
$EXTMAX
 10
35.0500026751
 20
34.3291566024
 30
0.0
  9
$LIMMIN
 10
0.0
 20
0.0
  9
$LIMMAX
 10
420.0
 20
297.0
  9
$ORTHOMODE
 70
     0
  9
$REGENMODE
 70
     1
  9
$FILLMODE
 70
     1
  9
$QTEXTMODE
 70
     0
  9
$MIRRTEXT
 70
     1
  9
$LTSCALE
 40
1.0
  9
$ATTMODE
 70
     1
  9
$TEXTSIZE
 40
3.175
  9
$TRACEWID
 40
1.0
  9
$TEXTSTYLE
  7
Standard
  9
$CLAYER
  8
0
  9
$CELTYPE
  6
ByLayer
  9
$CECOLOR
 62
   256
  9
$CELTSCALE
 40
1.0
  9
$DISPSILH
 70
     0
  9
$DIMSCALE
 40
1.0
  9
$DIMASZ
 40
3.302
  9
$DIMEXO
 40
0.0
  9
$DIMDLI
 40
3.75
  9
$DIMRND
 40
0.0
  9
$DIMDLE
 40
0.0
  9
$DIMEXE
 40
3.175
  9
$DIMTP
 40
0.0
  9
$DIMTM
 40
0.0
  9
$DIMTXT
 40
3.175
  9
$DIMCEN
 40
2.5
  9
$DIMTSZ
 40
0.0
  9
$DIMTOL
 70
     0
  9
$DIMLIM
 70
     0
  9
$DIMTIH
 70
     1
  9
$DIMTOH
 70
     1
  9
$DIMSE1
 70
     0
  9
$DIMSE2
 70
     0
  9
$DIMTAD
 70
     0
  9
$DIMZIN
 70
     1
  9
$DIMBLK
  1

  9
$DIMASO
 70
     1
  9
$DIMSHO
 70
     1
  9
$DIMPOST
  1

  9
$DIMAPOST
  1

  9
$DIMALT
 70
     0
  9
$DIMALTD
 70
     3
  9
$DIMALTF
 40
0.0393700787
  9
$DIMLFAC
 40
1.0
  9
$DIMTOFL
 70
     1
  9
$DIMTVP
 40
0.0
  9
$DIMTIX
 70
     0
  9
$DIMSOXD
 70
     0
  9
$DIMSAH
 70
     0
  9
$DIMBLK1
  1

  9
$DIMBLK2
  1

  9
$DIMSTYLE
  2
ISO-25
  9
$DIMCLRD
 70
     0
  9
$DIMCLRE
 70
     0
  9
$DIMCLRT
 70
     0
  9
$DIMTFAC
 40
1.0
  9
$DIMGAP
 40
1.524
  9
$DIMJUST
 70
     0
  9
$DIMSD1
 70
     0
  9
$DIMSD2
 70
     0
  9
$DIMTOLJ
 70
     0
  9
$DIMTZIN
 70
     1
  9
$DIMALTZ
 70
     0
  9
$DIMALTTZ
 70
     0
  9
$DIMUPT
 70
     0
  9
$DIMDEC
 70
     2
  9
$DIMTDEC
 70
     2
  9
$DIMALTU
 70
     2
  9
$DIMALTTD
 70
     3
  9
$DIMTXSTY
  7
Standard
  9
$DIMAUNIT
 70
     0
  9
$DIMADEC
 70
     2
  9
$DIMALTRND
 40
0.0
  9
$DIMAZIN
 70
     0
  9
$DIMDSEP
 70
    44
  9
$DIMATFIT
 70
     3
  9
$DIMFRAC
 70
     0
  9
$DIMLDRBLK
  1

  9
$DIMLUNIT
 70
     2
  9
$DIMLWD
 70
    -2
  9
$DIMLWE
 70
    -2
  9
$DIMTMOVE
 70
     0
  9
$LUNITS
 70
     2
  9
$LUPREC
 70
     6
  9
$SKETCHINC
 40
1.0
  9
$FILLETRAD
 40
0.0
  9
$AUNITS
 70
     0
  9
$AUPREC
 70
     2
  9
$MENU
  1
.
  9
$ELEVATION
 40
0.0
  9
$PELEVATION
 40
0.0
  9
$THICKNESS
 40
0.0
  9
$LIMCHECK
 70
     0
  9
$CHAMFERA
 40
0.0
  9
$CHAMFERB
 40
0.0
  9
$CHAMFERC
 40
0.0
  9
$CHAMFERD
 40
0.0
  9
$SKPOLY
 70
     0
  9
$TDCREATE
 40
2460700.898766493
  9
$TDUCREATE
 40
2460701.107099827
  9
$TDUPDATE
 40
2460700.898791597
  9
$TDUUPDATE
 40
2460701.107124931
  9
$TDINDWG
 40
0.0000000116
  9
$TDUSRTIMER
 40
0.0000000116
  9
$USRTIMER
 70
     1
  9
$ANGBASE
 50
0.0
  9
$ANGDIR
 70
     0
  9
$PDMODE
 70
     0
  9
$PDSIZE
 40
-1.0
  9
$PLINEWID
 40
0.0
  9
$SPLFRAME
 70
     0
  9
$SPLINETYPE
 70
     6
  9
$SPLINESEGS
 70
     8
  9
$HANDSEED
  5
96
  9
$SURFTAB1
 70
     6
  9
$SURFTAB2
 70
     6
  9
$SURFTYPE
 70
     6
  9
$SURFU
 70
     6
  9
$SURFV
 70
     6
  9
$UCSBASE
  2

  9
$UCSNAME
  2

  9
$UCSORG
 10
0.0
 20
0.0
 30
0.0
  9
$UCSXDIR
 10
1.0
 20
0.0
 30
0.0
  9
$UCSYDIR
 10
0.0
 20
1.0
 30
0.0
  9
$UCSORTHOREF
  2

  9
$UCSORTHOVIEW
 70
     0
  9
$UCSORGTOP
 10
0.0
 20
0.0
 30
0.0
  9
$UCSORGBOTTOM
 10
0.0
 20
0.0
 30
0.0
  9
$UCSORGLEFT
 10
0.0
 20
0.0
 30
0.0
  9
$UCSORGRIGHT
 10
0.0
 20
0.0
 30
0.0
  9
$UCSORGFRONT
 10
0.0
 20
0.0
 30
0.0
  9
$UCSORGBACK
 10
0.0
 20
0.0
 30
0.0
  9
$PUCSBASE
  2

  9
$PUCSNAME
  2

  9
$PUCSORG
 10
0.0
 20
0.0
 30
0.0
  9
$PUCSXDIR
 10
1.0
 20
0.0
 30
0.0
  9
$PUCSYDIR
 10
0.0
 20
1.0
 30
0.0
  9
$PUCSORTHOREF
  2

  9
$PUCSORTHOVIEW
 70
     0
  9
$PUCSORGTOP
 10
0.0
 20
0.0
 30
0.0
  9
$PUCSORGBOTTOM
 10
0.0
 20
0.0
 30
0.0
  9
$PUCSORGLEFT
 10
0.0
 20
0.0
 30
0.0
  9
$PUCSORGRIGHT
 10
0.0
 20
0.0
 30
0.0
  9
$PUCSORGFRONT
 10
0.0
 20
0.0
 30
0.0
  9
$PUCSORGBACK
 10
0.0
 20
0.0
 30
0.0
  9
$USERI1
 70
     0
  9
$USERI2
 70
     0
  9
$USERI3
 70
     0
  9
$USERI4
 70
     0
  9
$USERI5
 70
     0
  9
$USERR1
 40
0.0
  9
$USERR2
 40
0.0
  9
$USERR3
 40
0.0
  9
$USERR4
 40
0.0
  9
$USERR5
 40
0.0
  9
$WORLDVIEW
 70
     1
  9
$SHADEDGE
 70
     3
  9
$SHADEDIF
 70
    70
  9
$TILEMODE
 70
     1
  9
$MAXACTVP
 70
    64
  9
$PINSBASE
 10
0.0
 20
0.0
 30
0.0
  9
$PLIMCHECK
 70
     0
  9
$PEXTMIN
 10
1.0000000000E+20
 20
1.0000000000E+20
 30
1.0000000000E+20
  9
$PEXTMAX
 10
-1.0000000000E+20
 20
-1.0000000000E+20
 30
-1.0000000000E+20
  9
$PLIMMIN
 10
0.0
 20
0.0
  9
$PLIMMAX
 10
420.0
 20
297.0
  9
$UNITMODE
 70
     0
  9
$VISRETAIN
 70
     1
  9
$PLINEGEN
 70
     0
  9
$PSLTSCALE
 70
     1
  9
$TREEDEPTH
 70
  3020
  9
$CMLSTYLE
  2
Standard
  9
$CMLJUST
 70
     0
  9
$CMLSCALE
 40
20.0
  9
$PROXYGRAPHICS
 70
     1
  9
$MEASUREMENT
 70
     1
  9
$CELWEIGHT
370
    -1
  9
$ENDCAPS
280
     0
  9
$JOINSTYLE
280
     0
  9
$LWDISPLAY
290
     1
  9
$INSUNITS
 70
     4
  9
$HYPERLINKBASE
  1

  9
$STYLESHEET
  1

  9
$XEDIT
290
     1
  9
$CEPSNTYPE
380
     0
  9
$PSTYLEMODE
290
     1
  9
$FINGERPRINTGUID
  2
{c3d9df30-58bd-4269-b195-b6625abd5d1f}
  9
$VERSIONGUID
  2
{FAEB1C32-E019-11D5-929B-00C0DF256EC4}
  9
$EXTNAMES
290
     1
  9
$PSVPSCALE
 40
0.0
  9
$OLESTARTUP
290
     0
  0
ENDSEC
  0
SECTION
  2
CLASSES
  0
CLASS
  1
ACDBDICTIONARYWDFLT
  2
AcDbDictionaryWithDefault
  3
ObjectDBX Classes
 90
        0
280
     0
281
     0
  0
CLASS
  1
VISUALSTYLE
  2
AcDbVisualStyle
  3
ObjectDBX Classes
 90
     4095
280
     0
281
     0
  0
CLASS
  1
MATERIAL
  2
AcDbMaterial
  3
ObjectDBX Classes
 90
     1153
280
     0
281
     0
  0
CLASS
  1
SCALE
  2
AcDbScale
  3
ObjectDBX Classes
 90
     1153
280
     0
281
     0
  0
CLASS
  1
TABLESTYLE
  2
AcDbTableStyle
  3
ObjectDBX Classes
 90
     4095
280
     0
281
     0
  0
CLASS
  1
MLEADERSTYLE
  2
AcDbMLeaderStyle
  3
ACDB_MLEADERSTYLE_CLASS
 90
     4095
280
     0
281
     0
  0
CLASS
  1
SUN
  2
AcDbSun
  3
SCENEOE
 90
     1153
280
     0
281
     0
  0
CLASS
  1
ACDBPLACEHOLDER
  2
AcDbPlaceHolder
  3
ObjectDBX Classes
 90
        0
280
     0
281
     0
  0
CLASS
  1
LAYOUT
  2
AcDbLayout
  3
ObjectDBX Classes
 90
        0
280
     0
281
     0
  0
ENDSEC
  0
SECTION
  2
TABLES
  0
TABLE
  2
VPORT
  5
8
330
0
100
AcDbSymbolTable
 70
     1
  0
VPORT
  5
29
330
8
100
AcDbSymbolTableRecord
100
AcDbViewportTableRecord
  2
*Active
 70
     0
 10
0.0
 20
0.0
 11
1.0
 21
1.0
 12
0.0
 22
0.0
 13
0.0
 23
0.0
 14
10.0
 24
10.0
 15
10.0
 25
10.0
 16
0.0
 26
0.0
 36
1.0
 17
0.0
 27
0.0
 37
0.0
 40
70.031479469
 41
1.0209980711
 42
50.0
 43
0.0
 44
0.0
 50
0.0
 51
0.0
 71
     0
 72
   100
 73
     1
 74
     3
 75
     0
 76
     0
 77
     0
 78
     0
281
     0
 65
     1
110
0.0
120
0.0
130
0.0
111
1.0
121
0.0
131
0.0
112
0.0
122
1.0
132
0.0
 79
     0
146
0.0
  0
ENDTAB
  0
TABLE
  2
LTYPE
  5
5
330
0
100
AcDbSymbolTable
 70
     6
  0
LTYPE
  5
14
330
5
100
AcDbSymbolTableRecord
100
AcDbLinetypeTableRecord
  2
ByBlock
 70
     0
  3

 72
    65
 73
     0
 40
0.0
  0
LTYPE
  5
15
330
5
100
AcDbSymbolTableRecord
100
AcDbLinetypeTableRecord
  2
ByLayer
 70
     0
  3

 72
    65
 73
     0
 40
0.0
  0
LTYPE
  5
16
330
5
100
AcDbSymbolTableRecord
100
AcDbLinetypeTableRecord
  2
Continuous
 70
     0
  3
Solid line
 72
    65
 73
     0
 40
0.0
  0
LTYPE
  5
5E
330
5
100
AcDbSymbolTableRecord
100
AcDbLinetypeTableRecord
  2
HIDDEN
 70
     0
  3
Hidden __ __ __ __ __ __ __ __ __ __ __ __ __ __
 72
    65
 73
     2
 40
1.905
 49
1.27
 74
     0
 49
-0.635
 74
     0
  0
LTYPE
  5
5F
330
5
100
AcDbSymbolTableRecord
100
AcDbLinetypeTableRecord
  2
PHANTOM
 70
     0
  3
Phantom ______  __  __  ______  __  __  ______
 72
    65
 73
     6
 40
12.7
 49
6.35
 74
     0
 49
-1.27
 74
     0
 49
1.27
 74
     0
 49
-1.27
 74
     0
 49
1.27
 74
     0
 49
-1.27
 74
     0
  0
LTYPE
  5
60
330
5
100
AcDbSymbolTableRecord
100
AcDbLinetypeTableRecord
  2
CENTER
 70
     0
  3
Center ____ _ ____ _ ____ _ ____ _ ____ _ ____
 72
    65
 73
     4
 40
10.16
 49
6.35
 74
     0
 49
-1.27
 74
     0
 49
1.27
 74
     0
 49
-1.27
 74
     0
  0
LTYPE
  5
61
330
5
100
AcDbSymbolTableRecord
100
AcDbLinetypeTableRecord
  2
CENTERX2
 70
     0
  3
Center (2x) ________  __  ________  __  _____
 72
    65
 73
     4
 40
20.32
 49
12.7
 74
     0
 49
-2.54
 74
     0
 49
2.54
 74
     0
 49
-2.54
 74
     0
  0
LTYPE
  5
62
330
5
100
AcDbSymbolTableRecord
100
AcDbLinetypeTableRecord
  2
DOT2
 70
     0
  3
Dot (.5x) ........................................
 72
    65
 73
     2
 40
0.635
 49
0.0
 74
     0
 49
-0.635
 74
     0
  0
ENDTAB
  0
TABLE
  2
LAYER
  5
2
330
0
100
AcDbSymbolTable
 70
     1
  0
LAYER
  5
10
330
2
100
AcDbSymbolTableRecord
100
AcDbLayerTableRecord
  2
0
 70
     0
 62
     7
  6
Continuous
370
    -3
390
F
  0
ENDTAB
  0
TABLE
  2
STYLE
  5
3
330
0
100
AcDbSymbolTable
 70
     2
  0
STYLE
  5
11
330
3
100
AcDbSymbolTableRecord
100
AcDbTextStyleTableRecord
  2
Standard
 70
     0
 40
0.0
 41
1.0
 50
0.0
 71
     0
 42
3.175
  3
txt
  4

  0
STYLE
  5
92
330
3
100
AcDbSymbolTableRecord
100
AcDbTextStyleTableRecord
  2
SLDTEXTSTYLE0
 70
     0
 40
0.0
 41
0.7
 50
0.0
 71
     0
 42
3.175
  3
TXT
  4

  0
ENDTAB
  0
TABLE
  2
VIEW
  5
6
330
0
100
AcDbSymbolTable
 70
     0
  0
ENDTAB
  0
TABLE
  2
UCS
  5
7
330
0
100
AcDbSymbolTable
 70
     0
  0
ENDTAB
  0
TABLE
  2
APPID
  5
9
330
0
100
AcDbSymbolTable
 70
     1
  0
APPID
  5
12
330
9
100
AcDbSymbolTableRecord
100
AcDbRegAppTableRecord
  2
ACAD
 70
     0
  0
ENDTAB
  0
TABLE
  2
DIMSTYLE
  5
A
330
0
100
AcDbSymbolTable
 70
     1
100
AcDbDimStyleTable
  0
DIMSTYLE
105
27
330
A
100
AcDbSymbolTableRecord
100
AcDbDimStyleTableRecord
  2
ISO-25
 70
     0
 41
2.5
 42
0.625
 43
3.75
 44
1.25
 73
     0
 74
     0
 77
     1
 78
     8
140
2.5
141
2.5
143
0.0393700787
147
0.625
171
     3
172
     1
178
     0
271
     2
272
     2
274
     3
278
    44
283
     0
284
     8
340
11
  0
ENDTAB
  0
TABLE
  2
BLOCK_RECORD
  5
1
330
0
100
AcDbSymbolTable
 70
     1
  0
BLOCK_RECORD
  5
1F
330
1
100
AcDbSymbolTableRecord
100
AcDbBlockTableRecord
  2
*Model_Space
340
22
  0
BLOCK_RECORD
  5
1B
330
1
100
AcDbSymbolTableRecord
100
AcDbBlockTableRecord
  2
*Paper_Space
340
1E
  0
BLOCK_RECORD
  5
23
330
1
100
AcDbSymbolTableRecord
100
AcDbBlockTableRecord
  2
*Paper_Space0
340
26
  0
ENDTAB
  0
ENDSEC
  0
SECTION
  2
BLOCKS
  0
BLOCK
  5
20
330
1F
100
AcDbEntity
  8
0
100
AcDbBlockBegin
  2
*Model_Space
 70
     0
 10
0.0
 20
0.0
 30
0.0
  3
*Model_Space
  1

  0
ENDBLK
  5
21
330
1F
100
AcDbEntity
  8
0
100
AcDbBlockEnd
  0
BLOCK
  5
1C
330
1B
100
AcDbEntity
 67
     1
  8
0
100
AcDbBlockBegin
  2
*Paper_Space
 70
     0
 10
0.0
 20
0.0
 30
0.0
  3
*Paper_Space
  1

  0
ENDBLK
  5
1D
330
1B
100
AcDbEntity
 67
     1
  8
0
100
AcDbBlockEnd
  0
BLOCK
  5
24
330
23
100
AcDbEntity
  8
0
100
AcDbBlockBegin
  2
*Paper_Space0
 70
     0
 10
0.0
 20
0.0
 30
0.0
  3
*Paper_Space0
  1

  0
ENDBLK
  5
25
330
23
100
AcDbEntity
  8
0
100
AcDbBlockEnd
  0
ENDSEC
  0
SECTION
  2
ENTITIES
  0
CIRCLE
  5
63
330
1F
100
AcDbEntity
  8
0
  6
Continuous
 62
     7
370
    25
100
AcDbCircle
 10
0.0
 20
0.0
 30
0.0
 40
10.328125
  0
CIRCLE
  5
64
330
1F
100
AcDbEntity
  8
0
  6
Continuous
 62
     7
370
    25
100
AcDbCircle
 10
22.5
 20
0.0
 30
0.0
 40
6.000000000000003
  0
CIRCLE
  5
65
330
1F
100
AcDbEntity
  8
0
  6
Continuous
 62
     7
370
    25
100
AcDbCircle
 10
-22.5
 20
0.0
 30
0.0
 40
6.000000000000005
  0
CIRCLE
  5
66
330
1F
100
AcDbEntity
  8
0
  6
Continuous
 62
     7
370
    25
100
AcDbCircle
 10
0.0
 20
-22.5
 30
0.0
 40
6.000000000000004
  0
CIRCLE
  5
67
330
1F
100
AcDbEntity
  8
0
  6
Continuous
 62
     7
370
    25
100
AcDbCircle
 10
0.0
 20
22.5
 30
0.0
 40
6.0
  0
SPLINE
  5
68
330
1F
100
AcDbEntity
  8
0
  6
Continuous
 62
     7
370
    25
100
AcDbSpline
210
0.0
220
0.0
230
1.0
 70
     8
 71
     3
 72
    20
 73
    16
 74
     0
 42
0.00000001
 43
0.00000001
 40
0.0
 40
0.0
 40
0.0
 40
0.0
 40
0.2500000000000005
 40
0.2500000000000005
 40
0.3750000000000004
 40
0.3750000000000004
 40
0.5000000000000003
 40
0.5000000000000003
 40
0.6250000000000002
 40
0.6250000000000002
 40
0.7500000000000001
 40
0.7500000000000001
 40
0.8750000000000001
 40
0.8750000000000001
 40
1.0
 40
1.0
 40
1.0
 40
1.0
 10
32.20515677960141
 20
-7.350616876655907
 30
0.0
 10
32.01490903107756
 20
-7.995183075355801
 30
0.0
 10
31.94060222664525
 20
-8.648810088114804
 30
0.0
 10
31.95241446974105
 20
-9.638884380330596
 30
0.0
 10
31.97705911816559
 20
-9.971111467858739
 30
0.0
 10
32.05111343794663
 20
-10.63454630535221
 30
0.0
 10
32.10016313265785
 20
-10.96523867972231
 30
0.0
 10
32.17853465147721
 20
-11.62830543172774
 30
0.0
 10
32.20515494528069
 20
-11.96091014252394
 30
0.0
 10
32.21285751582249
 20
-12.63000214703341
 30
0.0
 10
32.19453855845453
 20
-12.96615290913324
 30
0.0
 10
32.10604710926997
 20
-13.62412178041535
 30
0.0
 10
32.03707001461949
 20
-13.94824023883299
 30
0.0
 10
31.84792556249784
 20
-14.58640530552979
 30
0.0
 10
31.72681027179167
 20
-14.90157770815003
 30
0.0
 10
31.58058152656875
 20
-15.20426002804859
 30
0.0
  0
SPLINE
  5
69
330
1F
100
AcDbEntity
  8
0
  6
Continuous
 62
     7
370
    25
100
AcDbSpline
210
0.0
220
0.0
230
1.0
 70
     8
 71
     3
 72
    20
 73
    16
 74
     0
 42
0.00000001
 43
0.00000001
 40
0.0
 40
0.0
 40
0.0
 40
0.0
 40
0.2499999999999998
 40
0.2499999999999998
 40
0.3749999999999998
 40
0.3749999999999998
 40
0.4999999999999999
 40
0.4999999999999999
 40
0.6249999999999999
 40
0.6249999999999999
 40
0.7499999999999999
 40
0.7499999999999999
 40
0.875
 40
0.875
 40
1.0
 40
1.0
 40
1.0
 40
1.0
 10
35.05000267505589
 20
-0.004296263304402
 30
0.0
 10
35.05083991521672
 20
-0.6766191891910106
 30
0.0
 10
34.94333116473127
 20
-1.330125252937342
 30
0.0
 10
34.63302098747997
 20
-2.284498777672352
 30
0.0
 10
34.50393081689151
 20
-2.594451743133353
 30
0.0
 10
34.20923655427143
 20
-3.189844752639733
 30
0.0
 10
34.04211328341172
 20
-3.476876623576579
 30
0.0
 10
33.68526080399857
 20
-4.038749712821171
 30
0.0
 10
33.49785453367506
 20
-4.315002097768918
 30
0.0
 10
33.14423788915959
 20
-4.878026890788321
 30
0.0
 10
32.97825732092147
 20
-5.164749869622074
 30
0.0
 10
32.68331637322179
 20
-5.756010855311233
 30
0.0
 10
32.55402966675387
 20
-6.060391825561606
 30
0.0
 10
32.34165036376736
 20
-6.691383511246916
 30
0.0
 10
32.25928587895825
 20
-7.018981102561171
 30
0.0
 10
32.20515677960141
 20
-7.350616876655907
 30
0.0
  0
LINE
  5
6A
330
1F
100
AcDbEntity
  8
0
  6
Continuous
 62
     7
370
    25
100
AcDbLine
 10
35.0500023261
 20
0.0037358811
 30
0.0
 11
35.0500026751
 21
-0.0042962633
 31
0.0
  0
SPLINE
  5
6B
330
1F
100
AcDbEntity
  8
0
  6
Continuous
 62
     7
370
    25
100
AcDbSpline
210
0.0
220
0.0
230
1.0
 70
     8
 71
     3
 72
    20
 73
    16
 74
     0
 42
0.00000001
 43
0.00000001
 40
0.0
 40
0.0
 40
0.0
 40
0.0
 40
0.2499999999999998
 40
0.2499999999999998
 40
0.3749999999999998
 40
0.3749999999999998
 40
0.4999999999999999
 40
0.4999999999999999
 40
0.6249999999999999
 40
0.6249999999999999
 40
0.7499999999999999
 40
0.7499999999999999
 40
0.875
 40
0.875
 40
1.0
 40
1.0
 40
1.0
 40
1.0
 10
32.20515677960315
 20
7.350616876654659
 30
0.0
 10
32.31341627339708
 20
6.687337393825815
 30
0.0
 10
32.53006628821935
 20
6.066199289952429
 30
0.0
 10
32.97028588742946
 20
5.179298315945482
 30
0.0
 10
33.13663787939714
 20
4.890664965212673
 30
0.0
 10
33.49121210401299
 20
4.325061795906156
 30
0.0
 10
33.67888639582046
 20
4.04840012668592
 30
0.0
 10
34.0371905760549
 20
3.485001753403976
 30
0.0
 10
34.2054864075946
 20
3.196885376265033
 30
0.0
 10
34.50273432458472
 20
2.597396330535115
 30
0.0
 10
34.6320798638688
 20
2.286586661235661
 30
0.0
 10
34.83783381716702
 20
1.655382191297697
 30
0.0
 10
34.91631733094017
 20
1.333433511004811
 30
0.0
 10
35.02279351334545
 20
0.6763999511971657
 30
0.0
 10
35.05042058749567
 20
0.3398894732125384
 30
0.0
 10
35.05000197717975
 20
0.0037358513707764
 30
0.0
  0
SPLINE
  5
6C
330
1F
100
AcDbEntity
  8
0
  6
Continuous
 62
     7
370
    25
100
AcDbSpline
210
0.0
220
0.0
230
1.0
 70
     8
 71
     3
 72
    20
 73
    16
 74
     0
 42
0.00000001
 43
0.00000001
 40
0.0
 40
0.0
 40
0.0
 40
0.0
 40
0.2500000000000005
 40
0.2500000000000005
 40
0.3750000000000004
 40
0.3750000000000004
 40
0.5000000000000003
 40
0.5000000000000003
 40
0.6250000000000002
 40
0.6250000000000002
 40
0.7500000000000001
 40
0.7500000000000001
 40
0.8750000000000001
 40
0.8750000000000001
 40
1.0
 40
1.0
 40
1.0
 40
1.0
 10
31.58082530891036
 20
15.20375541724792
 30
0.0
 10
31.87328962120838
 20
14.5983766567385
 30
0.0
 10
32.05997323846808
 20
13.96294173966904
 30
0.0
 10
32.19448058279819
 20
12.96844236554039
 30
0.0
 10
32.21265790955055
 20
12.63317426724772
 30
0.0
 10
32.20547889858943
 20
11.9688806529536
 30
0.0
 10
32.17944449585075
 20
11.63776180348957
 30
0.0
 10
32.10171911833667
 20
10.97669915428684
 30
0.0
 10
32.05273332084673
 20
10.64649182246307
 30
0.0
 10
31.97842303537738
 20
9.985795500158758
 30
0.0
 10
31.9532841488654
 20
9.655450752949282
 30
0.0
 10
31.94409006438347
 20
8.99477293083116
 30
0.0
 10
31.9596727203107
 20
8.664439753033049
 30
0.0
 10
32.04210261207034
 20
8.003787962234238
 30
0.0
 10
32.11003404328186
 20
7.672896120620759
 30
0.0
 10
32.20515677960316
 20
7.350616876654628
 30
0.0
  0
LINE
  5
6D
330
1F
100
AcDbEntity
  8
0
  6
Continuous
 62
     7
370
    25
100
AcDbLine
 10
31.5773399777
 20
15.2109919779
 30
0.0
 11
31.5808253089
 21
15.2037554172
 31
0.0
  0
SPLINE
  5
6E
330
1F
100
AcDbEntity
  8
0
  6
Continuous
 62
     7
370
    25
100
AcDbSpline
210
0.0
220
0.0
230
1.0
 70
     8
 71
     3
 72
    20
 73
    16
 74
     0
 42
0.00000001
 43
0.00000001
 40
0.0
 40
0.0
 40
0.0
 40
0.0
 40
0.25
 40
0.25
 40
0.375
 40
0.375
 40
0.5
 40
0.5
 40
0.625
 40
0.625
 40
0.75
 40
0.75
 40
0.875
 40
0.875
 40
1.0
 40
1.0
 40
1.0
 40
1.0
 10
25.82653050907724
 20
20.59597080814533
 30
0.0
 10
26.21185512473456
 20
20.04534867735417
 30
0.0
 10
26.67655176634319
 20
19.57972350160297
 30
0.0
 10
27.4579878311118
 20
18.97165746084362
 30
0.0
 10
27.73309911444209
 20
18.78378522187832
 30
0.0
 10
28.29796547014428
 20
18.42803836511439
 30
0.0
 10
28.58709316388367
 20
18.26020363766903
 30
0.0
 10
29.15436346833202
 20
17.90806160057127
 30
0.0
 10
29.43100178416301
 20
17.72149853909868
 30
0.0
 10
29.9589214521445
 20
17.31034860990746
 30
0.0
 10
30.21031301771175
 20
17.0864397002434
 30
0.0
 10
30.66956027964567
 20
16.60701741813369
 30
0.0
 10
30.87995977940771
 20
16.35100440053737
 30
0.0
 10
31.26096768258041
 20
15.80523590212189
 30
0.0
 10
31.43186524073483
 20
15.51403737595995
 30
0.0
 10
31.57733967623667
 20
15.21099179963541
 30
0.0
  0
SPLINE
  5
6F
330
1F
100
AcDbEntity
  8
0
  6
Continuous
 62
     7
370
    25
100
AcDbSpline
210
0.0
220
0.0
230
1.0
 70
     8
 71
     3
 72
    20
 73
    16
 74
     0
 42
0.00000001
 43
0.00000001
 40
0.0
 40
0.0
 40
0.0
 40
0.0
 40
0.2500000000000003
 40
0.2500000000000003
 40
0.3750000000000002
 40
0.3750000000000002
 40
0.5000000000000002
 40
0.5000000000000002
 40
0.6250000000000002
 40
0.6250000000000002
 40
0.7500000000000001
 40
0.7500000000000001
 40
0.8750000000000001
 40
0.8750000000000001
 40
1.0
 40
1.0
 40
1.0
 40
1.0
 10
21.85667817693059
 20
27.40051687559153
 30
0.0
 10
22.38284341747575
 20
26.98198496846148
 30
0.0
 10
22.82674442255814
 20
26.49047687649241
 30
0.0
 10
23.37942845930074
 20
25.65282445075073
 30
0.0
 10
23.54127304090038
 20
25.3586451782867
 30
0.0
 10
23.82303117276393
 20
24.75702245654234
 30
0.0
 10
23.94324207089972
 20
24.44739877759362
 30
0.0
 10
24.16003825954059
 20
23.81807813350872
 30
0.0
 10
24.25917517284853
 20
23.4993174666038
 30
0.0
 10
24.47888930981827
 20
22.87180862455564
 30
0.0
 10
24.59957116981433
 20
22.56327093756772
 30
0.0
 10
24.87794494973991
 20
21.96403162437295
 30
0.0
 10
25.0353106319472
 20
21.67317277616069
 30
0.0
 10
25.39622346745369
 20
21.11371106977872
 30
0.0
 10
25.60099616161007
 20
20.84506216521974
 30
0.0
 10
25.82653050907725
 20
20.59597080814532
 30
0.0
  0
LINE
  5
70
330
1F
100
AcDbEntity
  8
0
  6
Continuous
 62
     7
370
    25
100
AcDbLine
 10
21.8503981759
 20
27.405524563
 30
0.0
 11
21.8566781769
 21
27.4005168756
 31
0.0
  0
SPLINE
  5
71
330
1F
100
AcDbEntity
  8
0
  6
Continuous
 62
     7
370
    25
100
AcDbSpline
210
0.0
220
0.0
230
1.0
 70
     8
 71
     3
 72
    20
 73
    16
 74
     0
 42
0.00000001
 43
0.00000001
 40
0.0
 40
0.0
 40
0.0
 40
0.0
 40
0.25
 40
0.25
 40
0.375
 40
0.375
 40
0.5
 40
0.5
 40
0.625
 40
0.625
 40
0.75
 40
0.75
 40
0.875
 40
0.875
 40
1.0
 40
1.0
 40
1.0
 40
1.0
 10
14.33264312961661
 20
29.7620401280787
 30
0.0
 10
14.91871460129357
 20
29.4331328152815
 30
0.0
 10
15.53941900066683
 20
29.21524334423716
 30
0.0
 10
16.50729853464749
 20
29.00644717354662
 30
0.0
 10
16.83667994564598
 20
28.95654644737926
 30
0.0
 10
17.49995972303346
 20
28.88111593109323
 30
0.0
 10
17.83327553303005
 20
28.85534987155414
 30
0.0
 10
18.49715712076327
 20
28.78421021983962
 30
0.0
 10
18.82734630968102
 20
28.73615157641452
 30
0.0
 10
19.4813767638859
 20
28.59477404968521
 30
0.0
 10
19.80502317305573
 20
28.5021138052925
 30
0.0
 10
20.42680419109593
 20
28.26942917374119
 30
0.0
 10
20.72744747553746
 20
28.13005833678568
 30
0.0
 10
21.30752381150085
 20
27.80365104431826
 30
0.0
 10
21.58784349636048
 20
27.61543990942846
 30
0.0
 10
21.85039798159533
 20
27.40552427163138
 30
0.0
  0
SPLINE
  5
72
330
1F
100
AcDbEntity
  8
0
  6
Continuous
 62
     7
370
    25
100
AcDbSpline
210
0.0
220
0.0
230
1.0
 70
     8
 71
     3
 72
    20
 73
    16
 74
     0
 42
0.00000001
 43
0.00000001
 40
0.0
 40
0.0
 40
0.0
 40
0.0
 40
0.2499999999999988
 40
0.2499999999999988
 40
0.3749999999999986
 40
0.3749999999999986
 40
0.4999999999999983
 40
0.4999999999999983
 40
0.6249999999999981
 40
0.6249999999999981
 40
0.7499999999999987
 40
0.7499999999999987
 40
0.8749999999999993
 40
0.8749999999999993
 40
1.0
 40
1.0
 40
1.0
 40
1.0
 10
7.803547877443141
 20
34.1702699214385
 30
0.0
 10
8.459200567352202
 20
34.02148024485196
 30
0.0
 10
9.072398922112004
 20
33.77124818354896
 30
0.0
 10
9.933793799565274
 20
33.2563500422454
 30
0.0
 10
10.2072503317328
 20
33.06152540839354
 30
0.0
 10
10.72213995286864
 20
32.641732337659
 30
0.0
 10
10.96478690921315
 20
32.41492859612666
 30
0.0
 10
11.43316552001783
 20
31.94199462883195
 30
0.0
 10
11.66078986260848
 20
31.69781508626948
 30
0.0
 10
12.13101134257333
 20
31.2277795465361
 30
0.0
 10
12.37361142663925
 20
31.00215859264415
 30
0.0
 10
12.88441772982749
 20
30.58304448353887
 30
0.0
 10
13.15239823499013
 20
30.38926812695057
 30
0.0
 10
13.72031080086565
 20
30.04180475728192
 30
0.0
 10
14.02136701451679
 20
29.88860800008794
 30
0.0
 10
14.33264312961658
 20
29.76204012807871
 30
0.0
  0
LINE
  5
73
330
1F
100
AcDbEntity
  8
0
  6
Continuous
 62
     7
370
    25
100
AcDbLine
 10
7.7957170379
 20
34.1720569016
 30
0.0
 11
7.8035478774
 21
34.1702699214
 31
0.0
  0
SPLINE
  5
74
330
1F
100
AcDbEntity
  8
0
  6
Continuous
 62
     7
370
    25
100
AcDbSpline
210
0.0
220
0.0
230
1.0
 70
     8
 71
     3
 72
    20
 73
    16
 74
     0
 42
0.00000001
 43
0.00000001
 40
0.0
 40
0.0
 40
0.0
 40
0.0
 40
0.2499999999999993
 40
0.2499999999999993
 40
0.3749999999999992
 40
0.3749999999999992
 40
0.4999999999999992
 40
0.4999999999999992
 40
0.6249999999999994
 40
0.6249999999999994
 40
0.7499999999999996
 40
0.7499999999999996
 40
0.8749999999999998
 40
0.8749999999999998
 40
1.0
 40
1.0
 40
1.0
 40
1.0
 10
0.0000000000051948
 20
33.03337239317722
 30
0.0
 10
0.6707396850513476
 20
32.99132402544301
 30
0.0
 10
1.324513723467709
 20
33.06432594107509
 30
0.0
 10
2.287136314716633
 20
33.2961542827646
 30
0.0
 10
2.605549825346116
 20
33.39410852020193
 30
0.0
 10
3.235872329931146
 20
33.61393428323229
 30
0.0
 10
3.547358972172859
 20
33.73534017568738
 30
0.0
 10
4.176361952779438
 20
33.95929298983611
 30
0.0
 10
4.494703996418463
 20
34.05925736818027
 30
0.0
 10
5.145306484241556
 20
34.21565379694324
 30
0.0
 10
5.477105596416547
 20
34.27259471561575
 30
0.0
 10
6.138269014296005
 20
34.33273377956827
 30
0.0
 10
6.469609993783942
 20
34.33760922677191
 30
0.0
 10
7.133863530024762
 20
34.2952121076239
 30
0.0
 10
7.468084590092976
 20
34.24726588751081
 30
0.0
 10
7.795716989244311
 20
34.17205655474556
 30
0.0
  0
SPLINE
  5
75
330
1F
100
AcDbEntity
  8
0
  6
Continuous
 62
     7
370
    25
100
AcDbSpline
210
0.0
220
0.0
230
1.0
 70
     8
 71
     3
 72
    20
 73
    16
 74
     0
 42
0.00000001
 43
0.00000001
 40
0.0
 40
0.0
 40
0.0
 40
0.0
 40
0.2500000000000003
 40
0.2500000000000003
 40
0.3750000000000003
 40
0.3750000000000003
 40
0.5000000000000003
 40
0.5000000000000003
 40
0.6250000000000002
 40
0.6250000000000002
 40
0.7500000000000001
 40
0.7500000000000001
 40
0.8750000000000001
 40
0.8750000000000001
 40
1.0
 40
1.0
 40
1.0
 40
1.0
 10
-7.795170783405847
 20
34.17218193848652
 30
0.0
 10
-7.13989070042178
 20
34.32260411267701
 30
0.0
 10
-6.478846450528907
 20
34.36320961067586
 30
0.0
 10
-5.47935055215931
 20
34.27304764550664
 30
0.0
 10
-5.148443489343935
 20
34.21616505836858
 30
0.0
 10
-4.502402583108463
 20
34.06134680472682
 30
0.0
 10
-4.18537877412884
 20
33.96228426318662
 30
0.0
 10
-3.558185869316845
 20
33.73940734505909
 30
0.0
 10
-3.247157890122871
 20
33.61817167990904
 30
0.0
 10
-2.619562198157809
 20
33.39870574574206
 30
0.0
 10
-2.303093811965943
 20
33.30068852192374
 30
0.0
 10
-1.661026438489399
 20
33.1447103063134
 30
0.0
 10
-1.335507935983969
 20
33.08639622528239
 30
0.0
 10
-0.6730776884012145
 20
33.01975057404846
 30
0.0
 10
-0.3353658305808517
 20
33.0123484608166
 30
0.0
 10
0.0000000000052186
 20
33.03337239317722
 30
0.0
  0
LINE
  5
76
330
1F
100
AcDbEntity
  8
0
  6
Continuous
 62
     7
370
    25
100
AcDbLine
 10
-7.8030014677
 20
34.170394278
 30
0.0
 11
-7.7951707834
 21
34.1721819385
 31
0.0
  0
SPLINE
  5
77
330
1F
100
AcDbEntity
  8
0
  6
Continuous
 62
     7
370
    25
100
AcDbSpline
210
0.0
220
0.0
230
1.0
 70
     8
 71
     3
 72
    20
 73
    16
 74
     0
 42
0.00000001
 43
0.00000001
 40
0.0
 40
0.0
 40
0.0
 40
0.0
 40
0.25
 40
0.25
 40
0.375
 40
0.375
 40
0.5
 40
0.5
 40
0.625
 40
0.625
 40
0.75
 40
0.75
 40
0.875
 40
0.875
 40
1.0
 40
1.0
 40
1.0
 40
1.0
 10
-14.3326431296082
 20
29.76204012808202
 30
0.0
 10
-13.71008345189784
 20
30.01517890032996
 30
0.0
 10
-13.15272774075841
 20
30.36461327793836
 30
0.0
 10
-12.38602130222834
 20
30.99114968574927
 30
0.0
 10
-12.14164139283307
 20
31.21755784873735
 30
0.0
 10
-11.66911926348116
 20
31.68910070273063
 30
0.0
 10
-11.44115553862298
 20
31.93363262123387
 30
0.0
 10
-10.97161291966663
 20
32.40832129980316
 30
0.0
 10
-10.7281695672575
 20
32.636509528803
 30
0.0
 10
-10.20985484764432
 20
33.0597036822656
 30
0.0
 10
-9.935619915878833
 20
33.25496791672562
 30
0.0
 10
-9.366025621707173
 20
33.59601939700865
 30
0.0
 10
-9.069613091790329
 20
33.74417548625915
 30
0.0
 10
-8.452745914658369
 20
33.99418580984372
 30
0.0
 10
-8.130820059279596
 20
34.09600084142157
 30
0.0
 10
-7.803001361010932
 20
34.1703939444243
 30
0.0
  0
SPLINE
  5
78
330
1F
100
AcDbEntity
  8
0
  6
Continuous
 62
     7
370
    25
100
AcDbSpline
210
0.0
220
0.0
230
1.0
 70
     8
 71
     3
 72
    20
 73
    16
 74
     0
 42
0.00000001
 43
0.00000001
 40
0.0
 40
0.0
 40
0.0
 40
0.0
 40
0.25
 40
0.25
 40
0.375
 40
0.375
 40
0.5
 40
0.5
 40
0.625
 40
0.625
 40
0.75
 40
0.75
 40
0.875
 40
0.875
 40
1.0
 40
1.0
 40
1.0
 40
1.0
 10
-21.84996026910536
 20
27.40587422830959
 30
0.0
 10
-21.32483904996419
 20
27.82571529687179
 30
0.0
 10
-20.74687682580531
 20
28.1491159373001
 30
0.0
 10
-19.80724232720438
 20
28.501547831231
 30
0.0
 10
-19.48442493584056
 20
28.59387358480859
 30
0.0
 10
-18.83518906915722
 20
28.73469380211469
 30
0.0
 10
-18.50657886095281
 20
28.78299301184108
 30
0.0
 10
-17.84479490894778
 20
28.85431664992195
 30
0.0
 10
-17.5119661989377
 20
28.88003707252519
 30
0.0
 10
-16.85129931872223
 20
28.95460866375949
 30
0.0
 10
-16.52364307551985
 20
29.00360868329439
 30
0.0
 10
-15.87748394951171
 20
29.14165975972785
 30
0.0
 10
-15.55890038130713
 20
29.23035777317757
 30
0.0
 10
-14.93315488672488
 20
29.45772982896047
 30
0.0
 10
-14.6256753599409
 20
29.59758843899732
 30
0.0
 10
-14.33264312960819
 20
29.76204012808203
 30
0.0
  0
LINE
  5
79
330
1F
100
AcDbEntity
  8
0
  6
Continuous
 62
     7
370
    25
100
AcDbLine
 10
-21.856239835
 20
27.4008659953
 30
0.0
 11
-21.8499602691
 21
27.4058742283
 31
0.0
  0
SPLINE
  5
7A
330
1F
100
AcDbEntity
  8
0
  6
Continuous
 62
     7
370
    25
100
AcDbSpline
210
0.0
220
0.0
230
1.0
 70
     8
 71
     3
 72
    20
 73
    16
 74
     0
 42
0.00000001
 43
0.00000001
 40
0.0
 40
0.0
 40
0.0
 40
0.0
 40
0.2499999999999995
 40
0.2499999999999995
 40
0.3749999999999996
 40
0.3749999999999996
 40
0.4999999999999997
 40
0.4999999999999997
 40
0.6249999999999998
 40
0.6249999999999998
 40
0.7499999999999998
 40
0.7499999999999998
 40
0.8749999999999999
 40
0.8749999999999999
 40
1.0
 40
1.0
 40
1.0
 40
1.0
 10
-25.82653050906912
 20
20.59597080815286
 30
0.0
 10
-25.37545641805916
 20
21.09415948199644
 30
0.0
 10
-25.0249101683078
 20
21.65081655756449
 30
0.0
 10
-24.60597549568615
 20
22.54796781196492
 30
0.0
 10
-24.48403162570422
 20
22.8579869871099
 30
0.0
 10
-24.26289867440793
 20
23.48785208673902
 30
0.0
 10
-24.16360887843339
 20
23.80707748584372
 30
0.0
 10
-23.94652529537458
 20
24.43848411436849
 30
0.0
 10
-23.82619757577703
 20
24.74970071672583
 30
0.0
 10
-23.5428292113067
 20
25.35587380265957
 30
0.0
 10
-23.38047405145783
 20
25.65078687651397
 30
0.0
 10
-23.01526401657063
 20
26.20520134473633
 30
0.0
 10
-22.81248807303616
 20
26.46729394554282
 30
0.0
 10
-22.36518536482378
 20
26.96019410109957
 30
0.0
 10
-22.11931607795359
 20
27.19160466868584
 30
0.0
 10
-21.85623959419249
 20
27.40086574103553
 30
0.0
  0
SPLINE
  5
7B
330
1F
100
AcDbEntity
  8
0
  6
Continuous
 62
     7
370
    25
100
AcDbSpline
210
0.0
220
0.0
230
1.0
 70
     8
 71
     3
 72
    20
 73
    16
 74
     0
 42
0.00000001
 43
0.00000001
 40
0.0
 40
0.0
 40
0.0
 40
0.0
 40
0.2500000000000007
 40
0.2500000000000007
 40
0.3750000000000006
 40
0.3750000000000006
 40
0.5000000000000004
 40
0.5000000000000004
 40
0.6250000000000003
 40
0.6250000000000003
 40
0.7500000000000002
 40
0.7500000000000002
 40
0.8750000000000001
 40
0.8750000000000001
 40
1.0
 40
1.0
 40
1.0
 40
1.0
 10
-31.57709715133118
 20
15.21149701622647
 30
0.0
 10
-31.28614149367284
 20
15.81760230651889
 30
0.0
 10
-30.9057338019841
 20
16.35974462629133
 30
0.0
 10
-30.21206683946048
 20
17.08496692043583
 30
0.0
 10
-29.96127706300325
 20
17.30821476693201
 30
0.0
 10
-29.43743536162397
 20
17.71678228410189
 30
0.0
 10
-29.16232403606935
 20
17.90287699425757
 30
0.0
 10
-28.59702346481332
 20
18.25427466729794
 30
0.0
 10
-28.30831483188086
 20
18.42185693251761
 30
0.0
 10
-27.74542994158915
 20
18.77569623094873
 30
0.0
 10
-27.47148217878255
 20
18.96200843902217
 30
0.0
 10
-26.94921103977035
 20
19.36674609872657
 30
0.0
 10
-26.70066178872063
 20
19.58488847728358
 30
0.0
 10
-26.23553761660578
 20
20.06124441590034
 30
0.0
 10
-26.0191905121266
 20
20.32066303623482
 30
0.0
 10
-25.82653050906912
 20
20.59597080815288
 30
0.0
  0
LINE
  5
7C
330
1F
100
AcDbEntity
  8
0
  6
Continuous
 62
     7
370
    25
100
AcDbLine
 10
-31.5805818539
 20
15.2042601527
 30
0.0
 11
-31.5770971513
 21
15.2114970162
 31
0.0
  0
SPLINE
  5
7D
330
1F
100
AcDbEntity
  8
0
  6
Continuous
 62
     7
370
    25
100
AcDbSpline
210
0.0
220
0.0
230
1.0
 70
     8
 71
     3
 72
    20
 73
    16
 74
     0
 42
0.00000001
 43
0.00000001
 40
0.0
 40
0.0
 40
0.0
 40
0.0
 40
0.2500000000000005
 40
0.2500000000000005
 40
0.3750000000000004
 40
0.3750000000000004
 40
0.5000000000000003
 40
0.5000000000000003
 40
0.6250000000000002
 40
0.6250000000000002
 40
0.7500000000000001
 40
0.7500000000000001
 40
0.8750000000000001
 40
0.8750000000000001
 40
1.0
 40
1.0
 40
1.0
 40
1.0
 10
-32.20515677959902
 20
7.350616876662862
 30
0.0
 10
-32.01490903107494
 20
7.995183075363348
 30
0.0
 10
-31.9406022266426
 20
8.648810088122909
 30
0.0
 10
-31.95241446973846
 20
9.638884380339483
 30
0.0
 10
-31.9770591181631
 20
9.971111467867855
 30
0.0
 10
-32.05111343794429
 20
10.63454630536189
 30
0.0
 10
-32.10016313265561
 20
10.96523867973231
 30
0.0
 10
-32.17853465147495
 20
11.62830543173833
 30
0.0
 10
-32.20515494527834
 20
11.96091014253481
 30
0.0
 10
-32.21285751581993
 20
12.63000214704486
 30
0.0
 10
-32.19453855845173
 20
12.96615290914506
 30
0.0
 10
-32.10604710926671
 20
13.62412178042771
 30
0.0
 10
-32.03707001461599
 20
13.94824023884556
 30
0.0
 10
-31.84792556249369
 20
14.58640530554272
 30
0.0
 10
-31.72681027178686
 20
14.90157770816304
 30
0.0
 10
-31.58058152656382
 20
15.20426002806188
 30
0.0
  0
SPLINE
  5
7E
330
1F
100
AcDbEntity
  8
0
  6
Continuous
 62
     7
370
    25
100
AcDbSpline
210
0.0
220
0.0
230
1.0
 70
     8
 71
     3
 72
    20
 73
    16
 74
     0
 42
0.00000001
 43
0.00000001
 40
0.0
 40
0.0
 40
0.0
 40
0.0
 40
0.2499999999999999
 40
0.2499999999999999
 40
0.3749999999999999
 40
0.3749999999999999
 40
0.5
 40
0.5
 40
0.6250000000000001
 40
0.6250000000000001
 40
0.75
 40
0.75
 40
0.875
 40
0.875
 40
1.0
 40
1.0
 40
1.0
 40
1.0
 10
-35.05000267505359
 20
0.0042962633125525
 30
0.0
 10
-35.0508399152144
 20
0.6766191891990729
 30
0.0
 10
-34.94333116472896
 20
1.330125252945316
 30
0.0
 10
-34.63302098747767
 20
2.284498777680191
 30
0.0
 10
-34.50393081688925
 20
2.59445174314119
 30
0.0
 10
-34.2092365542692
 20
3.18984475264749
 30
0.0
 10
-34.04211328340952
 20
3.476876623584273
 30
0.0
 10
-33.68526080399641
 20
4.038749712828785
 30
0.0
 10
-33.49785453367294
 20
4.315002097776484
 30
0.0
 10
-33.14423788915751
 20
4.878026890795798
 30
0.0
 10
-32.97825732091939
 20
5.164749869629478
 30
0.0
 10
-32.68331637321965
 20
5.756010855318507
 30
0.0
 10
-32.5540296667517
 20
6.06039182556884
 30
0.0
 10
-32.3416503637651
 20
6.691383511253997
 30
0.0
 10
-32.25928587895599
 20
7.018981102568153
 30
0.0
 10
-32.20515677959902
 20
7.350616876662826
 30
0.0
  0
LINE
  5
7F
330
1F
100
AcDbEntity
  8
0
  6
Continuous
 62
     7
370
    25
100
AcDbLine
 10
-35.0500023261
 20
-0.0037358812
 30
0.0
 11
-35.0500026751
 21
0.0042962633
 31
0.0
  0
SPLINE
  5
80
330
1F
100
AcDbEntity
  8
0
  6
Continuous
 62
     7
370
    25
100
AcDbSpline
210
0.0
220
0.0
230
1.0
 70
     8
 71
     3
 72
    20
 73
    16
 74
     0
 42
0.00000001
 43
0.00000001
 40
0.0
 40
0.0
 40
0.0
 40
0.0
 40
0.2499999999999998
 40
0.2499999999999998
 40
0.3749999999999998
 40
0.3749999999999998
 40
0.4999999999999999
 40
0.4999999999999999
 40
0.6249999999999999
 40
0.6249999999999999
 40
0.7499999999999999
 40
0.7499999999999999
 40
0.875
 40
0.875
 40
1.0
 40
1.0
 40
1.0
 40
1.0
 10
-32.20515677960054
 20
-7.350616876648448
 30
0.0
 10
-32.31341627339273
 20
-6.687337393828754
 30
0.0
 10
-32.53006628821026
 20
-6.066199289963342
 30
0.0
 10
-32.97028588741086
 20
-5.179298315967521
 30
0.0
 10
-33.13663787937476
 20
-4.890664965238314
 30
0.0
 10
-33.49121210398405
 20
-4.325061795938741
 30
0.0
 10
-33.67888639578856
 20
-4.048400126722171
 30
0.0
 10
-34.03719057601995
 20
-3.485001753449247
 30
0.0
 10
-34.2054864075597
 20
-3.196885376315747
 30
0.0
 10
-34.50273432455099
 20
-2.597396330597186
 30
0.0
 10
-34.63207986383707
 20
-2.286586661303613
 30
0.0
 10
-34.83783381714093
 20
-1.655382191376718
 30
0.0
 10
-34.9163173309176
 20
-1.333433511089185
 30
0.0
 10
-35.02279351333173
 20
-0.6763999512920097
 30
0.0
 10
-35.05042058749352
 20
-0.3398894733129144
 30
0.0
 10
-35.05000197717761
 20
-0.0037358514757401
 30
0.0
  0
SPLINE
  5
81
330
1F
100
AcDbEntity
  8
0
  6
Continuous
 62
     7
370
    25
100
AcDbSpline
210
0.0
220
0.0
230
1.0
 70
     8
 71
     3
 72
    20
 73
    16
 74
     0
 42
0.00000001
 43
0.00000001
 40
0.0
 40
0.0
 40
0.0
 40
0.0
 40
0.2499999999999993
 40
0.2499999999999993
 40
0.3749999999999994
 40
0.3749999999999994
 40
0.4999999999999996
 40
0.4999999999999996
 40
0.6249999999999998
 40
0.6249999999999998
 40
0.7499999999999998
 40
0.7499999999999998
 40
0.8749999999999999
 40
0.8749999999999999
 40
1.0
 40
1.0
 40
1.0
 40
1.0
 10
-31.5808253089083
 20
-15.20375541723987
 30
0.0
 10
-31.87328962120629
 20
-14.59837665673055
 30
0.0
 10
-32.05997323846596
 20
-13.96294173966118
 30
0.0
 10
-32.19448058279608
 20
-12.96844236553273
 30
0.0
 10
-32.21265790954845
 20
-12.6331742672401
 30
0.0
 10
-32.20547889858741
 20
-11.9688806529461
 30
0.0
 10
-32.17944449584876
 20
-11.63776180348214
 30
0.0
 10
-32.10171911833469
 20
-10.97669915427954
 30
0.0
 10
-32.0527333208448
 20
-10.64649182245583
 30
0.0
 10
-31.97842303537538
 20
-9.985795500151665
 30
0.0
 10
-31.95328414886335
 20
-9.655450752942308
 30
0.0
 10
-31.94409006438134
 20
-8.99477293082439
 30
0.0
 10
-31.95967272030851
 20
-8.664439753026436
 30
0.0
 10
-32.04210261206796
 20
-8.003787962227904
 30
0.0
 10
-32.11003404327939
 20
-7.672896120614551
 30
0.0
 10
-32.20515677960053
 20
-7.350616876648491
 30
0.0
  0
LINE
  5
82
330
1F
100
AcDbEntity
  8
0
  6
Continuous
 62
     7
370
    25
100
AcDbLine
 10
-31.5773399776
 20
-15.210991978
 30
0.0
 11
-31.5808253089
 21
-15.2037554172
 31
0.0
  0
SPLINE
  5
83
330
1F
100
AcDbEntity
  8
0
  6
Continuous
 62
     7
370
    25
100
AcDbSpline
210
0.0
220
0.0
230
1.0
 70
     8
 71
     3
 72
    20
 73
    16
 74
     0
 42
0.00000001
 43
0.00000001
 40
0.0
 40
0.0
 40
0.0
 40
0.0
 40
0.2500000000000016
 40
0.2500000000000016
 40
0.3750000000000014
 40
0.3750000000000014
 40
0.5000000000000012
 40
0.5000000000000012
 40
0.6250000000000011
 40
0.6250000000000011
 40
0.750000000000001
 40
0.750000000000001
 40
0.8750000000000009
 40
0.8750000000000009
 40
1.0
 40
1.0
 40
1.0
 40
1.0
 10
-25.82653050907729
 20
-20.5959708081349
 30
0.0
 10
-26.21185512472519
 20
-20.04534867735779
 30
0.0
 10
-26.6765517663203
 20
-19.57972350161632
 30
0.0
 10
-27.45798783106537
 20
-18.97165746086813
 30
0.0
 10
-27.73309911438703
 20
-18.78378522190581
 30
0.0
 10
-28.29796547007327
 20
-18.42803836514832
 30
0.0
 10
-28.58709316380498
 20
-18.26020363770667
 30
0.0
 10
-29.15436346824109
 20
-17.90806160062092
 30
0.0
 10
-29.43100178406775
 20
-17.72149853915695
 30
0.0
 10
-29.95892145204191
 20
-17.31034860998466
 30
0.0
 10
-30.21031301760749
 20
-17.08643970033147
 30
0.0
 10
-30.66956027954127
 20
-16.60701741824376
 30
0.0
 10
-30.87995977930456
 20
-16.35100440065873
 30
0.0
 10
-31.26096768248284
 20
-15.80523590226679
 30
0.0
 10
-31.43186524065106
 20
-15.51403737612252
 30
0.0
 10
-31.57733967614929
 20
-15.21099179980546
 30
0.0
  0
SPLINE
  5
84
330
1F
100
AcDbEntity
  8
0
  6
Continuous
 62
     7
370
    25
100
AcDbSpline
210
0.0
220
0.0
230
1.0
 70
     8
 71
     3
 72
    20
 73
    16
 74
     0
 42
0.00000001
 43
0.00000001
 40
0.0
 40
0.0
 40
0.0
 40
0.0
 40
0.25
 40
0.25
 40
0.375
 40
0.375
 40
0.5
 40
0.5
 40
0.625
 40
0.625
 40
0.75
 40
0.75
 40
0.875
 40
0.875
 40
1.0
 40
1.0
 40
1.0
 40
1.0
 10
-21.85667817692838
 20
-27.40051687558346
 30
0.0
 10
-22.38284341747378
 20
-26.98198496845322
 30
0.0
 10
-22.82674442255634
 20
-26.4904768764839
 30
0.0
 10
-23.37942845929912
 20
-25.65282445074179
 30
0.0
 10
-23.54127304089875
 20
-25.35864517827759
 30
0.0
 10
-23.82303117276234
 20
-24.75702245653294
 30
0.0
 10
-23.9432420708981
 20
-24.44739877758407
 30
0.0
 10
-24.16003825953901
 20
-23.81807813349889
 30
0.0
 10
-24.25917517284701
 20
-23.49931746659384
 30
0.0
 10
-24.47888930981691
 20
-22.87180862454547
 30
0.0
 10
-24.59957116981311
 20
-22.56327093755748
 30
0.0
 10
-24.87794494973899
 20
-21.96403162436257
 30
0.0
 10
-25.03531063194645
 20
-21.67317277615023
 30
0.0
 10
-25.39622346745335
 20
-21.11371106976824
 30
0.0
 10
-25.60099616160992
 20
-20.84506216520933
 30
0.0
 10
-25.82653050907728
 20
-20.59597080813491
 30
0.0
  0
LINE
  5
85
330
1F
100
AcDbEntity
  8
0
  6
Continuous
 62
     7
370
    25
100
AcDbLine
 10
-21.8503981759
 20
-27.405524563
 30
0.0
 11
-21.8566781769
 21
-27.4005168756
 31
0.0
  0
SPLINE
  5
86
330
1F
100
AcDbEntity
  8
0
  6
Continuous
 62
     7
370
    25
100
AcDbSpline
210
0.0
220
0.0
230
1.0
 70
     8
 71
     3
 72
    20
 73
    16
 74
     0
 42
0.00000001
 43
0.00000001
 40
0.0
 40
0.0
 40
0.0
 40
0.0
 40
0.2500000000000007
 40
0.2500000000000007
 40
0.3750000000000006
 40
0.3750000000000006
 40
0.5000000000000004
 40
0.5000000000000004
 40
0.6250000000000003
 40
0.6250000000000003
 40
0.7500000000000002
 40
0.7500000000000002
 40
0.8750000000000001
 40
0.8750000000000001
 40
1.0
 40
1.0
 40
1.0
 40
1.0
 10
-14.33264312961771
 20
-29.76204012806926
 30
0.0
 10
-14.91871460129507
 20
-29.43313281527233
 30
0.0
 10
-15.53941900066874
 20
-29.21524334422825
 30
0.0
 10
-16.50729853464998
 20
-29.00644717353816
 30
0.0
 10
-16.83667994564867
 20
-28.95654644737094
 30
0.0
 10
-17.49995972303645
 20
-28.88111593108509
 30
0.0
 10
-17.83327553303316
 20
-28.85534987154603
 30
0.0
 10
-18.4971571207666
 20
-28.78421021983129
 30
0.0
 10
-18.82734630968447
 20
-28.73615157640589
 30
0.0
 10
-19.48137676388955
 20
-28.59477404967606
 30
0.0
 10
-19.80502317305935
 20
-28.50211380528303
 30
0.0
 10
-20.42680419109951
 20
-28.26942917373106
 30
0.0
 10
-20.72744747554102
 20
-28.13005833677522
 30
0.0
 10
-21.3075238115043
 20
-27.80365104430708
 30
0.0
 10
-21.5878434963636
 20
-27.61543990941661
 30
0.0
 10
-21.85039798159856
 20
-27.40552427161946
 30
0.0
  0
SPLINE
  5
87
330
1F
100
AcDbEntity
  8
0
  6
Continuous
 62
     7
370
    25
100
AcDbSpline
210
0.0
220
0.0
230
1.0
 70
     8
 71
     3
 72
    20
 73
    16
 74
     0
 42
0.00000001
 43
0.00000001
 40
0.0
 40
0.0
 40
0.0
 40
0.0
 40
0.249999999999999
 40
0.249999999999999
 40
0.3749999999999992
 40
0.3749999999999992
 40
0.4999999999999993
 40
0.4999999999999993
 40
0.6249999999999994
 40
0.6249999999999994
 40
0.7499999999999997
 40
0.7499999999999997
 40
0.8749999999999998
 40
0.8749999999999998
 40
1.0
 40
1.0
 40
1.0
 40
1.0
 10
-7.80354787744088
 20
-34.17026992143045
 30
0.0
 10
-8.45920056735024
 20
-34.02148024484384
 30
0.0
 10
-9.072398922110299
 20
-33.77124818354065
 30
0.0
 10
-9.93379379956392
 20
-33.25635004223674
 30
0.0
 10
-10.20725033173152
 20
-33.06152540838472
 30
0.0
 10
-10.72213995286753
 20
-32.64173233764991
 30
0.0
 10
-10.96478690921209
 20
-32.41492859611745
 30
0.0
 10
-11.4331655200169
 20
-31.94199462882242
 30
0.0
 10
-11.66078986260769
 20
-31.69781508625986
 30
0.0
 10
-12.1310113425728
 20
-31.22777954652632
 30
0.0
 10
-12.3736114266389
 20
-31.00215859263434
 30
0.0
 10
-12.88441772982752
 20
-30.58304448352905
 30
0.0
 10
-13.15239823499035
 20
-30.38926812694076
 30
0.0
 10
-13.72031080086636
 20
-30.04180475727222
 30
0.0
 10
-14.0213670145177
 20
-29.88860800007832
 30
0.0
 10
-14.33264312961771
 20
-29.76204012806926
 30
0.0
  0
LINE
  5
88
330
1F
100
AcDbEntity
  8
0
  6
Continuous
 62
     7
370
    25
100
AcDbLine
 10
-7.7957170379
 20
-34.1720569016
 30
0.0
 11
-7.8035478774
 21
-34.1702699214
 31
0.0
  0
SPLINE
  5
89
330
1F
100
AcDbEntity
  8
0
  6
Continuous
 62
     7
370
    25
100
AcDbSpline
210
0.0
220
0.0
230
1.0
 70
     8
 71
     3
 72
    20
 73
    16
 74
     0
 42
0.00000001
 43
0.00000001
 40
0.0
 40
0.0
 40
0.0
 40
0.0
 40
0.2500000000000001
 40
0.2500000000000001
 40
0.3749999999999999
 40
0.3749999999999999
 40
0.4999999999999998
 40
0.4999999999999998
 40
0.6249999999999998
 40
0.6249999999999998
 40
0.7499999999999999
 40
0.7499999999999999
 40
0.8749999999999999
 40
0.8749999999999999
 40
1.0
 40
1.0
 40
1.0
 40
1.0
 10
-0.0000000000028809
 20
-33.03337239316902
 30
0.0
 10
-0.6707396850495617
 20
-32.99132402543469
 30
0.0
 10
-1.324513723466392
 20
-33.06432594106703
 30
0.0
 10
-2.287136314716025
 20
-33.29615428275687
 30
0.0
 10
-2.605549825345797
 20
-33.39410852019436
 30
0.0
 10
-3.235872329931263
 20
-33.61393428322501
 30
0.0
 10
-3.547358972173167
 20
-33.73534017568019
 30
0.0
 10
-4.176361952780252
 20
-33.95929298982899
 30
0.0
 10
-4.494703996419565
 20
-34.05925736817309
 30
0.0
 10
-5.145306484243236
 20
-34.21565379693589
 30
0.0
 10
-5.47710559641853
 20
-34.27259471560821
 30
0.0
 10
-6.138269014298508
 20
-34.33273377956033
 30
0.0
 10
-6.469609993786676
 20
-34.33760922676375
 30
0.0
 10
-7.133863530027947
 20
-34.29521210761514
 30
0.0
 10
-7.468084590096322
 20
-34.24726588750138
 30
0.0
 10
-7.795716989247901
 20
-34.17205655473607
 30
0.0
  0
SPLINE
  5
8A
330
1F
100
AcDbEntity
  8
0
  6
Continuous
 62
     7
370
    25
100
AcDbSpline
210
0.0
220
0.0
230
1.0
 70
     8
 71
     3
 72
    20
 73
    16
 74
     0
 42
0.00000001
 43
0.00000001
 40
0.0
 40
0.0
 40
0.0
 40
0.0
 40
0.25
 40
0.25
 40
0.375
 40
0.375
 40
0.5
 40
0.5
 40
0.625
 40
0.625
 40
0.75
 40
0.75
 40
0.875
 40
0.875
 40
1.0
 40
1.0
 40
1.0
 40
1.0
 10
7.795170783408137
 20
-34.17218193847836
 30
0.0
 10
7.139890700424077
 20
-34.32260411266886
 30
0.0
 10
6.478846450531197
 20
-34.36320961066768
 30
0.0
 10
5.479350552161612
 20
-34.2730476454985
 30
0.0
 10
5.148443489346239
 20
-34.21616505836041
 30
0.0
 10
4.50240258311077
 20
-34.06134680471864
 30
0.0
 10
4.185378774131175
 20
-33.96228426317847
 30
0.0
 10
3.558185869319193
 20
-33.73940734505089
 30
0.0
 10
3.247157890125192
 20
-33.61817167990088
 30
0.0
 10
2.619562198160137
 20
-33.39870574573387
 30
0.0
 10
2.303093811968276
 20
-33.30068852191558
 30
0.0
 10
1.661026438491733
 20
-33.14471030630523
 30
0.0
 10
1.335507935986294
 20
-33.08639622527421
 30
0.0
 10
0.6730776884035375
 20
-33.01975057404025
 30
0.0
 10
0.3353658305832159
 20
-33.01234846080843
 30
0.0
 10
-0.0000000000028576
 20
-33.03337239316902
 30
0.0
  0
LINE
  5
8B
330
1F
100
AcDbEntity
  8
0
  6
Continuous
 62
     7
370
    25
100
AcDbLine
 10
7.8030014679
 20
-34.170394278
 30
0.0
 11
7.7951707834
 21
-34.1721819385
 31
0.0
  0
SPLINE
  5
8C
330
1F
100
AcDbEntity
  8
0
  6
Continuous
 62
     7
370
    25
100
AcDbSpline
210
0.0
220
0.0
230
1.0
 70
     8
 71
     3
 72
    20
 73
    16
 74
     0
 42
0.00000001
 43
0.00000001
 40
0.0
 40
0.0
 40
0.0
 40
0.0
 40
0.25
 40
0.25
 40
0.375
 40
0.375
 40
0.5
 40
0.5
 40
0.625
 40
0.625
 40
0.75
 40
0.75
 40
0.875
 40
0.875
 40
1.0
 40
1.0
 40
1.0
 40
1.0
 10
14.33264312960962
 20
-29.76204012807414
 30
0.0
 10
13.71008345191337
 20
-30.01517890031643
 30
0.0
 10
13.15272774078508
 20
-30.36461327791477
 30
0.0
 10
12.38602130226936
 20
-30.99114968570704
 30
0.0
 10
12.14164139287838
 20
-31.21755784868806
 30
0.0
 10
11.66911926353527
 20
-31.6891007026686
 30
0.0
 10
11.44115553868189
 20
-31.93363262116588
 30
0.0
 10
10.97161291973858
 20
-32.40832129972689
 30
0.0
 10
10.72816956733793
 20
-32.63650952872477
 30
0.0
 10
10.20985484774288
 20
-33.05970368218483
 30
0.0
 10
9.935619915987354
 20
-33.25496791664565
 30
0.0
 10
9.3660256218351
 20
-33.59601939693317
 30
0.0
 10
9.069613091927948
 20
-33.74417548618715
 30
0.0
 10
8.452745914815585
 20
-33.99418580978154
 30
0.0
 10
8.130820059449599
 20
-34.09600084137525
 30
0.0
 10
7.803001361188209
 20
-34.17039394437631
 30
0.0
  0
SPLINE
  5
8D
330
1F
100
AcDbEntity
  8
0
  6
Continuous
 62
     7
370
    25
100
AcDbSpline
210
0.0
220
0.0
230
1.0
 70
     8
 71
     3
 72
    20
 73
    16
 74
     0
 42
0.00000001
 43
0.00000001
 40
0.0
 40
0.0
 40
0.0
 40
0.0
 40
0.25
 40
0.25
 40
0.375
 40
0.375
 40
0.5
 40
0.5
 40
0.625
 40
0.625
 40
0.75
 40
0.75
 40
0.875
 40
0.875
 40
1.0
 40
1.0
 40
1.0
 40
1.0
 10
21.84996026910752
 20
-27.40587422830127
 30
0.0
 10
21.32483904996631
 20
-27.8257152968635
 30
0.0
 10
20.74687682580736
 20
-28.14911593729183
 30
0.0
 10
19.80724232720636
 20
-28.50154783122276
 30
0.0
 10
19.48442493584252
 20
-28.59387358480032
 30
0.0
 10
18.83518906915912
 20
-28.73469380210643
 30
0.0
 10
18.5065788609547
 20
-28.7829930118328
 30
0.0
 10
17.8447949089496
 20
-28.85431664991368
 30
0.0
 10
17.51196619893948
 20
-28.88003707251692
 30
0.0
 10
16.85129931872395
 20
-28.95460866375125
 30
0.0
 10
16.52364307552154
 20
-29.00360868328616
 30
0.0
 10
15.87748394951333
 20
-29.14165975971968
 30
0.0
 10
15.55890038130869
 20
-29.23035777316943
 30
0.0
 10
14.93315488672634
 20
-29.45772982895248
 30
0.0
 10
14.62567535994236
 20
-29.59758843898935
 30
0.0
 10
14.33264312960963
 20
-29.76204012807413
 30
0.0
  0
LINE
  5
8E
330
1F
100
AcDbEntity
  8
0
  6
Continuous
 62
     7
370
    25
100
AcDbLine
 10
21.8562398351
 20
-27.4008659952
 30
0.0
 11
21.8499602691
 21
-27.4058742283
 31
0.0
  0
SPLINE
  5
8F
330
1F
100
AcDbEntity
  8
0
  6
Continuous
 62
     7
370
    25
100
AcDbSpline
210
0.0
220
0.0
230
1.0
 70
     8
 71
     3
 72
    20
 73
    16
 74
     0
 42
0.00000001
 43
0.00000001
 40
0.0
 40
0.0
 40
0.0
 40
0.0
 40
0.2499999999999992
 40
0.2499999999999992
 40
0.3749999999999993
 40
0.3749999999999993
 40
0.4999999999999994
 40
0.4999999999999994
 40
0.6249999999999996
 40
0.6249999999999996
 40
0.7499999999999997
 40
0.7499999999999997
 40
0.8749999999999999
 40
0.8749999999999999
 40
1.0
 40
1.0
 40
1.0
 40
1.0
 10
25.82653050907068
 20
-20.59597080814561
 30
0.0
 10
25.37545641806745
 20
-21.09415948198185
 30
0.0
 10
25.02491016831985
 20
-21.65081655754086
 30
0.0
 10
24.60597549570138
 20
-22.54796781192638
 30
0.0
 10
24.48403162572
 20
-22.85798698706607
 30
0.0
 10
24.2628986744253
 20
-23.48785208668523
 30
0.0
 10
24.16360887845189
 20
-23.80707748578504
 30
0.0
 10
23.94652529539836
 20
-24.43848411430122
 30
0.0
 10
23.82619757580522
 20
-24.74970071665497
 30
0.0
 10
23.54282921134474
 20
-25.35587380258208
 30
0.0
 10
23.38047405150197
 20
-25.65078687643408
 30
0.0
 10
23.01526401662739
 20
-26.20520134465351
 30
0.0
 10
22.81248807309957
 20
-26.46729394545926
 30
0.0
 10
22.36518536490144
 20
-26.96019410101619
 30
0.0
 10
22.11931607804322
 20
-27.19160466860811
 30
0.0
 10
21.85623959428593
 20
-27.40086574095475
 30
0.0
  0
SPLINE
  5
90
330
1F
100
AcDbEntity
  8
0
  6
Continuous
 62
     7
370
    25
100
AcDbSpline
210
0.0
220
0.0
230
1.0
 70
     8
 71
     3
 72
    20
 73
    16
 74
     0
 42
0.00000001
 43
0.00000001
 40
0.0
 40
0.0
 40
0.0
 40
0.0
 40
0.2499999999999987
 40
0.2499999999999987
 40
0.3749999999999989
 40
0.3749999999999989
 40
0.4999999999999991
 40
0.4999999999999991
 40
0.6249999999999993
 40
0.6249999999999993
 40
0.7499999999999996
 40
0.7499999999999996
 40
0.8749999999999998
 40
0.8749999999999998
 40
1.0
 40
1.0
 40
1.0
 40
1.0
 10
31.57709715133337
 20
-15.21149701621832
 30
0.0
 10
31.28614149367505
 20
-15.81760230651084
 30
0.0
 10
30.90573380198619
 20
-16.35974462628329
 30
0.0
 10
30.21206683946247
 20
-17.08496692042788
 30
0.0
 10
29.96127706300521
 20
-17.30821476692405
 30
0.0
 10
29.43743536162584
 20
-17.71678228409393
 30
0.0
 10
29.16232403607115
 20
-17.90287699424964
 30
0.0
 10
28.59702346481505
 20
-18.25427466729005
 30
0.0
 10
28.30831483188257
 20
-18.42185693250974
 30
0.0
 10
27.74542994159081
 20
-18.77569623094092
 30
0.0
 10
27.47148217878418
 20
-18.96200843901441
 30
0.0
 10
26.94921103977193
 20
-19.36674609871891
 30
0.0
 10
26.70066178872218
 20
-19.58488847727601
 30
0.0
 10
26.23553761660729
 20
-20.06124441589293
 30
0.0
 10
26.01919051212815
 20
-20.32066303622748
 30
0.0
 10
25.82653050907068
 20
-20.59597080814561
 30
0.0
  0
LINE
  5
91
330
1F
100
AcDbEntity
  8
0
  6
Continuous
 62
     7
370
    25
100
AcDbLine
 10
31.5805815266
 20
-15.204260028
 30
0.0
 11
31.5770971513
 21
-15.2114970162
 31
0.0
  0
MTEXT
  5
93
330
1F
100
AcDbEntity
  8
0
  6
Continuous
 62
     7
100
AcDbMText
 10
-35.0500026751
 20
-35.3487229941
 30
0.0
 40
4.83362
 41
0.0
 71
     1
 72
     1
  1
SOLIDWORKS Educational Product.
  7
SLDTEXTSTYLE0
 73
     1
 44
1.0
  0
MTEXT
  5
94
330
1F
100
AcDbEntity
  8
0
  6
Continuous
 62
     7
100
AcDbMText
 10
-35.0500026751
 20
-42.5991529941
 30
0.0
 40
4.83362
 41
0.0
 71
     1
 72
     1
  1
For Instructional Use Only.
  7
SLDTEXTSTYLE0
 73
     1
 44
1.0
  0
ENDSEC
  0
SECTION
  2
OBJECTS
  0
DICTIONARY
  5
C
330
0
100
AcDbDictionary
281
     1
  3
ACAD_GROUP
350
D
  3
ACAD_LAYOUT
350
1A
  3
ACAD_MLINESTYLE
350
17
  3
ACAD_PLOTSETTINGS
350
19
  3
ACAD_PLOTSTYLENAME
350
E
  3
ACAD_SCALELIST
350
47
  3
DWGPROPS
350
95
  0
DICTIONARY
  5
D
102
{ACAD_REACTORS
330
C
102
}
330
C
100
AcDbDictionary
281
     1
  0
DICTIONARY
  5
1A
102
{ACAD_REACTORS
330
C
102
}
330
C
100
AcDbDictionary
281
     1
  3
Layout1
350
1E
  3
Layout2
350
26
  3
Model
350
22
  0
DICTIONARY
  5
17
102
{ACAD_REACTORS
330
C
102
}
330
C
100
AcDbDictionary
281
     1
  3
Standard
350
18
  0
DICTIONARY
  5
19
102
{ACAD_REACTORS
330
C
102
}
330
C
100
AcDbDictionary
281
     1
  0
ACDBDICTIONARYWDFLT
  5
E
102
{ACAD_REACTORS
330
C
102
}
330
C
100
AcDbDictionary
281
     1
  3
Normal
350
F
100
AcDbDictionaryWithDefault
340
F
  0
DICTIONARY
  5
47
102
{ACAD_REACTORS
330
C
102
}
330
C
100
AcDbDictionary
281
     1
  3
A0
350
48
  3
A1
350
49
  3
A2
350
4A
  3
A3
350
4B
  3
A4
350
4C
  3
A5
350
4D
  3
A6
350
4E
  3
A7
350
4F
  3
A8
350
50
  3
A9
350
51
  3
B0
350
52
  3
B1
350
53
  3
B2
350
54
  3
B3
350
55
  3
B4
350
56
  3
B5
350
57
  3
B6
350
58
  0
XRECORD
  5
95
102
{ACAD_REACTORS
330
C
102
}
330
C
100
AcDbXrecord
280
     1
  1
DWGPROPS COOKIE
  2

  3

  4

  6

  7

  8
dampy
  9

300
=
301
=
302
=
303
=
304
=
305
=
306
=
307
=
308
=
309
=
 40
0.0
 41
2460701.107099827
 42
2460701.107124931
  1

 90
        0
  0
LAYOUT
  5
1E
102
{ACAD_REACTORS
330
1A
102
}
330
1A
100
AcDbPlotSettings
  1

  2
none_device
  4

  6

 40
0.0
 41
0.0
 42
0.0
 43
0.0
 44
0.0
 45
0.0
 46
0.0
 47
0.0
 48
0.0
 49
0.0
140
0.0
141
0.0
142
1.0
143
1.0
 70
   688
 72
     1
 73
     0
 74
     5
  7

 75
    16
147
1.0
148
0.0
149
0.0
100
AcDbLayout
  1
Layout1
 70
     1
 71
     1
 10
0.0
 20
0.0
 11
420.0
 21
297.0
 12
0.0
 22
0.0
 32
0.0
 14
1.0000000000E+20
 24
1.0000000000E+20
 34
1.0000000000E+20
 15
-1.0000000000E+20
 25
-1.0000000000E+20
 35
-1.0000000000E+20
146
0.0
 13
0.0
 23
0.0
 33
0.0
 16
1.0
 26
0.0
 36
0.0
 17
0.0
 27
1.0
 37
0.0
 76
     0
330
1B
  0
LAYOUT
  5
26
102
{ACAD_REACTORS
330
1A
102
}
330
1A
100
AcDbPlotSettings
  1

  2
none_device
  4

  6

 40
0.0
 41
0.0
 42
0.0
 43
0.0
 44
0.0
 45
0.0
 46
0.0
 47
0.0
 48
0.0
 49
0.0
140
0.0
141
0.0
142
1.0
143
1.0
 70
   688
 72
     1
 73
     0
 74
     5
  7

 75
    16
147
1.0
148
0.0
149
0.0
100
AcDbLayout
  1
Layout2
 70
     1
 71
     2
 10
0.0
 20
0.0
 11
0.0
 21
0.0
 12
0.0
 22
0.0
 32
0.0
 14
0.0
 24
0.0
 34
0.0
 15
0.0
 25
0.0
 35
0.0
146
0.0
 13
0.0
 23
0.0
 33
0.0
 16
1.0
 26
0.0
 36
0.0
 17
0.0
 27
1.0
 37
0.0
 76
     0
330
23
  0
LAYOUT
  5
22
102
{ACAD_REACTORS
330
1A
102
}
330
1A
100
AcDbPlotSettings
  1

  2
none_device
  4
ANSI_A_(11.00_x_8.50_Inches)
  6

 40
6.35
 41
19.05
 42
6.35000508
 43
19.05000254
 44
279.4
 45
215.9
 46
133.34999746
 47
88.89999873
 48
0.0
 49
0.0
140
0.0
141
0.0
142
0.1225634538
143
1.0
 70
  1696
 72
     0
 73
     0
 74
     0
  7

 75
     0
147
0.0179189148
148
-1300.4909072572
149
0.0
100
AcDbLayout
  1
Model
 70
     1
 71
     0
 10
0.0
 20
0.0
 11
420.0
 21
297.0
 12
0.0
 22
0.0
 32
0.0
 14
-35.0500026751
 24
-34.3291566024
 34
0.0
 15
35.0500026751
 25
34.3291566024
 35
0.0
146
0.0
 13
0.0
 23
0.0
 33
0.0
 16
1.0
 26
0.0
 36
0.0
 17
0.0
 27
1.0
 37
0.0
 76
     0
330
1F
331
29
  0
MLINESTYLE
  5
18
102
{ACAD_REACTORS
330
17
102
}
330
17
100
AcDbMlineStyle
  2
Standard
 70
     0
  3

 62
   256
 51
90.0
 52
90.0
 71
     2
 49
0.5
 62
   256
  6
BYLAYER
 49
-0.5
 62
   256
  6
BYLAYER
  0
ACDBPLACEHOLDER
  5
F
102
{ACAD_REACTORS
330
E
102
}
330
E
  0
SCALE
  5
48
102
{ACAD_REACTORS
330
47
102
}
330
47
100
AcDbScale
 70
     0
300
1:1
140
1.0
141
1.0
290
     1
  0
SCALE
  5
49
102
{ACAD_REACTORS
330
47
102
}
330
47
100
AcDbScale
 70
     0
300
1:2
140
1.0
141
2.0
290
     0
  0
SCALE
  5
4A
102
{ACAD_REACTORS
330
47
102
}
330
47
100
AcDbScale
 70
     0
300
1:4
140
1.0
141
4.0
290
     0
  0
SCALE
  5
4B
102
{ACAD_REACTORS
330
47
102
}
330
47
100
AcDbScale
 70
     0
300
1:5
140
1.0
141
5.0
290
     0
  0
SCALE
  5
4C
102
{ACAD_REACTORS
330
47
102
}
330
47
100
AcDbScale
 70
     0
300
1:8
140
1.0
141
8.0
290
     0
  0
SCALE
  5
4D
102
{ACAD_REACTORS
330
47
102
}
330
47
100
AcDbScale
 70
     0
300
1:10
140
1.0
141
10.0
290
     0
  0
SCALE
  5
4E
102
{ACAD_REACTORS
330
47
102
}
330
47
100
AcDbScale
 70
     0
300
1:16
140
1.0
141
16.0
290
     0
  0
SCALE
  5
4F
102
{ACAD_REACTORS
330
47
102
}
330
47
100
AcDbScale
 70
     0
300
1:20
140
1.0
141
20.0
290
     0
  0
SCALE
  5
50
102
{ACAD_REACTORS
330
47
102
}
330
47
100
AcDbScale
 70
     0
300
1:30
140
1.0
141
30.0
290
     0
  0
SCALE
  5
51
102
{ACAD_REACTORS
330
47
102
}
330
47
100
AcDbScale
 70
     0
300
1:40
140
1.0
141
40.0
290
     0
  0
SCALE
  5
52
102
{ACAD_REACTORS
330
47
102
}
330
47
100
AcDbScale
 70
     0
300
1:50
140
1.0
141
50.0
290
     0
  0
SCALE
  5
53
102
{ACAD_REACTORS
330
47
102
}
330
47
100
AcDbScale
 70
     0
300
1:100
140
1.0
141
100.0
290
     0
  0
SCALE
  5
54
102
{ACAD_REACTORS
330
47
102
}
330
47
100
AcDbScale
 70
     0
300
2:1
140
2.0
141
1.0
290
     0
  0
SCALE
  5
55
102
{ACAD_REACTORS
330
47
102
}
330
47
100
AcDbScale
 70
     0
300
4:1
140
4.0
141
1.0
290
     0
  0
SCALE
  5
56
102
{ACAD_REACTORS
330
47
102
}
330
47
100
AcDbScale
 70
     0
300
8:1
140
8.0
141
1.0
290
     0
  0
SCALE
  5
57
102
{ACAD_REACTORS
330
47
102
}
330
47
100
AcDbScale
 70
     0
300
10:1
140
10.0
141
1.0
290
     0
  0
SCALE
  5
58
102
{ACAD_REACTORS
330
47
102
}
330
47
100
AcDbScale
 70
     0
300
100:1
140
100.0
141
1.0
290
     0
  0
ENDSEC
  0
EOF
