  0
SECTION
  2
HEADER
  9
$ACADVER
  1
AC1015
  9
$ACADMAINTVER
 70
     6
  9
$DWGCODEPAGE
  3
ANSI_1252
  9
$INSBASE
 10
0.0
 20
0.0
 30
0.0
  9
$EXTMIN
 10
-34.9500027526
 20
-34.2289039652
 30
0.0
  9
$EXTMAX
 10
34.9500027526
 20
34.2289039653
 30
0.0
  9
$LIMMIN
 10
0.0
 20
0.0
  9
$LIMMAX
 10
420.0
 20
297.0
  9
$ORTHOMODE
 70
     0
  9
$REGENMODE
 70
     1
  9
$FILLMODE
 70
     1
  9
$QTEXTMODE
 70
     0
  9
$MIRRTEXT
 70
     1
  9
$LTSCALE
 40
1.0
  9
$ATTMODE
 70
     1
  9
$TEXTSIZE
 40
3.175
  9
$TRACEWID
 40
1.0
  9
$TEXTSTYLE
  7
Standard
  9
$CLAYER
  8
0
  9
$CELTYPE
  6
ByLayer
  9
$CECOLOR
 62
   256
  9
$CELTSCALE
 40
1.0
  9
$DISPSILH
 70
     0
  9
$DIMSCALE
 40
1.0
  9
$DIMASZ
 40
3.302
  9
$DIMEXO
 40
0.0
  9
$DIMDLI
 40
3.75
  9
$DIMRND
 40
0.0
  9
$DIMDLE
 40
0.0
  9
$DIMEXE
 40
3.175
  9
$DIMTP
 40
0.0
  9
$DIMTM
 40
0.0
  9
$DIMTXT
 40
3.175
  9
$DIMCEN
 40
2.5
  9
$DIMTSZ
 40
0.0
  9
$DIMTOL
 70
     0
  9
$DIMLIM
 70
     0
  9
$DIMTIH
 70
     1
  9
$DIMTOH
 70
     1
  9
$DIMSE1
 70
     0
  9
$DIMSE2
 70
     0
  9
$DIMTAD
 70
     0
  9
$DIMZIN
 70
     1
  9
$DIMBLK
  1

  9
$DIMASO
 70
     1
  9
$DIMSHO
 70
     1
  9
$DIMPOST
  1

  9
$DIMAPOST
  1

  9
$DIMALT
 70
     0
  9
$DIMALTD
 70
     3
  9
$DIMALTF
 40
0.0393700787
  9
$DIMLFAC
 40
1.0
  9
$DIMTOFL
 70
     1
  9
$DIMTVP
 40
0.0
  9
$DIMTIX
 70
     0
  9
$DIMSOXD
 70
     0
  9
$DIMSAH
 70
     0
  9
$DIMBLK1
  1

  9
$DIMBLK2
  1

  9
$DIMSTYLE
  2
ISO-25
  9
$DIMCLRD
 70
     0
  9
$DIMCLRE
 70
     0
  9
$DIMCLRT
 70
     0
  9
$DIMTFAC
 40
1.0
  9
$DIMGAP
 40
1.524
  9
$DIMJUST
 70
     0
  9
$DIMSD1
 70
     0
  9
$DIMSD2
 70
     0
  9
$DIMTOLJ
 70
     0
  9
$DIMTZIN
 70
     1
  9
$DIMALTZ
 70
     0
  9
$DIMALTTZ
 70
     0
  9
$DIMUPT
 70
     0
  9
$DIMDEC
 70
     2
  9
$DIMTDEC
 70
     2
  9
$DIMALTU
 70
     2
  9
$DIMALTTD
 70
     3
  9
$DIMTXSTY
  7
Standard
  9
$DIMAUNIT
 70
     0
  9
$DIMADEC
 70
     2
  9
$DIMALTRND
 40
0.0
  9
$DIMAZIN
 70
     0
  9
$DIMDSEP
 70
    44
  9
$DIMATFIT
 70
     3
  9
$DIMFRAC
 70
     0
  9
$DIMLDRBLK
  1

  9
$DIMLUNIT
 70
     2
  9
$DIMLWD
 70
    -2
  9
$DIMLWE
 70
    -2
  9
$DIMTMOVE
 70
     0
  9
$LUNITS
 70
     2
  9
$LUPREC
 70
     6
  9
$SKETCHINC
 40
1.0
  9
$FILLETRAD
 40
0.0
  9
$AUNITS
 70
     0
  9
$AUPREC
 70
     2
  9
$MENU
  1
.
  9
$ELEVATION
 40
0.0
  9
$PELEVATION
 40
0.0
  9
$THICKNESS
 40
0.0
  9
$LIMCHECK
 70
     0
  9
$CHAMFERA
 40
0.0
  9
$CHAMFERB
 40
0.0
  9
$CHAMFERC
 40
0.0
  9
$CHAMFERD
 40
0.0
  9
$SKPOLY
 70
     0
  9
$TDCREATE
 40
2460701.709522825
  9
$TDUCREATE
 40
2460701.917856158
  9
$TDUPDATE
 40
2460701.709549051
  9
$TDUUPDATE
 40
2460701.917882385
  9
$TDINDWG
 40
0.0000000116
  9
$TDUSRTIMER
 40
0.0000000116
  9
$USRTIMER
 70
     1
  9
$ANGBASE
 50
0.0
  9
$ANGDIR
 70
     0
  9
$PDMODE
 70
     0
  9
$PDSIZE
 40
-1.0
  9
$PLINEWID
 40
0.0
  9
$SPLFRAME
 70
     0
  9
$SPLINETYPE
 70
     6
  9
$SPLINESEGS
 70
     8
  9
$HANDSEED
  5
96
  9
$SURFTAB1
 70
     6
  9
$SURFTAB2
 70
     6
  9
$SURFTYPE
 70
     6
  9
$SURFU
 70
     6
  9
$SURFV
 70
     6
  9
$UCSBASE
  2

  9
$UCSNAME
  2

  9
$UCSORG
 10
0.0
 20
0.0
 30
0.0
  9
$UCSXDIR
 10
1.0
 20
0.0
 30
0.0
  9
$UCSYDIR
 10
0.0
 20
1.0
 30
0.0
  9
$UCSORTHOREF
  2

  9
$UCSORTHOVIEW
 70
     0
  9
$UCSORGTOP
 10
0.0
 20
0.0
 30
0.0
  9
$UCSORGBOTTOM
 10
0.0
 20
0.0
 30
0.0
  9
$UCSORGLEFT
 10
0.0
 20
0.0
 30
0.0
  9
$UCSORGRIGHT
 10
0.0
 20
0.0
 30
0.0
  9
$UCSORGFRONT
 10
0.0
 20
0.0
 30
0.0
  9
$UCSORGBACK
 10
0.0
 20
0.0
 30
0.0
  9
$PUCSBASE
  2

  9
$PUCSNAME
  2

  9
$PUCSORG
 10
0.0
 20
0.0
 30
0.0
  9
$PUCSXDIR
 10
1.0
 20
0.0
 30
0.0
  9
$PUCSYDIR
 10
0.0
 20
1.0
 30
0.0
  9
$PUCSORTHOREF
  2

  9
$PUCSORTHOVIEW
 70
     0
  9
$PUCSORGTOP
 10
0.0
 20
0.0
 30
0.0
  9
$PUCSORGBOTTOM
 10
0.0
 20
0.0
 30
0.0
  9
$PUCSORGLEFT
 10
0.0
 20
0.0
 30
0.0
  9
$PUCSORGRIGHT
 10
0.0
 20
0.0
 30
0.0
  9
$PUCSORGFRONT
 10
0.0
 20
0.0
 30
0.0
  9
$PUCSORGBACK
 10
0.0
 20
0.0
 30
0.0
  9
$USERI1
 70
     0
  9
$USERI2
 70
     0
  9
$USERI3
 70
     0
  9
$USERI4
 70
     0
  9
$USERI5
 70
     0
  9
$USERR1
 40
0.0
  9
$USERR2
 40
0.0
  9
$USERR3
 40
0.0
  9
$USERR4
 40
0.0
  9
$USERR5
 40
0.0
  9
$WORLDVIEW
 70
     1
  9
$SHADEDGE
 70
     3
  9
$SHADEDIF
 70
    70
  9
$TILEMODE
 70
     1
  9
$MAXACTVP
 70
    64
  9
$PINSBASE
 10
0.0
 20
0.0
 30
0.0
  9
$PLIMCHECK
 70
     0
  9
$PEXTMIN
 10
1.0000000000E+20
 20
1.0000000000E+20
 30
1.0000000000E+20
  9
$PEXTMAX
 10
-1.0000000000E+20
 20
-1.0000000000E+20
 30
-1.0000000000E+20
  9
$PLIMMIN
 10
0.0
 20
0.0
  9
$PLIMMAX
 10
420.0
 20
297.0
  9
$UNITMODE
 70
     0
  9
$VISRETAIN
 70
     1
  9
$PLINEGEN
 70
     0
  9
$PSLTSCALE
 70
     1
  9
$TREEDEPTH
 70
  3020
  9
$CMLSTYLE
  2
Standard
  9
$CMLJUST
 70
     0
  9
$CMLSCALE
 40
20.0
  9
$PROXYGRAPHICS
 70
     1
  9
$MEASUREMENT
 70
     1
  9
$CELWEIGHT
370
    -1
  9
$ENDCAPS
280
     0
  9
$JOINSTYLE
280
     0
  9
$LWDISPLAY
290
     1
  9
$INSUNITS
 70
     4
  9
$HYPERLINKBASE
  1

  9
$STYLESHEET
  1

  9
$XEDIT
290
     1
  9
$CEPSNTYPE
380
     0
  9
$PSTYLEMODE
290
     1
  9
$FINGERPRINTGUID
  2
{c00e0fdb-791a-4473-b07a-6e06fc23e7ec}
  9
$VERSIONGUID
  2
{FAEB1C32-E019-11D5-929B-00C0DF256EC4}
  9
$EXTNAMES
290
     1
  9
$PSVPSCALE
 40
0.0
  9
$OLESTARTUP
290
     0
  0
ENDSEC
  0
SECTION
  2
CLASSES
  0
CLASS
  1
ACDBDICTIONARYWDFLT
  2
AcDbDictionaryWithDefault
  3
ObjectDBX Classes
 90
        0
280
     0
281
     0
  0
CLASS
  1
VISUALSTYLE
  2
AcDbVisualStyle
  3
ObjectDBX Classes
 90
     4095
280
     0
281
     0
  0
CLASS
  1
MATERIAL
  2
AcDbMaterial
  3
ObjectDBX Classes
 90
     1153
280
     0
281
     0
  0
CLASS
  1
SCALE
  2
AcDbScale
  3
ObjectDBX Classes
 90
     1153
280
     0
281
     0
  0
CLASS
  1
TABLESTYLE
  2
AcDbTableStyle
  3
ObjectDBX Classes
 90
     4095
280
     0
281
     0
  0
CLASS
  1
MLEADERSTYLE
  2
AcDbMLeaderStyle
  3
ACDB_MLEADERSTYLE_CLASS
 90
     4095
280
     0
281
     0
  0
CLASS
  1
SUN
  2
AcDbSun
  3
SCENEOE
 90
     1153
280
     0
281
     0
  0
CLASS
  1
ACDBPLACEHOLDER
  2
AcDbPlaceHolder
  3
ObjectDBX Classes
 90
        0
280
     0
281
     0
  0
CLASS
  1
LAYOUT
  2
AcDbLayout
  3
ObjectDBX Classes
 90
        0
280
     0
281
     0
  0
ENDSEC
  0
SECTION
  2
TABLES
  0
TABLE
  2
VPORT
  5
8
330
0
100
AcDbSymbolTable
 70
     1
  0
VPORT
  5
29
330
8
100
AcDbSymbolTableRecord
100
AcDbViewportTableRecord
  2
*Active
 70
     0
 10
0.0
 20
0.0
 11
1.0
 21
1.0
 12
0.0
 22
0.0
 13
0.0
 23
0.0
 14
10.0
 24
10.0
 15
10.0
 25
10.0
 16
0.0
 26
0.0
 36
1.0
 17
0.0
 27
0.0
 37
0.0
 40
69.8269640891
 41
1.0210669552
 42
50.0
 43
0.0
 44
0.0
 50
0.0
 51
0.0
 71
     0
 72
   100
 73
     1
 74
     3
 75
     0
 76
     0
 77
     0
 78
     0
281
     0
 65
     1
110
0.0
120
0.0
130
0.0
111
1.0
121
0.0
131
0.0
112
0.0
122
1.0
132
0.0
 79
     0
146
0.0
  0
ENDTAB
  0
TABLE
  2
LTYPE
  5
5
330
0
100
AcDbSymbolTable
 70
     6
  0
LTYPE
  5
14
330
5
100
AcDbSymbolTableRecord
100
AcDbLinetypeTableRecord
  2
ByBlock
 70
     0
  3

 72
    65
 73
     0
 40
0.0
  0
LTYPE
  5
15
330
5
100
AcDbSymbolTableRecord
100
AcDbLinetypeTableRecord
  2
ByLayer
 70
     0
  3

 72
    65
 73
     0
 40
0.0
  0
LTYPE
  5
16
330
5
100
AcDbSymbolTableRecord
100
AcDbLinetypeTableRecord
  2
Continuous
 70
     0
  3
Solid line
 72
    65
 73
     0
 40
0.0
  0
LTYPE
  5
5E
330
5
100
AcDbSymbolTableRecord
100
AcDbLinetypeTableRecord
  2
HIDDEN
 70
     0
  3
Hidden __ __ __ __ __ __ __ __ __ __ __ __ __ __
 72
    65
 73
     2
 40
1.905
 49
1.27
 74
     0
 49
-0.635
 74
     0
  0
LTYPE
  5
5F
330
5
100
AcDbSymbolTableRecord
100
AcDbLinetypeTableRecord
  2
PHANTOM
 70
     0
  3
Phantom ______  __  __  ______  __  __  ______
 72
    65
 73
     6
 40
12.7
 49
6.35
 74
     0
 49
-1.27
 74
     0
 49
1.27
 74
     0
 49
-1.27
 74
     0
 49
1.27
 74
     0
 49
-1.27
 74
     0
  0
LTYPE
  5
60
330
5
100
AcDbSymbolTableRecord
100
AcDbLinetypeTableRecord
  2
CENTER
 70
     0
  3
Center ____ _ ____ _ ____ _ ____ _ ____ _ ____
 72
    65
 73
     4
 40
10.16
 49
6.35
 74
     0
 49
-1.27
 74
     0
 49
1.27
 74
     0
 49
-1.27
 74
     0
  0
LTYPE
  5
61
330
5
100
AcDbSymbolTableRecord
100
AcDbLinetypeTableRecord
  2
CENTERX2
 70
     0
  3
Center (2x) ________  __  ________  __  _____
 72
    65
 73
     4
 40
20.32
 49
12.7
 74
     0
 49
-2.54
 74
     0
 49
2.54
 74
     0
 49
-2.54
 74
     0
  0
LTYPE
  5
62
330
5
100
AcDbSymbolTableRecord
100
AcDbLinetypeTableRecord
  2
DOT2
 70
     0
  3
Dot (.5x) ........................................
 72
    65
 73
     2
 40
0.635
 49
0.0
 74
     0
 49
-0.635
 74
     0
  0
ENDTAB
  0
TABLE
  2
LAYER
  5
2
330
0
100
AcDbSymbolTable
 70
     1
  0
LAYER
  5
10
330
2
100
AcDbSymbolTableRecord
100
AcDbLayerTableRecord
  2
0
 70
     0
 62
     7
  6
Continuous
370
    -3
390
F
  0
ENDTAB
  0
TABLE
  2
STYLE
  5
3
330
0
100
AcDbSymbolTable
 70
     2
  0
STYLE
  5
11
330
3
100
AcDbSymbolTableRecord
100
AcDbTextStyleTableRecord
  2
Standard
 70
     0
 40
0.0
 41
1.0
 50
0.0
 71
     0
 42
3.175
  3
txt
  4

  0
STYLE
  5
92
330
3
100
AcDbSymbolTableRecord
100
AcDbTextStyleTableRecord
  2
SLDTEXTSTYLE0
 70
     0
 40
0.0
 41
0.7
 50
0.0
 71
     0
 42
3.175
  3
TXT
  4

  0
ENDTAB
  0
TABLE
  2
VIEW
  5
6
330
0
100
AcDbSymbolTable
 70
     0
  0
ENDTAB
  0
TABLE
  2
UCS
  5
7
330
0
100
AcDbSymbolTable
 70
     0
  0
ENDTAB
  0
TABLE
  2
APPID
  5
9
330
0
100
AcDbSymbolTable
 70
     1
  0
APPID
  5
12
330
9
100
AcDbSymbolTableRecord
100
AcDbRegAppTableRecord
  2
ACAD
 70
     0
  0
ENDTAB
  0
TABLE
  2
DIMSTYLE
  5
A
330
0
100
AcDbSymbolTable
 70
     1
100
AcDbDimStyleTable
  0
DIMSTYLE
105
27
330
A
100
AcDbSymbolTableRecord
100
AcDbDimStyleTableRecord
  2
ISO-25
 70
     0
 41
2.5
 42
0.625
 43
3.75
 44
1.25
 73
     0
 74
     0
 77
     1
 78
     8
140
2.5
141
2.5
143
0.0393700787
147
0.625
171
     3
172
     1
178
     0
271
     2
272
     2
274
     3
278
    44
283
     0
284
     8
340
11
  0
ENDTAB
  0
TABLE
  2
BLOCK_RECORD
  5
1
330
0
100
AcDbSymbolTable
 70
     1
  0
BLOCK_RECORD
  5
1F
330
1
100
AcDbSymbolTableRecord
100
AcDbBlockTableRecord
  2
*Model_Space
340
22
  0
BLOCK_RECORD
  5
1B
330
1
100
AcDbSymbolTableRecord
100
AcDbBlockTableRecord
  2
*Paper_Space
340
1E
  0
BLOCK_RECORD
  5
23
330
1
100
AcDbSymbolTableRecord
100
AcDbBlockTableRecord
  2
*Paper_Space0
340
26
  0
ENDTAB
  0
ENDSEC
  0
SECTION
  2
BLOCKS
  0
BLOCK
  5
20
330
1F
100
AcDbEntity
  8
0
100
AcDbBlockBegin
  2
*Model_Space
 70
     0
 10
0.0
 20
0.0
 30
0.0
  3
*Model_Space
  1

  0
ENDBLK
  5
21
330
1F
100
AcDbEntity
  8
0
100
AcDbBlockEnd
  0
BLOCK
  5
1C
330
1B
100
AcDbEntity
 67
     1
  8
0
100
AcDbBlockBegin
  2
*Paper_Space
 70
     0
 10
0.0
 20
0.0
 30
0.0
  3
*Paper_Space
  1

  0
ENDBLK
  5
1D
330
1B
100
AcDbEntity
 67
     1
  8
0
100
AcDbBlockEnd
  0
BLOCK
  5
24
330
23
100
AcDbEntity
  8
0
100
AcDbBlockBegin
  2
*Paper_Space0
 70
     0
 10
0.0
 20
0.0
 30
0.0
  3
*Paper_Space0
  1

  0
ENDBLK
  5
25
330
23
100
AcDbEntity
  8
0
100
AcDbBlockEnd
  0
ENDSEC
  0
SECTION
  2
ENTITIES
  0
CIRCLE
  5
63
330
1F
100
AcDbEntity
  8
0
  6
Continuous
 62
     7
370
    25
100
AcDbCircle
 10
0.0
 20
0.0
 30
0.0
 40
10.36
  0
CIRCLE
  5
64
330
1F
100
AcDbEntity
  8
0
  6
Continuous
 62
     7
370
    25
100
AcDbCircle
 10
22.5
 20
0.0
 30
0.0
 40
6.000000000000003
  0
CIRCLE
  5
65
330
1F
100
AcDbEntity
  8
0
  6
Continuous
 62
     7
370
    25
100
AcDbCircle
 10
-22.5
 20
0.0
 30
0.0
 40
6.000000000000005
  0
CIRCLE
  5
66
330
1F
100
AcDbEntity
  8
0
  6
Continuous
 62
     7
370
    25
100
AcDbCircle
 10
0.0
 20
-22.5
 30
0.0
 40
6.000000000000004
  0
CIRCLE
  5
67
330
1F
100
AcDbEntity
  8
0
  6
Continuous
 62
     7
370
    25
100
AcDbCircle
 10
0.0
 20
22.5
 30
0.0
 40
6.0
  0
SPLINE
  5
68
330
1F
100
AcDbEntity
  8
0
  6
Continuous
 62
     7
370
    25
100
AcDbSpline
210
0.0
220
0.0
230
1.0
 70
     8
 71
     3
 72
    20
 73
    16
 74
     0
 42
0.00000001
 43
0.00000001
 40
0.0
 40
0.0
 40
0.0
 40
0.0
 40
0.2500000000000005
 40
0.2500000000000005
 40
0.3750000000000004
 40
0.3750000000000004
 40
0.5000000000000003
 40
0.5000000000000003
 40
0.6250000000000002
 40
0.6250000000000002
 40
0.7500000000000001
 40
0.7500000000000001
 40
0.8750000000000001
 40
0.8750000000000001
 40
1.0
 40
1.0
 40
1.0
 40
1.0
 10
32.1074759411777
 20
-7.328321862712595
 30
0.0
 10
31.91862237814586
 20
-7.970741289734486
 30
0.0
 10
31.8426442249609
 20
-8.622579640683348
 30
0.0
 10
31.85096392758548
 20
-9.610541438480812
 30
0.0
 10
31.87415486082369
 20
-9.942275455181727
 30
0.0
 10
31.94625584632143
 20
-10.60400969531721
 30
0.0
 10
31.99487925935854
 20
-10.93376914614701
 30
0.0
 10
32.07463922178937
 20
-11.59482863348455
 30
0.0
 10
32.10310655475504
 20
-11.92636382688972
 30
0.0
 10
32.11390310199785
 20
-12.59349896346351
 30
0.0
 10
32.09732542331
 20
-12.928443034238
 30
0.0
 10
32.01175719548121
 20
-13.58449880862987
 30
0.0
 10
31.94400276545135
 20
-13.90782636402283
 30
0.0
 10
31.75669410910854
 20
-14.54473084815555
 30
0.0
 10
31.63624829536696
 20
-14.85915185596858
 30
0.0
 10
31.49048456551381
 20
-15.16087162961336
 30
0.0
  0
SPLINE
  5
69
330
1F
100
AcDbEntity
  8
0
  6
Continuous
 62
     7
370
    25
100
AcDbSpline
210
0.0
220
0.0
230
1.0
 70
     8
 71
     3
 72
    20
 73
    16
 74
     0
 42
0.00000001
 43
0.00000001
 40
0.0
 40
0.0
 40
0.0
 40
0.0
 40
0.25
 40
0.25
 40
0.375
 40
0.375
 40
0.5
 40
0.5
 40
0.625
 40
0.625
 40
0.75
 40
0.75
 40
0.875
 40
0.875
 40
1.0
 40
1.0
 40
1.0
 40
1.0
 10
34.95000275259373
 20
-0.0044207926755446
 30
0.0
 10
34.95083741929339
 20
-0.6746771706094211
 30
0.0
 10
34.84229143289016
 20
-1.325936242979839
 30
0.0
 10
34.52895284430792
 20
-2.276682504384334
 30
0.0
 10
34.39883049432597
 20
-2.584673006519114
 30
0.0
 10
34.10226940170119
 20
-3.176826749262183
 30
0.0
 10
33.93393704831166
 20
-3.462118149490756
 30
0.0
 10
33.57663861199742
 20
-4.021602474203586
 30
0.0
 10
33.38999755625171
 20
-4.297192426622992
 30
0.0
 10
33.03894914229184
 20
-4.859369826724324
 30
0.0
 10
32.87468944469448
 20
-5.145910951773302
 30
0.0
 10
32.58256632572681
 20
-5.73661029992653
 30
0.0
 10
32.45450279593743
 20
-6.04067166340652
 30
0.0
 10
32.24375605151917
 20
-6.670760084246733
 30
0.0
 10
32.16183055312484
 20
-6.997571162189745
 30
0.0
 10
32.1074759411777
 20
-7.328321862712616
 30
0.0
  0
LINE
  5
6A
330
1F
100
AcDbEntity
  8
0
  6
Continuous
 62
     7
370
    25
100
AcDbLine
 10
34.9500023261
 20
0.0037358811
 30
0.0
 11
34.9500027526
 21
-0.0044207927
 31
0.0
  0
SPLINE
  5
6B
330
1F
100
AcDbEntity
  8
0
  6
Continuous
 62
     7
370
    25
100
AcDbSpline
210
0.0
220
0.0
230
1.0
 70
     8
 71
     3
 72
    20
 73
    16
 74
     0
 42
0.00000001
 43
0.00000001
 40
0.0
 40
0.0
 40
0.0
 40
0.0
 40
0.2500000000000008
 40
0.2500000000000008
 40
0.3750000000000006
 40
0.3750000000000006
 40
0.5000000000000004
 40
0.5000000000000004
 40
0.6250000000000002
 40
0.6250000000000002
 40
0.7500000000000001
 40
0.7500000000000001
 40
0.875
 40
0.875
 40
1.0
 40
1.0
 40
1.0
 40
1.0
 10
32.10747594117946
 20
7.328321862711405
 30
0.0
 10
32.21606010337514
 20
6.667581468745067
 30
0.0
 10
32.43042821372971
 20
6.047329722431486
 30
0.0
 10
32.86658456572839
 20
5.160816683610133
 30
0.0
 10
33.03141287015627
 20
4.871996830961591
 30
0.0
 10
33.38348933985404
 20
4.307078326948784
 30
0.0
 10
33.57037478479031
 20
4.031072236107796
 30
0.0
 10
33.92905898999432
 20
3.470084768906911
 30
0.0
 10
34.09855490011234
 20
3.183733393898894
 30
0.0
 10
34.39774134061118
 20
2.587349851437112
 30
0.0
 10
34.52813215403219
 20
2.278382885959435
 30
0.0
 10
34.73568977713373
 20
1.650170394972697
 30
0.0
 10
34.81493171370418
 20
1.329464787979682
 30
0.0
 10
34.9225149446774
 20
0.674363495754192
 30
0.0
 10
34.95041917874157
 20
0.3388204762668402
 30
0.0
 10
34.95000189962923
 20
0.0037358412409744
 30
0.0
  0
SPLINE
  5
6C
330
1F
100
AcDbEntity
  8
0
  6
Continuous
 62
     7
370
    25
100
AcDbSpline
210
0.0
220
0.0
230
1.0
 70
     8
 71
     3
 72
    20
 73
    16
 74
     0
 42
0.00000001
 43
0.00000001
 40
0.0
 40
0.0
 40
0.0
 40
0.0
 40
0.2500000000000007
 40
0.2500000000000007
 40
0.3750000000000006
 40
0.3750000000000006
 40
0.5000000000000004
 40
0.5000000000000004
 40
0.6250000000000003
 40
0.6250000000000003
 40
0.7500000000000002
 40
0.7500000000000002
 40
0.8750000000000002
 40
0.8750000000000002
 40
1.0
 40
1.0
 40
1.0
 40
1.0
 10
31.49078252324848
 20
15.16025487989204
 30
0.0
 10
31.78234787538532
 20
14.55673689816909
 30
0.0
 10
31.96712204235452
 20
13.92287641057739
 30
0.0
 10
32.0973270717796
 20
12.93033110935333
 30
0.0
 10
32.11372295610651
 20
12.59638328356736
 30
0.0
 10
32.10345652425419
 20
11.93419816059908
 30
0.0
 10
32.0755776138587
 20
11.60412281980968
 30
0.0
 10
31.99641399697337
 20
10.94501887963506
 30
0.0
 10
31.947830215293
 20
10.61574039305863
 30
0.0
 10
31.87546615559199
 20
9.956921858868741
 30
0.0
 10
31.85179881655294
 20
9.627487614045968
 30
0.0
 10
31.84489982263953
 20
8.968538419929194
 30
0.0
 10
31.8614458504935
 20
8.639023914352121
 30
0.0
 10
31.94495471476975
 20
7.979894277674124
 30
0.0
 10
32.0129404037121
 20
7.649901529189414
 30
0.0
 10
32.10747594117944
 20
7.328321862711428
 30
0.0
  0
LINE
  5
6D
330
1F
100
AcDbEntity
  8
0
  6
Continuous
 62
     7
370
    25
100
AcDbLine
 10
31.4872430909
 20
15.1676036039
 30
0.0
 11
31.4907825232
 21
15.1602548799
 31
0.0
  0
SPLINE
  5
6E
330
1F
100
AcDbEntity
  8
0
  6
Continuous
 62
     7
370
    25
100
AcDbSpline
210
0.0
220
0.0
230
1.0
 70
     8
 71
     3
 72
    20
 73
    16
 74
     0
 42
0.00000001
 43
0.00000001
 40
0.0
 40
0.0
 40
0.0
 40
0.0
 40
0.2500000000000002
 40
0.2500000000000002
 40
0.3750000000000001
 40
0.3750000000000001
 40
0.5000000000000001
 40
0.5000000000000001
 40
0.6250000000000001
 40
0.6250000000000001
 40
0.75
 40
0.75
 40
0.875
 40
0.875
 40
1.0
 40
1.0
 40
1.0
 40
1.0
 10
25.74819655868009
 20
20.53350156725778
 30
0.0
 10
26.1327120210911
 20
19.98530794482324
 30
0.0
 10
26.59496816168391
 20
19.51949126839553
 30
0.0
 10
27.37257504844591
 20
18.91001176826697
 30
0.0
 10
27.64639445688782
 20
18.72131039363445
 30
0.0
 10
28.20871334803314
 20
18.36509666374127
 30
0.0
 10
28.4968458705024
 20
18.19751032417569
 30
0.0
 10
29.06341251267365
 20
17.84770532505416
 30
0.0
 10
29.3403662562191
 20
17.6632531701332
 30
0.0
 10
29.86868504616264
 20
17.25574229653222
 30
0.0
 10
30.12021885196156
 20
17.03394713309421
 30
0.0
 10
30.57979299322149
 20
16.55800311386907
 30
0.0
 10
30.79033645902113
 20
16.3034391339344
 30
0.0
 10
31.1715033990046
 20
15.75989187882444
 30
0.0
 10
31.34223090510121
 20
15.46968525782736
 30
0.0
 10
31.48724272397964
 20
15.167603382931
 30
0.0
  0
SPLINE
  5
6F
330
1F
100
AcDbEntity
  8
0
  6
Continuous
 62
     7
370
    25
100
AcDbSpline
210
0.0
220
0.0
230
1.0
 70
     8
 71
     3
 72
    20
 73
    16
 74
     0
 42
0.00000001
 43
0.00000001
 40
0.0
 40
0.0
 40
0.0
 40
0.0
 40
0.2500000000000005
 40
0.2500000000000005
 40
0.3750000000000004
 40
0.3750000000000004
 40
0.5000000000000003
 40
0.5000000000000003
 40
0.6250000000000002
 40
0.6250000000000002
 40
0.7500000000000001
 40
0.7500000000000001
 40
0.8750000000000001
 40
0.8750000000000001
 40
1.0
 40
1.0
 40
1.0
 40
1.0
 10
21.79442660607162
 20
27.32225614517332
 30
0.0
 10
22.31897454984052
 20
26.9050106976039
 30
0.0
 10
22.76047208030751
 20
26.41409263814732
 30
0.0
 10
23.30843202480245
 20
25.57633406678049
 30
0.0
 10
23.46809873746492
 20
25.28257137984151
 30
0.0
 10
23.74616035912305
 20
24.68150876141949
 30
0.0
 10
23.86425665183788
 20
24.37202494942107
 30
0.0
 10
24.07890717958371
 20
23.74384501251566
 30
0.0
 10
24.17800328577147
 20
23.42609563438436
 30
0.0
 10
24.39865616984006
 20
22.80112305668138
 30
0.0
 10
24.52026879611685
 20
22.49404418451786
 30
0.0
 10
24.79996035761289
 20
21.89735811381397
 30
0.0
 10
24.95783879937001
 20
21.60765485519959
 30
0.0
 10
25.31906331760181
 20
21.05003271092254
 30
0.0
 10
25.52349479439595
 20
20.78221740282908
 30
0.0
 10
25.74819655868007
 20
20.53350156725779
 30
0.0
  0
LINE
  5
70
330
1F
100
AcDbEntity
  8
0
  6
Continuous
 62
     7
370
    25
100
AcDbLine
 10
21.7880491957
 20
27.3273414148
 30
0.0
 11
21.7944266061
 21
27.3222561452
 31
0.0
  0
SPLINE
  5
71
330
1F
100
AcDbEntity
  8
0
  6
Continuous
 62
     7
370
    25
100
AcDbSpline
210
0.0
220
0.0
230
1.0
 70
     8
 71
     3
 72
    20
 73
    16
 74
     0
 42
0.00000001
 43
0.00000001
 40
0.0
 40
0.0
 40
0.0
 40
0.0
 40
0.2500000000000003
 40
0.2500000000000003
 40
0.3750000000000002
 40
0.3750000000000002
 40
0.5000000000000002
 40
0.5000000000000002
 40
0.6250000000000002
 40
0.6250000000000002
 40
0.7500000000000001
 40
0.7500000000000001
 40
0.8750000000000001
 40
0.8750000000000001
 40
1.0
 40
1.0
 40
1.0
 40
1.0
 10
14.28917106682526
 20
29.67176945953929
 30
0.0
 10
14.87345982632826
 20
29.34469907873279
 30
0.0
 10
15.49204849928994
 20
29.12557817783536
 30
0.0
 10
16.45709134012713
 20
28.91384710618591
 30
0.0
 10
16.78566856055146
 20
28.8626388310879
 30
0.0
 10
17.44685572033615
 20
28.78568237319946
 30
0.0
 10
17.77916714053608
 20
28.75970831477532
 30
0.0
 10
18.44140074768464
 20
28.69036895390132
 30
0.0
 10
18.77095823912381
 20
28.6443490305198
 30
0.0
 10
19.42376936274113
 20
28.50642335211824
 30
0.0
 10
19.74662680581394
 20
28.41572924299551
 30
0.0
 10
20.36719317024222
 20
28.18632024564662
 30
0.0
 10
20.66733744972203
 20
28.04831741103799
 30
0.0
 10
21.24659331154877
 20
27.72398039312881
 30
0.0
 10
21.52632941327778
 20
27.53658915109532
 30
0.0
 10
21.78804896095667
 20
27.3273410564538
 30
0.0
  0
SPLINE
  5
72
330
1F
100
AcDbEntity
  8
0
  6
Continuous
 62
     7
370
    25
100
AcDbSpline
210
0.0
220
0.0
230
1.0
 70
     8
 71
     3
 72
    20
 73
    16
 74
     0
 42
0.00000001
 43
0.00000001
 40
0.0
 40
0.0
 40
0.0
 40
0.0
 40
0.2500000000000007
 40
0.2500000000000007
 40
0.3750000000000001
 40
0.3750000000000001
 40
0.4999999999999996
 40
0.4999999999999996
 40
0.6249999999999989
 40
0.6249999999999989
 40
0.7499999999999992
 40
0.7499999999999992
 40
0.8749999999999997
 40
0.8749999999999997
 40
1.0
 40
1.0
 40
1.0
 40
1.0
 10
7.781417208461116
 20
34.07274949542217
 30
0.0
 10
8.435054590440226
 20
33.92441716007702
 30
0.0
 10
9.045831483884061
 20
33.67367387114576
 30
0.0
 10
9.903016156153852
 20
33.15663038913015
 30
0.0
 10
10.17432974652533
 20
32.96123614394939
 30
0.0
 10
10.68564590732244
 20
32.54034385320146
 30
0.0
 10
10.92632698401937
 20
32.31274863453022
 30
0.0
 10
11.39227748686025
 20
31.83991144151958
 30
0.0
 10
11.61942628175165
 20
31.59662533311269
 30
0.0
 10
12.08939309976993
 20
31.12928219569639
 30
0.0
 10
12.33219881924736
 20
30.90537943289939
 30
0.0
 10
12.8430845922065
 20
30.48913747978575
 30
0.0
 10
13.11102568622463
 20
30.29662475147999
 30
0.0
 10
13.67842091244793
 20
29.95095400406471
 30
0.0
 10
13.97880801592718
 20
29.79836024266952
 30
0.0
 10
14.28917106682523
 20
29.6717694595393
 30
0.0
  0
LINE
  5
73
330
1F
100
AcDbEntity
  8
0
  6
Continuous
 62
     7
370
    25
100
AcDbLine
 10
7.7734649445
 20
34.0745641104
 30
0.0
 11
7.7814172085
 21
34.0727494954
 31
0.0
  0
SPLINE
  5
74
330
1F
100
AcDbEntity
  8
0
  6
Continuous
 62
     7
370
    25
100
AcDbSpline
210
0.0
220
0.0
230
1.0
 70
     8
 71
     3
 72
    20
 73
    16
 74
     0
 42
0.00000001
 43
0.00000001
 40
0.0
 40
0.0
 40
0.0
 40
0.0
 40
0.2499999999999995
 40
0.2499999999999995
 40
0.3749999999999996
 40
0.3749999999999996
 40
0.4999999999999997
 40
0.4999999999999997
 40
0.6249999999999998
 40
0.6249999999999998
 40
0.7499999999999998
 40
0.7499999999999998
 40
0.8749999999999999
 40
0.8749999999999999
 40
1.0
 40
1.0
 40
1.0
 40
1.0
 10
0.0000000000052142
 20
32.9331795099874
 30
0.0
 10
0.6683365019615676
 20
32.89201267096539
 30
0.0
 10
1.320738634137174
 20
32.96298712735049
 30
0.0
 10
2.282078858978027
 20
33.19094041961782
 30
0.0
 10
2.600335143155455
 20
33.28736767096208
 30
0.0
 10
3.229434345676038
 20
33.50491065536441
 30
0.0
 10
3.540106311313694
 20
33.62569335889897
 30
0.0
 10
4.16684339579719
 20
33.85055314707012
 30
0.0
 10
4.483731732198575
 20
33.95208026543993
 30
0.0
 10
5.13173794026325
 20
34.11105765436842
 30
0.0
 10
5.461973144424459
 20
34.16942768014903
 30
0.0
 10
6.120620952798592
 20
34.23199097008969
 30
0.0
 10
6.450918790377671
 20
34.23788243468049
 30
0.0
 10
7.113534846498115
 20
34.19699457807118
 30
0.0
 10
7.446874378155645
 20
34.14953384866585
 30
0.0
 10
7.773464888442067
 20
34.07456368567304
 30
0.0
  0
SPLINE
  5
75
330
1F
100
AcDbEntity
  8
0
  6
Continuous
 62
     7
370
    25
100
AcDbSpline
210
0.0
220
0.0
230
1.0
 70
     8
 71
     3
 72
    20
 73
    16
 74
     0
 42
0.00000001
 43
0.00000001
 40
0.0
 40
0.0
 40
0.0
 40
0.0
 40
0.2500000000000001
 40
0.2500000000000001
 40
0.3750000000000001
 40
0.3750000000000001
 40
0.5000000000000001
 40
0.5000000000000001
 40
0.625
 40
0.625
 40
0.7500000000000001
 40
0.7500000000000001
 40
0.875
 40
0.875
 40
1.0
 40
1.0
 40
1.0
 40
1.0
 10
-7.772797300104201
 20
34.07471693325412
 30
0.0
 10
-7.119531379752122
 20
34.22467674832501
 30
0.0
 10
-6.460446977764907
 20
34.26377101345652
 30
0.0
 10
-5.463813514743282
 20
34.16984942352719
 30
0.0
 10
-5.134590030678638
 20
34.11152384671581
 30
0.0
 10
-4.491291767269534
 20
33.95416476372964
 30
0.0
 10
-4.175695745589951
 20
33.85353616271549
 30
0.0
 10
-3.550732479249462
 20
33.62969291864281
 30
0.0
 10
-3.240520600279773
 20
33.50905587743856
 30
0.0
 10
-2.614322540384957
 20
33.2919052202616
 30
0.0
 10
-2.298414378266023
 20
33.19552525499019
 30
0.0
 10
-1.657521586780949
 20
33.0421692431534
 30
0.0
 10
-1.332586860253785
 20
32.98497655201081
 30
0.0
 10
-0.6714005092379299
 20
32.91972153235635
 30
0.0
 10
-0.3345531289235608
 20
32.91257238354348
 30
0.0
 10
0.0000000000051803
 20
32.93317950998739
 30
0.0
  0
LINE
  5
76
330
1F
100
AcDbEntity
  8
0
  6
Continuous
 62
     7
370
    25
100
AcDbLine
 10
-7.7807493743
 20
34.0729014868
 30
0.0
 11
-7.7727973001
 21
34.0747169333
 31
0.0
  0
SPLINE
  5
77
330
1F
100
AcDbEntity
  8
0
  6
Continuous
 62
     7
370
    25
100
AcDbSpline
210
0.0
220
0.0
230
1.0
 70
     8
 71
     3
 72
    20
 73
    16
 74
     0
 42
0.00000001
 43
0.00000001
 40
0.0
 40
0.0
 40
0.0
 40
0.0
 40
0.2500000000000018
 40
0.2500000000000018
 40
0.3750000000000022
 40
0.3750000000000022
 40
0.5000000000000018
 40
0.5000000000000018
 40
0.6250000000000013
 40
0.6250000000000013
 40
0.7500000000000009
 40
0.7500000000000009
 40
0.8750000000000004
 40
0.8750000000000004
 40
1.0
 40
1.0
 40
1.0
 40
1.0
 10
-14.28917106681497
 20
29.67176945954337
 30
0.0
 10
-13.66915906322625
 20
29.92465975965263
 30
0.0
 10
-13.11215971530051
 20
30.2716722117893
 30
0.0
 10
-12.34492732804889
 20
30.89416092277739
 30
0.0
 10
-12.10002654035652
 20
31.11912510083304
 30
0.0
 10
-11.62761610755408
 20
31.58808047147646
 30
0.0
 10
-11.40011598941453
 20
31.83169744123238
 30
0.0
 10
-10.93300839360307
 20
32.30622013967751
 30
0.0
 10
-10.69155283364361
 20
32.53518560885719
 30
0.0
 10
-10.17669711791211
 20
32.95957864350868
 30
0.0
 10
-9.904491284914977
 20
33.15545190472523
 30
0.0
 10
-9.33821530882749
 20
33.49759605509379
 30
0.0
 10
-9.043183450718175
 20
33.64621494206745
 30
0.0
 10
-8.428446436669994
 20
33.89687458821531
 30
0.0
 10
-8.107525457468938
 20
33.99874455096331
 30
0.0
 10
-7.78074924050653
 20
34.07290107984866
 30
0.0
  0
SPLINE
  5
78
330
1F
100
AcDbEntity
  8
0
  6
Continuous
 62
     7
370
    25
100
AcDbSpline
210
0.0
220
0.0
230
1.0
 70
     8
 71
     3
 72
    20
 73
    16
 74
     0
 42
0.00000001
 43
0.00000001
 40
0.0
 40
0.0
 40
0.0
 40
0.0
 40
0.25
 40
0.25
 40
0.375
 40
0.375
 40
0.5
 40
0.5
 40
0.625
 40
0.625
 40
0.75
 40
0.75
 40
0.875
 40
0.875
 40
1.0
 40
1.0
 40
1.0
 40
1.0
 10
-21.78751397628051
 20
27.32776878347702
 30
0.0
 10
-21.26400684486191
 20
27.74631936845279
 30
0.0
 10
-20.68715468328454
 20
28.06750808897814
 30
0.0
 10
-19.7484679097697
 20
28.41531071389345
 30
0.0
 10
-19.42654128069193
 20
28.5056059012552
 30
0.0
 10
-18.77867402527438
 20
28.64294692229876
 30
0.0
 10
-18.45067072123696
 20
28.68921566750138
 30
0.0
 10
-17.79047633096697
 20
28.75870127211255
 30
0.0
 10
-17.45864263504795
 20
28.78460694363771
 30
0.0
 10
-16.80023953885394
 20
28.8606581175321
 30
0.0
 10
-16.47379841996044
 20
28.91089018393101
 30
0.0
 10
-15.82983528733727
 20
29.05079415230355
 30
0.0
 10
-15.51226423595272
 20
29.14024921222733
 30
0.0
 10
-14.88824282588142
 20
29.36833447727677
 30
0.0
 10
-14.58165192356519
 20
29.50804591764726
 30
0.0
 10
-14.28917106681498
 20
29.67176945954336
 30
0.0
  0
LINE
  5
79
330
1F
100
AcDbEntity
  8
0
  6
Continuous
 62
     7
370
    25
100
AcDbLine
 10
-21.7938908549
 20
27.322682847
 30
0.0
 11
-21.7875139763
 21
27.3277687835
 31
0.0
  0
SPLINE
  5
7A
330
1F
100
AcDbEntity
  8
0
  6
Continuous
 62
     7
370
    25
100
AcDbSpline
210
0.0
220
0.0
230
1.0
 70
     8
 71
     3
 72
    20
 73
    16
 74
     0
 42
0.00000001
 43
0.00000001
 40
0.0
 40
0.0
 40
0.0
 40
0.0
 40
0.2499999999999987
 40
0.2499999999999987
 40
0.3749999999999989
 40
0.3749999999999989
 40
0.4999999999999991
 40
0.4999999999999991
 40
0.6249999999999993
 40
0.6249999999999993
 40
0.7499999999999996
 40
0.7499999999999996
 40
0.8749999999999998
 40
0.8749999999999998
 40
1.0
 40
1.0
 40
1.0
 40
1.0
 10
-25.74819655867212
 20
20.53350156726513
 30
0.0
 10
-25.29931003471159
 20
21.03036098107193
 30
0.0
 10
-24.94803402304229
 20
21.58468135698435
 30
0.0
 10
-24.52686925716443
 20
22.47841396315612
 30
0.0
 10
-24.40382957047115
 20
22.78735815345352
 30
0.0
 10
-24.18167458733799
 20
23.41484354782005
 30
0.0
 10
-24.08240550520047
 20
23.73304345517033
 30
0.0
 10
-23.86744378611182
 20
24.36324402382225
 30
0.0
 10
-23.74924423750351
 20
24.6742984245633
 30
0.0
 10
-23.46951250289923
 20
25.28005085958576
 30
0.0
 10
-23.30924974467796
 20
25.57463225462661
 30
0.0
 10
-22.94750350286293
 20
26.12859142032067
 30
0.0
 10
-22.74617230205155
 20
26.39050193642144
 30
0.0
 10
-22.30107053496535
 20
26.88306286826945
 30
0.0
 10
-22.05613044399097
 20
27.11408692769763
 30
0.0
 10
-21.79389055777015
 20
27.32268253844503
 30
0.0
  0
SPLINE
  5
7B
330
1F
100
AcDbEntity
  8
0
  6
Continuous
 62
     7
370
    25
100
AcDbSpline
210
0.0
220
0.0
230
1.0
 70
     8
 71
     3
 72
    20
 73
    16
 74
     0
 42
0.00000001
 43
0.00000001
 40
0.0
 40
0.0
 40
0.0
 40
0.0
 40
0.25
 40
0.25
 40
0.375
 40
0.375
 40
0.5
 40
0.5
 40
0.625
 40
0.625
 40
0.75
 40
0.75
 40
0.875
 40
0.875
 40
1.0
 40
1.0
 40
1.0
 40
1.0
 10
-31.48694630313095
 20
15.16822087304366
 30
0.0
 10
-31.19688496841702
 20
15.7724631513837
 30
0.0
 10
-30.81651769247759
 20
16.31213096208164
 30
0.0
 10
-30.12169603620223
 20
17.03277122645784
 30
0.0
 10
-29.87082777917128
 20
17.25380310873796
 30
0.0
 10
-29.34670958725134
 20
17.6586421602165
 30
0.0
 10
-29.07126407791732
 20
17.84264415919964
 30
0.0
 10
-28.50659815946388
 20
18.19169613631641
 30
0.0
 10
-28.21886637974561
 20
18.3590135846132
 30
0.0
 10
-27.65866305523787
 20
18.71320372188262
 30
0.0
 10
-27.38634464670438
 20
18.90009874314566
 30
0.0
 10
-26.86685596904891
 20
19.30555299498156
 30
0.0
 10
-26.61954743428713
 20
19.52393813425939
 30
0.0
 10
-26.15628605854566
 20
20.00018859998714
 30
0.0
 10
-25.940675722522
 20
20.25908906532705
 30
0.0
 10
-25.7481965586721
 20
20.53350156726518
 30
0.0
  0
LINE
  5
7C
330
1F
100
AcDbEntity
  8
0
  6
Continuous
 62
     7
370
    25
100
AcDbLine
 10
-31.4904849671
 20
15.1608717787
 30
0.0
 11
-31.4869463031
 21
15.168220873
 31
0.0
  0
SPLINE
  5
7D
330
1F
100
AcDbEntity
  8
0
  6
Continuous
 62
     7
370
    25
100
AcDbSpline
210
0.0
220
0.0
230
1.0
 70
     8
 71
     3
 72
    20
 73
    16
 74
     0
 42
0.00000001
 43
0.00000001
 40
0.0
 40
0.0
 40
0.0
 40
0.0
 40
0.2499999999999995
 40
0.2499999999999995
 40
0.3749999999999996
 40
0.3749999999999996
 40
0.4999999999999997
 40
0.4999999999999997
 40
0.6249999999999998
 40
0.6249999999999998
 40
0.7499999999999998
 40
0.7499999999999998
 40
0.8749999999999999
 40
0.8749999999999999
 40
1.0
 40
1.0
 40
1.0
 40
1.0
 10
-32.10747594117493
 20
7.328321862721939
 30
0.0
 10
-31.9186223781437
 20
7.970741289742461
 30
0.0
 10
-31.84264422495883
 20
8.622579640689775
 30
0.0
 10
-31.85096392758305
 20
9.610541438484836
 30
0.0
 10
-31.87415486082105
 20
9.942275455184923
 30
0.0
 10
-31.9462558463184
 20
10.6040096953189
 30
0.0
 10
-31.99487925935539
 20
10.93376914614798
 30
0.0
 10
-32.07463922178634
 20
11.59482863348397
 30
0.0
 10
-32.10310655475237
 20
11.92636382688833
 30
0.0
 10
-32.11390310199606
 20
12.59349896346052
 30
0.0
 10
-32.09732542330885
 20
12.92844303423433
 30
0.0
 10
-32.01175719548156
 20
13.584498808625
 30
0.0
 10
-31.94400276545259
 20
13.90782636401742
 30
0.0
 10
-31.75669410911171
 20
14.54473084814917
 30
0.0
 10
-31.63624829537211
 20
14.85915185596212
 30
0.0
 10
-31.49048456551931
 20
15.16087162960626
 30
0.0
  0
SPLINE
  5
7E
330
1F
100
AcDbEntity
  8
0
  6
Continuous
 62
     7
370
    25
100
AcDbSpline
210
0.0
220
0.0
230
1.0
 70
     8
 71
     3
 72
    20
 73
    16
 74
     0
 42
0.00000001
 43
0.00000001
 40
0.0
 40
0.0
 40
0.0
 40
0.0
 40
0.2499999999999993
 40
0.2499999999999993
 40
0.3749999999999994
 40
0.3749999999999994
 40
0.4999999999999996
 40
0.4999999999999996
 40
0.6249999999999997
 40
0.6249999999999997
 40
0.7499999999999998
 40
0.7499999999999998
 40
0.8749999999999999
 40
0.8749999999999999
 40
1.0
 40
1.0
 40
1.0
 40
1.0
 10
-34.95000275259144
 20
0.004420792683691
 30
0.0
 10
-34.95083741929107
 20
0.6746771706176734
 30
0.0
 10
-34.84229143288776
 20
1.325936242988199
 30
0.0
 10
-34.52895284430539
 20
2.276682504392827
 30
0.0
 10
-34.39883049432346
 20
2.584673006527584
 30
0.0
 10
-34.10226940169855
 20
3.176826749270696
 30
0.0
 10
-33.93393704830893
 20
3.462118149499344
 30
0.0
 10
-33.5766386119946
 20
4.021602474212244
 30
0.0
 10
-33.38999755624886
 20
4.297192426631684
 30
0.0
 10
-33.03894914228895
 20
4.859369826733108
 30
0.0
 10
-32.8746894446916
 20
5.145910951782151
 30
0.0
 10
-32.58256632572391
 20
5.736610299935494
 30
0.0
 10
-32.45450279593452
 20
6.04067166341559
 30
0.0
 10
-32.24375605151629
 20
6.670760084255971
 30
0.0
 10
-32.16183055312203
 20
6.997571162198998
 30
0.0
 10
-32.10747594117493
 20
7.328321862721938
 30
0.0
  0
LINE
  5
7F
330
1F
100
AcDbEntity
  8
0
  6
Continuous
 62
     7
370
    25
100
AcDbLine
 10
-34.9500023261
 20
-0.0037358813
 30
0.0
 11
-34.9500027526
 21
0.0044207927
 31
0.0
  0
SPLINE
  5
80
330
1F
100
AcDbEntity
  8
0
  6
Continuous
 62
     7
370
    25
100
AcDbSpline
210
0.0
220
0.0
230
1.0
 70
     8
 71
     3
 72
    20
 73
    16
 74
     0
 42
0.00000001
 43
0.00000001
 40
0.0
 40
0.0
 40
0.0
 40
0.0
 40
0.250000000000001
 40
0.250000000000001
 40
0.3750000000000008
 40
0.3750000000000008
 40
0.5000000000000006
 40
0.5000000000000006
 40
0.6250000000000003
 40
0.6250000000000003
 40
0.7500000000000002
 40
0.7500000000000002
 40
0.8750000000000001
 40
0.8750000000000001
 40
1.0
 40
1.0
 40
1.0
 40
1.0
 10
-32.10747594117684
 20
-7.328321862705197
 30
0.0
 10
-32.21606010337038
 20
-6.667581468750073
 30
0.0
 10
-32.43042821371927
 20
-6.047329722446394
 30
0.0
 10
-32.86658456570637
 20
-5.160816683638741
 30
0.0
 10
-33.03141287012972
 20
-4.87199683099457
 30
0.0
 10
-33.38348933981941
 20
-4.30707832699025
 30
0.0
 10
-33.570374784752
 20
-4.031072236153693
 30
0.0
 10
-33.92905898995193
 20
-3.470084768963702
 30
0.0
 10
-34.09855490006997
 20
-3.18373339396232
 30
0.0
 10
-34.39774134057014
 20
-2.587349851514462
 30
0.0
 10
-34.52813215399357
 20
-2.278382886043962
 30
0.0
 10
-34.73568977710204
 20
-1.65017039507084
 30
0.0
 10
-34.81493171367686
 20
-1.329464788084445
 30
0.0
 10
-34.92251494466097
 20
-0.6743634958718512
 30
0.0
 10
-34.95041917873942
 20
-0.3388204763913755
 30
0.0
 10
-34.95000189962712
 20
-0.0037358413710945
 30
0.0
  0
SPLINE
  5
81
330
1F
100
AcDbEntity
  8
0
  6
Continuous
 62
     7
370
    25
100
AcDbSpline
210
0.0
220
0.0
230
1.0
 70
     8
 71
     3
 72
    20
 73
    16
 74
     0
 42
0.00000001
 43
0.00000001
 40
0.0
 40
0.0
 40
0.0
 40
0.0
 40
0.2500000000000005
 40
0.2500000000000005
 40
0.3750000000000004
 40
0.3750000000000004
 40
0.5000000000000003
 40
0.5000000000000003
 40
0.6250000000000002
 40
0.6250000000000002
 40
0.7500000000000001
 40
0.7500000000000001
 40
0.8750000000000001
 40
0.8750000000000001
 40
1.0
 40
1.0
 40
1.0
 40
1.0
 10
-31.49078252324643
 20
-15.16025487988399
 30
0.0
 10
-31.78234787538323
 20
-14.55673689816114
 30
0.0
 10
-31.96712204235237
 20
-13.92287641056956
 30
0.0
 10
-32.09732707177752
 20
-12.93033110934572
 30
0.0
 10
-32.11372295610441
 20
-12.59638328355977
 30
0.0
 10
-32.10345652425215
 20
-11.93419816059161
 30
0.0
 10
-32.0755776138567
 20
-11.60412281980231
 30
0.0
 10
-31.9964139969714
 20
-10.94501887962786
 30
0.0
 10
-31.94783021529107
 20
-10.61574039305149
 30
0.0
 10
-31.87546615559002
 20
-9.956921858861767
 30
0.0
 10
-31.8517988165509
 20
-9.627487614039044
 30
0.0
 10
-31.8448998226374
 20
-8.968538419922458
 30
0.0
 10
-31.86144585049133
 20
-8.639023914345517
 30
0.0
 10
-31.94495471476738
 20
-7.979894277667767
 30
0.0
 10
-32.01294040370964
 20
-7.649901529183087
 30
0.0
 10
-32.10747594117685
 20
-7.328321862705173
 30
0.0
  0
LINE
  5
82
330
1F
100
AcDbEntity
  8
0
  6
Continuous
 62
     7
370
    25
100
AcDbLine
 10
-31.4872430908
 20
-15.1676036041
 30
0.0
 11
-31.4907825232
 21
-15.1602548799
 31
0.0
  0
SPLINE
  5
83
330
1F
100
AcDbEntity
  8
0
  6
Continuous
 62
     7
370
    25
100
AcDbSpline
210
0.0
220
0.0
230
1.0
 70
     8
 71
     3
 72
    20
 73
    16
 74
     0
 42
0.00000001
 43
0.00000001
 40
0.0
 40
0.0
 40
0.0
 40
0.0
 40
0.2500000000000008
 40
0.2500000000000008
 40
0.3750000000000007
 40
0.3750000000000007
 40
0.5000000000000006
 40
0.5000000000000006
 40
0.6250000000000004
 40
0.6250000000000004
 40
0.7500000000000002
 40
0.7500000000000002
 40
0.8750000000000001
 40
0.8750000000000001
 40
1.0
 40
1.0
 40
1.0
 40
1.0
 10
-25.74819655868024
 20
-20.53350156724724
 30
0.0
 10
-26.1327120210797
 20
-19.98530794482981
 30
0.0
 10
-26.59496816165608
 20
-19.519491268414
 30
0.0
 10
-27.37257504838941
 20
-18.91001176829908
 30
0.0
 10
-27.64639445682089
 20
-18.72131039367023
 30
0.0
 10
-28.20871334794666
 20
-18.36509666378472
 30
0.0
 10
-28.49684587040648
 20
-18.19751032422355
 30
0.0
 10
-29.06341251256247
 20
-17.84770532511622
 30
0.0
 10
-29.34036625610258
 20
-17.66325317020579
 30
0.0
 10
-29.86868504603704
 20
-17.2557422966278
 30
0.0
 10
-30.12021885183395
 20
-17.03394713320307
 30
0.0
 10
-30.57979299309384
 20
-16.55800311400491
 30
0.0
 10
-30.79033645889507
 20
-16.30343913408413
 30
0.0
 10
-31.17150339888555
 20
-15.7598918790031
 30
0.0
 10
-31.34223090499924
 20
-15.46968525802795
 30
0.0
 10
-31.48724272387328
 20
-15.16760338314065
 30
0.0
  0
SPLINE
  5
84
330
1F
100
AcDbEntity
  8
0
  6
Continuous
 62
     7
370
    25
100
AcDbSpline
210
0.0
220
0.0
230
1.0
 70
     8
 71
     3
 72
    20
 73
    16
 74
     0
 42
0.00000001
 43
0.00000001
 40
0.0
 40
0.0
 40
0.0
 40
0.0
 40
0.25
 40
0.25
 40
0.375
 40
0.375
 40
0.5
 40
0.5
 40
0.625
 40
0.625
 40
0.75
 40
0.75
 40
0.875
 40
0.875
 40
1.0
 40
1.0
 40
1.0
 40
1.0
 10
-21.79442660606941
 20
-27.32225614516526
 30
0.0
 10
-22.31897454983855
 20
-26.90501069759564
 30
0.0
 10
-22.76047208030572
 20
-26.4140926381388
 30
0.0
 10
-23.30843202480083
 20
-25.57633406677153
 30
0.0
 10
-23.4680987374633
 20
-25.28257137983237
 30
0.0
 10
-23.74616035912147
 20
-24.68150876141005
 30
0.0
 10
-23.86425665183627
 20
-24.37202494941149
 30
0.0
 10
-24.07890717958214
 20
-23.74384501250579
 30
0.0
 10
-24.17800328576998
 20
-23.42609563437431
 30
0.0
 10
-24.39865616983876
 20
-22.80112305667111
 30
0.0
 10
-24.52026879611565
 20
-22.49404418450755
 30
0.0
 10
-24.799960357612
 20
-21.89735811380351
 30
0.0
 10
-24.95783879936932
 20
-21.60765485518909
 30
0.0
 10
-25.31906331760152
 20
-21.05003271091196
 30
0.0
 10
-25.5234947943959
 20
-20.78221740281847
 30
0.0
 10
-25.74819655868025
 20
-20.53350156724722
 30
0.0
  0
LINE
  5
85
330
1F
100
AcDbEntity
  8
0
  6
Continuous
 62
     7
370
    25
100
AcDbLine
 10
-21.7880491957
 20
-27.3273414148
 30
0.0
 11
-21.7944266061
 21
-27.3222561452
 31
0.0
  0
SPLINE
  5
86
330
1F
100
AcDbEntity
  8
0
  6
Continuous
 62
     7
370
    25
100
AcDbSpline
210
0.0
220
0.0
230
1.0
 70
     8
 71
     3
 72
    20
 73
    16
 74
     0
 42
0.00000001
 43
0.00000001
 40
0.0
 40
0.0
 40
0.0
 40
0.0
 40
0.250000000000001
 40
0.250000000000001
 40
0.3750000000000009
 40
0.3750000000000009
 40
0.5000000000000008
 40
0.5000000000000008
 40
0.6250000000000006
 40
0.6250000000000006
 40
0.7500000000000004
 40
0.7500000000000004
 40
0.8750000000000002
 40
0.8750000000000002
 40
1.0
 40
1.0
 40
1.0
 40
1.0
 10
-14.28917106682632
 20
-29.67176945952986
 30
0.0
 10
-14.87345982632984
 20
-29.34469907872356
 30
0.0
 10
-15.49204849929204
 20
-29.12557817782638
 30
0.0
 10
-16.45709134013004
 20
-28.91384710617737
 30
0.0
 10
-16.78566856055464
 20
-28.86263883107949
 30
0.0
 10
-17.44685572033975
 20
-28.78568237319126
 30
0.0
 10
-17.77916714053984
 20
-28.75970831476715
 30
0.0
 10
-18.44140074768874
 20
-28.69036895389288
 30
0.0
 10
-18.77095823912815
 20
-28.64434903051105
 30
0.0
 10
-19.42376936274577
 20
-28.50642335210887
 30
0.0
 10
-19.7466268058186
 20
-28.41572924298575
 30
0.0
 10
-20.36719317024692
 20
-28.18632024563602
 30
0.0
 10
-20.66733744972674
 20
-28.04831741102698
 30
0.0
 10
-21.2465933115534
 20
-27.7239803931169
 30
0.0
 10
-21.52632941328204
 20
-27.53658915108255
 30
0.0
 10
-21.78804896096107
 20
-27.32734105644093
 30
0.0
  0
SPLINE
  5
87
330
1F
100
AcDbEntity
  8
0
  6
Continuous
 62
     7
370
    25
100
AcDbSpline
210
0.0
220
0.0
230
1.0
 70
     8
 71
     3
 72
    20
 73
    16
 74
     0
 42
0.00000001
 43
0.00000001
 40
0.0
 40
0.0
 40
0.0
 40
0.0
 40
0.25
 40
0.25
 40
0.375
 40
0.375
 40
0.5
 40
0.5
 40
0.625
 40
0.625
 40
0.75
 40
0.75
 40
0.875
 40
0.875
 40
1.0
 40
1.0
 40
1.0
 40
1.0
 10
-7.781417208458853
 20
-34.07274949541412
 30
0.0
 10
-8.435054590438252
 20
-33.92441716006891
 30
0.0
 10
-9.045831483882344
 20
-33.67367387113751
 30
0.0
 10
-9.903016156152457
 20
-33.15663038912152
 30
0.0
 10
-10.17432974652401
 20
-32.96123614394062
 30
0.0
 10
-10.68564590732126
 20
-32.54034385319241
 30
0.0
 10
-10.92632698401826
 20
-32.31274863452099
 30
0.0
 10
-11.39227748685932
 20
-31.8399114415101
 30
0.0
 10
-11.61942628175081
 20
-31.59662533310309
 30
0.0
 10
-12.08939309976937
 20
-31.12928219568668
 30
0.0
 10
-12.33219881924696
 20
-30.90537943288965
 30
0.0
 10
-12.84308459220646
 20
-30.48913747977599
 30
0.0
 10
-13.1110256862248
 20
-30.29662475147023
 30
0.0
 10
-13.67842091244857
 20
-29.95095400405503
 30
0.0
 10
-13.97880801592808
 20
-29.79836024265992
 30
0.0
 10
-14.28917106682634
 20
-29.67176945952985
 30
0.0
  0
LINE
  5
88
330
1F
100
AcDbEntity
  8
0
  6
Continuous
 62
     7
370
    25
100
AcDbLine
 10
-7.7734649445
 20
-34.0745641104
 30
0.0
 11
-7.7814172085
 21
-34.0727494954
 31
0.0
  0
SPLINE
  5
89
330
1F
100
AcDbEntity
  8
0
  6
Continuous
 62
     7
370
    25
100
AcDbSpline
210
0.0
220
0.0
230
1.0
 70
     8
 71
     3
 72
    20
 73
    16
 74
     0
 42
0.00000001
 43
0.00000001
 40
0.0
 40
0.0
 40
0.0
 40
0.0
 40
0.2500000000000003
 40
0.2500000000000003
 40
0.3750000000000003
 40
0.3750000000000003
 40
0.5000000000000002
 40
0.5000000000000002
 40
0.6250000000000001
 40
0.6250000000000001
 40
0.7500000000000001
 40
0.7500000000000001
 40
0.875
 40
0.875
 40
1.0
 40
1.0
 40
1.0
 40
1.0
 10
-0.0000000000030695
 20
-32.93317950997921
 30
0.0
 10
-0.668336501960045
 20
-32.89201267095712
 30
0.0
 10
-1.320738634136218
 20
-32.96298712734249
 30
0.0
 10
-2.28207885897792
 20
-33.19094041961024
 30
0.0
 10
-2.600335143155619
 20
-33.28736767095467
 30
0.0
 10
-3.22943434567674
 20
-33.50491065535735
 30
0.0
 10
-3.540106311314676
 20
-33.62569335889204
 30
0.0
 10
-4.16684339579878
 20
-33.85055314706329
 30
0.0
 10
-4.483731732200486
 20
-33.95208026543302
 30
0.0
 10
-5.131737940265869
 20
-34.11105765436123
 30
0.0
 10
-5.461973144427413
 20
-34.1694276801417
 30
0.0
 10
-6.12062095280217
 20
-34.2319909700818
 30
0.0
 10
-6.450918790381574
 20
-34.23788243467233
 30
0.0
 10
-7.113534846502549
 20
-34.1969945780623
 30
0.0
 10
-7.446874378160262
 20
-34.14953384865613
 30
0.0
 10
-7.773464888446967
 20
-34.07456368566325
 30
0.0
  0
SPLINE
  5
8A
330
1F
100
AcDbEntity
  8
0
  6
Continuous
 62
     7
370
    25
100
AcDbSpline
210
0.0
220
0.0
230
1.0
 70
     8
 71
     3
 72
    20
 73
    16
 74
     0
 42
0.00000001
 43
0.00000001
 40
0.0
 40
0.0
 40
0.0
 40
0.0
 40
0.2499999999999998
 40
0.2499999999999998
 40
0.3749999999999998
 40
0.3749999999999998
 40
0.4999999999999999
 40
0.4999999999999999
 40
0.6249999999999999
 40
0.6249999999999999
 40
0.7499999999999999
 40
0.7499999999999999
 40
0.875
 40
0.875
 40
1.0
 40
1.0
 40
1.0
 40
1.0
 10
7.772797300106493
 20
-34.07471693324597
 30
0.0
 10
7.11953137975441
 20
-34.22467674831683
 30
0.0
 10
6.460446977767165
 20
-34.26377101344836
 30
0.0
 10
5.463813514745539
 20
-34.16984942351903
 30
0.0
 10
5.134590030680914
 20
-34.11152384670763
 30
0.0
 10
4.491291767271811
 20
-33.95416476372149
 30
0.0
 10
4.175695745592247
 20
-33.85353616270733
 30
0.0
 10
3.550732479251749
 20
-33.62969291863461
 30
0.0
 10
3.240520600282052
 20
-33.50905587743039
 30
0.0
 10
2.614322540387233
 20
-33.29190522025341
 30
0.0
 10
2.298414378268268
 20
-33.19552525498198
 30
0.0
 10
1.657521586783166
 20
-33.0421692431452
 30
0.0
 10
1.33258686025601
 20
-32.98497655200259
 30
0.0
 10
0.671400509240115
 20
-32.91972153234816
 30
0.0
 10
0.3345531289256624
 20
-32.91257238353528
 30
0.0
 10
-0.0000000000031004
 20
-32.93317950997922
 30
0.0
  0
LINE
  5
8B
330
1F
100
AcDbEntity
  8
0
  6
Continuous
 62
     7
370
    25
100
AcDbLine
 10
7.7807493745
 20
-34.0729014867
 30
0.0
 11
7.7727973001
 21
-34.0747169332
 31
0.0
  0
SPLINE
  5
8C
330
1F
100
AcDbEntity
  8
0
  6
Continuous
 62
     7
370
    25
100
AcDbSpline
210
0.0
220
0.0
230
1.0
 70
     8
 71
     3
 72
    20
 73
    16
 74
     0
 42
0.00000001
 43
0.00000001
 40
0.0
 40
0.0
 40
0.0
 40
0.0
 40
0.2499999999999992
 40
0.2499999999999992
 40
0.3749999999999986
 40
0.3749999999999986
 40
0.4999999999999989
 40
0.4999999999999989
 40
0.6249999999999991
 40
0.6249999999999991
 40
0.7499999999999994
 40
0.7499999999999994
 40
0.8749999999999997
 40
0.8749999999999997
 40
1.0
 40
1.0
 40
1.0
 40
1.0
 10
14.28917106681829
 20
-29.6717694595347
 30
0.0
 10
13.66915906324653
 20
-29.92465975963691
 30
0.0
 10
13.11215971533421
 20
-30.27167221176128
 30
0.0
 10
12.34492732809989
 20
-30.89416092272672
 30
0.0
 10
12.1000265404127
 20
-31.11912510077385
 30
0.0
 10
11.6276161076207
 20
-31.58808047140169
 30
0.0
 10
11.40011598948686
 20
-31.83169744115023
 30
0.0
 10
10.93300839369089
 20
-32.30622013958506
 30
0.0
 10
10.69155283374175
 20
-32.53518560876232
 30
0.0
 10
10.17669711803228
 20
-32.95957864341077
 30
0.0
 10
9.904491285047177
 20
-33.15545190462844
 30
0.0
 10
9.338215308983369
 20
-33.49759605500272
 30
0.0
 10
9.043183450885904
 20
-33.64621494198069
 30
0.0
 10
8.42844643686168
 20
-33.89687458814083
 30
0.0
 10
8.107525457676408
 20
-33.99874455090848
 30
0.0
 10
7.780749240722737
 20
-34.07290107979184
 30
0.0
  0
SPLINE
  5
8D
330
1F
100
AcDbEntity
  8
0
  6
Continuous
 62
     7
370
    25
100
AcDbSpline
210
0.0
220
0.0
230
1.0
 70
     8
 71
     3
 72
    20
 73
    16
 74
     0
 42
0.00000001
 43
0.00000001
 40
0.0
 40
0.0
 40
0.0
 40
0.0
 40
0.25
 40
0.25
 40
0.375
 40
0.375
 40
0.5
 40
0.5
 40
0.625
 40
0.625
 40
0.75
 40
0.75
 40
0.875
 40
0.875
 40
1.0
 40
1.0
 40
1.0
 40
1.0
 10
21.78751397628286
 20
-27.32776878346894
 30
0.0
 10
21.26400684486431
 20
-27.74631936844464
 30
0.0
 10
20.687154683287
 20
-28.06750808896995
 30
0.0
 10
19.74846790977231
 20
-28.41531071388528
 30
0.0
 10
19.42654128069461
 20
-28.50560590124704
 30
0.0
 10
18.77867402527714
 20
-28.64294692229058
 30
0.0
 10
18.45067072123976
 20
-28.68921566749323
 30
0.0
 10
17.79047633096987
 20
-28.7587012721044
 30
0.0
 10
17.45864263505092
 20
-28.78460694362957
 30
0.0
 10
16.80023953885699
 20
-28.8606581175239
 30
0.0
 10
16.47379841996349
 20
-28.91089018392279
 30
0.0
 10
15.8298352873404
 20
-29.05079415229524
 30
0.0
 10
15.51226423595593
 20
-29.14024921221896
 30
0.0
 10
14.88824282588472
 20
-29.36833447726827
 30
0.0
 10
14.58165192356845
 20
-29.50804591763867
 30
0.0
 10
14.28917106681827
 20
-29.67176945953472
 30
0.0
  0
LINE
  5
8E
330
1F
100
AcDbEntity
  8
0
  6
Continuous
 62
     7
370
    25
100
AcDbLine
 10
21.793890855
 20
-27.3226828469
 30
0.0
 11
21.7875139763
 21
-27.3277687835
 31
0.0
  0
SPLINE
  5
8F
330
1F
100
AcDbEntity
  8
0
  6
Continuous
 62
     7
370
    25
100
AcDbSpline
210
0.0
220
0.0
230
1.0
 70
     8
 71
     3
 72
    20
 73
    16
 74
     0
 42
0.00000001
 43
0.00000001
 40
0.0
 40
0.0
 40
0.0
 40
0.0
 40
0.2499999999999995
 40
0.2499999999999995
 40
0.3749999999999996
 40
0.3749999999999996
 40
0.4999999999999997
 40
0.4999999999999997
 40
0.6249999999999998
 40
0.6249999999999998
 40
0.7499999999999998
 40
0.7499999999999998
 40
0.8749999999999999
 40
0.8749999999999999
 40
1.0
 40
1.0
 40
1.0
 40
1.0
 10
25.74819655867638
 20
-20.53350156725475
 30
0.0
 10
25.29931003472222
 20
-21.03036098105392
 30
0.0
 10
24.9480340230564
 20
-21.58468135695713
 30
0.0
 10
24.52686925718136
 20
-22.47841396311377
 30
0.0
 10
24.40382957048853
 20
-22.78735815340586
 30
0.0
 10
24.18167458735669
 20
-23.41484354776234
 30
0.0
 10
24.08240550522019
 20
-23.73304345510769
 30
0.0
 10
23.86744378613674
 20
-24.363244023751
 30
0.0
 10
23.74924423753298
 20
-24.67429842448849
 30
0.0
 10
23.46951250293891
 20
-25.28005085950441
 30
0.0
 10
23.30924974472387
 20
-25.57463225454298
 30
0.0
 10
22.9475035029219
 20
-26.12859142023438
 30
0.0
 10
22.7461723021174
 20
-26.39050193633458
 30
0.0
 10
22.30107053504586
 20
-26.88306286818311
 30
0.0
 10
22.05613044408393
 20
-27.11408692761734
 30
0.0
 10
21.79389055786691
 20
-27.32268253836174
 30
0.0
  0
SPLINE
  5
90
330
1F
100
AcDbEntity
  8
0
  6
Continuous
 62
     7
370
    25
100
AcDbSpline
210
0.0
220
0.0
230
1.0
 70
     8
 71
     3
 72
    20
 73
    16
 74
     0
 42
0.00000001
 43
0.00000001
 40
0.0
 40
0.0
 40
0.0
 40
0.0
 40
0.25
 40
0.25
 40
0.375
 40
0.375
 40
0.5
 40
0.5
 40
0.625
 40
0.625
 40
0.75
 40
0.75
 40
0.875
 40
0.875
 40
1.0
 40
1.0
 40
1.0
 40
1.0
 10
31.48694630313342
 20
-15.16822087303567
 30
0.0
 10
31.19688496841967
 20
-15.77246315137549
 30
0.0
 10
30.81651769248039
 20
-16.31213096207322
 30
0.0
 10
30.12169603620542
 20
-17.03277122644921
 30
0.0
 10
29.87082777917458
 20
-17.25380310872926
 30
0.0
 10
29.34670958725494
 20
-17.65864216020773
 30
0.0
 10
29.0712640779211
 20
-17.84264415919085
 30
0.0
 10
28.50659815946791
 20
-18.19169613630753
 30
0.0
 10
28.21886637974973
 20
-18.35901358460426
 30
0.0
 10
27.65866305524215
 20
-18.71320372187349
 30
0.0
 10
27.38634464670871
 20
-18.9000987431364
 30
0.0
 10
26.86685596905332
 20
-19.30555299497204
 30
0.0
 10
26.61954743429153
 20
-19.52393813424969
 30
0.0
 10
26.15628605855004
 20
-20.00018859997711
 30
0.0
 10
25.9406757225264
 20
-20.25908906531683
 30
0.0
 10
25.74819655867638
 20
-20.53350156725475
 30
0.0
  0
LINE
  5
91
330
1F
100
AcDbEntity
  8
0
  6
Continuous
 62
     7
370
    25
100
AcDbLine
 10
31.4904845655
 20
-15.1608716296
 30
0.0
 11
31.4869463031
 21
-15.168220873
 31
0.0
  0
MTEXT
  5
93
330
1F
100
AcDbEntity
  8
0
  6
Continuous
 62
     7
100
AcDbMText
 10
-34.9500027526
 20
-35.2484703569
 30
0.0
 40
4.83362
 41
0.0
 71
     1
 72
     1
  1
SOLIDWORKS Educational Product.
  7
SLDTEXTSTYLE0
 73
     1
 44
1.0
  0
MTEXT
  5
94
330
1F
100
AcDbEntity
  8
0
  6
Continuous
 62
     7
100
AcDbMText
 10
-34.9500027526
 20
-42.4989003569
 30
0.0
 40
4.83362
 41
0.0
 71
     1
 72
     1
  1
For Instructional Use Only.
  7
SLDTEXTSTYLE0
 73
     1
 44
1.0
  0
ENDSEC
  0
SECTION
  2
OBJECTS
  0
DICTIONARY
  5
C
330
0
100
AcDbDictionary
281
     1
  3
ACAD_GROUP
350
D
  3
ACAD_LAYOUT
350
1A
  3
ACAD_MLINESTYLE
350
17
  3
ACAD_PLOTSETTINGS
350
19
  3
ACAD_PLOTSTYLENAME
350
E
  3
ACAD_SCALELIST
350
47
  3
DWGPROPS
350
95
  0
DICTIONARY
  5
D
102
{ACAD_REACTORS
330
C
102
}
330
C
100
AcDbDictionary
281
     1
  0
DICTIONARY
  5
1A
102
{ACAD_REACTORS
330
C
102
}
330
C
100
AcDbDictionary
281
     1
  3
Layout1
350
1E
  3
Layout2
350
26
  3
Model
350
22
  0
DICTIONARY
  5
17
102
{ACAD_REACTORS
330
C
102
}
330
C
100
AcDbDictionary
281
     1
  3
Standard
350
18
  0
DICTIONARY
  5
19
102
{ACAD_REACTORS
330
C
102
}
330
C
100
AcDbDictionary
281
     1
  0
ACDBDICTIONARYWDFLT
  5
E
102
{ACAD_REACTORS
330
C
102
}
330
C
100
AcDbDictionary
281
     1
  3
Normal
350
F
100
AcDbDictionaryWithDefault
340
F
  0
DICTIONARY
  5
47
102
{ACAD_REACTORS
330
C
102
}
330
C
100
AcDbDictionary
281
     1
  3
A0
350
48
  3
A1
350
49
  3
A2
350
4A
  3
A3
350
4B
  3
A4
350
4C
  3
A5
350
4D
  3
A6
350
4E
  3
A7
350
4F
  3
A8
350
50
  3
A9
350
51
  3
B0
350
52
  3
B1
350
53
  3
B2
350
54
  3
B3
350
55
  3
B4
350
56
  3
B5
350
57
  3
B6
350
58
  0
XRECORD
  5
95
102
{ACAD_REACTORS
330
C
102
}
330
C
100
AcDbXrecord
280
     1
  1
DWGPROPS COOKIE
  2

  3

  4

  6

  7

  8
dampy
  9

300
=
301
=
302
=
303
=
304
=
305
=
306
=
307
=
308
=
309
=
 40
0.0
 41
2460701.917856158
 42
2460701.917882385
  1

 90
        0
  0
LAYOUT
  5
1E
102
{ACAD_REACTORS
330
1A
102
}
330
1A
100
AcDbPlotSettings
  1

  2
none_device
  4

  6

 40
0.0
 41
0.0
 42
0.0
 43
0.0
 44
0.0
 45
0.0
 46
0.0
 47
0.0
 48
0.0
 49
0.0
140
0.0
141
0.0
142
1.0
143
1.0
 70
   688
 72
     1
 73
     0
 74
     5
  7

 75
    16
147
1.0
148
0.0
149
0.0
100
AcDbLayout
  1
Layout1
 70
     1
 71
     1
 10
0.0
 20
0.0
 11
420.0
 21
297.0
 12
0.0
 22
0.0
 32
0.0
 14
1.0000000000E+20
 24
1.0000000000E+20
 34
1.0000000000E+20
 15
-1.0000000000E+20
 25
-1.0000000000E+20
 35
-1.0000000000E+20
146
0.0
 13
0.0
 23
0.0
 33
0.0
 16
1.0
 26
0.0
 36
0.0
 17
0.0
 27
1.0
 37
0.0
 76
     0
330
1B
  0
LAYOUT
  5
26
102
{ACAD_REACTORS
330
1A
102
}
330
1A
100
AcDbPlotSettings
  1

  2
none_device
  4

  6

 40
0.0
 41
0.0
 42
0.0
 43
0.0
 44
0.0
 45
0.0
 46
0.0
 47
0.0
 48
0.0
 49
0.0
140
0.0
141
0.0
142
1.0
143
1.0
 70
   688
 72
     1
 73
     0
 74
     5
  7

 75
    16
147
1.0
148
0.0
149
0.0
100
AcDbLayout
  1
Layout2
 70
     1
 71
     2
 10
0.0
 20
0.0
 11
0.0
 21
0.0
 12
0.0
 22
0.0
 32
0.0
 14
0.0
 24
0.0
 34
0.0
 15
0.0
 25
0.0
 35
0.0
146
0.0
 13
0.0
 23
0.0
 33
0.0
 16
1.0
 26
0.0
 36
0.0
 17
0.0
 27
1.0
 37
0.0
 76
     0
330
23
  0
LAYOUT
  5
22
102
{ACAD_REACTORS
330
1A
102
}
330
1A
100
AcDbPlotSettings
  1

  2
none_device
  4
ANSI_A_(11.00_x_8.50_Inches)
  6

 40
6.35
 41
19.05
 42
6.35000508
 43
19.05000254
 44
279.4
 45
215.9
 46
133.34999746
 47
88.89999873
 48
0.0
 49
0.0
140
0.0
141
0.0
142
0.1229224285
143
1.0
 70
  1696
 72
     0
 73
     0
 74
     0
  7

 75
     0
147
0.0179189148
148
-1300.4909072572
149
0.0
100
AcDbLayout
  1
Model
 70
     1
 71
     0
 10
0.0
 20
0.0
 11
420.0
 21
297.0
 12
0.0
 22
0.0
 32
0.0
 14
-34.9500027526
 24
-34.2289039652
 34
0.0
 15
34.9500027526
 25
34.2289039653
 35
0.0
146
0.0
 13
0.0
 23
0.0
 33
0.0
 16
1.0
 26
0.0
 36
0.0
 17
0.0
 27
1.0
 37
0.0
 76
     0
330
1F
331
29
  0
MLINESTYLE
  5
18
102
{ACAD_REACTORS
330
17
102
}
330
17
100
AcDbMlineStyle
  2
Standard
 70
     0
  3

 62
   256
 51
90.0
 52
90.0
 71
     2
 49
0.5
 62
   256
  6
BYLAYER
 49
-0.5
 62
   256
  6
BYLAYER
  0
ACDBPLACEHOLDER
  5
F
102
{ACAD_REACTORS
330
E
102
}
330
E
  0
SCALE
  5
48
102
{ACAD_REACTORS
330
47
102
}
330
47
100
AcDbScale
 70
     0
300
1:1
140
1.0
141
1.0
290
     1
  0
SCALE
  5
49
102
{ACAD_REACTORS
330
47
102
}
330
47
100
AcDbScale
 70
     0
300
1:2
140
1.0
141
2.0
290
     0
  0
SCALE
  5
4A
102
{ACAD_REACTORS
330
47
102
}
330
47
100
AcDbScale
 70
     0
300
1:4
140
1.0
141
4.0
290
     0
  0
SCALE
  5
4B
102
{ACAD_REACTORS
330
47
102
}
330
47
100
AcDbScale
 70
     0
300
1:5
140
1.0
141
5.0
290
     0
  0
SCALE
  5
4C
102
{ACAD_REACTORS
330
47
102
}
330
47
100
AcDbScale
 70
     0
300
1:8
140
1.0
141
8.0
290
     0
  0
SCALE
  5
4D
102
{ACAD_REACTORS
330
47
102
}
330
47
100
AcDbScale
 70
     0
300
1:10
140
1.0
141
10.0
290
     0
  0
SCALE
  5
4E
102
{ACAD_REACTORS
330
47
102
}
330
47
100
AcDbScale
 70
     0
300
1:16
140
1.0
141
16.0
290
     0
  0
SCALE
  5
4F
102
{ACAD_REACTORS
330
47
102
}
330
47
100
AcDbScale
 70
     0
300
1:20
140
1.0
141
20.0
290
     0
  0
SCALE
  5
50
102
{ACAD_REACTORS
330
47
102
}
330
47
100
AcDbScale
 70
     0
300
1:30
140
1.0
141
30.0
290
     0
  0
SCALE
  5
51
102
{ACAD_REACTORS
330
47
102
}
330
47
100
AcDbScale
 70
     0
300
1:40
140
1.0
141
40.0
290
     0
  0
SCALE
  5
52
102
{ACAD_REACTORS
330
47
102
}
330
47
100
AcDbScale
 70
     0
300
1:50
140
1.0
141
50.0
290
     0
  0
SCALE
  5
53
102
{ACAD_REACTORS
330
47
102
}
330
47
100
AcDbScale
 70
     0
300
1:100
140
1.0
141
100.0
290
     0
  0
SCALE
  5
54
102
{ACAD_REACTORS
330
47
102
}
330
47
100
AcDbScale
 70
     0
300
2:1
140
2.0
141
1.0
290
     0
  0
SCALE
  5
55
102
{ACAD_REACTORS
330
47
102
}
330
47
100
AcDbScale
 70
     0
300
4:1
140
4.0
141
1.0
290
     0
  0
SCALE
  5
56
102
{ACAD_REACTORS
330
47
102
}
330
47
100
AcDbScale
 70
     0
300
8:1
140
8.0
141
1.0
290
     0
  0
SCALE
  5
57
102
{ACAD_REACTORS
330
47
102
}
330
47
100
AcDbScale
 70
     0
300
10:1
140
10.0
141
1.0
290
     0
  0
SCALE
  5
58
102
{ACAD_REACTORS
330
47
102
}
330
47
100
AcDbScale
 70
     0
300
100:1
140
100.0
141
1.0
290
     0
  0
ENDSEC
  0
EOF
