  0
SECTION
  2
HEADER
  9
$ACADVER
  1
AC1015
  9
$ACADMAINTVER
 70
     6
  9
$DWGCODEPAGE
  3
ANSI_1252
  9
$INSBASE
 10
0.0
 20
0.0
 30
0.0
  9
$EXTMIN
 10
-35.4000024037
 20
-34.6793391364
 30
0.0
  9
$EXTMAX
 10
35.4000024037
 20
34.6793391364
 30
0.0
  9
$LIMMIN
 10
0.0
 20
0.0
  9
$LIMMAX
 10
420.0
 20
297.0
  9
$ORTHOMODE
 70
     0
  9
$REGENMODE
 70
     1
  9
$FILLMODE
 70
     1
  9
$QTEXTMODE
 70
     0
  9
$MIRRTEXT
 70
     1
  9
$LTSCALE
 40
1.0
  9
$ATTMODE
 70
     1
  9
$TEXTSIZE
 40
3.175
  9
$TRACEWID
 40
1.0
  9
$TEXTSTYLE
  7
Standard
  9
$CLAYER
  8
0
  9
$CELTYPE
  6
ByLayer
  9
$CECOLOR
 62
   256
  9
$CELTSCALE
 40
1.0
  9
$DISPSILH
 70
     0
  9
$DIMSCALE
 40
1.0
  9
$DIMASZ
 40
3.302
  9
$DIMEXO
 40
0.0
  9
$DIMDLI
 40
3.75
  9
$DIMRND
 40
0.0
  9
$DIMDLE
 40
0.0
  9
$DIMEXE
 40
3.175
  9
$DIMTP
 40
0.0
  9
$DIMTM
 40
0.0
  9
$DIMTXT
 40
3.175
  9
$DIMCEN
 40
2.5
  9
$DIMTSZ
 40
0.0
  9
$DIMTOL
 70
     0
  9
$DIMLIM
 70
     0
  9
$DIMTIH
 70
     1
  9
$DIMTOH
 70
     1
  9
$DIMSE1
 70
     0
  9
$DIMSE2
 70
     0
  9
$DIMTAD
 70
     0
  9
$DIMZIN
 70
     1
  9
$DIMBLK
  1

  9
$DIMASO
 70
     1
  9
$DIMSHO
 70
     1
  9
$DIMPOST
  1

  9
$DIMAPOST
  1

  9
$DIMALT
 70
     0
  9
$DIMALTD
 70
     3
  9
$DIMALTF
 40
0.0393700787
  9
$DIMLFAC
 40
1.0
  9
$DIMTOFL
 70
     1
  9
$DIMTVP
 40
0.0
  9
$DIMTIX
 70
     0
  9
$DIMSOXD
 70
     0
  9
$DIMSAH
 70
     0
  9
$DIMBLK1
  1

  9
$DIMBLK2
  1

  9
$DIMSTYLE
  2
ISO-25
  9
$DIMCLRD
 70
     0
  9
$DIMCLRE
 70
     0
  9
$DIMCLRT
 70
     0
  9
$DIMTFAC
 40
1.0
  9
$DIMGAP
 40
1.524
  9
$DIMJUST
 70
     0
  9
$DIMSD1
 70
     0
  9
$DIMSD2
 70
     0
  9
$DIMTOLJ
 70
     0
  9
$DIMTZIN
 70
     1
  9
$DIMALTZ
 70
     0
  9
$DIMALTTZ
 70
     0
  9
$DIMUPT
 70
     0
  9
$DIMDEC
 70
     2
  9
$DIMTDEC
 70
     2
  9
$DIMALTU
 70
     2
  9
$DIMALTTD
 70
     3
  9
$DIMTXSTY
  7
Standard
  9
$DIMAUNIT
 70
     0
  9
$DIMADEC
 70
     2
  9
$DIMALTRND
 40
0.0
  9
$DIMAZIN
 70
     0
  9
$DIMDSEP
 70
    44
  9
$DIMATFIT
 70
     3
  9
$DIMFRAC
 70
     0
  9
$DIMLDRBLK
  1

  9
$DIMLUNIT
 70
     2
  9
$DIMLWD
 70
    -2
  9
$DIMLWE
 70
    -2
  9
$DIMTMOVE
 70
     0
  9
$LUNITS
 70
     2
  9
$LUPREC
 70
     6
  9
$SKETCHINC
 40
1.0
  9
$FILLETRAD
 40
0.0
  9
$AUNITS
 70
     0
  9
$AUPREC
 70
     2
  9
$MENU
  1
.
  9
$ELEVATION
 40
0.0
  9
$PELEVATION
 40
0.0
  9
$THICKNESS
 40
0.0
  9
$LIMCHECK
 70
     0
  9
$CHAMFERA
 40
0.0
  9
$CHAMFERB
 40
0.0
  9
$CHAMFERC
 40
0.0
  9
$CHAMFERD
 40
0.0
  9
$SKPOLY
 70
     0
  9
$TDCREATE
 40
2460715.685024989
  9
$TDUCREATE
 40
2460715.893358322
  9
$TDUPDATE
 40
2460715.685052604
  9
$TDUUPDATE
 40
2460715.893385938
  9
$TDINDWG
 40
0.0000000116
  9
$TDUSRTIMER
 40
0.0000000116
  9
$USRTIMER
 70
     1
  9
$ANGBASE
 50
0.0
  9
$ANGDIR
 70
     0
  9
$PDMODE
 70
     0
  9
$PDSIZE
 40
-1.0
  9
$PLINEWID
 40
0.0
  9
$SPLFRAME
 70
     0
  9
$SPLINETYPE
 70
     6
  9
$SPLINESEGS
 70
     8
  9
$HANDSEED
  5
96
  9
$SURFTAB1
 70
     6
  9
$SURFTAB2
 70
     6
  9
$SURFTYPE
 70
     6
  9
$SURFU
 70
     6
  9
$SURFV
 70
     6
  9
$UCSBASE
  2

  9
$UCSNAME
  2

  9
$UCSORG
 10
0.0
 20
0.0
 30
0.0
  9
$UCSXDIR
 10
1.0
 20
0.0
 30
0.0
  9
$UCSYDIR
 10
0.0
 20
1.0
 30
0.0
  9
$UCSORTHOREF
  2

  9
$UCSORTHOVIEW
 70
     0
  9
$UCSORGTOP
 10
0.0
 20
0.0
 30
0.0
  9
$UCSORGBOTTOM
 10
0.0
 20
0.0
 30
0.0
  9
$UCSORGLEFT
 10
0.0
 20
0.0
 30
0.0
  9
$UCSORGRIGHT
 10
0.0
 20
0.0
 30
0.0
  9
$UCSORGFRONT
 10
0.0
 20
0.0
 30
0.0
  9
$UCSORGBACK
 10
0.0
 20
0.0
 30
0.0
  9
$PUCSBASE
  2

  9
$PUCSNAME
  2

  9
$PUCSORG
 10
0.0
 20
0.0
 30
0.0
  9
$PUCSXDIR
 10
1.0
 20
0.0
 30
0.0
  9
$PUCSYDIR
 10
0.0
 20
1.0
 30
0.0
  9
$PUCSORTHOREF
  2

  9
$PUCSORTHOVIEW
 70
     0
  9
$PUCSORGTOP
 10
0.0
 20
0.0
 30
0.0
  9
$PUCSORGBOTTOM
 10
0.0
 20
0.0
 30
0.0
  9
$PUCSORGLEFT
 10
0.0
 20
0.0
 30
0.0
  9
$PUCSORGRIGHT
 10
0.0
 20
0.0
 30
0.0
  9
$PUCSORGFRONT
 10
0.0
 20
0.0
 30
0.0
  9
$PUCSORGBACK
 10
0.0
 20
0.0
 30
0.0
  9
$USERI1
 70
     0
  9
$USERI2
 70
     0
  9
$USERI3
 70
     0
  9
$USERI4
 70
     0
  9
$USERI5
 70
     0
  9
$USERR1
 40
0.0
  9
$USERR2
 40
0.0
  9
$USERR3
 40
0.0
  9
$USERR4
 40
0.0
  9
$USERR5
 40
0.0
  9
$WORLDVIEW
 70
     1
  9
$SHADEDGE
 70
     3
  9
$SHADEDIF
 70
    70
  9
$TILEMODE
 70
     1
  9
$MAXACTVP
 70
    64
  9
$PINSBASE
 10
0.0
 20
0.0
 30
0.0
  9
$PLIMCHECK
 70
     0
  9
$PEXTMIN
 10
1.0000000000E+20
 20
1.0000000000E+20
 30
1.0000000000E+20
  9
$PEXTMAX
 10
-1.0000000000E+20
 20
-1.0000000000E+20
 30
-1.0000000000E+20
  9
$PLIMMIN
 10
0.0
 20
0.0
  9
$PLIMMAX
 10
420.0
 20
297.0
  9
$UNITMODE
 70
     0
  9
$VISRETAIN
 70
     1
  9
$PLINEGEN
 70
     0
  9
$PSLTSCALE
 70
     1
  9
$TREEDEPTH
 70
  3020
  9
$CMLSTYLE
  2
Standard
  9
$CMLJUST
 70
     0
  9
$CMLSCALE
 40
20.0
  9
$PROXYGRAPHICS
 70
     1
  9
$MEASUREMENT
 70
     1
  9
$CELWEIGHT
370
    -1
  9
$ENDCAPS
280
     0
  9
$JOINSTYLE
280
     0
  9
$LWDISPLAY
290
     1
  9
$INSUNITS
 70
     4
  9
$HYPERLINKBASE
  1

  9
$STYLESHEET
  1

  9
$XEDIT
290
     1
  9
$CEPSNTYPE
380
     0
  9
$PSTYLEMODE
290
     1
  9
$FINGERPRINTGUID
  2
{547cc457-c260-4b2f-871c-f7ef2b657027}
  9
$VERSIONGUID
  2
{FAEB1C32-E019-11D5-929B-00C0DF256EC4}
  9
$EXTNAMES
290
     1
  9
$PSVPSCALE
 40
0.0
  9
$OLESTARTUP
290
     0
  0
ENDSEC
  0
SECTION
  2
CLASSES
  0
CLASS
  1
ACDBDICTIONARYWDFLT
  2
AcDbDictionaryWithDefault
  3
ObjectDBX Classes
 90
        0
280
     0
281
     0
  0
CLASS
  1
VISUALSTYLE
  2
AcDbVisualStyle
  3
ObjectDBX Classes
 90
     4095
280
     0
281
     0
  0
CLASS
  1
MATERIAL
  2
AcDbMaterial
  3
ObjectDBX Classes
 90
     1153
280
     0
281
     0
  0
CLASS
  1
SCALE
  2
AcDbScale
  3
ObjectDBX Classes
 90
     1153
280
     0
281
     0
  0
CLASS
  1
TABLESTYLE
  2
AcDbTableStyle
  3
ObjectDBX Classes
 90
     4095
280
     0
281
     0
  0
CLASS
  1
MLEADERSTYLE
  2
AcDbMLeaderStyle
  3
ACDB_MLEADERSTYLE_CLASS
 90
     4095
280
     0
281
     0
  0
CLASS
  1
SUN
  2
AcDbSun
  3
SCENEOE
 90
     1153
280
     0
281
     0
  0
CLASS
  1
ACDBPLACEHOLDER
  2
AcDbPlaceHolder
  3
ObjectDBX Classes
 90
        0
280
     0
281
     0
  0
CLASS
  1
LAYOUT
  2
AcDbLayout
  3
ObjectDBX Classes
 90
        0
280
     0
281
     0
  0
ENDSEC
  0
SECTION
  2
TABLES
  0
TABLE
  2
VPORT
  5
8
330
0
100
AcDbSymbolTable
 70
     1
  0
VPORT
  5
29
330
8
100
AcDbSymbolTableRecord
100
AcDbViewportTableRecord
  2
*Active
 70
     0
 10
0.0
 20
0.0
 11
1.0
 21
1.0
 12
0.0
 22
0.0
 13
0.0
 23
0.0
 14
10.0
 24
10.0
 15
10.0
 25
10.0
 16
0.0
 26
0.0
 36
1.0
 17
0.0
 27
0.0
 37
0.0
 40
70.7458518383
 41
1.020780767
 42
50.0
 43
0.0
 44
0.0
 50
0.0
 51
0.0
 71
     0
 72
   100
 73
     1
 74
     3
 75
     0
 76
     0
 77
     0
 78
     0
281
     0
 65
     1
110
0.0
120
0.0
130
0.0
111
1.0
121
0.0
131
0.0
112
0.0
122
1.0
132
0.0
 79
     0
146
0.0
  0
ENDTAB
  0
TABLE
  2
LTYPE
  5
5
330
0
100
AcDbSymbolTable
 70
     6
  0
LTYPE
  5
14
330
5
100
AcDbSymbolTableRecord
100
AcDbLinetypeTableRecord
  2
ByBlock
 70
     0
  3

 72
    65
 73
     0
 40
0.0
  0
LTYPE
  5
15
330
5
100
AcDbSymbolTableRecord
100
AcDbLinetypeTableRecord
  2
ByLayer
 70
     0
  3

 72
    65
 73
     0
 40
0.0
  0
LTYPE
  5
16
330
5
100
AcDbSymbolTableRecord
100
AcDbLinetypeTableRecord
  2
Continuous
 70
     0
  3
Solid line
 72
    65
 73
     0
 40
0.0
  0
LTYPE
  5
5E
330
5
100
AcDbSymbolTableRecord
100
AcDbLinetypeTableRecord
  2
HIDDEN
 70
     0
  3
Hidden __ __ __ __ __ __ __ __ __ __ __ __ __ __
 72
    65
 73
     2
 40
1.905
 49
1.27
 74
     0
 49
-0.635
 74
     0
  0
LTYPE
  5
5F
330
5
100
AcDbSymbolTableRecord
100
AcDbLinetypeTableRecord
  2
PHANTOM
 70
     0
  3
Phantom ______  __  __  ______  __  __  ______
 72
    65
 73
     6
 40
12.7
 49
6.35
 74
     0
 49
-1.27
 74
     0
 49
1.27
 74
     0
 49
-1.27
 74
     0
 49
1.27
 74
     0
 49
-1.27
 74
     0
  0
LTYPE
  5
60
330
5
100
AcDbSymbolTableRecord
100
AcDbLinetypeTableRecord
  2
CENTER
 70
     0
  3
Center ____ _ ____ _ ____ _ ____ _ ____ _ ____
 72
    65
 73
     4
 40
10.16
 49
6.35
 74
     0
 49
-1.27
 74
     0
 49
1.27
 74
     0
 49
-1.27
 74
     0
  0
LTYPE
  5
61
330
5
100
AcDbSymbolTableRecord
100
AcDbLinetypeTableRecord
  2
CENTERX2
 70
     0
  3
Center (2x) ________  __  ________  __  _____
 72
    65
 73
     4
 40
20.32
 49
12.7
 74
     0
 49
-2.54
 74
     0
 49
2.54
 74
     0
 49
-2.54
 74
     0
  0
LTYPE
  5
62
330
5
100
AcDbSymbolTableRecord
100
AcDbLinetypeTableRecord
  2
DOT2
 70
     0
  3
Dot (.5x) ........................................
 72
    65
 73
     2
 40
0.635
 49
0.0
 74
     0
 49
-0.635
 74
     0
  0
ENDTAB
  0
TABLE
  2
LAYER
  5
2
330
0
100
AcDbSymbolTable
 70
     1
  0
LAYER
  5
10
330
2
100
AcDbSymbolTableRecord
100
AcDbLayerTableRecord
  2
0
 70
     0
 62
     7
  6
Continuous
370
    -3
390
F
  0
ENDTAB
  0
TABLE
  2
STYLE
  5
3
330
0
100
AcDbSymbolTable
 70
     2
  0
STYLE
  5
11
330
3
100
AcDbSymbolTableRecord
100
AcDbTextStyleTableRecord
  2
Standard
 70
     0
 40
0.0
 41
1.0
 50
0.0
 71
     0
 42
3.175
  3
txt
  4

  0
STYLE
  5
92
330
3
100
AcDbSymbolTableRecord
100
AcDbTextStyleTableRecord
  2
SLDTEXTSTYLE0
 70
     0
 40
0.0
 41
0.7
 50
0.0
 71
     0
 42
3.175
  3
TXT
  4

  0
ENDTAB
  0
TABLE
  2
VIEW
  5
6
330
0
100
AcDbSymbolTable
 70
     0
  0
ENDTAB
  0
TABLE
  2
UCS
  5
7
330
0
100
AcDbSymbolTable
 70
     0
  0
ENDTAB
  0
TABLE
  2
APPID
  5
9
330
0
100
AcDbSymbolTable
 70
     1
  0
APPID
  5
12
330
9
100
AcDbSymbolTableRecord
100
AcDbRegAppTableRecord
  2
ACAD
 70
     0
  0
ENDTAB
  0
TABLE
  2
DIMSTYLE
  5
A
330
0
100
AcDbSymbolTable
 70
     1
100
AcDbDimStyleTable
  0
DIMSTYLE
105
27
330
A
100
AcDbSymbolTableRecord
100
AcDbDimStyleTableRecord
  2
ISO-25
 70
     0
 41
2.5
 42
0.625
 43
3.75
 44
1.25
 73
     0
 74
     0
 77
     1
 78
     8
140
2.5
141
2.5
143
0.0393700787
147
0.625
171
     3
172
     1
178
     0
271
     2
272
     2
274
     3
278
    44
283
     0
284
     8
340
11
  0
ENDTAB
  0
TABLE
  2
BLOCK_RECORD
  5
1
330
0
100
AcDbSymbolTable
 70
     1
  0
BLOCK_RECORD
  5
1F
330
1
100
AcDbSymbolTableRecord
100
AcDbBlockTableRecord
  2
*Model_Space
340
22
  0
BLOCK_RECORD
  5
1B
330
1
100
AcDbSymbolTableRecord
100
AcDbBlockTableRecord
  2
*Paper_Space
340
1E
  0
BLOCK_RECORD
  5
23
330
1
100
AcDbSymbolTableRecord
100
AcDbBlockTableRecord
  2
*Paper_Space0
340
26
  0
ENDTAB
  0
ENDSEC
  0
SECTION
  2
BLOCKS
  0
BLOCK
  5
20
330
1F
100
AcDbEntity
  8
0
100
AcDbBlockBegin
  2
*Model_Space
 70
     0
 10
0.0
 20
0.0
 30
0.0
  3
*Model_Space
  1

  0
ENDBLK
  5
21
330
1F
100
AcDbEntity
  8
0
100
AcDbBlockEnd
  0
BLOCK
  5
1C
330
1B
100
AcDbEntity
 67
     1
  8
0
100
AcDbBlockBegin
  2
*Paper_Space
 70
     0
 10
0.0
 20
0.0
 30
0.0
  3
*Paper_Space
  1

  0
ENDBLK
  5
1D
330
1B
100
AcDbEntity
 67
     1
  8
0
100
AcDbBlockEnd
  0
BLOCK
  5
24
330
23
100
AcDbEntity
  8
0
100
AcDbBlockBegin
  2
*Paper_Space0
 70
     0
 10
0.0
 20
0.0
 30
0.0
  3
*Paper_Space0
  1

  0
ENDBLK
  5
25
330
23
100
AcDbEntity
  8
0
100
AcDbBlockEnd
  0
ENDSEC
  0
SECTION
  2
ENTITIES
  0
CIRCLE
  5
63
330
1F
100
AcDbEntity
  8
0
  6
Continuous
 62
     7
370
    25
100
AcDbCircle
 10
0.0
 20
0.0
 30
0.0
 40
10.36
  0
CIRCLE
  5
64
330
1F
100
AcDbEntity
  8
0
  6
Continuous
 62
     7
370
    25
100
AcDbCircle
 10
22.5
 20
0.0
 30
0.0
 40
6.000000000000003
  0
CIRCLE
  5
65
330
1F
100
AcDbEntity
  8
0
  6
Continuous
 62
     7
370
    25
100
AcDbCircle
 10
-22.5
 20
0.0
 30
0.0
 40
6.000000000000005
  0
CIRCLE
  5
66
330
1F
100
AcDbEntity
  8
0
  6
Continuous
 62
     7
370
    25
100
AcDbCircle
 10
0.0
 20
-22.5
 30
0.0
 40
6.000000000000004
  0
CIRCLE
  5
67
330
1F
100
AcDbEntity
  8
0
  6
Continuous
 62
     7
370
    25
100
AcDbCircle
 10
0.0
 20
22.5
 30
0.0
 40
6.0
  0
SPLINE
  5
68
330
1F
100
AcDbEntity
  8
0
  6
Continuous
 62
     7
370
    25
100
AcDbSpline
210
0.0
220
0.0
230
1.0
 70
     8
 71
     3
 72
    20
 73
    16
 74
     0
 42
0.00000001
 43
0.00000001
 40
0.0
 40
0.0
 40
0.0
 40
0.0
 40
0.2499999999999995
 40
0.2499999999999995
 40
0.3749999999999996
 40
0.3749999999999996
 40
0.4999999999999997
 40
0.4999999999999997
 40
0.6249999999999998
 40
0.6249999999999998
 40
0.7499999999999998
 40
0.7499999999999998
 40
0.8749999999999999
 40
0.8749999999999999
 40
1.0
 40
1.0
 40
1.0
 40
1.0
 10
32.54709602672096
 20
-7.428662278448551
 30
0.0
 10
32.35226811192867
 20
-8.0787392299525
 30
0.0
 10
32.28358488546672
 20
-8.740517961639666
 30
0.0
 10
32.30882788488172
 20
-9.745084792899789
 30
0.0
 10
32.33925528790208
 20
-10.08214296363748
 30
0.0
 10
32.42022317743988
 20
-10.75194840103775
 30
0.0
 10
32.4697981571541
 20
-11.08594931602335
 30
0.0
 10
32.54143195620919
 20
-11.75668066752689
 30
0.0
 10
32.56136630067687
 20
-12.09512143533799
 30
0.0
 10
32.55741065507938
 20
-12.76899959705585
 30
0.0
 10
32.53322091617724
 20
-13.10261883816803
 30
0.0
 10
32.43546824675118
 20
-13.76247789921984
 30
0.0
 10
32.36273189633913
 20
-14.08884126156338
 30
0.0
 10
32.16660648222117
 20
-14.73399732507498
 30
0.0
 10
32.0433496049491
 20
-15.05095325764712
 30
0.0
 10
31.89592088360567
 20
-15.35611943634805
 30
0.0
  0
SPLINE
  5
69
330
1F
100
AcDbEntity
  8
0
  6
Continuous
 62
     7
370
    25
100
AcDbSpline
210
0.0
220
0.0
230
1.0
 70
     8
 71
     3
 72
    18
 73
    14
 74
     0
 42
0.00000001
 43
0.00000001
 40
0.0
 40
0.0
 40
0.0
 40
0.0
 40
0.1249999999999999
 40
0.1249999999999999
 40
0.2499999999999998
 40
0.2499999999999998
 40
0.4999999999999994
 40
0.4999999999999994
 40
0.6249999999999993
 40
0.6249999999999993
 40
0.7499999999999992
 40
0.7499999999999992
 40
1.0
 40
1.0
 40
1.0
 40
1.0
 10
35.4000024036734
 20
-0.0038604105054026
 30
0.0
 10
35.40042188507927
 20
-0.3407135374096581
 30
0.0
 10
35.37457143310186
 20
-0.6746976576650318
 30
0.0
 10
35.27286676692147
 20
-1.337204859344766
 30
0.0
 10
35.19643371803718
 20
-1.66674898067858
 30
0.0
 10
34.90032154010369
 20
-2.621790637252246
 30
0.0
 10
34.60795255289308
 20
-3.221133107296728
 30
0.0
 10
34.07724363169567
 20
-4.080281775781231
 30
0.0
 10
33.88733799890991
 20
-4.36046742482555
 30
0.0
 10
33.52314830532899
 20
-4.9282841721446
 30
0.0
 10
33.34988500993414
 20
-5.216401780801737
 30
0.0
 10
32.88875949624909
 20
-6.108714827891143
 30
0.0
 10
32.65663274729711
 20
-6.739474533193029
 30
0.0
 10
32.54709602672098
 20
-7.42866227844856
 30
0.0
  0
LINE
  5
6A
330
1F
100
AcDbEntity
  8
0
  6
Continuous
 62
     7
370
    25
100
AcDbLine
 10
35.4000023261
 20
0.0037358811
 30
0.0
 11
35.4000024037
 21
-0.0038604105
 31
0.0
  0
SPLINE
  5
6B
330
1F
100
AcDbEntity
  8
0
  6
Continuous
 62
     7
370
    25
100
AcDbSpline
210
0.0
220
0.0
230
1.0
 70
     8
 71
     3
 72
    20
 73
    16
 74
     0
 42
0.00000001
 43
0.00000001
 40
0.0
 40
0.0
 40
0.0
 40
0.0
 40
0.2500000000000009
 40
0.2500000000000009
 40
0.3750000000000008
 40
0.3750000000000008
 40
0.5000000000000007
 40
0.5000000000000007
 40
0.6250000000000006
 40
0.6250000000000006
 40
0.7500000000000004
 40
0.7500000000000004
 40
0.8750000000000003
 40
0.8750000000000003
 40
1.0
 40
1.0
 40
1.0
 40
1.0
 10
32.54709602672262
 20
7.428662278447743
 30
0.0
 10
32.65361995932952
 20
6.758430519245494
 30
0.0
 10
32.87887354111415
 20
6.132387949441976
 30
0.0
 10
33.33748191066206
 20
5.238257035719924
 30
0.0
 10
33.51114011293501
 20
4.947780072606611
 30
0.0
 10
33.87470734837014
 20
4.379436876617051
 30
0.0
 10
34.06429042758264
 20
4.100022227928446
 30
0.0
 10
34.41984967715499
 20
3.526794902077053
 30
0.0
 10
34.58465384673014
 20
3.230519494563671
 30
0.0
 10
34.87347470970982
 20
2.621659959792123
 30
0.0
 10
34.99643247181119
 20
2.310583875452622
 30
0.0
 10
35.19466247660274
 20
1.673658110520208
 30
0.0
 10
35.27073304528061
 20
1.348055761737091
 30
0.0
 10
35.37395287810503
 20
0.6816946055589482
 30
0.0
 10
35.40042429408577
 20
0.3426480230308739
 30
0.0
 10
35.40000224858765
 20
0.0037358716139616
 30
0.0
  0
SPLINE
  5
6C
330
1F
100
AcDbEntity
  8
0
  6
Continuous
 62
     7
370
    25
100
AcDbSpline
210
0.0
220
0.0
230
1.0
 70
     8
 71
     3
 72
    18
 73
    14
 74
     0
 42
0.00000001
 43
0.00000001
 40
0.0
 40
0.0
 40
0.0
 40
0.0
 40
0.1249999999999996
 40
0.1249999999999996
 40
0.2499999999999992
 40
0.2499999999999992
 40
0.4999999999999991
 40
0.4999999999999991
 40
0.6249999999999991
 40
0.6249999999999991
 40
0.7499999999999992
 40
0.7499999999999992
 40
1.0
 40
1.0
 40
1.0
 40
1.0
 10
31.8959750587269
 20
15.3560072979935
 30
0.0
 10
32.04250809264892
 20
15.05269512375803
 30
0.0
 10
32.16412791909836
 20
14.74056973827228
 30
0.0
 10
32.35994628300651
 20
14.09954337394958
 30
0.0
 10
32.43406632105139
 20
13.76947132298544
 30
0.0
 10
32.5816555122937
 20
12.78053026390251
 30
0.0
 10
32.57828510879156
 20
12.11368720780768
 30
0.0
 10
32.47290352961451
 20
11.10935503349105
 30
0.0
 10
32.42337246368962
 20
10.77451952043647
 30
0.0
 10
32.34161534122261
 20
10.10491832242935
 30
0.0
 10
32.31052005147148
 20
9.770157200277003
 30
0.0
 10
32.28222044078031
 20
8.766136062346026
 30
0.0
 10
32.34675784598836
 20
8.09712518295717
 30
0.0
 10
32.5470960267226
 20
7.428662278447751
 30
0.0
  0
LINE
  5
6D
330
1F
100
AcDbEntity
  8
0
  6
Continuous
 62
     7
370
    25
100
AcDbLine
 10
31.8926790815
 20
15.3628512866
 30
0.0
 11
31.8959750587
 21
15.356007298
 31
0.0
  0
SPLINE
  5
6E
330
1F
100
AcDbEntity
  8
0
  6
Continuous
 62
     7
370
    25
100
AcDbSpline
210
0.0
220
0.0
230
1.0
 70
     8
 71
     3
 72
    20
 73
    16
 74
     0
 42
0.00000001
 43
0.00000001
 40
0.0
 40
0.0
 40
0.0
 40
0.0
 40
0.2499999999999994
 40
0.2499999999999994
 40
0.3749999999999994
 40
0.3749999999999994
 40
0.4999999999999996
 40
0.4999999999999996
 40
0.6249999999999996
 40
0.6249999999999996
 40
0.7499999999999997
 40
0.7499999999999997
 40
0.8749999999999999
 40
0.8749999999999999
 40
1.0
 40
1.0
 40
1.0
 40
1.0
 10
26.10074449469474
 20
20.81464916453529
 30
0.0
 10
26.48752190341903
 20
20.25701021739813
 30
0.0
 10
26.96209805902505
 20
19.79069921833696
 30
0.0
 10
27.76323878665591
 20
19.18409781541323
 30
0.0
 10
28.04573265144369
 20
18.99773458493565
 30
0.0
 10
28.61989028293965
 20
18.64342097059544
 30
0.0
 10
28.91193220772917
 20
18.47393408617282
 30
0.0
 10
29.48099403779455
 20
18.11174548803073
 30
0.0
 10
29.75802654550321
 20
17.91631641885259
 30
0.0
 10
30.28241940299327
 20
17.49306760906081
 30
0.0
 10
30.52817137333698
 20
17.26614711509498
 30
0.0
 10
30.98312216876761
 20
16.77830560540799
 30
0.0
 10
31.19293294746541
 20
16.51795380861207
 30
0.0
 10
31.57505407343519
 20
15.96236855913055
 30
0.0
 10
31.74601079408406
 20
15.6683836604479
 30
0.0
 10
31.89267901571893
 20
15.36285124438792
 30
0.0
  0
SPLINE
  5
6F
330
1F
100
AcDbEntity
  8
0
  6
Continuous
 62
     7
370
    25
100
AcDbSpline
210
0.0
220
0.0
230
1.0
 70
     8
 71
     3
 72
    18
 73
    14
 74
     0
 42
0.00000001
 43
0.00000001
 40
0.0
 40
0.0
 40
0.0
 40
0.0
 40
0.1249999999999998
 40
0.1249999999999998
 40
0.2499999999999996
 40
0.2499999999999996
 40
0.4999999999999999
 40
0.4999999999999999
 40
0.6250000000000003
 40
0.6250000000000003
 40
0.7500000000000008
 40
0.7500000000000008
 40
1.0
 40
1.0
 40
1.0
 40
1.0
 10
22.07455867493697
 20
27.67442943205525
 30
0.0
 10
22.33818259689714
 20
27.46473290647561
 30
0.0
 10
22.58318440357582
 20
27.23628651632164
 30
0.0
 10
23.03774156904592
 20
26.74370412248259
 30
0.0
 10
23.24773431146261
 20
26.47847895964967
 30
0.0
 10
23.80979302249255
 20
25.65151040337508
 30
0.0
 10
24.09608875244789
 20
25.04924320678294
 30
0.0
 10
24.4369066294675
 20
24.09864783108348
 30
0.0
 10
24.53756036546861
 20
23.77548073386721
 30
0.0
 10
24.75442881490547
 20
23.13671781455719
 30
0.0
 10
24.87166033429191
 20
22.82161672472769
 30
0.0
 10
25.2817917115639
 20
21.90474619583367
 30
0.0
 10
25.63021084633107
 20
21.32998995190089
 30
0.0
 10
26.10074449469475
 20
20.81464916453529
 30
0.0
  0
LINE
  5
70
330
1F
100
AcDbEntity
  8
0
  6
Continuous
 62
     7
370
    25
100
AcDbLine
 10
22.0686196066
 20
27.6791655818
 30
0.0
 11
22.0745586749
 21
27.6744294321
 31
0.0
  0
SPLINE
  5
71
330
1F
100
AcDbEntity
  8
0
  6
Continuous
 62
     7
370
    25
100
AcDbSpline
210
0.0
220
0.0
230
1.0
 70
     8
 71
     3
 72
    20
 73
    16
 74
     0
 42
0.00000001
 43
0.00000001
 40
0.0
 40
0.0
 40
0.0
 40
0.0
 40
0.2500000000000002
 40
0.2500000000000002
 40
0.3750000000000001
 40
0.3750000000000001
 40
0.5000000000000001
 40
0.5000000000000001
 40
0.6250000000000001
 40
0.6250000000000001
 40
0.75
 40
0.75
 40
0.875
 40
0.875
 40
1.0
 40
1.0
 40
1.0
 40
1.0
 10
14.48482041086718
 20
30.07803950866804
 30
0.0
 10
15.07524528639384
 20
29.74344060607276
 30
0.0
 10
15.70514838790419
 20
29.52921979004884
 30
0.0
 10
16.69014572715689
 20
29.33029274525205
 30
0.0
 10
17.0255238799758
 20
29.28495477080162
 30
0.0
 10
17.69655294702865
 20
29.21484689480315
 30
0.0
 10
18.03321123252914
 20
29.18885673072757
 30
0.0
 10
18.70306596855371
 20
29.10944275411183
 30
0.0
 10
19.03745712866162
 20
29.0535671472024
 30
0.0
 10
19.69355954397734
 20
28.89975867998081
 30
0.0
 10
20.01343153088581
 20
28.80193816321882
 30
0.0
 10
20.63499453231376
 20
28.55980390276073
 30
0.0
 10
20.93698992314965
 20
28.41626852431623
 30
0.0
 10
21.52232856685814
 20
28.08149965400484
 30
0.0
 10
21.80391051700747
 20
27.89080375384538
 30
0.0
 10
22.06861956571147
 20
27.67916551525405
 30
0.0
  0
SPLINE
  5
72
330
1F
100
AcDbEntity
  8
0
  6
Continuous
 62
     7
370
    25
100
AcDbSpline
210
0.0
220
0.0
230
1.0
 70
     8
 71
     3
 72
    18
 73
    14
 74
     0
 42
0.00000001
 43
0.00000001
 40
0.0
 40
0.0
 40
0.0
 40
0.0
 40
0.1249999999999997
 40
0.1249999999999997
 40
0.2499999999999993
 40
0.2499999999999993
 40
0.5
 40
0.5
 40
0.6250000000000003
 40
0.6250000000000003
 40
0.7500000000000007
 40
0.7500000000000007
 40
1.0
 40
1.0
 40
1.0
 40
1.0
 10
7.881005218880233
 20
34.51159141249568
 30
0.0
 10
8.209506077999086
 20
34.43704350422207
 30
0.0
 10
8.5293642523443
 20
34.33752271868097
 30
0.0
 10
9.152629597977082
 20
34.09094627955204
 30
0.0
 10
9.456903406737958
 20
33.94309910112256
 30
0.0
 10
10.3221090166383
 20
33.44189431233029
 30
0.0
 10
10.84136649954663
 20
33.02348937984848
 30
0.0
 10
11.5608806723621
 20
32.3149078752108
 30
0.0
 10
11.7917835034371
 20
32.06741640082092
 30
0.0
 10
12.26432406864976
 20
31.5860065902905
 30
0.0
 10
12.50666325700901
 20
31.35297516808585
 30
0.0
 10
13.27399407304402
 20
30.70485270115535
 30
0.0
 10
13.83728625464927
 20
30.33818861571227
 30
0.0
 10
14.48482041086718
 20
30.07803950866804
 30
0.0
  0
LINE
  5
73
330
1F
100
AcDbEntity
  8
0
  6
Continuous
 62
     7
370
    25
100
AcDbLine
 10
7.8735993649
 20
34.5132816708
 30
0.0
 11
7.8810052189
 21
34.5115914125
 31
0.0
  0
SPLINE
  5
74
330
1F
100
AcDbEntity
  8
0
  6
Continuous
 62
     7
370
    25
100
AcDbSpline
210
0.0
220
0.0
230
1.0
 70
     8
 71
     3
 72
    20
 73
    16
 74
     0
 42
0.00000001
 43
0.00000001
 40
0.0
 40
0.0
 40
0.0
 40
0.0
 40
0.2499999999999997
 40
0.2499999999999997
 40
0.3749999999999997
 40
0.3749999999999997
 40
0.4999999999999998
 40
0.4999999999999998
 40
0.6249999999999998
 40
0.6249999999999998
 40
0.7499999999999999
 40
0.7499999999999999
 40
0.8749999999999999
 40
0.8749999999999999
 40
1.0
 40
1.0
 40
1.0
 40
1.0
 10
0.0000000000049948
 20
33.3841052451624
 30
0.0
 10
0.6771314546522871
 20
33.33881780335138
 30
0.0
 10
1.337601467561483
 20
33.41911623022227
 30
0.0
 10
2.311364615202761
 20
33.6672634844524
 30
0.0
 10
2.633201299745768
 20
33.77193050790218
 30
0.0
 10
3.268196265997712
 20
33.99991409490228
 30
0.0
 10
3.582791609924409
 20
34.12256832191634
 30
0.0
 10
4.220766306211714
 20
34.34165787884113
 30
0.0
 10
4.546285848422004
 20
34.436402583416
 30
0.0
 10
5.204148691643089
 20
34.58249811203076
 30
0.0
 10
5.534786125136794
 20
34.63315212550487
 30
0.0
 10
6.199853157159315
 20
34.68468277413626
 30
0.0
 10
6.534219269247558
 20
34.68639275608727
 30
0.0
 10
7.206841933599849
 20
34.63874534537609
 30
0.0
 10
7.543278354643215
 20
34.58910810549463
 30
0.0
 10
7.873599356877814
 20
34.5132815930961
 30
0.0
  0
SPLINE
  5
75
330
1F
100
AcDbEntity
  8
0
  6
Continuous
 62
     7
370
    25
100
AcDbSpline
210
0.0
220
0.0
230
1.0
 70
     8
 71
     3
 72
    18
 73
    14
 74
     0
 42
0.00000001
 43
0.00000001
 40
0.0
 40
0.0
 40
0.0
 40
0.0
 40
0.1250000000000001
 40
0.1250000000000001
 40
0.2500000000000002
 40
0.2500000000000002
 40
0.5000000000000008
 40
0.5000000000000008
 40
0.6250000000000007
 40
0.6250000000000007
 40
0.7500000000000006
 40
0.7500000000000006
 40
1.0
 40
1.0
 40
1.0
 40
1.0
 10
-7.873477974961609
 20
34.5133094567999
 30
0.0
 10
-7.545163802631141
 20
34.58867529333596
 30
0.0
 10
-7.213801094851488
 20
34.63779142452645
 30
0.0
 10
-6.545272914606293
 20
34.6860584279386
 30
0.0
 10
-6.206983198999654
 20
34.68487218082711
 30
0.0
 10
-5.209995272320041
 20
34.60870091481068
 30
0.0
 10
-4.560621349223752
 20
34.45702847471678
 30
0.0
 10
-3.604919486800616
 20
34.13080409831599
 30
0.0
 10
-3.289500698183474
 20
34.00800696853906
 30
0.0
 10
-2.654880471464974
 20
33.7792993838675
 30
0.0
 10
-2.33543186248247
 20
33.67449236039813
 30
0.0
 10
-1.362880886494756
 20
33.4234865587071
 30
0.0
 10
-0.6962825829433414
 20
33.33753695071557
 30
0.0
 10
0.0000000000049948
 20
33.3841052451624
 30
0.0
  0
LINE
  5
76
330
1F
100
AcDbEntity
  8
0
  6
Continuous
 62
     7
370
    25
100
AcDbLine
 10
-7.8808837945
 20
34.5116190473
 30
0.0
 11
-7.873477975
 21
34.5133094568
 31
0.0
  0
SPLINE
  5
77
330
1F
100
AcDbEntity
  8
0
  6
Continuous
 62
     7
370
    25
100
AcDbSpline
210
0.0
220
0.0
230
1.0
 70
     8
 71
     3
 72
    20
 73
    16
 74
     0
 42
0.00000001
 43
0.00000001
 40
0.0
 40
0.0
 40
0.0
 40
0.0
 40
0.25
 40
0.25
 40
0.375
 40
0.375
 40
0.5
 40
0.5
 40
0.625
 40
0.625
 40
0.75
 40
0.75
 40
0.875
 40
0.875
 40
1.0
 40
1.0
 40
1.0
 40
1.0
 10
-14.4848204108574
 20
30.07803950867186
 30
0.0
 10
-13.85509656615468
 20
30.33103326090984
 30
0.0
 10
-13.29487382803644
 20
30.68994684243833
 30
0.0
 10
-12.52521060581813
 20
31.33601978866889
 30
0.0
 10
-12.28065909199268
 20
31.56996122236794
 30
0.0
 10
-11.80746676730996
 20
32.05088132692604
 30
0.0
 10
-11.57724383108035
 20
32.29788677111424
 30
0.0
 10
-11.09750788737603
 20
32.77208648787348
 30
0.0
 10
-10.84533310063316
 20
32.99868615322409
 30
0.0
 10
-10.31600763376487
 20
33.41574966648886
 30
0.0
 10
-10.04009155239129
 20
33.60484556159971
 30
0.0
 10
-9.463245171977904
 20
33.93983484237701
 30
0.0
 10
-9.162733647867448
 20
34.08645150182656
 30
0.0
 10
-8.536048130721547
 20
34.33536270476392
 30
0.0
 10
-8.211392598093703
 20
34.43661538927947
 30
0.0
 10
-7.880883767942269
 20
34.51161897380537
 30
0.0
  0
SPLINE
  5
78
330
1F
100
AcDbEntity
  8
0
  6
Continuous
 62
     7
370
    25
100
AcDbSpline
210
0.0
220
0.0
230
1.0
 70
     8
 71
     3
 72
    18
 73
    14
 74
     0
 42
0.00000001
 43
0.00000001
 40
0.0
 40
0.0
 40
0.0
 40
0.0
 40
0.1249999999999998
 40
0.1249999999999998
 40
0.2499999999999995
 40
0.2499999999999995
 40
0.4999999999999983
 40
0.4999999999999983
 40
0.6249999999999984
 40
0.6249999999999984
 40
0.7499999999999984
 40
0.7499999999999984
 40
1.0
 40
1.0
 40
1.0
 40
1.0
 10
-22.06852229399149
 20
27.67924328522252
 30
0.0
 10
-21.80542145678854
 20
27.88959573834098
 30
0.0
 10
-21.5281846637471
 20
28.07762073411102
 30
0.0
 10
-20.94680385394707
 20
28.41117130808259
 30
0.0
 10
-20.64150065852165
 20
28.55688094307795
 30
0.0
 10
-19.7101961011961
 20
28.92082985325127
 30
0.0
 10
-19.05932220742949
 20
29.06593049244626
 30
0.0
 10
-18.05672113016561
 20
29.18667598290802
 30
0.0
 10
-17.7192589434495
 20
29.21289467530438
 30
0.0
 10
-17.04825337423301
 20
29.28218765855048
 30
0.0
 10
-16.71496605941629
 20
29.32636335018832
 30
0.0
 10
-15.7298205718252
 20
29.52218899114594
 30
0.0
 10
-15.09194411563766
 20
29.73397723457164
 30
0.0
 10
-14.4848204108574
 20
30.07803950867187
 30
0.0
  0
LINE
  5
79
330
1F
100
AcDbEntity
  8
0
  6
Continuous
 62
     7
370
    25
100
AcDbLine
 10
-22.0744612656
 20
27.6745070142
 30
0.0
 11
-22.068522294
 21
27.6792432852
 31
0.0
  0
SPLINE
  5
7A
330
1F
100
AcDbEntity
  8
0
  6
Continuous
 62
     7
370
    25
100
AcDbSpline
210
0.0
220
0.0
230
1.0
 70
     8
 71
     3
 72
    20
 73
    16
 74
     0
 42
0.00000001
 43
0.00000001
 40
0.0
 40
0.0
 40
0.0
 40
0.0
 40
0.25
 40
0.25
 40
0.375
 40
0.375
 40
0.5
 40
0.5
 40
0.625
 40
0.625
 40
0.75
 40
0.75
 40
0.875
 40
0.875
 40
1.0
 40
1.0
 40
1.0
 40
1.0
 10
-26.10074449468713
 20
20.81464916454221
 30
0.0
 10
-25.64315279042858
 20
21.31581559543336
 30
0.0
 10
-25.29413631106657
 20
21.88225709501106
 30
0.0
 10
-24.88101425473153
 20
22.7982930626758
 30
0.0
 10
-24.76218433816421
 20
23.11517393657648
 30
0.0
 10
-24.54451619827719
 20
23.75377843388661
 30
0.0
 10
-24.44426414576404
 20
24.07621263770444
 30
0.0
 10
-24.21778454186879
 20
24.71160144471611
 30
0.0
 10
-24.08890081982878
 20
25.02517522805722
 30
0.0
 10
-23.79295212977754
 20
25.63060218222177
 30
0.0
 10
-23.62640596432894
 20
25.92068719783387
 30
0.0
 10
-23.25203173572253
 20
26.47278637532543
 30
0.0
 10
-23.04489479247216
 20
26.73527048473427
 30
0.0
 10
-22.58826917499747
 20
27.23144038488305
 30
0.0
 10
-22.33969654066102
 20
27.46352865784513
 30
0.0
 10
-22.0744612098291
 20
27.67450695952149
 30
0.0
  0
SPLINE
  5
7B
330
1F
100
AcDbEntity
  8
0
  6
Continuous
 62
     7
370
    25
100
AcDbSpline
210
0.0
220
0.0
230
1.0
 70
     8
 71
     3
 72
    18
 73
    14
 74
     0
 42
0.00000001
 43
0.00000001
 40
0.0
 40
0.0
 40
0.0
 40
0.0
 40
0.125
 40
0.125
 40
0.25
 40
0.25
 40
0.5
 40
0.5
 40
0.625
 40
0.625
 40
0.75
 40
0.75
 40
1.0
 40
1.0
 40
1.0
 40
1.0
 10
-31.89262512003199
 20
15.36296351736631
 30
0.0
 10
-31.74684796548464
 20
15.6666397039235
 30
0.0
 10
-31.5786472341295
 20
15.95633290788552
 30
0.0
 10
-31.19956339432343
 20
16.50910327051205
 30
0.0
 10
-30.98771576123126
 20
16.77284920739201
 30
0.0
 10
-30.30655086253915
 20
17.5048337485548
 30
0.0
 10
-29.78309055520736
 20
17.91796850590362
 30
0.0
 10
-28.93216770255048
 20
18.4617687379958
 30
0.0
 10
-28.63950064251674
 20
18.63181031898516
 30
0.0
 10
-28.06501061312902
 20
18.98537954499425
 30
0.0
 10
-27.78389623267833
 20
19.16978841423107
 30
0.0
 10
-26.98127637931805
 20
19.77365982800159
 30
0.0
 10
-26.49846102568386
 20
20.24123866382141
 30
0.0
 10
-26.10074449468713
 20
20.81464916454221
 30
0.0
  0
LINE
  5
7C
330
1F
100
AcDbEntity
  8
0
  6
Continuous
 62
     7
370
    25
100
AcDbLine
 10
-31.8959209576
 20
15.3561194614
 30
0.0
 11
-31.89262512
 21
15.3629635174
 31
0.0
  0
SPLINE
  5
7D
330
1F
100
AcDbEntity
  8
0
  6
Continuous
 62
     7
370
    25
100
AcDbSpline
210
0.0
220
0.0
230
1.0
 70
     8
 71
     3
 72
    20
 73
    16
 74
     0
 42
0.00000001
 43
0.00000001
 40
0.0
 40
0.0
 40
0.0
 40
0.0
 40
0.25
 40
0.25
 40
0.375
 40
0.375
 40
0.5
 40
0.5
 40
0.625
 40
0.625
 40
0.75
 40
0.75
 40
0.875
 40
0.875
 40
1.0
 40
1.0
 40
1.0
 40
1.0
 10
-32.54709602671824
 20
7.428662278457566
 30
0.0
 10
-32.35226811192619
 20
8.078739229961261
 30
0.0
 10
-32.28358488546441
 20
8.74051796164809
 30
0.0
 10
-32.30882788487945
 20
9.745084792907615
 30
0.0
 10
-32.33925528789977
 20
10.08214296364512
 30
0.0
 10
-32.42022317743762
 20
10.75194840104506
 30
0.0
 10
-32.46979815715184
 20
11.0859493160305
 30
0.0
 10
-32.54143195620698
 20
11.7566806675337
 30
0.0
 10
-32.56136630067476
 20
12.0951214353446
 30
0.0
 10
-32.55741065507743
 20
12.76899959706229
 30
0.0
 10
-32.53322091617539
 20
13.10261883817435
 30
0.0
 10
-32.43546824674961
 20
13.76247789922584
 30
0.0
 10
-32.36273189633773
 20
14.0888412615692
 30
0.0
 10
-32.16660648222025
 20
14.73399732508033
 30
0.0
 10
-32.04334960494854
 20
15.05095325765254
 30
0.0
 10
-31.89592088360518
 20
15.35611943635335
 30
0.0
  0
SPLINE
  5
7E
330
1F
100
AcDbEntity
  8
0
  6
Continuous
 62
     7
370
    25
100
AcDbSpline
210
0.0
220
0.0
230
1.0
 70
     8
 71
     3
 72
    18
 73
    14
 74
     0
 42
0.00000001
 43
0.00000001
 40
0.0
 40
0.0
 40
0.0
 40
0.0
 40
0.1250000000000002
 40
0.1250000000000002
 40
0.2500000000000003
 40
0.2500000000000003
 40
0.4999999999999999
 40
0.4999999999999999
 40
0.6249999999999997
 40
0.6249999999999997
 40
0.7499999999999996
 40
0.7499999999999996
 40
1.0
 40
1.0
 40
1.0
 40
1.0
 10
-35.40000240367111
 20
0.003860410513568
 30
0.0
 10
-35.40042188507694
 20
0.3407135374178633
 30
0.0
 10
-35.37457143309955
 20
0.6746976576732785
 30
0.0
 10
-35.27286676691914
 20
1.33720485935309
 30
0.0
 10
-35.19643371803479
 20
1.666748980686934
 30
0.0
 10
-34.90032154010115
 20
2.621790637260682
 30
0.0
 10
-34.60795255289049
 20
3.221133107305204
 30
0.0
 10
-34.07724363169296
 20
4.080281775789779
 30
0.0
 10
-33.88733799890711
 20
4.36046742483413
 30
0.0
 10
-33.52314830532615
 20
4.928284172153269
 30
0.0
 10
-33.34988500993131
 20
5.216401780810424
 30
0.0
 10
-32.88875949624627
 20
6.108714827899959
 30
0.0
 10
-32.65663274729442
 20
6.73947453320198
 30
0.0
 10
-32.54709602671824
 20
7.428662278457558
 30
0.0
  0
LINE
  5
7F
330
1F
100
AcDbEntity
  8
0
  6
Continuous
 62
     7
370
    25
100
AcDbLine
 10
-35.4000023261
 20
-0.0037358812
 30
0.0
 11
-35.4000024037
 21
0.0038604105
 31
0.0
  0
SPLINE
  5
80
330
1F
100
AcDbEntity
  8
0
  6
Continuous
 62
     7
370
    25
100
AcDbSpline
210
0.0
220
0.0
230
1.0
 70
     8
 71
     3
 72
    20
 73
    16
 74
     0
 42
0.00000001
 43
0.00000001
 40
0.0
 40
0.0
 40
0.0
 40
0.0
 40
0.2499999999999993
 40
0.2499999999999993
 40
0.3749999999999994
 40
0.3749999999999994
 40
0.4999999999999996
 40
0.4999999999999996
 40
0.6249999999999997
 40
0.6249999999999997
 40
0.7499999999999998
 40
0.7499999999999998
 40
0.8749999999999999
 40
0.8749999999999999
 40
1.0
 40
1.0
 40
1.0
 40
1.0
 10
-32.54709602672
 20
-7.428662278441514
 30
0.0
 10
-32.65361995932632
 20
-6.758430519241104
 30
0.0
 10
-32.8788735411098
 20
-6.132387949439202
 30
0.0
 10
-33.33748191065548
 20
-5.238257035719378
 30
0.0
 10
-33.51114011292767
 20
-4.947780072606753
 30
0.0
 10
-33.87470734836138
 20
-4.379436876618575
 30
0.0
 10
-34.0642904275734
 20
-4.100022227930785
 30
0.0
 10
-34.41984967714538
 20
-3.5267949020814
 30
0.0
 10
-34.58465384672055
 20
-3.230519494569259
 30
0.0
 10
-34.87347470970077
 20
-2.621659959799817
 30
0.0
 10
-34.99643247180264
 20
-2.310583875461468
 30
0.0
 10
-35.19466247659539
 20
-1.673658110531412
 30
0.0
 10
-35.27073304527398
 20
-1.348055761749526
 30
0.0
 10
-35.37395287810026
 20
-0.681694605574017
 30
0.0
 10
-35.40042429408349
 20
-0.342648023046796
 30
0.0
 10
-35.40000224858539
 20
-0.0037358716307608
 30
0.0
  0
SPLINE
  5
81
330
1F
100
AcDbEntity
  8
0
  6
Continuous
 62
     7
370
    25
100
AcDbSpline
210
0.0
220
0.0
230
1.0
 70
     8
 71
     3
 72
    18
 73
    14
 74
     0
 42
0.00000001
 43
0.00000001
 40
0.0
 40
0.0
 40
0.0
 40
0.0
 40
0.1250000000000001
 40
0.1250000000000001
 40
0.2500000000000003
 40
0.2500000000000003
 40
0.5000000000000008
 40
0.5000000000000008
 40
0.6250000000000006
 40
0.6250000000000006
 40
0.7500000000000003
 40
0.7500000000000003
 40
1.0
 40
1.0
 40
1.0
 40
1.0
 10
-31.89597505872485
 20
-15.35600729798545
 30
0.0
 10
-32.04250809264686
 20
-15.05269512375003
 30
0.0
 10
-32.16412791909626
 20
-14.74056973826436
 30
0.0
 10
-32.3599462830044
 20
-14.0995433739418
 30
0.0
 10
-32.43406632104928
 20
-13.76947132297771
 30
0.0
 10
-32.58165551229157
 20
-12.78053026389488
 30
0.0
 10
-32.57828510878959
 20
-12.11368720780025
 30
0.0
 10
-32.47290352961253
 20
-11.10935503348388
 30
0.0
 10
-32.42337246368769
 20
-10.77451952042938
 30
0.0
 10
-32.34161534122067
 20
-10.10491832242243
 30
0.0
 10
-32.31052005146947
 20
-9.770157200270164
 30
0.0
 10
-32.28222044077814
 20
-8.766136062339445
 30
0.0
 10
-32.34675784598602
 20
-8.097125182950748
 30
0.0
 10
-32.54709602672
 20
-7.428662278441509
 30
0.0
  0
LINE
  5
82
330
1F
100
AcDbEntity
  8
0
  6
Continuous
 62
     7
370
    25
100
AcDbLine
 10
-31.8926790814
 20
-15.3628512866
 30
0.0
 11
-31.8959750587
 21
-15.356007298
 31
0.0
  0
SPLINE
  5
83
330
1F
100
AcDbEntity
  8
0
  6
Continuous
 62
     7
370
    25
100
AcDbSpline
210
0.0
220
0.0
230
1.0
 70
     8
 71
     3
 72
    20
 73
    16
 74
     0
 42
0.00000001
 43
0.00000001
 40
0.0
 40
0.0
 40
0.0
 40
0.0
 40
0.2499999999999991
 40
0.2499999999999991
 40
0.3749999999999991
 40
0.3749999999999991
 40
0.4999999999999991
 40
0.4999999999999991
 40
0.6249999999999992
 40
0.6249999999999992
 40
0.7499999999999991
 40
0.7499999999999991
 40
0.8749999999999991
 40
0.8749999999999991
 40
1.0
 40
1.0
 40
1.0
 40
1.0
 10
-26.10074449469479
 20
-20.8146491645249
 30
0.0
 10
-26.48752190341719
 20
-20.25701021739124
 30
0.0
 10
-26.9620980590201
 20
-19.7906992183324
 30
0.0
 10
-27.76323878664555
 20
-19.18409781541144
 30
0.0
 10
-28.04573265143142
 20
-18.99773458493458
 30
0.0
 10
-28.61989028292376
 20
-18.64342097059598
 30
0.0
 10
-28.9119322077116
 20
-18.47393408617436
 30
0.0
 10
-29.48099403777424
 20
-18.11174548803526
 30
0.0
 10
-29.75802654548172
 20
-17.91631641885914
 30
0.0
 10
-30.28241940297043
 20
-17.49306760907132
 30
0.0
 10
-30.52817137331375
 20
-17.26614711510775
 30
0.0
 10
-30.98312216874399
 20
-16.77830560542568
 30
0.0
 10
-31.19293294744179
 20
-16.51795380863242
 30
0.0
 10
-31.57505407341215
 20
-15.96236855915677
 30
0.0
 10
-31.74601079406409
 20
-15.66838366047762
 30
0.0
 10
-31.89267901569815
 20
-15.36285124441928
 30
0.0
  0
SPLINE
  5
84
330
1F
100
AcDbEntity
  8
0
  6
Continuous
 62
     7
370
    25
100
AcDbSpline
210
0.0
220
0.0
230
1.0
 70
     8
 71
     3
 72
    18
 73
    14
 74
     0
 42
0.00000001
 43
0.00000001
 40
0.0
 40
0.0
 40
0.0
 40
0.0
 40
0.1249999999999996
 40
0.1249999999999996
 40
0.2499999999999991
 40
0.2499999999999991
 40
0.4999999999999982
 40
0.4999999999999982
 40
0.6249999999999987
 40
0.6249999999999987
 40
0.7499999999999991
 40
0.7499999999999991
 40
1.0
 40
1.0
 40
1.0
 40
1.0
 10
-22.07455867493476
 20
-27.67442943204719
 30
0.0
 10
-22.33818259689504
 20
-27.46473290646748
 30
0.0
 10
-22.58318440357383
 20
-27.2362865163134
 30
0.0
 10
-23.03774156904407
 20
-26.74370412247413
 30
0.0
 10
-23.24773431146085
 20
-26.47847895964107
 30
0.0
 10
-23.80979302249097
 20
-25.65151040336604
 30
0.0
 10
-24.09608875244627
 20
-25.0492432067736
 30
0.0
 10
-24.43690662946592
 20
-24.09864783107373
 30
0.0
 10
-24.53756036546704
 20
-23.77548073385732
 30
0.0
 10
-24.75442881490408
 20
-23.13671781454708
 30
0.0
 10
-24.87166033429063
 20
-22.82161672471749
 30
0.0
 10
-25.28179171156305
 20
-21.9047461958233
 30
0.0
 10
-25.63021084633061
 20
-21.32998995189047
 30
0.0
 10
-26.10074449469479
 20
-20.8146491645249
 30
0.0
  0
LINE
  5
85
330
1F
100
AcDbEntity
  8
0
  6
Continuous
 62
     7
370
    25
100
AcDbLine
 10
-22.0686196066
 20
-27.6791655818
 30
0.0
 11
-22.0745586749
 21
-27.674429432
 31
0.0
  0
SPLINE
  5
86
330
1F
100
AcDbEntity
  8
0
  6
Continuous
 62
     7
370
    25
100
AcDbSpline
210
0.0
220
0.0
230
1.0
 70
     8
 71
     3
 72
    20
 73
    16
 74
     0
 42
0.00000001
 43
0.00000001
 40
0.0
 40
0.0
 40
0.0
 40
0.0
 40
0.2500000000000008
 40
0.2500000000000008
 40
0.3750000000000007
 40
0.3750000000000007
 40
0.5000000000000007
 40
0.5000000000000007
 40
0.6250000000000006
 40
0.6250000000000006
 40
0.7500000000000003
 40
0.7500000000000003
 40
0.8750000000000002
 40
0.8750000000000002
 40
1.0
 40
1.0
 40
1.0
 40
1.0
 10
-14.48482041086809
 20
-30.07803950865869
 30
0.0
 10
-15.07524528639481
 20
-29.74344060606388
 30
0.0
 10
-15.70514838790514
 20
-29.52921979004031
 30
0.0
 10
-16.69014572715767
 20
-29.33029274524393
 30
0.0
 10
-17.02552387997651
 20
-29.2849547707936
 30
0.0
 10
-17.6965529470292
 20
-29.21484689479525
 30
0.0
 10
-18.0332112325296
 20
-29.18885673071967
 30
0.0
 10
-18.703065968554
 20
-29.10944275410384
 30
0.0
 10
-19.03745712866181
 20
-29.05356714719429
 30
0.0
 10
-19.69355954397733
 20
-28.89975867997254
 30
0.0
 10
-20.01343153088568
 20
-28.80193816321047
 30
0.0
 10
-20.63499453231343
 20
-28.55980390275226
 30
0.0
 10
-20.9369899231492
 20
-28.41626852430772
 30
0.0
 10
-21.52232856685746
 20
-28.08149965399625
 30
0.0
 10
-21.80391051700661
 20
-27.89080375383671
 30
0.0
 10
-22.06861956571055
 20
-27.67916551524545
 30
0.0
  0
SPLINE
  5
87
330
1F
100
AcDbEntity
  8
0
  6
Continuous
 62
     7
370
    25
100
AcDbSpline
210
0.0
220
0.0
230
1.0
 70
     8
 71
     3
 72
    18
 73
    14
 74
     0
 42
0.00000001
 43
0.00000001
 40
0.0
 40
0.0
 40
0.0
 40
0.0
 40
0.1249999999999998
 40
0.1249999999999998
 40
0.2499999999999995
 40
0.2499999999999995
 40
0.4999999999999996
 40
0.4999999999999996
 40
0.6249999999999997
 40
0.6249999999999997
 40
0.7499999999999996
 40
0.7499999999999996
 40
1.0
 40
1.0
 40
1.0
 40
1.0
 10
-7.881005218877971
 20
-34.51159141248763
 30
0.0
 10
-8.209506077996966
 20
-34.43704350421397
 30
0.0
 10
-8.529364252342308
 20
-34.33752271867284
 30
0.0
 10
-9.152629597975341
 20
-34.09094627954376
 30
0.0
 10
-9.45690340673634
 20
-33.94309910111421
 30
0.0
 10
-10.32210901663699
 20
-33.4418943123216
 30
0.0
 10
-10.84136649954542
 20
-33.02348937983943
 30
0.0
 10
-11.56088067236114
 20
-32.31490787520138
 30
0.0
 10
-11.79178350343622
 20
-32.06741640081138
 30
0.0
 10
-12.26432406864912
 20
-31.58600659028081
 30
0.0
 10
-12.50666325700852
 20
-31.35297516807612
 30
0.0
 10
-13.27399407304403
 20
-30.70485270114562
 30
0.0
 10
-13.83728625464966
 20
-30.33818861570261
 30
0.0
 10
-14.48482041086809
 20
-30.07803950865869
 30
0.0
  0
LINE
  5
88
330
1F
100
AcDbEntity
  8
0
  6
Continuous
 62
     7
370
    25
100
AcDbLine
 10
-7.8735993649
 20
-34.5132816708
 30
0.0
 11
-7.8810052189
 21
-34.5115914125
 31
0.0
  0
SPLINE
  5
89
330
1F
100
AcDbEntity
  8
0
  6
Continuous
 62
     7
370
    25
100
AcDbSpline
210
0.0
220
0.0
230
1.0
 70
     8
 71
     3
 72
    20
 73
    16
 74
     0
 42
0.00000001
 43
0.00000001
 40
0.0
 40
0.0
 40
0.0
 40
0.0
 40
0.2500000000000005
 40
0.2500000000000005
 40
0.3750000000000004
 40
0.3750000000000004
 40
0.5000000000000003
 40
0.5000000000000003
 40
0.6250000000000002
 40
0.6250000000000002
 40
0.7500000000000001
 40
0.7500000000000001
 40
0.8750000000000001
 40
0.8750000000000001
 40
1.0
 40
1.0
 40
1.0
 40
1.0
 10
-0.0000000000028562
 20
-33.38410524515422
 30
0.0
 10
-0.6771314546502515
 20
-33.33881780334316
 30
0.0
 10
-1.337601467559527
 20
-33.41911623021414
 30
0.0
 10
-2.311364615200939
 20
-33.66726348444436
 30
0.0
 10
-2.633201299743984
 20
-33.77193050789418
 30
0.0
 10
-3.268196265996014
 20
-33.99991409489431
 30
0.0
 10
-3.582791609922759
 20
-34.1225683219084
 30
0.0
 10
-4.220766306210161
 20
-34.3416578788332
 30
0.0
 10
-4.546285848420506
 20
-34.43640258340807
 30
0.0
 10
-5.204148691641695
 20
-34.58249811202278
 30
0.0
 10
-5.534786125135453
 20
-34.63315212549686
 30
0.0
 10
-6.199853157158082
 20
-34.68468277412813
 30
0.0
 10
-6.534219269246385
 20
-34.68639275607912
 30
0.0
 10
-7.206841933598795
 20
-34.63874534536782
 30
0.0
 10
-7.543278354642188
 20
-34.58910810548622
 30
0.0
 10
-7.873599356876833
 20
-34.51328159308765
 30
0.0
  0
SPLINE
  5
8A
330
1F
100
AcDbEntity
  8
0
  6
Continuous
 62
     7
370
    25
100
AcDbSpline
210
0.0
220
0.0
230
1.0
 70
     8
 71
     3
 72
    18
 73
    14
 74
     0
 42
0.00000001
 43
0.00000001
 40
0.0
 40
0.0
 40
0.0
 40
0.0
 40
0.1249999999999998
 40
0.1249999999999998
 40
0.2499999999999996
 40
0.2499999999999996
 40
0.4999999999999991
 40
0.4999999999999991
 40
0.6249999999999993
 40
0.6249999999999993
 40
0.7499999999999996
 40
0.7499999999999996
 40
1.0
 40
1.0
 40
1.0
 40
1.0
 10
7.873477974963895
 20
-34.51330945679175
 30
0.0
 10
7.545163802633425
 20
-34.58867529332779
 30
0.0
 10
7.213801094853768
 20
-34.63779142451829
 30
0.0
 10
6.545272914608557
 20
-34.68605842793046
 30
0.0
 10
6.206983199001925
 20
-34.68487218081896
 30
0.0
 10
5.20999527232232
 20
-34.60870091480255
 30
0.0
 10
4.560621349226012
 20
-34.45702847470859
 30
0.0
 10
3.604919486802857
 20
-34.13080409830778
 30
0.0
 10
3.289500698185705
 20
-34.00800696853084
 30
0.0
 10
2.654880471467183
 20
-33.77929938385934
 30
0.0
 10
2.335431862484682
 20
-33.67449236038992
 30
0.0
 10
1.362880886496942
 20
-33.42348655869888
 30
0.0
 10
0.6962825829455049
 20
-33.33753695070738
 30
0.0
 10
-0.0000000000028567
 20
-33.38410524515422
 30
0.0
  0
LINE
  5
8B
330
1F
100
AcDbEntity
  8
0
  6
Continuous
 62
     7
370
    25
100
AcDbLine
 10
7.8808837945
 20
-34.5116190473
 30
0.0
 11
7.873477975
 21
-34.5133094568
 31
0.0
  0
SPLINE
  5
8C
330
1F
100
AcDbEntity
  8
0
  6
Continuous
 62
     7
370
    25
100
AcDbSpline
210
0.0
220
0.0
230
1.0
 70
     8
 71
     3
 72
    20
 73
    16
 74
     0
 42
0.00000001
 43
0.00000001
 40
0.0
 40
0.0
 40
0.0
 40
0.0
 40
0.2500000000000015
 40
0.2500000000000015
 40
0.3750000000000012
 40
0.3750000000000012
 40
0.500000000000001
 40
0.500000000000001
 40
0.6250000000000008
 40
0.6250000000000008
 40
0.7500000000000004
 40
0.7500000000000004
 40
0.8750000000000002
 40
0.8750000000000002
 40
1.0
 40
1.0
 40
1.0
 40
1.0
 10
14.48482041086056
 20
-30.0780395086633
 30
0.0
 10
13.85509656616082
 20
-30.33103326089995
 30
0.0
 10
13.29487382804483
 20
-30.68994684242606
 30
0.0
 10
12.52521060582945
 20
-31.33601978865243
 30
0.0
 10
12.28065909200485
 20
-31.56996122235002
 30
0.0
 10
11.80746676732399
 20
-32.05088132690538
 30
0.0
 10
11.57724383109553
 20
-32.29788677109243
 30
0.0
 10
11.09750788739427
 20
-32.77208648785021
 30
0.0
 10
10.84533310065334
 20
-32.99868615320035
 30
0.0
 10
10.31600763378867
 20
-33.41574966646494
 30
0.0
 10
10.0400915524171
 20
-33.60484556157608
 30
0.0
 10
9.463245172007934
 20
-33.93983484235429
 30
0.0
 10
9.162733647899703
 20
-34.08645150180449
 30
0.0
 10
8.536048130758557
 20
-34.33536270474376
 30
0.0
 10
8.211392598133058
 20
-34.43661538926278
 30
0.0
 10
7.880883767983085
 20
-34.51161897378835
 30
0.0
  0
SPLINE
  5
8D
330
1F
100
AcDbEntity
  8
0
  6
Continuous
 62
     7
370
    25
100
AcDbSpline
210
0.0
220
0.0
230
1.0
 70
     8
 71
     3
 72
    18
 73
    14
 74
     0
 42
0.00000001
 43
0.00000001
 40
0.0
 40
0.0
 40
0.0
 40
0.0
 40
0.1250000000000005
 40
0.1250000000000005
 40
0.2500000000000011
 40
0.2500000000000011
 40
0.5000000000000009
 40
0.5000000000000009
 40
0.6250000000000008
 40
0.6250000000000008
 40
0.7500000000000006
 40
0.7500000000000006
 40
1.0
 40
1.0
 40
1.0
 40
1.0
 10
22.06852229399383
 20
-27.67924328521444
 30
0.0
 10
21.8054214567909
 20
-27.88959573833287
 30
0.0
 10
21.52818466374949
 20
-28.07762073410289
 30
0.0
 10
20.94680385394954
 20
-28.41117130807445
 30
0.0
 10
20.64150065852415
 20
-28.55688094306977
 30
0.0
 10
19.7101961011987
 20
-28.9208298532431
 30
0.0
 10
19.05932220743217
 20
-29.06593049243809
 30
0.0
 10
18.05672113016844
 20
-29.1866759828999
 30
0.0
 10
17.71925894345238
 20
-29.21289467529626
 30
0.0
 10
17.04825337423594
 20
-29.28218765854229
 30
0.0
 10
16.71496605941927
 20
-29.32636335018011
 30
0.0
 10
15.72982057182827
 20
-29.52218899113765
 30
0.0
 10
15.09194411564078
 20
-29.73397723456317
 30
0.0
 10
14.48482041086056
 20
-30.0780395086633
 30
0.0
  0
LINE
  5
8E
330
1F
100
AcDbEntity
  8
0
  6
Continuous
 62
     7
370
    25
100
AcDbLine
 10
22.0744612656
 20
-27.6745070142
 30
0.0
 11
22.068522294
 21
-27.6792432852
 31
0.0
  0
SPLINE
  5
8F
330
1F
100
AcDbEntity
  8
0
  6
Continuous
 62
     7
370
    25
100
AcDbSpline
210
0.0
220
0.0
230
1.0
 70
     8
 71
     3
 72
    20
 73
    16
 74
     0
 42
0.00000001
 43
0.00000001
 40
0.0
 40
0.0
 40
0.0
 40
0.0
 40
0.2500000000000004
 40
0.2500000000000004
 40
0.3750000000000003
 40
0.3750000000000003
 40
0.5000000000000002
 40
0.5000000000000002
 40
0.6250000000000002
 40
0.6250000000000002
 40
0.7500000000000001
 40
0.7500000000000001
 40
0.8750000000000001
 40
0.8750000000000001
 40
1.0
 40
1.0
 40
1.0
 40
1.0
 10
26.10074449469122
 20
-20.81464916453203
 30
0.0
 10
25.64315279043348
 20
-21.31581559542174
 30
0.0
 10
25.29413631107178
 20
-21.88225709499783
 30
0.0
 10
24.88101425473689
 20
-22.79829306266003
 30
0.0
 10
24.76218433816959
 20
-23.11517393655986
 30
0.0
 10
24.5445161982827
 20
-23.75377843386833
 30
0.0
 10
24.44426414576984
 20
-24.07621263768543
 30
0.0
 10
24.21778454187576
 20
-24.71160144469581
 30
0.0
 10
24.08890081983657
 20
-25.02517522803635
 30
0.0
 10
23.7929521297872
 20
-25.63060218220001
 30
0.0
 10
23.62640596433966
 20
-25.92068719781182
 30
0.0
 10
23.25203173573549
 20
-26.472786375303
 30
0.0
 10
23.04489479248631
 20
-26.73527048471178
 30
0.0
 10
22.58826917501421
 20
-27.23144038486066
 30
0.0
 10
22.33969654067977
 20
-27.46352865782387
 30
0.0
 10
22.07446120984845
 20
-27.67450695949977
 30
0.0
  0
SPLINE
  5
90
330
1F
100
AcDbEntity
  8
0
  6
Continuous
 62
     7
370
    25
100
AcDbSpline
210
0.0
220
0.0
230
1.0
 70
     8
 71
     3
 72
    18
 73
    14
 74
     0
 42
0.00000001
 43
0.00000001
 40
0.0
 40
0.0
 40
0.0
 40
0.0
 40
0.1249999999999997
 40
0.1249999999999997
 40
0.2499999999999994
 40
0.2499999999999994
 40
0.4999999999999998
 40
0.4999999999999998
 40
0.6249999999999996
 40
0.6249999999999996
 40
0.7499999999999994
 40
0.7499999999999994
 40
1.0
 40
1.0
 40
1.0
 40
1.0
 10
31.89262512003447
 20
-15.36296351735828
 30
0.0
 10
31.74684796548721
 20
-15.66663970391538
 30
0.0
 10
31.57864723413213
 20
-15.95633290787731
 30
0.0
 10
31.19956339432624
 20
-16.5091032705037
 30
0.0
 10
30.98771576123415
 20
-16.77284920738357
 30
0.0
 10
30.30655086254232
 20
-17.50483374854617
 30
0.0
 10
29.78309055521082
 20
-17.91796850589498
 30
0.0
 10
28.93216770255426
 20
-18.46176873798702
 30
0.0
 10
28.63950064252063
 20
-18.63181031897636
 30
0.0
 10
28.0650106131331
 20
-18.98537954498531
 30
0.0
 10
27.78389623268246
 20
-19.16978841422203
 30
0.0
 10
26.98127637932227
 20
-19.77365982799216
 30
0.0
 10
26.4984610256881
 20
-20.24123866381172
 30
0.0
 10
26.10074449469122
 20
-20.81464916453204
 30
0.0
  0
LINE
  5
91
330
1F
100
AcDbEntity
  8
0
  6
Continuous
 62
     7
370
    25
100
AcDbLine
 10
31.8959208836
 20
-15.3561194363
 30
0.0
 11
31.89262512
 21
-15.3629635174
 31
0.0
  0
MTEXT
  5
93
330
1F
100
AcDbEntity
  8
0
  6
Continuous
 62
     7
100
AcDbMText
 10
-35.4000024037
 20
-35.6989055281
 30
0.0
 40
4.83362
 41
0.0
 71
     1
 72
     1
  1
SOLIDWORKS Educational Product.
  7
SLDTEXTSTYLE0
 73
     1
 44
1.0
  0
MTEXT
  5
94
330
1F
100
AcDbEntity
  8
0
  6
Continuous
 62
     7
100
AcDbMText
 10
-35.4000024037
 20
-42.9493355281
 30
0.0
 40
4.83362
 41
0.0
 71
     1
 72
     1
  1
For Instructional Use Only.
  7
SLDTEXTSTYLE0
 73
     1
 44
1.0
  0
ENDSEC
  0
SECTION
  2
OBJECTS
  0
DICTIONARY
  5
C
330
0
100
AcDbDictionary
281
     1
  3
ACAD_GROUP
350
D
  3
ACAD_LAYOUT
350
1A
  3
ACAD_MLINESTYLE
350
17
  3
ACAD_PLOTSETTINGS
350
19
  3
ACAD_PLOTSTYLENAME
350
E
  3
ACAD_SCALELIST
350
47
  3
DWGPROPS
350
95
  0
DICTIONARY
  5
D
102
{ACAD_REACTORS
330
C
102
}
330
C
100
AcDbDictionary
281
     1
  0
DICTIONARY
  5
1A
102
{ACAD_REACTORS
330
C
102
}
330
C
100
AcDbDictionary
281
     1
  3
Layout1
350
1E
  3
Layout2
350
26
  3
Model
350
22
  0
DICTIONARY
  5
17
102
{ACAD_REACTORS
330
C
102
}
330
C
100
AcDbDictionary
281
     1
  3
Standard
350
18
  0
DICTIONARY
  5
19
102
{ACAD_REACTORS
330
C
102
}
330
C
100
AcDbDictionary
281
     1
  0
ACDBDICTIONARYWDFLT
  5
E
102
{ACAD_REACTORS
330
C
102
}
330
C
100
AcDbDictionary
281
     1
  3
Normal
350
F
100
AcDbDictionaryWithDefault
340
F
  0
DICTIONARY
  5
47
102
{ACAD_REACTORS
330
C
102
}
330
C
100
AcDbDictionary
281
     1
  3
A0
350
48
  3
A1
350
49
  3
A2
350
4A
  3
A3
350
4B
  3
A4
350
4C
  3
A5
350
4D
  3
A6
350
4E
  3
A7
350
4F
  3
A8
350
50
  3
A9
350
51
  3
B0
350
52
  3
B1
350
53
  3
B2
350
54
  3
B3
350
55
  3
B4
350
56
  3
B5
350
57
  3
B6
350
58
  0
XRECORD
  5
95
102
{ACAD_REACTORS
330
C
102
}
330
C
100
AcDbXrecord
280
     1
  1
DWGPROPS COOKIE
  2

  3

  4

  6

  7

  8
dampy
  9

300
=
301
=
302
=
303
=
304
=
305
=
306
=
307
=
308
=
309
=
 40
0.0
 41
2460715.893358322
 42
2460715.893385938
  1

 90
        0
  0
LAYOUT
  5
1E
102
{ACAD_REACTORS
330
1A
102
}
330
1A
100
AcDbPlotSettings
  1

  2
none_device
  4

  6

 40
0.0
 41
0.0
 42
0.0
 43
0.0
 44
0.0
 45
0.0
 46
0.0
 47
0.0
 48
0.0
 49
0.0
140
0.0
141
0.0
142
1.0
143
1.0
 70
   688
 72
     1
 73
     0
 74
     5
  7

 75
    16
147
1.0
148
0.0
149
0.0
100
AcDbLayout
  1
Layout1
 70
     1
 71
     1
 10
0.0
 20
0.0
 11
420.0
 21
297.0
 12
0.0
 22
0.0
 32
0.0
 14
1.0000000000E+20
 24
1.0000000000E+20
 34
1.0000000000E+20
 15
-1.0000000000E+20
 25
-1.0000000000E+20
 35
-1.0000000000E+20
146
0.0
 13
0.0
 23
0.0
 33
0.0
 16
1.0
 26
0.0
 36
0.0
 17
0.0
 27
1.0
 37
0.0
 76
     0
330
1B
  0
LAYOUT
  5
26
102
{ACAD_REACTORS
330
1A
102
}
330
1A
100
AcDbPlotSettings
  1

  2
none_device
  4

  6

 40
0.0
 41
0.0
 42
0.0
 43
0.0
 44
0.0
 45
0.0
 46
0.0
 47
0.0
 48
0.0
 49
0.0
140
0.0
141
0.0
142
1.0
143
1.0
 70
   688
 72
     1
 73
     0
 74
     5
  7

 75
    16
147
1.0
148
0.0
149
0.0
100
AcDbLayout
  1
Layout2
 70
     1
 71
     2
 10
0.0
 20
0.0
 11
0.0
 21
0.0
 12
0.0
 22
0.0
 32
0.0
 14
0.0
 24
0.0
 34
0.0
 15
0.0
 25
0.0
 35
0.0
146
0.0
 13
0.0
 23
0.0
 33
0.0
 16
1.0
 26
0.0
 36
0.0
 17
0.0
 27
1.0
 37
0.0
 76
     0
330
23
  0
LAYOUT
  5
22
102
{ACAD_REACTORS
330
1A
102
}
330
1A
100
AcDbPlotSettings
  1

  2
none_device
  4
ANSI_A_(11.00_x_8.50_Inches)
  6

 40
6.35
 41
19.05
 42
6.35000508
 43
19.05000254
 44
279.4
 45
215.9
 46
133.34999746
 47
88.89999873
 48
0.0
 49
0.0
140
0.0
141
0.0
142
0.1213258414
143
1.0
 70
  1696
 72
     0
 73
     0
 74
     0
  7

 75
     0
147
0.0179189148
148
-1300.4909072572
149
0.0
100
AcDbLayout
  1
Model
 70
     1
 71
     0
 10
0.0
 20
0.0
 11
420.0
 21
297.0
 12
0.0
 22
0.0
 32
0.0
 14
-35.4000024037
 24
-34.6793391364
 34
0.0
 15
35.4000024037
 25
34.6793391364
 35
0.0
146
0.0
 13
0.0
 23
0.0
 33
0.0
 16
1.0
 26
0.0
 36
0.0
 17
0.0
 27
1.0
 37
0.0
 76
     0
330
1F
331
29
  0
MLINESTYLE
  5
18
102
{ACAD_REACTORS
330
17
102
}
330
17
100
AcDbMlineStyle
  2
Standard
 70
     0
  3

 62
   256
 51
90.0
 52
90.0
 71
     2
 49
0.5
 62
   256
  6
BYLAYER
 49
-0.5
 62
   256
  6
BYLAYER
  0
ACDBPLACEHOLDER
  5
F
102
{ACAD_REACTORS
330
E
102
}
330
E
  0
SCALE
  5
48
102
{ACAD_REACTORS
330
47
102
}
330
47
100
AcDbScale
 70
     0
300
1:1
140
1.0
141
1.0
290
     1
  0
SCALE
  5
49
102
{ACAD_REACTORS
330
47
102
}
330
47
100
AcDbScale
 70
     0
300
1:2
140
1.0
141
2.0
290
     0
  0
SCALE
  5
4A
102
{ACAD_REACTORS
330
47
102
}
330
47
100
AcDbScale
 70
     0
300
1:4
140
1.0
141
4.0
290
     0
  0
SCALE
  5
4B
102
{ACAD_REACTORS
330
47
102
}
330
47
100
AcDbScale
 70
     0
300
1:5
140
1.0
141
5.0
290
     0
  0
SCALE
  5
4C
102
{ACAD_REACTORS
330
47
102
}
330
47
100
AcDbScale
 70
     0
300
1:8
140
1.0
141
8.0
290
     0
  0
SCALE
  5
4D
102
{ACAD_REACTORS
330
47
102
}
330
47
100
AcDbScale
 70
     0
300
1:10
140
1.0
141
10.0
290
     0
  0
SCALE
  5
4E
102
{ACAD_REACTORS
330
47
102
}
330
47
100
AcDbScale
 70
     0
300
1:16
140
1.0
141
16.0
290
     0
  0
SCALE
  5
4F
102
{ACAD_REACTORS
330
47
102
}
330
47
100
AcDbScale
 70
     0
300
1:20
140
1.0
141
20.0
290
     0
  0
SCALE
  5
50
102
{ACAD_REACTORS
330
47
102
}
330
47
100
AcDbScale
 70
     0
300
1:30
140
1.0
141
30.0
290
     0
  0
SCALE
  5
51
102
{ACAD_REACTORS
330
47
102
}
330
47
100
AcDbScale
 70
     0
300
1:40
140
1.0
141
40.0
290
     0
  0
SCALE
  5
52
102
{ACAD_REACTORS
330
47
102
}
330
47
100
AcDbScale
 70
     0
300
1:50
140
1.0
141
50.0
290
     0
  0
SCALE
  5
53
102
{ACAD_REACTORS
330
47
102
}
330
47
100
AcDbScale
 70
     0
300
1:100
140
1.0
141
100.0
290
     0
  0
SCALE
  5
54
102
{ACAD_REACTORS
330
47
102
}
330
47
100
AcDbScale
 70
     0
300
2:1
140
2.0
141
1.0
290
     0
  0
SCALE
  5
55
102
{ACAD_REACTORS
330
47
102
}
330
47
100
AcDbScale
 70
     0
300
4:1
140
4.0
141
1.0
290
     0
  0
SCALE
  5
56
102
{ACAD_REACTORS
330
47
102
}
330
47
100
AcDbScale
 70
     0
300
8:1
140
8.0
141
1.0
290
     0
  0
SCALE
  5
57
102
{ACAD_REACTORS
330
47
102
}
330
47
100
AcDbScale
 70
     0
300
10:1
140
10.0
141
1.0
290
     0
  0
SCALE
  5
58
102
{ACAD_REACTORS
330
47
102
}
330
47
100
AcDbScale
 70
     0
300
100:1
140
100.0
141
1.0
290
     0
  0
ENDSEC
  0
EOF
