  0
SECTION
  2
HEADER
  9
$ACADVER
  1
AC1015
  9
$ACADMAINTVER
 70
     6
  9
$DWGCODEPAGE
  3
ANSI_1252
  9
$INSBASE
 10
0.0
 20
0.0
 30
0.0
  9
$EXTMIN
 10
-35.5000023261
 20
-34.7792623527
 30
0.0
  9
$EXTMAX
 10
35.5000023261
 20
34.7792623527
 30
0.0
  9
$LIMMIN
 10
0.0
 20
0.0
  9
$LIMMAX
 10
420.0
 20
297.0
  9
$ORTHOMODE
 70
     0
  9
$REGENMODE
 70
     1
  9
$FILLMODE
 70
     1
  9
$QTEXTMODE
 70
     0
  9
$MIRRTEXT
 70
     1
  9
$LTSCALE
 40
1.0
  9
$ATTMODE
 70
     1
  9
$TEXTSIZE
 40
3.175
  9
$TRACEWID
 40
1.0
  9
$TEXTSTYLE
  7
Standard
  9
$CLAYER
  8
0
  9
$CELTYPE
  6
ByLayer
  9
$CECOLOR
 62
   256
  9
$CELTSCALE
 40
1.0
  9
$DISPSILH
 70
     0
  9
$DIMSCALE
 40
1.0
  9
$DIMASZ
 40
3.302
  9
$DIMEXO
 40
0.0
  9
$DIMDLI
 40
3.75
  9
$DIMRND
 40
0.0
  9
$DIMDLE
 40
0.0
  9
$DIMEXE
 40
3.175
  9
$DIMTP
 40
0.0
  9
$DIMTM
 40
0.0
  9
$DIMTXT
 40
3.175
  9
$DIMCEN
 40
2.5
  9
$DIMTSZ
 40
0.0
  9
$DIMTOL
 70
     0
  9
$DIMLIM
 70
     0
  9
$DIMTIH
 70
     1
  9
$DIMTOH
 70
     1
  9
$DIMSE1
 70
     0
  9
$DIMSE2
 70
     0
  9
$DIMTAD
 70
     0
  9
$DIMZIN
 70
     1
  9
$DIMBLK
  1

  9
$DIMASO
 70
     1
  9
$DIMSHO
 70
     1
  9
$DIMPOST
  1

  9
$DIMAPOST
  1

  9
$DIMALT
 70
     0
  9
$DIMALTD
 70
     3
  9
$DIMALTF
 40
0.0393700787
  9
$DIMLFAC
 40
1.0
  9
$DIMTOFL
 70
     1
  9
$DIMTVP
 40
0.0
  9
$DIMTIX
 70
     0
  9
$DIMSOXD
 70
     0
  9
$DIMSAH
 70
     0
  9
$DIMBLK1
  1

  9
$DIMBLK2
  1

  9
$DIMSTYLE
  2
ISO-25
  9
$DIMCLRD
 70
     0
  9
$DIMCLRE
 70
     0
  9
$DIMCLRT
 70
     0
  9
$DIMTFAC
 40
1.0
  9
$DIMGAP
 40
1.524
  9
$DIMJUST
 70
     0
  9
$DIMSD1
 70
     0
  9
$DIMSD2
 70
     0
  9
$DIMTOLJ
 70
     0
  9
$DIMTZIN
 70
     1
  9
$DIMALTZ
 70
     0
  9
$DIMALTTZ
 70
     0
  9
$DIMUPT
 70
     0
  9
$DIMDEC
 70
     2
  9
$DIMTDEC
 70
     2
  9
$DIMALTU
 70
     2
  9
$DIMALTTD
 70
     3
  9
$DIMTXSTY
  7
Standard
  9
$DIMAUNIT
 70
     0
  9
$DIMADEC
 70
     2
  9
$DIMALTRND
 40
0.0
  9
$DIMAZIN
 70
     0
  9
$DIMDSEP
 70
    44
  9
$DIMATFIT
 70
     3
  9
$DIMFRAC
 70
     0
  9
$DIMLDRBLK
  1

  9
$DIMLUNIT
 70
     2
  9
$DIMLWD
 70
    -2
  9
$DIMLWE
 70
    -2
  9
$DIMTMOVE
 70
     0
  9
$LUNITS
 70
     2
  9
$LUPREC
 70
     6
  9
$SKETCHINC
 40
1.0
  9
$FILLETRAD
 40
0.0
  9
$AUNITS
 70
     0
  9
$AUPREC
 70
     2
  9
$MENU
  1
.
  9
$ELEVATION
 40
0.0
  9
$PELEVATION
 40
0.0
  9
$THICKNESS
 40
0.0
  9
$LIMCHECK
 70
     0
  9
$CHAMFERA
 40
0.0
  9
$CHAMFERB
 40
0.0
  9
$CHAMFERC
 40
0.0
  9
$CHAMFERD
 40
0.0
  9
$SKPOLY
 70
     0
  9
$TDCREATE
 40
2460726.631393148
  9
$TDUCREATE
 40
2460726.839726482
  9
$TDUPDATE
 40
2460726.631419549
  9
$TDUUPDATE
 40
2460726.839752882
  9
$TDINDWG
 40
0.0000000116
  9
$TDUSRTIMER
 40
0.0000000116
  9
$USRTIMER
 70
     1
  9
$ANGBASE
 50
0.0
  9
$ANGDIR
 70
     0
  9
$PDMODE
 70
     0
  9
$PDSIZE
 40
-1.0
  9
$PLINEWID
 40
0.0
  9
$SPLFRAME
 70
     0
  9
$SPLINETYPE
 70
     6
  9
$SPLINESEGS
 70
     8
  9
$HANDSEED
  5
96
  9
$SURFTAB1
 70
     6
  9
$SURFTAB2
 70
     6
  9
$SURFTYPE
 70
     6
  9
$SURFU
 70
     6
  9
$SURFV
 70
     6
  9
$UCSBASE
  2

  9
$UCSNAME
  2

  9
$UCSORG
 10
0.0
 20
0.0
 30
0.0
  9
$UCSXDIR
 10
1.0
 20
0.0
 30
0.0
  9
$UCSYDIR
 10
0.0
 20
1.0
 30
0.0
  9
$UCSORTHOREF
  2

  9
$UCSORTHOVIEW
 70
     0
  9
$UCSORGTOP
 10
0.0
 20
0.0
 30
0.0
  9
$UCSORGBOTTOM
 10
0.0
 20
0.0
 30
0.0
  9
$UCSORGLEFT
 10
0.0
 20
0.0
 30
0.0
  9
$UCSORGRIGHT
 10
0.0
 20
0.0
 30
0.0
  9
$UCSORGFRONT
 10
0.0
 20
0.0
 30
0.0
  9
$UCSORGBACK
 10
0.0
 20
0.0
 30
0.0
  9
$PUCSBASE
  2

  9
$PUCSNAME
  2

  9
$PUCSORG
 10
0.0
 20
0.0
 30
0.0
  9
$PUCSXDIR
 10
1.0
 20
0.0
 30
0.0
  9
$PUCSYDIR
 10
0.0
 20
1.0
 30
0.0
  9
$PUCSORTHOREF
  2

  9
$PUCSORTHOVIEW
 70
     0
  9
$PUCSORGTOP
 10
0.0
 20
0.0
 30
0.0
  9
$PUCSORGBOTTOM
 10
0.0
 20
0.0
 30
0.0
  9
$PUCSORGLEFT
 10
0.0
 20
0.0
 30
0.0
  9
$PUCSORGRIGHT
 10
0.0
 20
0.0
 30
0.0
  9
$PUCSORGFRONT
 10
0.0
 20
0.0
 30
0.0
  9
$PUCSORGBACK
 10
0.0
 20
0.0
 30
0.0
  9
$USERI1
 70
     0
  9
$USERI2
 70
     0
  9
$USERI3
 70
     0
  9
$USERI4
 70
     0
  9
$USERI5
 70
     0
  9
$USERR1
 40
0.0
  9
$USERR2
 40
0.0
  9
$USERR3
 40
0.0
  9
$USERR4
 40
0.0
  9
$USERR5
 40
0.0
  9
$WORLDVIEW
 70
     1
  9
$SHADEDGE
 70
     3
  9
$SHADEDIF
 70
    70
  9
$TILEMODE
 70
     1
  9
$MAXACTVP
 70
    64
  9
$PINSBASE
 10
0.0
 20
0.0
 30
0.0
  9
$PLIMCHECK
 70
     0
  9
$PEXTMIN
 10
1.0000000000E+20
 20
1.0000000000E+20
 30
1.0000000000E+20
  9
$PEXTMAX
 10
-1.0000000000E+20
 20
-1.0000000000E+20
 30
-1.0000000000E+20
  9
$PLIMMIN
 10
0.0
 20
0.0
  9
$PLIMMAX
 10
420.0
 20
297.0
  9
$UNITMODE
 70
     0
  9
$VISRETAIN
 70
     1
  9
$PLINEGEN
 70
     0
  9
$PSLTSCALE
 70
     1
  9
$TREEDEPTH
 70
  3020
  9
$CMLSTYLE
  2
Standard
  9
$CMLJUST
 70
     0
  9
$CMLSCALE
 40
20.0
  9
$PROXYGRAPHICS
 70
     1
  9
$MEASUREMENT
 70
     1
  9
$CELWEIGHT
370
    -1
  9
$ENDCAPS
280
     0
  9
$JOINSTYLE
280
     0
  9
$LWDISPLAY
290
     1
  9
$INSUNITS
 70
     4
  9
$HYPERLINKBASE
  1

  9
$STYLESHEET
  1

  9
$XEDIT
290
     1
  9
$CEPSNTYPE
380
     0
  9
$PSTYLEMODE
290
     1
  9
$FINGERPRINTGUID
  2
{3608f0a0-c7a7-4604-8cb9-6100d9b43d90}
  9
$VERSIONGUID
  2
{FAEB1C32-E019-11D5-929B-00C0DF256EC4}
  9
$EXTNAMES
290
     1
  9
$PSVPSCALE
 40
0.0
  9
$OLESTARTUP
290
     0
  0
ENDSEC
  0
SECTION
  2
CLASSES
  0
CLASS
  1
ACDBDICTIONARYWDFLT
  2
AcDbDictionaryWithDefault
  3
ObjectDBX Classes
 90
        0
280
     0
281
     0
  0
CLASS
  1
VISUALSTYLE
  2
AcDbVisualStyle
  3
ObjectDBX Classes
 90
     4095
280
     0
281
     0
  0
CLASS
  1
MATERIAL
  2
AcDbMaterial
  3
ObjectDBX Classes
 90
     1153
280
     0
281
     0
  0
CLASS
  1
SCALE
  2
AcDbScale
  3
ObjectDBX Classes
 90
     1153
280
     0
281
     0
  0
CLASS
  1
TABLESTYLE
  2
AcDbTableStyle
  3
ObjectDBX Classes
 90
     4095
280
     0
281
     0
  0
CLASS
  1
MLEADERSTYLE
  2
AcDbMLeaderStyle
  3
ACDB_MLEADERSTYLE_CLASS
 90
     4095
280
     0
281
     0
  0
CLASS
  1
SUN
  2
AcDbSun
  3
SCENEOE
 90
     1153
280
     0
281
     0
  0
CLASS
  1
ACDBPLACEHOLDER
  2
AcDbPlaceHolder
  3
ObjectDBX Classes
 90
        0
280
     0
281
     0
  0
CLASS
  1
LAYOUT
  2
AcDbLayout
  3
ObjectDBX Classes
 90
        0
280
     0
281
     0
  0
ENDSEC
  0
SECTION
  2
TABLES
  0
TABLE
  2
VPORT
  5
8
330
0
100
AcDbSymbolTable
 70
     1
  0
VPORT
  5
29
330
8
100
AcDbSymbolTableRecord
100
AcDbViewportTableRecord
  2
*Active
 70
     0
 10
0.0
 20
0.0
 11
1.0
 21
1.0
 12
0.0
 22
0.0
 13
0.0
 23
0.0
 14
10.0
 24
10.0
 15
10.0
 25
10.0
 16
0.0
 26
0.0
 36
1.0
 17
0.0
 27
0.0
 37
0.0
 40
70.9496951995
 41
1.020723268
 42
50.0
 43
0.0
 44
0.0
 50
0.0
 51
0.0
 71
     0
 72
   100
 73
     1
 74
     3
 75
     0
 76
     0
 77
     0
 78
     0
281
     0
 65
     1
110
0.0
120
0.0
130
0.0
111
1.0
121
0.0
131
0.0
112
0.0
122
1.0
132
0.0
 79
     0
146
0.0
  0
ENDTAB
  0
TABLE
  2
LTYPE
  5
5
330
0
100
AcDbSymbolTable
 70
     6
  0
LTYPE
  5
14
330
5
100
AcDbSymbolTableRecord
100
AcDbLinetypeTableRecord
  2
ByBlock
 70
     0
  3

 72
    65
 73
     0
 40
0.0
  0
LTYPE
  5
15
330
5
100
AcDbSymbolTableRecord
100
AcDbLinetypeTableRecord
  2
ByLayer
 70
     0
  3

 72
    65
 73
     0
 40
0.0
  0
LTYPE
  5
16
330
5
100
AcDbSymbolTableRecord
100
AcDbLinetypeTableRecord
  2
Continuous
 70
     0
  3
Solid line
 72
    65
 73
     0
 40
0.0
  0
LTYPE
  5
5E
330
5
100
AcDbSymbolTableRecord
100
AcDbLinetypeTableRecord
  2
HIDDEN
 70
     0
  3
Hidden __ __ __ __ __ __ __ __ __ __ __ __ __ __
 72
    65
 73
     2
 40
1.905
 49
1.27
 74
     0
 49
-0.635
 74
     0
  0
LTYPE
  5
5F
330
5
100
AcDbSymbolTableRecord
100
AcDbLinetypeTableRecord
  2
PHANTOM
 70
     0
  3
Phantom ______  __  __  ______  __  __  ______
 72
    65
 73
     6
 40
12.7
 49
6.35
 74
     0
 49
-1.27
 74
     0
 49
1.27
 74
     0
 49
-1.27
 74
     0
 49
1.27
 74
     0
 49
-1.27
 74
     0
  0
LTYPE
  5
60
330
5
100
AcDbSymbolTableRecord
100
AcDbLinetypeTableRecord
  2
CENTER
 70
     0
  3
Center ____ _ ____ _ ____ _ ____ _ ____ _ ____
 72
    65
 73
     4
 40
10.16
 49
6.35
 74
     0
 49
-1.27
 74
     0
 49
1.27
 74
     0
 49
-1.27
 74
     0
  0
LTYPE
  5
61
330
5
100
AcDbSymbolTableRecord
100
AcDbLinetypeTableRecord
  2
CENTERX2
 70
     0
  3
Center (2x) ________  __  ________  __  _____
 72
    65
 73
     4
 40
20.32
 49
12.7
 74
     0
 49
-2.54
 74
     0
 49
2.54
 74
     0
 49
-2.54
 74
     0
  0
LTYPE
  5
62
330
5
100
AcDbSymbolTableRecord
100
AcDbLinetypeTableRecord
  2
DOT2
 70
     0
  3
Dot (.5x) ........................................
 72
    65
 73
     2
 40
0.635
 49
0.0
 74
     0
 49
-0.635
 74
     0
  0
ENDTAB
  0
TABLE
  2
LAYER
  5
2
330
0
100
AcDbSymbolTable
 70
     1
  0
LAYER
  5
10
330
2
100
AcDbSymbolTableRecord
100
AcDbLayerTableRecord
  2
0
 70
     0
 62
     7
  6
Continuous
370
    -3
390
F
  0
ENDTAB
  0
TABLE
  2
STYLE
  5
3
330
0
100
AcDbSymbolTable
 70
     2
  0
STYLE
  5
11
330
3
100
AcDbSymbolTableRecord
100
AcDbTextStyleTableRecord
  2
Standard
 70
     0
 40
0.0
 41
1.0
 50
0.0
 71
     0
 42
3.175
  3
txt
  4

  0
STYLE
  5
92
330
3
100
AcDbSymbolTableRecord
100
AcDbTextStyleTableRecord
  2
SLDTEXTSTYLE0
 70
     0
 40
0.0
 41
0.7
 50
0.0
 71
     0
 42
3.175
  3
TXT
  4

  0
ENDTAB
  0
TABLE
  2
VIEW
  5
6
330
0
100
AcDbSymbolTable
 70
     0
  0
ENDTAB
  0
TABLE
  2
UCS
  5
7
330
0
100
AcDbSymbolTable
 70
     0
  0
ENDTAB
  0
TABLE
  2
APPID
  5
9
330
0
100
AcDbSymbolTable
 70
     1
  0
APPID
  5
12
330
9
100
AcDbSymbolTableRecord
100
AcDbRegAppTableRecord
  2
ACAD
 70
     0
  0
ENDTAB
  0
TABLE
  2
DIMSTYLE
  5
A
330
0
100
AcDbSymbolTable
 70
     1
100
AcDbDimStyleTable
  0
DIMSTYLE
105
27
330
A
100
AcDbSymbolTableRecord
100
AcDbDimStyleTableRecord
  2
ISO-25
 70
     0
 41
2.5
 42
0.625
 43
3.75
 44
1.25
 73
     0
 74
     0
 77
     1
 78
     8
140
2.5
141
2.5
143
0.0393700787
147
0.625
171
     3
172
     1
178
     0
271
     2
272
     2
274
     3
278
    44
283
     0
284
     8
340
11
  0
ENDTAB
  0
TABLE
  2
BLOCK_RECORD
  5
1
330
0
100
AcDbSymbolTable
 70
     1
  0
BLOCK_RECORD
  5
1F
330
1
100
AcDbSymbolTableRecord
100
AcDbBlockTableRecord
  2
*Model_Space
340
22
  0
BLOCK_RECORD
  5
1B
330
1
100
AcDbSymbolTableRecord
100
AcDbBlockTableRecord
  2
*Paper_Space
340
1E
  0
BLOCK_RECORD
  5
23
330
1
100
AcDbSymbolTableRecord
100
AcDbBlockTableRecord
  2
*Paper_Space0
340
26
  0
ENDTAB
  0
ENDSEC
  0
SECTION
  2
BLOCKS
  0
BLOCK
  5
20
330
1F
100
AcDbEntity
  8
0
100
AcDbBlockBegin
  2
*Model_Space
 70
     0
 10
0.0
 20
0.0
 30
0.0
  3
*Model_Space
  1

  0
ENDBLK
  5
21
330
1F
100
AcDbEntity
  8
0
100
AcDbBlockEnd
  0
BLOCK
  5
1C
330
1B
100
AcDbEntity
 67
     1
  8
0
100
AcDbBlockBegin
  2
*Paper_Space
 70
     0
 10
0.0
 20
0.0
 30
0.0
  3
*Paper_Space
  1

  0
ENDBLK
  5
1D
330
1B
100
AcDbEntity
 67
     1
  8
0
100
AcDbBlockEnd
  0
BLOCK
  5
24
330
23
100
AcDbEntity
  8
0
100
AcDbBlockBegin
  2
*Paper_Space0
 70
     0
 10
0.0
 20
0.0
 30
0.0
  3
*Paper_Space0
  1

  0
ENDBLK
  5
25
330
23
100
AcDbEntity
  8
0
100
AcDbBlockEnd
  0
ENDSEC
  0
SECTION
  2
ENTITIES
  0
CIRCLE
  5
63
330
1F
100
AcDbEntity
  8
0
  6
Continuous
 62
     7
370
    25
100
AcDbCircle
 10
0.0
 20
22.5
 30
0.0
 40
5.875
  0
CIRCLE
  5
64
330
1F
100
AcDbEntity
  8
0
  6
Continuous
 62
     7
370
    25
100
AcDbCircle
 10
0.0
 20
-22.5
 30
0.0
 40
5.875000000000004
  0
CIRCLE
  5
65
330
1F
100
AcDbEntity
  8
0
  6
Continuous
 62
     7
370
    25
100
AcDbCircle
 10
-22.5
 20
0.0
 30
0.0
 40
5.874999999999999
  0
CIRCLE
  5
66
330
1F
100
AcDbEntity
  8
0
  6
Continuous
 62
     7
370
    25
100
AcDbCircle
 10
22.5
 20
0.0
 30
0.0
 40
5.874999999999999
  0
CIRCLE
  5
67
330
1F
100
AcDbEntity
  8
0
  6
Continuous
 62
     7
370
    25
100
AcDbCircle
 10
0.0
 20
0.0
 30
0.0
 40
10.328125
  0
SPLINE
  5
68
330
1F
100
AcDbEntity
  8
0
  6
Continuous
 62
     7
370
    25
100
AcDbSpline
210
0.0
220
0.0
230
1.0
 70
     8
 71
     3
 72
    17
 73
    13
 74
     0
 42
0.00000001
 43
0.00000001
 40
0.0230106502467868
 40
0.0230106502467868
 40
0.0230106502467868
 40
0.0230106502467868
 40
0.2672579876850901
 40
0.3893816564042418
 40
0.5115053251233934
 40
0.6336289938425451
 40
0.7557526625616968
 40
0.8168144969212726
 40
0.8778763312808484
 40
0.9389381656404243
 40
0.9694690828202122
 40
1.0
 40
1.0
 40
1.0
 40
1.0
 10
35.50000232613555
 20
-0.00373588113426
 30
0.0
 10
35.50061523957163
 20
-0.4959193357015262
 30
0.0
 10
35.41826386336236
 20
-1.233614789602302
 30
0.0
 10
35.14956687896226
 20
-2.192738575271872
 30
0.0
 10
34.87071186794252
 20
-2.889611747880351
 30
0.0
 10
34.49974897073151
 20
-3.601492099668278
 30
0.0
 10
34.13937205125526
 20
-4.165162167239159
 30
0.0
 10
33.69388727086957
 20
-4.839357340230444
 30
0.0
 10
33.30681420999322
 20
-5.487322542012204
 30
0.0
 10
32.97508887824762
 20
-6.197475634959234
 30
0.0
 10
32.75796561827416
 20
-6.87326255455335
 30
0.0
 10
32.67479371169512
 20
-7.260710929490164
 30
0.0
 10
32.64481089881378
 20
-7.450965060354765
 30
0.0
  0
LINE
  5
69
330
1F
100
AcDbEntity
  8
0
  6
Continuous
 62
     7
370
    25
100
AcDbLine
 10
35.5000023261
 20
-0.0037358811
 30
0.0
 11
35.5000023261
 21
0.0037358811
 31
0.0
  0
SPLINE
  5
6A
330
1F
100
AcDbEntity
  8
0
  6
Continuous
 62
     7
370
    25
100
AcDbSpline
210
0.0
220
0.0
230
1.0
 70
     8
 71
     3
 72
    17
 73
    13
 74
     0
 42
0.00000001
 43
0.00000001
 40
0.0230106502467868
 40
0.0230106502467868
 40
0.0230106502467868
 40
0.0230106502467868
 40
0.0535415674265747
 40
0.0840724846063626
 40
0.1451343189659384
 40
0.2061961533255142
 40
0.2672579876850901
 40
0.3893816564042417
 40
0.5115053251233934
 40
0.633628993842545
 40
0.7557526625616967
 40
1.0
 40
1.0
 40
1.0
 40
1.0
 10
32.64481089881537
 20
7.450965060354605
 30
0.0
 10
32.67479371169671
 20
7.260710929490014
 30
0.0
 10
32.75796561827573
 20
6.873262554553215
 30
0.0
 10
32.97508887824925
 20
6.197475634959154
 30
0.0
 10
33.30681420999486
 20
5.487322542012102
 30
0.0
 10
33.69388727087124
 20
4.83935734023034
 30
0.0
 10
34.13937205125701
 20
4.165162167239033
 30
0.0
 10
34.49974897073324
 20
3.601492099668212
 30
0.0
 10
34.87071186794429
 20
2.889611747880303
 30
0.0
 10
35.14956687896404
 20
2.192738575271843
 30
0.0
 10
35.41826386336417
 20
1.23361478960228
 30
0.0
 10
35.50061523957347
 20
0.4959193357014575
 30
0.0
 10
35.50000232613742
 20
0.003735881134169
 30
0.0
  0
SPLINE
  5
6B
330
1F
100
AcDbEntity
  8
0
  6
Continuous
 62
     7
370
    25
100
AcDbSpline
210
0.0
220
0.0
230
1.0
 70
     8
 71
     3
 72
    17
 73
    13
 74
     0
 42
0.00000001
 43
0.00000001
 40
0.0230106502467902
 40
0.0230106502467902
 40
0.0230106502467902
 40
0.0230106502467902
 40
0.2672579876850927
 40
0.3893816564042438
 40
0.5115053251233951
 40
0.6336289938425463
 40
0.7557526625616975
 40
0.8168144969212732
 40
0.8778763312808487
 40
0.9389381656404243
 40
0.9694690828202122
 40
1.0
 40
1.0
 40
1.0
 40
1.0
 10
31.986017844389
 20
15.39950783534949
 30
0.0
 10
32.20012045791305
 20
14.95633179866112
 30
0.0
 10
32.44599849358801
 20
14.25596023767224
 30
0.0
 10
32.62005909014712
 20
13.27523631403809
 30
0.0
 10
32.67118134438184
 20
12.52638462578855
 30
0.0
 10
32.64582863168585
 20
11.72404782224048
 30
0.0
 10
32.56570752307343
 20
11.0598369542766
 30
0.0
 10
32.45686192737399
 20
10.25911949028762
 30
0.0
 10
32.38926271448783
 20
9.507378309033475
 30
0.0
 10
32.39851239720418
 20
8.723622253545816
 30
0.0
 10
32.49610405499075
 20
8.020553025769196
 30
0.0
 10
32.58927630611155
 20
7.635387164215699
 30
0.0
 10
32.64481089881539
 20
7.450965060354648
 30
0.0
  0
LINE
  5
6C
330
1F
100
AcDbEntity
  8
0
  6
Continuous
 62
     7
370
    25
100
AcDbLine
 10
31.9860178444
 20
15.3995078353
 30
0.0
 11
31.9827759682
 21
15.4062396605
 31
0.0
  0
SPLINE
  5
6D
330
1F
100
AcDbEntity
  8
0
  6
Continuous
 62
     7
370
    25
100
AcDbSpline
210
0.0
220
0.0
230
1.0
 70
     8
 71
     3
 72
    17
 73
    13
 74
     0
 42
0.00000001
 43
0.00000001
 40
0.0230106502467868
 40
0.0230106502467868
 40
0.0230106502467868
 40
0.0230106502467868
 40
0.0535415674265747
 40
0.0840724846063626
 40
0.1451343189659384
 40
0.2061961533255142
 40
0.2672579876850901
 40
0.3893816564042417
 40
0.5115053251233934
 40
0.633628993842545
 40
0.7557526625616967
 40
1.0
 40
1.0
 40
1.0
 40
1.0
 10
26.17910573797534
 20
20.87714017077183
 30
0.0
 10
26.28866749263566
 20
20.71873617683522
 30
0.0
 10
26.53171034078006
 20
20.40574419091382
 30
0.0
 10
27.02054459403389
 20
19.8910874669106
 30
0.0
 10
27.62754266994505
 20
19.39519186601849
 30
0.0
 10
28.25742501196549
 20
18.97934009869373
 30
0.0
 10
28.95131525276991
 20
18.56519983917223
 30
0.0
 10
29.52057091447485
 20
18.21371234183648
 30
0.0
 10
30.16367024484694
 20
17.73328507611997
 30
0.0
 10
30.7172718662564
 20
17.22641469757628
 30
0.0
 10
31.37550769850308
 20
16.47885727850444
 30
0.0
 10
31.76977778656509
 20
15.84994756357782
 30
0.0
 10
31.98277596823996
 20
15.40623966054264
 30
0.0
  0
SPLINE
  5
6E
330
1F
100
AcDbEntity
  8
0
  6
Continuous
 62
     7
370
    25
100
AcDbSpline
210
0.0
220
0.0
230
1.0
 70
     8
 71
     3
 72
    17
 73
    13
 74
     0
 42
0.00000001
 43
0.00000001
 40
0.0230106502467902
 40
0.0230106502467902
 40
0.0230106502467902
 40
0.0230106502467902
 40
0.2672579876850927
 40
0.3893816564042438
 40
0.5115053251233951
 40
0.6336289938425463
 40
0.7557526625616975
 40
0.8168144969212732
 40
0.8778763312808487
 40
0.9389381656404243
 40
0.9694690828202122
 40
1.0
 40
1.0
 40
1.0
 40
1.0
 10
22.13681024579587
 20
27.75269016247339
 30
0.0
 10
22.52199691100323
 20
27.44629799292745
 30
0.0
 10
23.04740519810084
 20
26.92196750199779
 30
0.0
 10
23.62974853975755
 20
26.1138878412644
 30
0.0
 10
24.00072266982222
 20
25.46137689829488
 30
0.0
 10
24.32600155732132
 20
24.72749628694441
 30
0.0
 10
24.54200522775442
 20
24.09429972699953
 30
0.0
 10
24.7913570218732
 20
23.32565188591114
 30
0.0
 10
25.05662051013924
 20
22.61902628563249
 30
0.0
 10
25.40501319421567
 20
21.91689976653074
 30
0.0
 10
25.79799054505458
 20
21.32579971371094
 30
0.0
 10
26.04905304685808
 20
21.01920318817071
 30
0.0
 10
26.17910573797505
 20
20.87714017077156
 30
0.0
  0
LINE
  5
6F
330
1F
100
AcDbEntity
  8
0
  6
Continuous
 62
     7
370
    25
100
AcDbLine
 10
22.1368102458
 20
27.7526901625
 30
0.0
 11
22.1309685868
 21
27.7573487301
 31
0.0
  0
SPLINE
  5
70
330
1F
100
AcDbEntity
  8
0
  6
Continuous
 62
     7
370
    25
100
AcDbSpline
210
0.0
220
0.0
230
1.0
 70
     8
 71
     3
 72
    17
 73
    13
 74
     0
 42
0.00000001
 43
0.00000001
 40
0.0230106502467868
 40
0.0230106502467868
 40
0.0230106502467868
 40
0.0230106502467868
 40
0.0535415674265747
 40
0.0840724846063626
 40
0.1451343189659384
 40
0.2061961533255142
 40
0.2672579876850901
 40
0.3893816564042417
 40
0.5115053251233934
 40
0.633628993842545
 40
0.7557526625616967
 40
1.0
 40
1.0
 40
1.0
 40
1.0
 10
14.52830762006732
 20
30.16834162904682
 30
0.0
 10
14.69574826730941
 20
30.07316162573484
 30
0.0
 10
15.05052444021925
 20
29.89661793023538
 30
0.0
 10
15.71425006773778
 20
29.64502547786235
 30
0.0
 10
16.47629747453742
 20
29.46160557454229
 30
0.0
 10
17.22423317486482
 20
29.36023178428046
 30
0.0
 10
18.02909540389122
 20
29.28817199572396
 30
0.0
 10
18.69448174256166
 20
29.21848347818191
 30
0.0
 10
19.48234379661894
 20
29.0646638105657
 30
0.0
 10
20.20104443781963
 20
28.84818812091462
 30
0.0
 10
21.1184474386037
 20
28.46025998347776
 30
0.0
 10
21.74654621217243
 20
28.06469928963806
 30
0.0
 10
22.13096858682622
 20
27.75734873005143
 30
0.0
  0
SPLINE
  5
71
330
1F
100
AcDbEntity
  8
0
  6
Continuous
 62
     7
370
    25
100
AcDbSpline
210
0.0
220
0.0
230
1.0
 70
     8
 71
     3
 72
    17
 73
    13
 74
     0
 42
0.00000001
 43
0.00000001
 40
0.0230106502467902
 40
0.0230106502467902
 40
0.0230106502467902
 40
0.0230106502467902
 40
0.2672579876850927
 40
0.3893816564042438
 40
0.5115053251233951
 40
0.6336289938425463
 40
0.7557526625616975
 40
0.8168144969212732
 40
0.8778763312808487
 40
0.9389381656404243
 40
0.9694690828202122
 40
1.0
 40
1.0
 40
1.0
 40
1.0
 10
7.903135887862282
 20
34.60911183851212
 30
0.0
 10
8.383115661704199
 20
34.50018826294054
 30
0.0
 10
9.083990645254989
 20
34.2557489262902
 30
0.0
 10
9.959276491221791
 20
33.78036361571247
 30
0.0
 10
10.57662652095799
 20
33.35343121279964
 30
0.0
 10
11.18811153569922
 20
32.83336084917977
 30
0.0
 10
11.65745780913736
 20
32.35659094159713
 30
0.0
 10
12.21561981215006
 20
31.77225285518404
 30
0.0
 10
12.76120731447405
 20
31.25069870221036
 30
0.0
 10
13.37973955607334
 20
30.76926648761925
 30
0.0
 10
13.99026861608001
 20
30.40721022458363
 30
0.0
 10
14.34949536100449
 20
30.23990823709955
 30
0.0
 10
14.52830762006728
 20
30.16834162904676
 30
0.0
  0
LINE
  5
72
330
1F
100
AcDbEntity
  8
0
  6
Continuous
 62
     7
370
    25
100
AcDbLine
 10
7.9031358879
 20
34.6091118385
 30
0.0
 11
7.8958514583
 21
34.610774462
 31
0.0
  0
SPLINE
  5
73
330
1F
100
AcDbEntity
  8
0
  6
Continuous
 62
     7
370
    25
100
AcDbSpline
210
0.0
220
0.0
230
1.0
 70
     8
 71
     3
 72
    17
 73
    13
 74
     0
 42
0.00000001
 43
0.00000001
 40
0.0230106502467868
 40
0.0230106502467868
 40
0.0230106502467868
 40
0.0230106502467868
 40
0.0535415674265747
 40
0.0840724846063626
 40
0.1451343189659384
 40
0.2061961533255142
 40
0.2672579876850901
 40
0.3893816564042417
 40
0.5115053251233934
 40
0.633628993842545
 40
0.7557526625616967
 40
1.0
 40
1.0
 40
1.0
 40
1.0
 10
0.0000000000053084
 20
33.48433303726062
 30
0.0
 10
0.1921558661180845
 20
33.47122859153533
 30
0.0
 10
0.5883975917043497
 20
33.46609983051781
 30
0.0
 10
1.295555592896918
 20
33.52740262054636
 30
0.0
 10
2.06171949577025
 20
33.69278697614838
 30
0.0
 10
2.779570716125359
 20
33.92596948537874
 30
0.0
 10
3.535992097927605
 20
34.21026249266616
 30
0.0
 10
4.165721188761962
 20
34.43617562049057
 30
0.0
 10
4.942300224204354
 20
34.63942942262047
 30
0.0
 10
5.683752408921557
 20
34.75622408709746
 30
0.0
 10
6.678619662728273
 20
34.80475915654133
 30
0.0
 10
7.416144456572508
 20
34.72089313043703
 30
0.0
 10
7.895851458274002
 20
34.61077446203231
 30
0.0
  0
SPLINE
  5
74
330
1F
100
AcDbEntity
  8
0
  6
Continuous
 62
     7
370
    25
100
AcDbSpline
210
0.0
220
0.0
230
1.0
 70
     8
 71
     3
 72
    17
 73
    13
 74
     0
 42
0.00000001
 43
0.00000001
 40
0.0230106502467902
 40
0.0230106502467902
 40
0.0230106502467902
 40
0.0230106502467902
 40
0.2672579876850927
 40
0.3893816564042438
 40
0.5115053251233951
 40
0.6336289938425463
 40
0.7557526625616975
 40
0.8168144969212732
 40
0.8778763312808487
 40
0.9389381656404243
 40
0.9694690828202122
 40
1.0
 40
1.0
 40
1.0
 40
1.0
 10
-7.895851458263253
 20
34.61077446203229
 30
0.0
 10
-7.416144456561787
 20
34.72089313043701
 30
0.0
 10
-6.678619662717635
 20
34.80475915654131
 30
0.0
 10
-5.683752408910896
 20
34.75622408709742
 30
0.0
 10
-4.942300224193685
 20
34.63942942262045
 30
0.0
 10
-4.165721188751358
 20
34.43617562049054
 30
0.0
 10
-3.535992097916906
 20
34.21026249266612
 30
0.0
 10
-2.779570716114677
 20
33.92596948537873
 30
0.0
 10
-2.061719495759613
 20
33.69278697614838
 30
0.0
 10
-1.295555592886325
 20
33.52740262054634
 30
0.0
 10
-0.5883975916937662
 20
33.46609983051778
 30
0.0
 10
-0.1921558661074923
 20
33.47122859153529
 30
0.0
 10
0.0000000000052873
 20
33.48433303726058
 30
0.0
  0
LINE
  5
75
330
1F
100
AcDbEntity
  8
0
  6
Continuous
 62
     7
370
    25
100
AcDbLine
 10
-7.8958514583
 20
34.610774462
 30
0.0
 11
-7.9031358879
 21
34.6091118385
 31
0.0
  0
SPLINE
  5
76
330
1F
100
AcDbEntity
  8
0
  6
Continuous
 62
     7
370
    25
100
AcDbSpline
210
0.0
220
0.0
230
1.0
 70
     8
 71
     3
 72
    17
 73
    13
 74
     0
 42
0.00000001
 43
0.00000001
 40
0.0230106502467868
 40
0.0230106502467868
 40
0.0230106502467868
 40
0.0230106502467868
 40
0.0535415674265747
 40
0.0840724846063626
 40
0.1451343189659384
 40
0.2061961533255142
 40
0.2672579876850901
 40
0.3893816564042417
 40
0.5115053251233934
 40
0.633628993842545
 40
0.7557526625616967
 40
1.0
 40
1.0
 40
1.0
 40
1.0
 10
-14.52830762005753
 20
30.16834162905043
 30
0.0
 10
-14.34949536099474
 20
30.2399082371032
 30
0.0
 10
-13.99026861607026
 20
30.40721022458727
 30
0.0
 10
-13.37973955606358
 20
30.76926648762289
 30
0.0
 10
-12.76120731446425
 20
31.25069870221399
 30
0.0
 10
-12.21561981214021
 20
31.7722528551877
 30
0.0
 10
-11.6574578091275
 20
32.35659094160083
 30
0.0
 10
-11.18811153568944
 20
32.83336084918339
 30
0.0
 10
-10.57662652094814
 20
33.35343121280328
 30
0.0
 10
-9.95927649121196
 20
33.78036361571613
 30
0.0
 10
-9.083990645245166
 20
34.2557489262938
 30
0.0
 10
-8.383115661694294
 20
34.50018826294418
 30
0.0
 10
-7.90313588785235
 20
34.60911183851577
 30
0.0
  0
SPLINE
  5
77
330
1F
100
AcDbEntity
  8
0
  6
Continuous
 62
     7
370
    25
100
AcDbSpline
210
0.0
220
0.0
230
1.0
 70
     8
 71
     3
 72
    17
 73
    13
 74
     0
 42
0.00000001
 43
0.00000001
 40
0.0230106502467902
 40
0.0230106502467902
 40
0.0230106502467902
 40
0.0230106502467902
 40
0.2672579876850927
 40
0.3893816564042438
 40
0.5115053251233951
 40
0.6336289938425463
 40
0.7557526625616975
 40
0.8168144969212732
 40
0.8778763312808487
 40
0.9389381656404243
 40
0.9694690828202122
 40
1.0
 40
1.0
 40
1.0
 40
1.0
 10
-22.13096858681625
 20
27.75734873005496
 30
0.0
 10
-21.74654621216251
 20
28.06469928964159
 30
0.0
 10
-21.11844743859384
 20
28.46025998348127
 30
0.0
 10
-20.20104443780975
 20
28.84818812091815
 30
0.0
 10
-19.48234379660907
 20
29.06466381056927
 30
0.0
 10
-18.69448174255187
 20
29.21848347818547
 30
0.0
 10
-18.02909540388133
 20
29.28817199572756
 30
0.0
 10
-17.22423317485496
 20
29.36023178428408
 30
0.0
 10
-16.47629747452761
 20
29.46160557454593
 30
0.0
 10
-15.71425006772801
 20
29.64502547786597
 30
0.0
 10
-15.05052444020947
 20
29.89661793023902
 30
0.0
 10
-14.69574826729963
 20
30.07316162573848
 30
0.0
 10
-14.52830762005754
 20
30.16834162905046
 30
0.0
  0
LINE
  5
78
330
1F
100
AcDbEntity
  8
0
  6
Continuous
 62
     7
370
    25
100
AcDbLine
 10
-22.1309685868
 20
27.7573487301
 30
0.0
 11
-22.1368102458
 21
27.7526901625
 31
0.0
  0
SPLINE
  5
79
330
1F
100
AcDbEntity
  8
0
  6
Continuous
 62
     7
370
    25
100
AcDbSpline
210
0.0
220
0.0
230
1.0
 70
     8
 71
     3
 72
    17
 73
    13
 74
     0
 42
0.00000001
 43
0.00000001
 40
0.0230106502467868
 40
0.0230106502467868
 40
0.0230106502467868
 40
0.0230106502467868
 40
0.0535415674265747
 40
0.0840724846063626
 40
0.1451343189659384
 40
0.2061961533255142
 40
0.2672579876850901
 40
0.3893816564042417
 40
0.5115053251233934
 40
0.633628993842545
 40
0.7557526625616967
 40
1.0
 40
1.0
 40
1.0
 40
1.0
 10
-26.17910573796803
 20
20.87714017077847
 30
0.0
 10
-26.04905304685106
 20
21.01920318817762
 30
0.0
 10
-25.79799054504756
 20
21.32579971371783
 30
0.0
 10
-25.40501319420864
 20
21.91689976653764
 30
0.0
 10
-25.05662051013219
 20
22.61902628563942
 30
0.0
 10
-24.79135702186612
 20
23.3256518859181
 30
0.0
 10
-24.54200522774736
 20
24.09429972700653
 30
0.0
 10
-24.3260015573143
 20
24.72749628695133
 30
0.0
 10
-24.00072266981517
 20
25.46137689830185
 30
0.0
 10
-23.62974853975052
 20
26.11388784127137
 30
0.0
 10
-23.04740519809382
 20
26.92196750200474
 30
0.0
 10
-22.52199691099614
 20
27.44629799293445
 30
0.0
 10
-22.13681024578877
 20
27.75269016248043
 30
0.0
  0
SPLINE
  5
7A
330
1F
100
AcDbEntity
  8
0
  6
Continuous
 62
     7
370
    25
100
AcDbSpline
210
0.0
220
0.0
230
1.0
 70
     8
 71
     3
 72
    17
 73
    13
 74
     0
 42
0.00000001
 43
0.00000001
 40
0.0230106502467902
 40
0.0230106502467902
 40
0.0230106502467902
 40
0.0230106502467902
 40
0.2672579876850927
 40
0.3893816564042438
 40
0.5115053251233951
 40
0.6336289938425463
 40
0.7557526625616975
 40
0.8168144969212732
 40
0.8778763312808487
 40
0.9389381656404243
 40
0.9694690828202122
 40
1.0
 40
1.0
 40
1.0
 40
1.0
 10
-31.98277596823213
 20
15.40623966054909
 30
0.0
 10
-31.76977778655728
 20
15.84994756358423
 30
0.0
 10
-31.37550769849532
 20
16.47885727851078
 30
0.0
 10
-30.71727186624861
 20
17.22641469758264
 30
0.0
 10
-30.16367024483917
 20
17.73328507612635
 30
0.0
 10
-29.52057091446711
 20
18.21371234184281
 30
0.0
 10
-28.95131525276209
 20
18.56519983917863
 30
0.0
 10
-28.2574250119577
 20
18.97934009870013
 30
0.0
 10
-27.6275426699373
 20
19.39519186602486
 30
0.0
 10
-27.02054459402617
 20
19.89108746691693
 30
0.0
 10
-26.53171034077236
 20
20.40574419092016
 30
0.0
 10
-26.28866749262794
 20
20.71873617684155
 30
0.0
 10
-26.17910573796762
 20
20.87714017077816
 30
0.0
  0
LINE
  5
7B
330
1F
100
AcDbEntity
  8
0
  6
Continuous
 62
     7
370
    25
100
AcDbLine
 10
-31.9827759682
 20
15.4062396605
 30
0.0
 11
-31.9860178444
 21
15.3995078354
 31
0.0
  0
SPLINE
  5
7C
330
1F
100
AcDbEntity
  8
0
  6
Continuous
 62
     7
370
    25
100
AcDbSpline
210
0.0
220
0.0
230
1.0
 70
     8
 71
     3
 72
    17
 73
    13
 74
     0
 42
0.00000001
 43
0.00000001
 40
0.0230106502467868
 40
0.0230106502467868
 40
0.0230106502467868
 40
0.0230106502467868
 40
0.0535415674265747
 40
0.0840724846063626
 40
0.1451343189659384
 40
0.2061961533255142
 40
0.2672579876850901
 40
0.3893816564042417
 40
0.5115053251233934
 40
0.633628993842545
 40
0.7557526625616967
 40
1.0
 40
1.0
 40
1.0
 40
1.0
 10
-32.64481089881156
 20
7.450965060362781
 30
0.0
 10
-32.58927630610771
 20
7.635387164223832
 30
0.0
 10
-32.49610405498689
 20
8.020553025777318
 30
0.0
 10
-32.39851239720034
 20
8.723622253553946
 30
0.0
 10
-32.38926271448399
 20
9.50737830904165
 30
0.0
 10
-32.45686192737018
 20
10.25911949029584
 30
0.0
 10
-32.56570752306967
 20
11.05983695428484
 30
0.0
 10
-32.6458286316821
 20
11.72404782224861
 30
0.0
 10
-32.6711813443781
 20
12.52638462579675
 30
0.0
 10
-32.62005909014341
 20
13.27523631404629
 30
0.0
 10
-32.44599849358433
 20
14.25596023768042
 30
0.0
 10
-32.20012045790934
 20
14.95633179866938
 30
0.0
 10
-31.98601784438531
 20
15.39950783535779
 30
0.0
  0
SPLINE
  5
7D
330
1F
100
AcDbEntity
  8
0
  6
Continuous
 62
     7
370
    25
100
AcDbSpline
210
0.0
220
0.0
230
1.0
 70
     8
 71
     3
 72
    17
 73
    13
 74
     0
 42
0.00000001
 43
0.00000001
 40
0.0230106502467902
 40
0.0230106502467902
 40
0.0230106502467902
 40
0.0230106502467902
 40
0.2672579876850927
 40
0.3893816564042438
 40
0.5115053251233951
 40
0.6336289938425463
 40
0.7557526625616975
 40
0.8168144969212732
 40
0.8778763312808487
 40
0.9389381656404243
 40
0.9694690828202122
 40
1.0
 40
1.0
 40
1.0
 40
1.0
 10
-35.50000232613326
 20
0.0037358811424296
 30
0.0
 10
-35.50061523956932
 20
0.4959193357096855
 30
0.0
 10
-35.41826386336005
 20
1.233614789610426
 30
0.0
 10
-35.14956687895988
 20
2.192738575280008
 30
0.0
 10
-34.87071186794015
 20
2.88961174788848
 30
0.0
 10
-34.49974897072912
 20
3.601492099676327
 30
0.0
 10
-34.13937205125284
 20
4.165162167247238
 30
0.0
 10
-33.69388727086709
 20
4.839357340238536
 30
0.0
 10
-33.30681420999075
 20
5.487322542020258
 30
0.0
 10
-32.97508887824514
 20
6.197475634967265
 30
0.0
 10
-32.75796561827163
 20
6.873262554561316
 30
0.0
 10
-32.67479371169259
 20
7.260710929498122
 30
0.0
 10
-32.64481089881125
 20
7.450965060362715
 30
0.0
  0
LINE
  5
7E
330
1F
100
AcDbEntity
  8
0
  6
Continuous
 62
     7
370
    25
100
AcDbLine
 10
-35.5000023261
 20
0.0037358811
 30
0.0
 11
-35.5000023261
 21
-0.0037358811
 31
0.0
  0
SPLINE
  5
7F
330
1F
100
AcDbEntity
  8
0
  6
Continuous
 62
     7
370
    25
100
AcDbSpline
210
0.0
220
0.0
230
1.0
 70
     8
 71
     3
 72
    17
 73
    13
 74
     0
 42
0.00000001
 43
0.00000001
 40
0.0230106502467868
 40
0.0230106502467868
 40
0.0230106502467868
 40
0.0230106502467868
 40
0.0535415674265747
 40
0.0840724846063626
 40
0.1451343189659384
 40
0.2061961533255142
 40
0.2672579876850901
 40
0.3893816564042417
 40
0.5115053251233934
 40
0.633628993842545
 40
0.7557526625616967
 40
1.0
 40
1.0
 40
1.0
 40
1.0
 10
-32.64481089881311
 20
-7.45096506034646
 30
0.0
 10
-32.67479371169445
 20
-7.260710929481868
 30
0.0
 10
-32.75796561827347
 20
-6.873262554545071
 30
0.0
 10
-32.97508887824699
 20
-6.197475634951012
 30
0.0
 10
-33.30681420999259
 20
-5.48732254200396
 30
0.0
 10
-33.69388727086896
 20
-4.8393573402222
 30
0.0
 10
-34.13937205125473
 20
-4.165162167230894
 30
0.0
 10
-34.49974897073097
 20
-3.601492099660077
 30
0.0
 10
-34.87071186794202
 20
-2.889611747872167
 30
0.0
 10
-35.14956687896179
 20
-2.192738575263709
 30
0.0
 10
-35.41826386336192
 20
-1.233614789594146
 30
0.0
 10
-35.50061523957122
 20
-0.4959193356933259
 30
0.0
 10
-35.50000232613517
 20
-0.0037358811260373
 30
0.0
  0
SPLINE
  5
80
330
1F
100
AcDbEntity
  8
0
  6
Continuous
 62
     7
370
    25
100
AcDbSpline
210
0.0
220
0.0
230
1.0
 70
     8
 71
     3
 72
    17
 73
    13
 74
     0
 42
0.00000001
 43
0.00000001
 40
0.0230106502467902
 40
0.0230106502467902
 40
0.0230106502467902
 40
0.0230106502467902
 40
0.2672579876850927
 40
0.3893816564042438
 40
0.5115053251233951
 40
0.6336289938425463
 40
0.7557526625616975
 40
0.8168144969212732
 40
0.8778763312808487
 40
0.9389381656404243
 40
0.9694690828202122
 40
1.0
 40
1.0
 40
1.0
 40
1.0
 10
-31.98601784438662
 20
-15.39950783534129
 30
0.0
 10
-32.20012045791068
 20
-14.95633179865292
 30
0.0
 10
-32.44599849358566
 20
-14.25596023766404
 30
0.0
 10
-32.62005909014476
 20
-13.27523631402989
 30
0.0
 10
-32.67118134437948
 20
-12.52638462578036
 30
0.0
 10
-32.64582863168349
 20
-11.72404782223228
 30
0.0
 10
-32.56570752307108
 20
-11.0598369542684
 30
0.0
 10
-32.45686192737165
 20
-10.25911949027943
 30
0.0
 10
-32.38926271448548
 20
-9.507378309025274
 30
0.0
 10
-32.39851239720183
 20
-8.723622253537615
 30
0.0
 10
-32.49610405498843
 20
-8.020553025760998
 30
0.0
 10
-32.58927630610923
 20
-7.635387164207505
 30
0.0
 10
-32.64481089881308
 20
-7.450965060346455
 30
0.0
  0
LINE
  5
81
330
1F
100
AcDbEntity
  8
0
  6
Continuous
 62
     7
370
    25
100
AcDbLine
 10
-31.9860178444
 20
-15.3995078353
 30
0.0
 11
-31.9827759682
 21
-15.4062396605
 31
0.0
  0
SPLINE
  5
82
330
1F
100
AcDbEntity
  8
0
  6
Continuous
 62
     7
370
    25
100
AcDbSpline
210
0.0
220
0.0
230
1.0
 70
     8
 71
     3
 72
    17
 73
    13
 74
     0
 42
0.00000001
 43
0.00000001
 40
0.0230106502467868
 40
0.0230106502467868
 40
0.0230106502467868
 40
0.0230106502467868
 40
0.0535415674265747
 40
0.0840724846063626
 40
0.1451343189659384
 40
0.2061961533255142
 40
0.2672579876850901
 40
0.3893816564042417
 40
0.5115053251233934
 40
0.633628993842545
 40
0.7557526625616967
 40
1.0
 40
1.0
 40
1.0
 40
1.0
 10
-26.17910573797307
 20
-20.87714017076368
 30
0.0
 10
-26.28866749263339
 20
-20.71873617682707
 30
0.0
 10
-26.53171034077779
 20
-20.40574419090568
 30
0.0
 10
-27.02054459403161
 20
-19.89108746690246
 30
0.0
 10
-27.62754266994277
 20
-19.39519186601034
 30
0.0
 10
-28.25742501196321
 20
-18.97934009868559
 30
0.0
 10
-28.95131525276762
 20
-18.56519983916408
 30
0.0
 10
-29.52057091447256
 20
-18.21371234182833
 30
0.0
 10
-30.16367024484466
 20
-17.73328507611182
 30
0.0
 10
-30.71727186625412
 20
-17.22641469756813
 30
0.0
 10
-31.3755076985008
 20
-16.47885727849628
 30
0.0
 10
-31.76977778656283
 20
-15.84994756356966
 30
0.0
 10
-31.98277596823766
 20
-15.40623966053448
 30
0.0
  0
SPLINE
  5
83
330
1F
100
AcDbEntity
  8
0
  6
Continuous
 62
     7
370
    25
100
AcDbSpline
210
0.0
220
0.0
230
1.0
 70
     8
 71
     3
 72
    17
 73
    13
 74
     0
 42
0.00000001
 43
0.00000001
 40
0.0230106502467902
 40
0.0230106502467902
 40
0.0230106502467902
 40
0.0230106502467902
 40
0.2672579876850927
 40
0.3893816564042438
 40
0.5115053251233951
 40
0.6336289938425463
 40
0.7557526625616975
 40
0.8168144969212732
 40
0.8778763312808487
 40
0.9389381656404243
 40
0.9694690828202122
 40
1.0
 40
1.0
 40
1.0
 40
1.0
 10
-22.13681024579365
 20
-27.75269016246531
 30
0.0
 10
-22.52199691100102
 20
-27.44629799291937
 30
0.0
 10
-23.04740519809863
 20
-26.92196750198972
 30
0.0
 10
-23.62974853975535
 20
-26.11388784125634
 30
0.0
 10
-24.00072266982002
 20
-25.46137689828682
 30
0.0
 10
-24.32600155731912
 20
-24.72749628693635
 30
0.0
 10
-24.54200522775223
 20
-24.09429972699147
 30
0.0
 10
-24.79135702187101
 20
-23.32565188590308
 30
0.0
 10
-25.05662051013707
 20
-22.61902628562444
 30
0.0
 10
-25.4050131942135
 20
-21.91689976652269
 30
0.0
 10
-25.79799054505242
 20
-21.3257997137029
 30
0.0
 10
-26.04905304685592
 20
-21.01920318816267
 30
0.0
 10
-26.17910573797289
 20
-20.87714017076352
 30
0.0
  0
LINE
  5
84
330
1F
100
AcDbEntity
  8
0
  6
Continuous
 62
     7
370
    25
100
AcDbLine
 10
-22.1368102458
 20
-27.7526901625
 30
0.0
 11
-22.1309685868
 21
-27.75734873
 31
0.0
  0
SPLINE
  5
85
330
1F
100
AcDbEntity
  8
0
  6
Continuous
 62
     7
370
    25
100
AcDbSpline
210
0.0
220
0.0
230
1.0
 70
     8
 71
     3
 72
    17
 73
    13
 74
     0
 42
0.00000001
 43
0.00000001
 40
0.0230106502467868
 40
0.0230106502467868
 40
0.0230106502467868
 40
0.0230106502467868
 40
0.0535415674265747
 40
0.0840724846063626
 40
0.1451343189659384
 40
0.2061961533255142
 40
0.2672579876850901
 40
0.3893816564042417
 40
0.5115053251233934
 40
0.633628993842545
 40
0.7557526625616967
 40
1.0
 40
1.0
 40
1.0
 40
1.0
 10
-14.5283076200649
 20
-30.16834162903841
 30
0.0
 10
-14.69574826730698
 20
-30.07316162572641
 30
0.0
 10
-15.05052444021682
 20
-29.89661793022695
 30
0.0
 10
-15.71425006773535
 20
-29.6450254778539
 30
0.0
 10
-16.47629747453498
 20
-29.46160557453383
 30
0.0
 10
-17.22423317486238
 20
-29.36023178427198
 30
0.0
 10
-18.02909540388878
 20
-29.28817199571547
 30
0.0
 10
-18.69448174255922
 20
-29.21848347817341
 30
0.0
 10
-19.48234379661649
 20
-29.06466381055719
 30
0.0
 10
-20.20104443781718
 20
-28.84818812090608
 30
0.0
 10
-21.11844743860123
 20
-28.46025998346921
 30
0.0
 10
-21.74654621216997
 20
-28.06469928962949
 30
0.0
 10
-22.13096858682375
 20
-27.75734873004285
 30
0.0
  0
SPLINE
  5
86
330
1F
100
AcDbEntity
  8
0
  6
Continuous
 62
     7
370
    25
100
AcDbSpline
210
0.0
220
0.0
230
1.0
 70
     8
 71
     3
 72
    17
 73
    13
 74
     0
 42
0.00000001
 43
0.00000001
 40
0.0230106502467902
 40
0.0230106502467902
 40
0.0230106502467902
 40
0.0230106502467902
 40
0.2672579876850927
 40
0.3893816564042438
 40
0.5115053251233951
 40
0.6336289938425463
 40
0.7557526625616975
 40
0.8168144969212732
 40
0.8778763312808487
 40
0.9389381656404243
 40
0.9694690828202122
 40
1.0
 40
1.0
 40
1.0
 40
1.0
 10
-7.903135887859998
 20
-34.60911183850397
 30
0.0
 10
-8.383115661701915
 20
-34.50018826293239
 30
0.0
 10
-9.083990645252708
 20
-34.25574892628205
 30
0.0
 10
-9.95927649121952
 20
-33.78036361570436
 30
0.0
 10
-10.57662652095571
 20
-33.35343121279151
 30
0.0
 10
-11.18811153569696
 20
-32.83336084917164
 30
0.0
 10
-11.6574578091351
 20
-32.35659094158902
 30
0.0
 10
-12.21561981214781
 20
-31.77225285517591
 30
0.0
 10
-12.7612073144718
 20
-31.25069870220224
 30
0.0
 10
-13.37973955607109
 20
-30.76926648761116
 30
0.0
 10
-13.99026861607777
 20
-30.40721022457555
 30
0.0
 10
-14.34949536100224
 20
-30.23990823709148
 30
0.0
 10
-14.52830762006504
 20
-30.16834162903869
 30
0.0
  0
LINE
  5
87
330
1F
100
AcDbEntity
  8
0
  6
Continuous
 62
     7
370
    25
100
AcDbLine
 10
-7.9031358879
 20
-34.6091118385
 30
0.0
 11
-7.8958514583
 21
-34.610774462
 31
0.0
  0
SPLINE
  5
88
330
1F
100
AcDbEntity
  8
0
  6
Continuous
 62
     7
370
    25
100
AcDbSpline
210
0.0
220
0.0
230
1.0
 70
     8
 71
     3
 72
    17
 73
    13
 74
     0
 42
0.00000001
 43
0.00000001
 40
0.0230106502467868
 40
0.0230106502467868
 40
0.0230106502467868
 40
0.0230106502467868
 40
0.0535415674265747
 40
0.0840724846063626
 40
0.1451343189659384
 40
0.2061961533255142
 40
0.2672579876850901
 40
0.3893816564042417
 40
0.5115053251233934
 40
0.633628993842545
 40
0.7557526625616967
 40
1.0
 40
1.0
 40
1.0
 40
1.0
 10
-0.0000000000030112
 20
-33.48433303725238
 30
0.0
 10
-0.1921558661157881
 20
-33.47122859152709
 30
0.0
 10
-0.5883975917020543
 20
-33.46609983050957
 30
0.0
 10
-1.295555592894623
 20
-33.52740262053814
 30
0.0
 10
-2.061719495767952
 20
-33.69278697614016
 30
0.0
 10
-2.77957071612306
 20
-33.92596948537052
 30
0.0
 10
-3.535992097925305
 20
-34.21026249265795
 30
0.0
 10
-4.16572118875966
 20
-34.43617562048237
 30
0.0
 10
-4.942300224202048
 20
-34.63942942261227
 30
0.0
 10
-5.683752408919251
 20
-34.75622408708927
 30
0.0
 10
-6.678619662725966
 20
-34.80475915653314
 30
0.0
 10
-7.4161444565702
 20
-34.72089313042884
 30
0.0
 10
-7.895851458271707
 20
-34.61077446202413
 30
0.0
  0
SPLINE
  5
89
330
1F
100
AcDbEntity
  8
0
  6
Continuous
 62
     7
370
    25
100
AcDbSpline
210
0.0
220
0.0
230
1.0
 70
     8
 71
     3
 72
    17
 73
    13
 74
     0
 42
0.00000001
 43
0.00000001
 40
0.0230106502467902
 40
0.0230106502467902
 40
0.0230106502467902
 40
0.0230106502467902
 40
0.2672579876850927
 40
0.3893816564042438
 40
0.5115053251233951
 40
0.6336289938425463
 40
0.7557526625616975
 40
0.8168144969212732
 40
0.8778763312808487
 40
0.9389381656404243
 40
0.9694690828202122
 40
1.0
 40
1.0
 40
1.0
 40
1.0
 10
7.895851458265539
 20
-34.61077446202415
 30
0.0
 10
7.416144456564073
 20
-34.72089313042886
 30
0.0
 10
6.67861966271992
 20
-34.80475915653317
 30
0.0
 10
5.68375240891318
 20
-34.75622408708927
 30
0.0
 10
4.942300224195971
 20
-34.6394294226123
 30
0.0
 10
4.165721188753645
 20
-34.43617562048238
 30
0.0
 10
3.535992097919194
 20
-34.21026249265795
 30
0.0
 10
2.779570716116968
 20
-33.92596948537056
 30
0.0
 10
2.061719495761904
 20
-33.69278697614019
 30
0.0
 10
1.295555592888617
 20
-33.52740262053817
 30
0.0
 10
0.5883975916960591
 20
-33.4660998305096
 30
0.0
 10
0.1921558661097851
 20
-33.4712285915271
 30
0.0
 10
-0.0000000000029946
 20
-33.48433303725238
 30
0.0
  0
LINE
  5
8A
330
1F
100
AcDbEntity
  8
0
  6
Continuous
 62
     7
370
    25
100
AcDbLine
 10
7.8958514583
 20
-34.610774462
 30
0.0
 11
7.9031358879
 21
-34.6091118385
 31
0.0
  0
SPLINE
  5
8B
330
1F
100
AcDbEntity
  8
0
  6
Continuous
 62
     7
370
    25
100
AcDbSpline
210
0.0
220
0.0
230
1.0
 70
     8
 71
     3
 72
    17
 73
    13
 74
     0
 42
0.00000001
 43
0.00000001
 40
0.0230106502467868
 40
0.0230106502467868
 40
0.0230106502467868
 40
0.0230106502467868
 40
0.0535415674265747
 40
0.0840724846063626
 40
0.1451343189659384
 40
0.2061961533255142
 40
0.2672579876850901
 40
0.3893816564042417
 40
0.5115053251233934
 40
0.633628993842545
 40
0.7557526625616967
 40
1.0
 40
1.0
 40
1.0
 40
1.0
 10
14.52830762005973
 20
-30.16834162904211
 30
0.0
 10
14.34949536099694
 20
-30.23990823709488
 30
0.0
 10
13.99026861607246
 20
-30.40721022457895
 30
0.0
 10
13.37973955606579
 20
-30.76926648761458
 30
0.0
 10
12.76120731446646
 20
-31.25069870220567
 30
0.0
 10
12.21561981214244
 20
-31.77225285517939
 30
0.0
 10
11.65745780912973
 20
-32.35659094159255
 30
0.0
 10
11.18811153569168
 20
-32.83336084917511
 30
0.0
 10
10.57662652095038
 20
-33.35343121279499
 30
0.0
 10
9.959276491214213
 20
-33.78036361570786
 30
0.0
 10
9.083990645247427
 20
-34.25574892628557
 30
0.0
 10
8.38311566169656
 20
-34.50018826293594
 30
0.0
 10
7.903135887854613
 20
-34.60911183850753
 30
0.0
  0
SPLINE
  5
8C
330
1F
100
AcDbEntity
  8
0
  6
Continuous
 62
     7
370
    25
100
AcDbSpline
210
0.0
220
0.0
230
1.0
 70
     8
 71
     3
 72
    17
 73
    13
 74
     0
 42
0.00000001
 43
0.00000001
 40
0.0230106502467902
 40
0.0230106502467902
 40
0.0230106502467902
 40
0.0230106502467902
 40
0.2672579876850927
 40
0.3893816564042438
 40
0.5115053251233951
 40
0.6336289938425463
 40
0.7557526625616975
 40
0.8168144969212732
 40
0.8778763312808487
 40
0.9389381656404243
 40
0.9694690828202122
 40
1.0
 40
1.0
 40
1.0
 40
1.0
 10
22.13096858681851
 20
-27.75734873004679
 30
0.0
 10
21.74654621216477
 20
-28.06469928963342
 30
0.0
 10
21.1184474385961
 20
-28.46025998347308
 30
0.0
 10
20.20104443781201
 20
-28.84818812090995
 30
0.0
 10
19.48234379661133
 20
-29.06466381056109
 30
0.0
 10
18.69448174255412
 20
-29.21848347817728
 30
0.0
 10
18.02909540388358
 20
-29.28817199571937
 30
0.0
 10
17.22423317485721
 20
-29.36023178427589
 30
0.0
 10
16.47629747452986
 20
-29.46160557453773
 30
0.0
 10
15.71425006773026
 20
-29.64502547785778
 30
0.0
 10
15.05052444021174
 20
-29.89661793023082
 30
0.0
 10
14.69574826730189
 20
-30.07316162573027
 30
0.0
 10
14.5283076200598
 20
-30.16834162904227
 30
0.0
  0
LINE
  5
8D
330
1F
100
AcDbEntity
  8
0
  6
Continuous
 62
     7
370
    25
100
AcDbLine
 10
22.1309685868
 20
-27.75734873
 30
0.0
 11
22.1368102458
 21
-27.7526901625
 31
0.0
  0
SPLINE
  5
8E
330
1F
100
AcDbEntity
  8
0
  6
Continuous
 62
     7
370
    25
100
AcDbSpline
210
0.0
220
0.0
230
1.0
 70
     8
 71
     3
 72
    17
 73
    13
 74
     0
 42
0.00000001
 43
0.00000001
 40
0.0230106502467868
 40
0.0230106502467868
 40
0.0230106502467868
 40
0.0230106502467868
 40
0.0535415674265747
 40
0.0840724846063626
 40
0.1451343189659384
 40
0.2061961533255142
 40
0.2672579876850901
 40
0.3893816564042417
 40
0.5115053251233934
 40
0.633628993842545
 40
0.7557526625616967
 40
1.0
 40
1.0
 40
1.0
 40
1.0
 10
26.17910573797042
 20
-20.87714017077039
 30
0.0
 10
26.04905304685343
 20
-21.01920318816953
 30
0.0
 10
25.79799054504994
 20
-21.32579971370973
 30
0.0
 10
25.40501319421101
 20
-21.91689976652954
 30
0.0
 10
25.05662051013454
 20
-22.61902628563132
 30
0.0
 10
24.79135702186846
 20
-23.32565188591
 30
0.0
 10
24.54200522774968
 20
-24.09429972699841
 30
0.0
 10
24.32600155731662
 20
-24.72749628694321
 30
0.0
 10
24.00072266981747
 20
-25.46137689829372
 30
0.0
 10
23.62974853975281
 20
-26.11388784126325
 30
0.0
 10
23.04740519809609
 20
-26.9219675019966
 30
0.0
 10
22.52199691099841
 20
-27.4462979929263
 30
0.0
 10
22.13681024579103
 20
-27.75269016247228
 30
0.0
  0
SPLINE
  5
8F
330
1F
100
AcDbEntity
  8
0
  6
Continuous
 62
     7
370
    25
100
AcDbSpline
210
0.0
220
0.0
230
1.0
 70
     8
 71
     3
 72
    17
 73
    13
 74
     0
 42
0.00000001
 43
0.00000001
 40
0.0230106502467902
 40
0.0230106502467902
 40
0.0230106502467902
 40
0.0230106502467902
 40
0.2672579876850927
 40
0.3893816564042438
 40
0.5115053251233951
 40
0.6336289938425463
 40
0.7557526625616975
 40
0.8168144969212732
 40
0.8778763312808487
 40
0.9389381656404243
 40
0.9694690828202122
 40
1.0
 40
1.0
 40
1.0
 40
1.0
 10
31.98277596823441
 20
-15.40623966054094
 30
0.0
 10
31.7697777865596
 20
-15.8499475635761
 30
0.0
 10
31.37550769849762
 20
-16.47885727850266
 30
0.0
 10
30.71727186625095
 20
-17.22641469757451
 30
0.0
 10
30.1636702448415
 20
-17.73328507611823
 30
0.0
 10
29.52057091446945
 20
-18.2137123418347
 30
0.0
 10
28.95131525276444
 20
-18.56519983917051
 30
0.0
 10
28.25742501196006
 20
-18.97934009869203
 30
0.0
 10
27.62754266993965
 20
-19.39519186601676
 30
0.0
 10
27.02054459402851
 20
-19.89108746690885
 30
0.0
 10
26.53171034077471
 20
-20.40574419091206
 30
0.0
 10
26.2886674926303
 20
-20.71873617683346
 30
0.0
 10
26.17910573796998
 20
-20.87714017077006
 30
0.0
  0
LINE
  5
90
330
1F
100
AcDbEntity
  8
0
  6
Continuous
 62
     7
370
    25
100
AcDbLine
 10
31.9827759682
 20
-15.4062396605
 30
0.0
 11
31.9860178444
 21
-15.3995078353
 31
0.0
  0
SPLINE
  5
91
330
1F
100
AcDbEntity
  8
0
  6
Continuous
 62
     7
370
    25
100
AcDbSpline
210
0.0
220
0.0
230
1.0
 70
     8
 71
     3
 72
    17
 73
    13
 74
     0
 42
0.00000001
 43
0.00000001
 40
0.0230106502467914
 40
0.0230106502467914
 40
0.0230106502467914
 40
0.0230106502467914
 40
0.0535415674265792
 40
0.0840724846063669
 40
0.1451343189659425
 40
0.206196153325518
 40
0.2672579876850936
 40
0.3893816564042447
 40
0.5115053251233957
 40
0.6336289938425468
 40
0.7557526625616979
 40
1.0
 40
1.0
 40
1.0
 40
1.0
 10
32.64481089881378
 20
-7.450965060354788
 30
0.0
 10
32.58927630610992
 20
-7.635387164215829
 30
0.0
 10
32.4961040549891
 20
-8.020553025769296
 30
0.0
 10
32.39851239720248
 20
-8.723622253545923
 30
0.0
 10
32.38926271448611
 20
-9.50737830903358
 30
0.0
 10
32.45686192737224
 20
-10.25911949028774
 30
0.0
 10
32.56570752307167
 20
-11.05983695427674
 30
0.0
 10
32.64582863168401
 20
-11.72404782224055
 30
0.0
 10
32.67118134437997
 20
-12.52638462578867
 30
0.0
 10
32.62005909014525
 20
-13.2752363140382
 30
0.0
 10
32.44599849358609
 20
-14.25596023767233
 30
0.0
 10
32.20012045791107
 20
-14.95633179866125
 30
0.0
 10
31.986017844387
 20
-15.39950783534963
 30
0.0
  0
MTEXT
  5
93
330
1F
100
AcDbEntity
  8
0
  6
Continuous
 62
     7
100
AcDbMText
 10
-35.5000023261
 20
-35.7988287444
 30
0.0
 40
4.83362
 41
0.0
 71
     1
 72
     1
  1
SOLIDWORKS Educational Product.
  7
SLDTEXTSTYLE0
 73
     1
 44
1.0
  0
MTEXT
  5
94
330
1F
100
AcDbEntity
  8
0
  6
Continuous
 62
     7
100
AcDbMText
 10
-35.5000023261
 20
-43.0492587444
 30
0.0
 40
4.83362
 41
0.0
 71
     1
 72
     1
  1
For Instructional Use Only.
  7
SLDTEXTSTYLE0
 73
     1
 44
1.0
  0
ENDSEC
  0
SECTION
  2
OBJECTS
  0
DICTIONARY
  5
C
330
0
100
AcDbDictionary
281
     1
  3
ACAD_GROUP
350
D
  3
ACAD_LAYOUT
350
1A
  3
ACAD_MLINESTYLE
350
17
  3
ACAD_PLOTSETTINGS
350
19
  3
ACAD_PLOTSTYLENAME
350
E
  3
ACAD_SCALELIST
350
47
  3
DWGPROPS
350
95
  0
DICTIONARY
  5
D
102
{ACAD_REACTORS
330
C
102
}
330
C
100
AcDbDictionary
281
     1
  0
DICTIONARY
  5
1A
102
{ACAD_REACTORS
330
C
102
}
330
C
100
AcDbDictionary
281
     1
  3
Layout1
350
1E
  3
Layout2
350
26
  3
Model
350
22
  0
DICTIONARY
  5
17
102
{ACAD_REACTORS
330
C
102
}
330
C
100
AcDbDictionary
281
     1
  3
Standard
350
18
  0
DICTIONARY
  5
19
102
{ACAD_REACTORS
330
C
102
}
330
C
100
AcDbDictionary
281
     1
  0
ACDBDICTIONARYWDFLT
  5
E
102
{ACAD_REACTORS
330
C
102
}
330
C
100
AcDbDictionary
281
     1
  3
Normal
350
F
100
AcDbDictionaryWithDefault
340
F
  0
DICTIONARY
  5
47
102
{ACAD_REACTORS
330
C
102
}
330
C
100
AcDbDictionary
281
     1
  3
A0
350
48
  3
A1
350
49
  3
A2
350
4A
  3
A3
350
4B
  3
A4
350
4C
  3
A5
350
4D
  3
A6
350
4E
  3
A7
350
4F
  3
A8
350
50
  3
A9
350
51
  3
B0
350
52
  3
B1
350
53
  3
B2
350
54
  3
B3
350
55
  3
B4
350
56
  3
B5
350
57
  3
B6
350
58
  0
XRECORD
  5
95
102
{ACAD_REACTORS
330
C
102
}
330
C
100
AcDbXrecord
280
     1
  1
DWGPROPS COOKIE
  2

  3

  4

  6

  7

  8
dampy
  9

300
=
301
=
302
=
303
=
304
=
305
=
306
=
307
=
308
=
309
=
 40
0.0
 41
2460726.839726482
 42
2460726.839752882
  1

 90
        0
  0
LAYOUT
  5
1E
102
{ACAD_REACTORS
330
1A
102
}
330
1A
100
AcDbPlotSettings
  1

  2
none_device
  4

  6

 40
0.0
 41
0.0
 42
0.0
 43
0.0
 44
0.0
 45
0.0
 46
0.0
 47
0.0
 48
0.0
 49
0.0
140
0.0
141
0.0
142
1.0
143
1.0
 70
   688
 72
     1
 73
     0
 74
     5
  7

 75
    16
147
1.0
148
0.0
149
0.0
100
AcDbLayout
  1
Layout1
 70
     1
 71
     1
 10
0.0
 20
0.0
 11
420.0
 21
297.0
 12
0.0
 22
0.0
 32
0.0
 14
1.0000000000E+20
 24
1.0000000000E+20
 34
1.0000000000E+20
 15
-1.0000000000E+20
 25
-1.0000000000E+20
 35
-1.0000000000E+20
146
0.0
 13
0.0
 23
0.0
 33
0.0
 16
1.0
 26
0.0
 36
0.0
 17
0.0
 27
1.0
 37
0.0
 76
     0
330
1B
  0
LAYOUT
  5
26
102
{ACAD_REACTORS
330
1A
102
}
330
1A
100
AcDbPlotSettings
  1

  2
none_device
  4

  6

 40
0.0
 41
0.0
 42
0.0
 43
0.0
 44
0.0
 45
0.0
 46
0.0
 47
0.0
 48
0.0
 49
0.0
140
0.0
141
0.0
142
1.0
143
1.0
 70
   688
 72
     1
 73
     0
 74
     5
  7

 75
    16
147
1.0
148
0.0
149
0.0
100
AcDbLayout
  1
Layout2
 70
     1
 71
     2
 10
0.0
 20
0.0
 11
0.0
 21
0.0
 12
0.0
 22
0.0
 32
0.0
 14
0.0
 24
0.0
 34
0.0
 15
0.0
 25
0.0
 35
0.0
146
0.0
 13
0.0
 23
0.0
 33
0.0
 16
1.0
 26
0.0
 36
0.0
 17
0.0
 27
1.0
 37
0.0
 76
     0
330
23
  0
LAYOUT
  5
22
102
{ACAD_REACTORS
330
1A
102
}
330
1A
100
AcDbPlotSettings
  1

  2
none_device
  4
ANSI_A_(11.00_x_8.50_Inches)
  6

 40
6.35
 41
19.05
 42
6.35000508
 43
19.05000254
 44
279.4
 45
215.9
 46
133.34999746
 47
88.89999873
 48
0.0
 49
0.0
140
0.0
141
0.0
142
0.1209772639
143
1.0
 70
  1696
 72
     0
 73
     0
 74
     0
  7

 75
     0
147
0.0179189148
148
-1300.4909072572
149
0.0
100
AcDbLayout
  1
Model
 70
     1
 71
     0
 10
0.0
 20
0.0
 11
420.0
 21
297.0
 12
0.0
 22
0.0
 32
0.0
 14
-35.5000023261
 24
-34.7792623527
 34
0.0
 15
35.5000023261
 25
34.7792623527
 35
0.0
146
0.0
 13
0.0
 23
0.0
 33
0.0
 16
1.0
 26
0.0
 36
0.0
 17
0.0
 27
1.0
 37
0.0
 76
     0
330
1F
331
29
  0
MLINESTYLE
  5
18
102
{ACAD_REACTORS
330
17
102
}
330
17
100
AcDbMlineStyle
  2
Standard
 70
     0
  3

 62
   256
 51
90.0
 52
90.0
 71
     2
 49
0.5
 62
   256
  6
BYLAYER
 49
-0.5
 62
   256
  6
BYLAYER
  0
ACDBPLACEHOLDER
  5
F
102
{ACAD_REACTORS
330
E
102
}
330
E
  0
SCALE
  5
48
102
{ACAD_REACTORS
330
47
102
}
330
47
100
AcDbScale
 70
     0
300
1:1
140
1.0
141
1.0
290
     1
  0
SCALE
  5
49
102
{ACAD_REACTORS
330
47
102
}
330
47
100
AcDbScale
 70
     0
300
1:2
140
1.0
141
2.0
290
     0
  0
SCALE
  5
4A
102
{ACAD_REACTORS
330
47
102
}
330
47
100
AcDbScale
 70
     0
300
1:4
140
1.0
141
4.0
290
     0
  0
SCALE
  5
4B
102
{ACAD_REACTORS
330
47
102
}
330
47
100
AcDbScale
 70
     0
300
1:5
140
1.0
141
5.0
290
     0
  0
SCALE
  5
4C
102
{ACAD_REACTORS
330
47
102
}
330
47
100
AcDbScale
 70
     0
300
1:8
140
1.0
141
8.0
290
     0
  0
SCALE
  5
4D
102
{ACAD_REACTORS
330
47
102
}
330
47
100
AcDbScale
 70
     0
300
1:10
140
1.0
141
10.0
290
     0
  0
SCALE
  5
4E
102
{ACAD_REACTORS
330
47
102
}
330
47
100
AcDbScale
 70
     0
300
1:16
140
1.0
141
16.0
290
     0
  0
SCALE
  5
4F
102
{ACAD_REACTORS
330
47
102
}
330
47
100
AcDbScale
 70
     0
300
1:20
140
1.0
141
20.0
290
     0
  0
SCALE
  5
50
102
{ACAD_REACTORS
330
47
102
}
330
47
100
AcDbScale
 70
     0
300
1:30
140
1.0
141
30.0
290
     0
  0
SCALE
  5
51
102
{ACAD_REACTORS
330
47
102
}
330
47
100
AcDbScale
 70
     0
300
1:40
140
1.0
141
40.0
290
     0
  0
SCALE
  5
52
102
{ACAD_REACTORS
330
47
102
}
330
47
100
AcDbScale
 70
     0
300
1:50
140
1.0
141
50.0
290
     0
  0
SCALE
  5
53
102
{ACAD_REACTORS
330
47
102
}
330
47
100
AcDbScale
 70
     0
300
1:100
140
1.0
141
100.0
290
     0
  0
SCALE
  5
54
102
{ACAD_REACTORS
330
47
102
}
330
47
100
AcDbScale
 70
     0
300
2:1
140
2.0
141
1.0
290
     0
  0
SCALE
  5
55
102
{ACAD_REACTORS
330
47
102
}
330
47
100
AcDbScale
 70
     0
300
4:1
140
4.0
141
1.0
290
     0
  0
SCALE
  5
56
102
{ACAD_REACTORS
330
47
102
}
330
47
100
AcDbScale
 70
     0
300
8:1
140
8.0
141
1.0
290
     0
  0
SCALE
  5
57
102
{ACAD_REACTORS
330
47
102
}
330
47
100
AcDbScale
 70
     0
300
10:1
140
10.0
141
1.0
290
     0
  0
SCALE
  5
58
102
{ACAD_REACTORS
330
47
102
}
330
47
100
AcDbScale
 70
     0
300
100:1
140
100.0
141
1.0
290
     0
  0
ENDSEC
  0
EOF
