  0
SECTION
  2
HEADER
  9
$ACADVER
  1
AC1015
  9
$ACADMAINTVER
 70
     6
  9
$DWGCODEPAGE
  3
ANSI_1252
  9
$INSBASE
 10
0.0
 20
0.0
 30
0.0
  9
$EXTMIN
 10
-35.5000023261
 20
-34.7792623527
 30
0.0
  9
$EXTMAX
 10
35.5000023261
 20
34.7792623527
 30
0.0
  9
$LIMMIN
 10
0.0
 20
0.0
  9
$LIMMAX
 10
420.0
 20
297.0
  9
$ORTHOMODE
 70
     0
  9
$REGENMODE
 70
     1
  9
$FILLMODE
 70
     1
  9
$QTEXTMODE
 70
     0
  9
$MIRRTEXT
 70
     1
  9
$LTSCALE
 40
1.0
  9
$ATTMODE
 70
     1
  9
$TEXTSIZE
 40
3.175
  9
$TRACEWID
 40
1.0
  9
$TEXTSTYLE
  7
Standard
  9
$CLAYER
  8
0
  9
$CELTYPE
  6
ByLayer
  9
$CECOLOR
 62
   256
  9
$CELTSCALE
 40
1.0
  9
$DISPSILH
 70
     0
  9
$DIMSCALE
 40
1.0
  9
$DIMASZ
 40
3.302
  9
$DIMEXO
 40
0.0
  9
$DIMDLI
 40
3.75
  9
$DIMRND
 40
0.0
  9
$DIMDLE
 40
0.0
  9
$DIMEXE
 40
3.175
  9
$DIMTP
 40
0.0
  9
$DIMTM
 40
0.0
  9
$DIMTXT
 40
3.175
  9
$DIMCEN
 40
2.5
  9
$DIMTSZ
 40
0.0
  9
$DIMTOL
 70
     0
  9
$DIMLIM
 70
     0
  9
$DIMTIH
 70
     1
  9
$DIMTOH
 70
     1
  9
$DIMSE1
 70
     0
  9
$DIMSE2
 70
     0
  9
$DIMTAD
 70
     0
  9
$DIMZIN
 70
     1
  9
$DIMBLK
  1

  9
$DIMASO
 70
     1
  9
$DIMSHO
 70
     1
  9
$DIMPOST
  1

  9
$DIMAPOST
  1

  9
$DIMALT
 70
     0
  9
$DIMALTD
 70
     3
  9
$DIMALTF
 40
0.0393700787
  9
$DIMLFAC
 40
1.0
  9
$DIMTOFL
 70
     1
  9
$DIMTVP
 40
0.0
  9
$DIMTIX
 70
     0
  9
$DIMSOXD
 70
     0
  9
$DIMSAH
 70
     0
  9
$DIMBLK1
  1

  9
$DIMBLK2
  1

  9
$DIMSTYLE
  2
ISO-25
  9
$DIMCLRD
 70
     0
  9
$DIMCLRE
 70
     0
  9
$DIMCLRT
 70
     0
  9
$DIMTFAC
 40
1.0
  9
$DIMGAP
 40
1.524
  9
$DIMJUST
 70
     0
  9
$DIMSD1
 70
     0
  9
$DIMSD2
 70
     0
  9
$DIMTOLJ
 70
     0
  9
$DIMTZIN
 70
     1
  9
$DIMALTZ
 70
     0
  9
$DIMALTTZ
 70
     0
  9
$DIMUPT
 70
     0
  9
$DIMDEC
 70
     2
  9
$DIMTDEC
 70
     2
  9
$DIMALTU
 70
     2
  9
$DIMALTTD
 70
     3
  9
$DIMTXSTY
  7
Standard
  9
$DIMAUNIT
 70
     0
  9
$DIMADEC
 70
     2
  9
$DIMALTRND
 40
0.0
  9
$DIMAZIN
 70
     0
  9
$DIMDSEP
 70
    44
  9
$DIMATFIT
 70
     3
  9
$DIMFRAC
 70
     0
  9
$DIMLDRBLK
  1

  9
$DIMLUNIT
 70
     2
  9
$DIMLWD
 70
    -2
  9
$DIMLWE
 70
    -2
  9
$DIMTMOVE
 70
     0
  9
$LUNITS
 70
     2
  9
$LUPREC
 70
     6
  9
$SKETCHINC
 40
1.0
  9
$FILLETRAD
 40
0.0
  9
$AUNITS
 70
     0
  9
$AUPREC
 70
     2
  9
$MENU
  1
.
  9
$ELEVATION
 40
0.0
  9
$PELEVATION
 40
0.0
  9
$THICKNESS
 40
0.0
  9
$LIMCHECK
 70
     0
  9
$CHAMFERA
 40
0.0
  9
$CHAMFERB
 40
0.0
  9
$CHAMFERC
 40
0.0
  9
$CHAMFERD
 40
0.0
  9
$SKPOLY
 70
     0
  9
$TDCREATE
 40
2460384.622163554
  9
$TDUCREATE
 40
2460384.78883022
  9
$TDUPDATE
 40
2460384.622408958
  9
$TDUUPDATE
 40
2460384.789075625
  9
$TDINDWG
 40
0.0000000116
  9
$TDUSRTIMER
 40
0.0000000116
  9
$USRTIMER
 70
     1
  9
$ANGBASE
 50
0.0
  9
$ANGDIR
 70
     0
  9
$PDMODE
 70
     0
  9
$PDSIZE
 40
-1.0
  9
$PLINEWID
 40
0.0
  9
$SPLFRAME
 70
     0
  9
$SPLINETYPE
 70
     6
  9
$SPLINESEGS
 70
     8
  9
$HANDSEED
  5
96
  9
$SURFTAB1
 70
     6
  9
$SURFTAB2
 70
     6
  9
$SURFTYPE
 70
     6
  9
$SURFU
 70
     6
  9
$SURFV
 70
     6
  9
$UCSBASE
  2

  9
$UCSNAME
  2

  9
$UCSORG
 10
0.0
 20
0.0
 30
0.0
  9
$UCSXDIR
 10
1.0
 20
0.0
 30
0.0
  9
$UCSYDIR
 10
0.0
 20
1.0
 30
0.0
  9
$UCSORTHOREF
  2

  9
$UCSORTHOVIEW
 70
     0
  9
$UCSORGTOP
 10
0.0
 20
0.0
 30
0.0
  9
$UCSORGBOTTOM
 10
0.0
 20
0.0
 30
0.0
  9
$UCSORGLEFT
 10
0.0
 20
0.0
 30
0.0
  9
$UCSORGRIGHT
 10
0.0
 20
0.0
 30
0.0
  9
$UCSORGFRONT
 10
0.0
 20
0.0
 30
0.0
  9
$UCSORGBACK
 10
0.0
 20
0.0
 30
0.0
  9
$PUCSBASE
  2

  9
$PUCSNAME
  2

  9
$PUCSORG
 10
0.0
 20
0.0
 30
0.0
  9
$PUCSXDIR
 10
1.0
 20
0.0
 30
0.0
  9
$PUCSYDIR
 10
0.0
 20
1.0
 30
0.0
  9
$PUCSORTHOREF
  2

  9
$PUCSORTHOVIEW
 70
     0
  9
$PUCSORGTOP
 10
0.0
 20
0.0
 30
0.0
  9
$PUCSORGBOTTOM
 10
0.0
 20
0.0
 30
0.0
  9
$PUCSORGLEFT
 10
0.0
 20
0.0
 30
0.0
  9
$PUCSORGRIGHT
 10
0.0
 20
0.0
 30
0.0
  9
$PUCSORGFRONT
 10
0.0
 20
0.0
 30
0.0
  9
$PUCSORGBACK
 10
0.0
 20
0.0
 30
0.0
  9
$USERI1
 70
     0
  9
$USERI2
 70
     0
  9
$USERI3
 70
     0
  9
$USERI4
 70
     0
  9
$USERI5
 70
     0
  9
$USERR1
 40
0.0
  9
$USERR2
 40
0.0
  9
$USERR3
 40
0.0
  9
$USERR4
 40
0.0
  9
$USERR5
 40
0.0
  9
$WORLDVIEW
 70
     1
  9
$SHADEDGE
 70
     3
  9
$SHADEDIF
 70
    70
  9
$TILEMODE
 70
     1
  9
$MAXACTVP
 70
    64
  9
$PINSBASE
 10
0.0
 20
0.0
 30
0.0
  9
$PLIMCHECK
 70
     0
  9
$PEXTMIN
 10
1.0000000000E+20
 20
1.0000000000E+20
 30
1.0000000000E+20
  9
$PEXTMAX
 10
-1.0000000000E+20
 20
-1.0000000000E+20
 30
-1.0000000000E+20
  9
$PLIMMIN
 10
0.0
 20
0.0
  9
$PLIMMAX
 10
420.0
 20
297.0
  9
$UNITMODE
 70
     0
  9
$VISRETAIN
 70
     1
  9
$PLINEGEN
 70
     0
  9
$PSLTSCALE
 70
     1
  9
$TREEDEPTH
 70
  3020
  9
$CMLSTYLE
  2
Standard
  9
$CMLJUST
 70
     0
  9
$CMLSCALE
 40
20.0
  9
$PROXYGRAPHICS
 70
     1
  9
$MEASUREMENT
 70
     1
  9
$CELWEIGHT
370
    -1
  9
$ENDCAPS
280
     0
  9
$JOINSTYLE
280
     0
  9
$LWDISPLAY
290
     1
  9
$INSUNITS
 70
     4
  9
$HYPERLINKBASE
  1

  9
$STYLESHEET
  1

  9
$XEDIT
290
     1
  9
$CEPSNTYPE
380
     0
  9
$PSTYLEMODE
290
     1
  9
$FINGERPRINTGUID
  2
{e08f3d04-5092-4e7e-866e-26e7fb9192be}
  9
$VERSIONGUID
  2
{FAEB1C32-E019-11D5-929B-00C0DF256EC4}
  9
$EXTNAMES
290
     1
  9
$PSVPSCALE
 40
0.0
  9
$OLESTARTUP
290
     0
  0
ENDSEC
  0
SECTION
  2
CLASSES
  0
CLASS
  1
ACDBDICTIONARYWDFLT
  2
AcDbDictionaryWithDefault
  3
ObjectDBX Classes
 90
        0
280
     0
281
     0
  0
CLASS
  1
VISUALSTYLE
  2
AcDbVisualStyle
  3
ObjectDBX Classes
 90
     4095
280
     0
281
     0
  0
CLASS
  1
MATERIAL
  2
AcDbMaterial
  3
ObjectDBX Classes
 90
     1153
280
     0
281
     0
  0
CLASS
  1
SCALE
  2
AcDbScale
  3
ObjectDBX Classes
 90
     1153
280
     0
281
     0
  0
CLASS
  1
TABLESTYLE
  2
AcDbTableStyle
  3
ObjectDBX Classes
 90
     4095
280
     0
281
     0
  0
CLASS
  1
MLEADERSTYLE
  2
AcDbMLeaderStyle
  3
ACDB_MLEADERSTYLE_CLASS
 90
     4095
280
     0
281
     0
  0
CLASS
  1
SUN
  2
AcDbSun
  3
SCENEOE
 90
     1153
280
     0
281
     0
  0
CLASS
  1
ACDBPLACEHOLDER
  2
AcDbPlaceHolder
  3
ObjectDBX Classes
 90
        0
280
     0
281
     0
  0
CLASS
  1
LAYOUT
  2
AcDbLayout
  3
ObjectDBX Classes
 90
        0
280
     0
281
     0
  0
ENDSEC
  0
SECTION
  2
TABLES
  0
TABLE
  2
VPORT
  5
8
330
0
100
AcDbSymbolTable
 70
     1
  0
VPORT
  5
29
330
8
100
AcDbSymbolTableRecord
100
AcDbViewportTableRecord
  2
*Active
 70
     0
 10
0.0
 20
0.0
 11
1.0
 21
1.0
 12
0.0
 22
0.0
 13
0.0
 23
0.0
 14
10.0
 24
10.0
 15
10.0
 25
10.0
 16
0.0
 26
0.0
 36
1.0
 17
0.0
 27
0.0
 37
0.0
 40
70.9496951995
 41
1.020723268
 42
50.0
 43
0.0
 44
0.0
 50
0.0
 51
0.0
 71
     0
 72
   100
 73
     1
 74
     3
 75
     0
 76
     0
 77
     0
 78
     0
281
     0
 65
     1
110
0.0
120
0.0
130
0.0
111
1.0
121
0.0
131
0.0
112
0.0
122
1.0
132
0.0
 79
     0
146
0.0
  0
ENDTAB
  0
TABLE
  2
LTYPE
  5
5
330
0
100
AcDbSymbolTable
 70
     6
  0
LTYPE
  5
14
330
5
100
AcDbSymbolTableRecord
100
AcDbLinetypeTableRecord
  2
ByBlock
 70
     0
  3

 72
    65
 73
     0
 40
0.0
  0
LTYPE
  5
15
330
5
100
AcDbSymbolTableRecord
100
AcDbLinetypeTableRecord
  2
ByLayer
 70
     0
  3

 72
    65
 73
     0
 40
0.0
  0
LTYPE
  5
16
330
5
100
AcDbSymbolTableRecord
100
AcDbLinetypeTableRecord
  2
Continuous
 70
     0
  3
Solid line
 72
    65
 73
     0
 40
0.0
  0
LTYPE
  5
5E
330
5
100
AcDbSymbolTableRecord
100
AcDbLinetypeTableRecord
  2
HIDDEN
 70
     0
  3
Hidden __ __ __ __ __ __ __ __ __ __ __ __ __ __
 72
    65
 73
     2
 40
1.905
 49
1.27
 74
     0
 49
-0.635
 74
     0
  0
LTYPE
  5
5F
330
5
100
AcDbSymbolTableRecord
100
AcDbLinetypeTableRecord
  2
PHANTOM
 70
     0
  3
Phantom ______  __  __  ______  __  __  ______
 72
    65
 73
     6
 40
12.7
 49
6.35
 74
     0
 49
-1.27
 74
     0
 49
1.27
 74
     0
 49
-1.27
 74
     0
 49
1.27
 74
     0
 49
-1.27
 74
     0
  0
LTYPE
  5
60
330
5
100
AcDbSymbolTableRecord
100
AcDbLinetypeTableRecord
  2
CENTER
 70
     0
  3
Center ____ _ ____ _ ____ _ ____ _ ____ _ ____
 72
    65
 73
     4
 40
10.16
 49
6.35
 74
     0
 49
-1.27
 74
     0
 49
1.27
 74
     0
 49
-1.27
 74
     0
  0
LTYPE
  5
61
330
5
100
AcDbSymbolTableRecord
100
AcDbLinetypeTableRecord
  2
CENTERX2
 70
     0
  3
Center (2x) ________  __  ________  __  _____
 72
    65
 73
     4
 40
20.32
 49
12.7
 74
     0
 49
-2.54
 74
     0
 49
2.54
 74
     0
 49
-2.54
 74
     0
  0
LTYPE
  5
62
330
5
100
AcDbSymbolTableRecord
100
AcDbLinetypeTableRecord
  2
DOT2
 70
     0
  3
Dot (.5x) ........................................
 72
    65
 73
     2
 40
0.635
 49
0.0
 74
     0
 49
-0.635
 74
     0
  0
ENDTAB
  0
TABLE
  2
LAYER
  5
2
330
0
100
AcDbSymbolTable
 70
     1
  0
LAYER
  5
10
330
2
100
AcDbSymbolTableRecord
100
AcDbLayerTableRecord
  2
0
 70
     0
 62
     7
  6
Continuous
370
    -3
390
F
  0
ENDTAB
  0
TABLE
  2
STYLE
  5
3
330
0
100
AcDbSymbolTable
 70
     2
  0
STYLE
  5
11
330
3
100
AcDbSymbolTableRecord
100
AcDbTextStyleTableRecord
  2
Standard
 70
     0
 40
0.0
 41
1.0
 50
0.0
 71
     0
 42
3.175
  3
txt
  4

  0
STYLE
  5
92
330
3
100
AcDbSymbolTableRecord
100
AcDbTextStyleTableRecord
  2
SLDTEXTSTYLE0
 70
     0
 40
0.0
 41
0.7
 50
0.0
 71
     0
 42
3.175
  3
TXT
  4

  0
ENDTAB
  0
TABLE
  2
VIEW
  5
6
330
0
100
AcDbSymbolTable
 70
     0
  0
ENDTAB
  0
TABLE
  2
UCS
  5
7
330
0
100
AcDbSymbolTable
 70
     0
  0
ENDTAB
  0
TABLE
  2
APPID
  5
9
330
0
100
AcDbSymbolTable
 70
     1
  0
APPID
  5
12
330
9
100
AcDbSymbolTableRecord
100
AcDbRegAppTableRecord
  2
ACAD
 70
     0
  0
ENDTAB
  0
TABLE
  2
DIMSTYLE
  5
A
330
0
100
AcDbSymbolTable
 70
     1
100
AcDbDimStyleTable
  0
DIMSTYLE
105
27
330
A
100
AcDbSymbolTableRecord
100
AcDbDimStyleTableRecord
  2
ISO-25
 70
     0
 41
2.5
 42
0.625
 43
3.75
 44
1.25
 73
     0
 74
     0
 77
     1
 78
     8
140
2.5
141
2.5
143
0.0393700787
147
0.625
171
     3
172
     1
178
     0
271
     2
272
     2
274
     3
278
    44
283
     0
284
     8
340
11
  0
ENDTAB
  0
TABLE
  2
BLOCK_RECORD
  5
1
330
0
100
AcDbSymbolTable
 70
     1
  0
BLOCK_RECORD
  5
1F
330
1
100
AcDbSymbolTableRecord
100
AcDbBlockTableRecord
  2
*Model_Space
340
22
  0
BLOCK_RECORD
  5
1B
330
1
100
AcDbSymbolTableRecord
100
AcDbBlockTableRecord
  2
*Paper_Space
340
1E
  0
BLOCK_RECORD
  5
23
330
1
100
AcDbSymbolTableRecord
100
AcDbBlockTableRecord
  2
*Paper_Space0
340
26
  0
ENDTAB
  0
ENDSEC
  0
SECTION
  2
BLOCKS
  0
BLOCK
  5
20
330
1F
100
AcDbEntity
  8
0
100
AcDbBlockBegin
  2
*Model_Space
 70
     0
 10
0.0
 20
0.0
 30
0.0
  3
*Model_Space
  1

  0
ENDBLK
  5
21
330
1F
100
AcDbEntity
  8
0
100
AcDbBlockEnd
  0
BLOCK
  5
1C
330
1B
100
AcDbEntity
 67
     1
  8
0
100
AcDbBlockBegin
  2
*Paper_Space
 70
     0
 10
0.0
 20
0.0
 30
0.0
  3
*Paper_Space
  1

  0
ENDBLK
  5
1D
330
1B
100
AcDbEntity
 67
     1
  8
0
100
AcDbBlockEnd
  0
BLOCK
  5
24
330
23
100
AcDbEntity
  8
0
100
AcDbBlockBegin
  2
*Paper_Space0
 70
     0
 10
0.0
 20
0.0
 30
0.0
  3
*Paper_Space0
  1

  0
ENDBLK
  5
25
330
23
100
AcDbEntity
  8
0
100
AcDbBlockEnd
  0
ENDSEC
  0
SECTION
  2
ENTITIES
  0
CIRCLE
  5
63
330
1F
100
AcDbEntity
  8
0
  6
Continuous
 62
     7
370
    25
100
AcDbCircle
 10
0.0
 20
22.5
 30
0.0
 40
6.0
  0
CIRCLE
  5
64
330
1F
100
AcDbEntity
  8
0
  6
Continuous
 62
     7
370
    25
100
AcDbCircle
 10
0.0
 20
-22.5
 30
0.0
 40
6.000000000000004
  0
CIRCLE
  5
65
330
1F
100
AcDbEntity
  8
0
  6
Continuous
 62
     7
370
    25
100
AcDbCircle
 10
-22.5
 20
0.0
 30
0.0
 40
6.000000000000005
  0
CIRCLE
  5
66
330
1F
100
AcDbEntity
  8
0
  6
Continuous
 62
     7
370
    25
100
AcDbCircle
 10
22.5
 20
0.0
 30
0.0
 40
6.000000000000003
  0
CIRCLE
  5
67
330
1F
100
AcDbEntity
  8
0
  6
Continuous
 62
     7
370
    25
100
AcDbCircle
 10
0.0
 20
0.0
 30
0.0
 40
10.671875
  0
SPLINE
  5
68
330
1F
100
AcDbEntity
  8
0
  6
Continuous
 62
     7
370
    25
100
AcDbSpline
210
0.0
220
0.0
230
1.0
 70
     8
 71
     3
 72
    17
 73
    13
 74
     0
 42
0.00000001
 43
0.00000001
 40
0.0230106502467866
 40
0.0230106502467866
 40
0.0230106502467866
 40
0.0230106502467866
 40
0.26725798768509
 40
0.3893816564042416
 40
0.5115053251233933
 40
0.633628993842545
 40
0.7557526625616966
 40
0.8168144969212725
 40
0.8778763312808483
 40
0.9389381656404241
 40
0.969469082820212
 40
1.0
 40
1.0
 40
1.0
 40
1.0
 10
35.50000232613555
 20
-0.003735881134222
 30
0.0
 10
35.50061523957162
 20
-0.4959193357015094
 30
0.0
 10
35.41826386336233
 20
-1.233614789602354
 30
0.0
 10
35.14956687896228
 20
-2.192738575271867
 30
0.0
 10
34.87071186794255
 20
-2.889611747880317
 30
0.0
 10
34.49974897073149
 20
-3.601492099668294
 30
0.0
 10
34.13937205125529
 20
-4.165162167239136
 30
0.0
 10
33.69388727086955
 20
-4.839357340230455
 30
0.0
 10
33.3068142099932
 20
-5.487322542012207
 30
0.0
 10
32.97508887824764
 20
-6.197475634959242
 30
0.0
 10
32.75796561827414
 20
-6.873262554553329
 30
0.0
 10
32.67479371169512
 20
-7.260710929490166
 30
0.0
 10
32.64481089881378
 20
-7.450965060354774
 30
0.0
  0
LINE
  5
69
330
1F
100
AcDbEntity
  8
0
  6
Continuous
 62
     7
370
    25
100
AcDbLine
 10
35.5000023261
 20
-0.0037358811
 30
0.0
 11
35.5000023261
 21
0.0037358811
 31
0.0
  0
SPLINE
  5
6A
330
1F
100
AcDbEntity
  8
0
  6
Continuous
 62
     7
370
    25
100
AcDbSpline
210
0.0
220
0.0
230
1.0
 70
     8
 71
     3
 72
    17
 73
    13
 74
     0
 42
0.00000001
 43
0.00000001
 40
0.0230106502467868
 40
0.0230106502467868
 40
0.0230106502467868
 40
0.0230106502467868
 40
0.0535415674265747
 40
0.0840724846063626
 40
0.1451343189659384
 40
0.2061961533255142
 40
0.2672579876850901
 40
0.3893816564042417
 40
0.5115053251233934
 40
0.633628993842545
 40
0.7557526625616967
 40
1.0
 40
1.0
 40
1.0
 40
1.0
 10
32.64481089881542
 20
7.450965060354607
 30
0.0
 10
32.67479371169676
 20
7.260710929490017
 30
0.0
 10
32.75796561827578
 20
6.873262554553218
 30
0.0
 10
32.9750888782493
 20
6.197475634959157
 30
0.0
 10
33.3068142099949
 20
5.487322542012104
 30
0.0
 10
33.69388727087128
 20
4.839357340230342
 30
0.0
 10
34.13937205125706
 20
4.165162167239036
 30
0.0
 10
34.49974897073329
 20
3.601492099668215
 30
0.0
 10
34.87071186794433
 20
2.889611747880305
 30
0.0
 10
35.14956687896409
 20
2.192738575271846
 30
0.0
 10
35.41826386336422
 20
1.233614789602282
 30
0.0
 10
35.50061523957352
 20
0.4959193357014601
 30
0.0
 10
35.50000232613747
 20
0.0037358811341716
 30
0.0
  0
SPLINE
  5
6B
330
1F
100
AcDbEntity
  8
0
  6
Continuous
 62
     7
370
    25
100
AcDbSpline
210
0.0
220
0.0
230
1.0
 70
     8
 71
     3
 72
    17
 73
    13
 74
     0
 42
0.00000001
 43
0.00000001
 40
0.0230106502467902
 40
0.0230106502467902
 40
0.0230106502467902
 40
0.0230106502467902
 40
0.2672579876850927
 40
0.3893816564042438
 40
0.5115053251233951
 40
0.6336289938425463
 40
0.7557526625616975
 40
0.8168144969212732
 40
0.8778763312808487
 40
0.9389381656404243
 40
0.9694690828202122
 40
1.0
 40
1.0
 40
1.0
 40
1.0
 10
31.9860178443889
 20
15.39950783534944
 30
0.0
 10
32.20012045791296
 20
14.95633179866107
 30
0.0
 10
32.44599849358793
 20
14.2559602376722
 30
0.0
 10
32.62005909014706
 20
13.27523631403804
 30
0.0
 10
32.67118134438178
 20
12.52638462578851
 30
0.0
 10
32.6458286316858
 20
11.72404782224044
 30
0.0
 10
32.5657075230734
 20
11.05983695427656
 30
0.0
 10
32.45686192737396
 20
10.25911949028758
 30
0.0
 10
32.38926271448782
 20
9.50737830903343
 30
0.0
 10
32.39851239720417
 20
8.723622253545772
 30
0.0
 10
32.49610405499075
 20
8.020553025769152
 30
0.0
 10
32.58927630611156
 20
7.635387164215658
 30
0.0
 10
32.64481089881541
 20
7.450965060354608
 30
0.0
  0
LINE
  5
6C
330
1F
100
AcDbEntity
  8
0
  6
Continuous
 62
     7
370
    25
100
AcDbLine
 10
31.9860178444
 20
15.3995078353
 30
0.0
 11
31.9827759682
 21
15.4062396605
 31
0.0
  0
SPLINE
  5
6D
330
1F
100
AcDbEntity
  8
0
  6
Continuous
 62
     7
370
    25
100
AcDbSpline
210
0.0
220
0.0
230
1.0
 70
     8
 71
     3
 72
    17
 73
    13
 74
     0
 42
0.00000001
 43
0.00000001
 40
0.0230106502467868
 40
0.0230106502467868
 40
0.0230106502467868
 40
0.0230106502467868
 40
0.0535415674265747
 40
0.0840724846063626
 40
0.1451343189659384
 40
0.2061961533255142
 40
0.2672579876850901
 40
0.3893816564042417
 40
0.5115053251233934
 40
0.633628993842545
 40
0.7557526625616967
 40
1.0
 40
1.0
 40
1.0
 40
1.0
 10
26.17910573797534
 20
20.87714017077183
 30
0.0
 10
26.28866749263566
 20
20.71873617683522
 30
0.0
 10
26.53171034078006
 20
20.40574419091382
 30
0.0
 10
27.02054459403389
 20
19.8910874669106
 30
0.0
 10
27.62754266994505
 20
19.39519186601849
 30
0.0
 10
28.25742501196549
 20
18.97934009869373
 30
0.0
 10
28.95131525276991
 20
18.56519983917223
 30
0.0
 10
29.52057091447485
 20
18.21371234183648
 30
0.0
 10
30.16367024484694
 20
17.73328507611997
 30
0.0
 10
30.7172718662564
 20
17.22641469757628
 30
0.0
 10
31.37550769850308
 20
16.47885727850444
 30
0.0
 10
31.76977778656509
 20
15.84994756357782
 30
0.0
 10
31.98277596823996
 20
15.40623966054264
 30
0.0
  0
SPLINE
  5
6E
330
1F
100
AcDbEntity
  8
0
  6
Continuous
 62
     7
370
    25
100
AcDbSpline
210
0.0
220
0.0
230
1.0
 70
     8
 71
     3
 72
    17
 73
    13
 74
     0
 42
0.00000001
 43
0.00000001
 40
0.0230106502467902
 40
0.0230106502467902
 40
0.0230106502467902
 40
0.0230106502467902
 40
0.2672579876850927
 40
0.3893816564042438
 40
0.5115053251233951
 40
0.6336289938425463
 40
0.7557526625616975
 40
0.8168144969212732
 40
0.8778763312808487
 40
0.9389381656404243
 40
0.9694690828202122
 40
1.0
 40
1.0
 40
1.0
 40
1.0
 10
22.13681024579605
 20
27.75269016247359
 30
0.0
 10
22.5219969110034
 20
27.44629799292766
 30
0.0
 10
23.04740519810102
 20
26.921967501998
 30
0.0
 10
23.62974853975773
 20
26.11388784126462
 30
0.0
 10
24.00072266982241
 20
25.4613768982951
 30
0.0
 10
24.32600155732151
 20
24.72749628694463
 30
0.0
 10
24.54200522775461
 20
24.09429972699975
 30
0.0
 10
24.7913570218734
 20
23.32565188591136
 30
0.0
 10
25.05662051013944
 20
22.61902628563272
 30
0.0
 10
25.40501319421587
 20
21.91689976653096
 30
0.0
 10
25.79799054505479
 20
21.32579971371116
 30
0.0
 10
26.04905304685829
 20
21.01920318817094
 30
0.0
 10
26.17910573797527
 20
20.87714017077179
 30
0.0
  0
LINE
  5
6F
330
1F
100
AcDbEntity
  8
0
  6
Continuous
 62
     7
370
    25
100
AcDbLine
 10
22.1368102458
 20
27.7526901625
 30
0.0
 11
22.1309685868
 21
27.7573487301
 31
0.0
  0
SPLINE
  5
70
330
1F
100
AcDbEntity
  8
0
  6
Continuous
 62
     7
370
    25
100
AcDbSpline
210
0.0
220
0.0
230
1.0
 70
     8
 71
     3
 72
    17
 73
    13
 74
     0
 42
0.00000001
 43
0.00000001
 40
0.0230106502467868
 40
0.0230106502467868
 40
0.0230106502467868
 40
0.0230106502467868
 40
0.0535415674265747
 40
0.0840724846063626
 40
0.1451343189659384
 40
0.2061961533255142
 40
0.2672579876850901
 40
0.3893816564042417
 40
0.5115053251233934
 40
0.633628993842545
 40
0.7557526625616967
 40
1.0
 40
1.0
 40
1.0
 40
1.0
 10
14.52830762006735
 20
30.16834162904688
 30
0.0
 10
14.69574826730944
 20
30.07316162573489
 30
0.0
 10
15.05052444021928
 20
29.89661793023542
 30
0.0
 10
15.7142500677378
 20
29.64502547786238
 30
0.0
 10
16.47629747453744
 20
29.46160557454231
 30
0.0
 10
17.22423317486484
 20
29.36023178428046
 30
0.0
 10
18.02909540389123
 20
29.28817199572394
 30
0.0
 10
18.69448174256168
 20
29.21848347818188
 30
0.0
 10
19.48234379661895
 20
29.06466381056566
 30
0.0
 10
20.20104443781963
 20
28.84818812091456
 30
0.0
 10
21.11844743860369
 20
28.46025998347768
 30
0.0
 10
21.74654621217243
 20
28.06469928963797
 30
0.0
 10
22.1309685868262
 20
27.75734873005133
 30
0.0
  0
SPLINE
  5
71
330
1F
100
AcDbEntity
  8
0
  6
Continuous
 62
     7
370
    25
100
AcDbSpline
210
0.0
220
0.0
230
1.0
 70
     8
 71
     3
 72
    17
 73
    13
 74
     0
 42
0.00000001
 43
0.00000001
 40
0.0230106502467902
 40
0.0230106502467902
 40
0.0230106502467902
 40
0.0230106502467902
 40
0.2672579876850927
 40
0.3893816564042438
 40
0.5115053251233951
 40
0.6336289938425463
 40
0.7557526625616975
 40
0.8168144969212732
 40
0.8778763312808487
 40
0.9389381656404243
 40
0.9694690828202122
 40
1.0
 40
1.0
 40
1.0
 40
1.0
 10
7.90313588786226
 20
34.60911183851202
 30
0.0
 10
8.383115661704176
 20
34.50018826294044
 30
0.0
 10
9.083990645254966
 20
34.2557489262901
 30
0.0
 10
9.95927649122177
 20
33.78036361571237
 30
0.0
 10
10.57662652095796
 20
33.35343121279954
 30
0.0
 10
11.1881115356992
 20
32.83336084917967
 30
0.0
 10
11.65745780913733
 20
32.35659094159703
 30
0.0
 10
12.21561981215004
 20
31.77225285518394
 30
0.0
 10
12.76120731447403
 20
31.25069870221026
 30
0.0
 10
13.37973955607332
 20
30.76926648761915
 30
0.0
 10
13.99026861607999
 20
30.40721022458354
 30
0.0
 10
14.34949536100446
 20
30.23990823709945
 30
0.0
 10
14.52830762006726
 20
30.16834162904666
 30
0.0
  0
LINE
  5
72
330
1F
100
AcDbEntity
  8
0
  6
Continuous
 62
     7
370
    25
100
AcDbLine
 10
7.9031358879
 20
34.6091118385
 30
0.0
 11
7.8958514583
 21
34.610774462
 31
0.0
  0
SPLINE
  5
73
330
1F
100
AcDbEntity
  8
0
  6
Continuous
 62
     7
370
    25
100
AcDbSpline
210
0.0
220
0.0
230
1.0
 70
     8
 71
     3
 72
    17
 73
    13
 74
     0
 42
0.00000001
 43
0.00000001
 40
0.0230106502467868
 40
0.0230106502467868
 40
0.0230106502467868
 40
0.0230106502467868
 40
0.0535415674265747
 40
0.0840724846063626
 40
0.1451343189659384
 40
0.2061961533255142
 40
0.2672579876850901
 40
0.3893816564042417
 40
0.5115053251233934
 40
0.633628993842545
 40
0.7557526625616967
 40
1.0
 40
1.0
 40
1.0
 40
1.0
 10
0.0000000000053084
 20
33.48433303726062
 30
0.0
 10
0.1921558661180845
 20
33.47122859153533
 30
0.0
 10
0.5883975917043497
 20
33.46609983051781
 30
0.0
 10
1.295555592896918
 20
33.52740262054636
 30
0.0
 10
2.06171949577025
 20
33.69278697614838
 30
0.0
 10
2.779570716125359
 20
33.92596948537874
 30
0.0
 10
3.535992097927605
 20
34.21026249266616
 30
0.0
 10
4.165721188761962
 20
34.43617562049057
 30
0.0
 10
4.942300224204354
 20
34.63942942262047
 30
0.0
 10
5.683752408921557
 20
34.75622408709746
 30
0.0
 10
6.678619662728273
 20
34.80475915654133
 30
0.0
 10
7.416144456572508
 20
34.72089313043703
 30
0.0
 10
7.895851458274002
 20
34.61077446203231
 30
0.0
  0
SPLINE
  5
74
330
1F
100
AcDbEntity
  8
0
  6
Continuous
 62
     7
370
    25
100
AcDbSpline
210
0.0
220
0.0
230
1.0
 70
     8
 71
     3
 72
    17
 73
    13
 74
     0
 42
0.00000001
 43
0.00000001
 40
0.0230106502467902
 40
0.0230106502467902
 40
0.0230106502467902
 40
0.0230106502467902
 40
0.2672579876850927
 40
0.3893816564042438
 40
0.5115053251233951
 40
0.6336289938425463
 40
0.7557526625616975
 40
0.8168144969212732
 40
0.8778763312808487
 40
0.9389381656404243
 40
0.9694690828202122
 40
1.0
 40
1.0
 40
1.0
 40
1.0
 10
-7.895851458263238
 20
34.61077446203223
 30
0.0
 10
-7.416144456561775
 20
34.72089313043696
 30
0.0
 10
-6.678619662717623
 20
34.80475915654126
 30
0.0
 10
-5.683752408910884
 20
34.75622408709739
 30
0.0
 10
-4.942300224193672
 20
34.63942942262042
 30
0.0
 10
-4.165721188751341
 20
34.43617562049053
 30
0.0
 10
-3.535992097916887
 20
34.21026249266612
 30
0.0
 10
-2.779570716114653
 20
33.92596948537874
 30
0.0
 10
-2.061719495759587
 20
33.69278697614839
 30
0.0
 10
-1.295555592886296
 20
33.52740262054637
 30
0.0
 10
-0.5883975916937361
 20
33.46609983051783
 30
0.0
 10
-0.1921558661074623
 20
33.47122859153534
 30
0.0
 10
0.0000000000053172
 20
33.48433303726063
 30
0.0
  0
LINE
  5
75
330
1F
100
AcDbEntity
  8
0
  6
Continuous
 62
     7
370
    25
100
AcDbLine
 10
-7.8958514583
 20
34.610774462
 30
0.0
 11
-7.9031358879
 21
34.6091118385
 31
0.0
  0
SPLINE
  5
76
330
1F
100
AcDbEntity
  8
0
  6
Continuous
 62
     7
370
    25
100
AcDbSpline
210
0.0
220
0.0
230
1.0
 70
     8
 71
     3
 72
    17
 73
    13
 74
     0
 42
0.00000001
 43
0.00000001
 40
0.0230106502467868
 40
0.0230106502467868
 40
0.0230106502467868
 40
0.0230106502467868
 40
0.0535415674265747
 40
0.0840724846063626
 40
0.1451343189659384
 40
0.2061961533255142
 40
0.2672579876850901
 40
0.3893816564042417
 40
0.5115053251233934
 40
0.633628993842545
 40
0.7557526625616967
 40
1.0
 40
1.0
 40
1.0
 40
1.0
 10
-14.52830762005758
 20
30.16834162905053
 30
0.0
 10
-14.34949536099479
 20
30.23990823710331
 30
0.0
 10
-13.99026861607031
 20
30.40721022458738
 30
0.0
 10
-13.37973955606363
 20
30.769266487623
 30
0.0
 10
-12.76120731446429
 20
31.25069870221409
 30
0.0
 10
-12.21561981214026
 20
31.7722528551878
 30
0.0
 10
-11.65745780912755
 20
32.35659094160093
 30
0.0
 10
-11.18811153568949
 20
32.8333608491835
 30
0.0
 10
-10.57662652094819
 20
33.35343121280339
 30
0.0
 10
-9.959276491212007
 20
33.78036361571623
 30
0.0
 10
-9.083990645245214
 20
34.25574892629392
 30
0.0
 10
-8.383115661694342
 20
34.50018826294428
 30
0.0
 10
-7.903135887852396
 20
34.60911183851588
 30
0.0
  0
SPLINE
  5
77
330
1F
100
AcDbEntity
  8
0
  6
Continuous
 62
     7
370
    25
100
AcDbSpline
210
0.0
220
0.0
230
1.0
 70
     8
 71
     3
 72
    17
 73
    13
 74
     0
 42
0.00000001
 43
0.00000001
 40
0.0230106502467902
 40
0.0230106502467902
 40
0.0230106502467902
 40
0.0230106502467902
 40
0.2672579876850927
 40
0.3893816564042438
 40
0.5115053251233951
 40
0.6336289938425463
 40
0.7557526625616975
 40
0.8168144969212732
 40
0.8778763312808487
 40
0.9389381656404243
 40
0.9694690828202122
 40
1.0
 40
1.0
 40
1.0
 40
1.0
 10
-22.13096858681621
 20
27.75734873005493
 30
0.0
 10
-21.74654621216248
 20
28.06469928964155
 30
0.0
 10
-21.1184474385938
 20
28.46025998348123
 30
0.0
 10
-20.20104443780971
 20
28.8481881209181
 30
0.0
 10
-19.48234379660903
 20
29.06466381056923
 30
0.0
 10
-18.69448174255184
 20
29.21848347818543
 30
0.0
 10
-18.02909540388129
 20
29.28817199572752
 30
0.0
 10
-17.22423317485492
 20
29.36023178428404
 30
0.0
 10
-16.47629747452757
 20
29.46160557454589
 30
0.0
 10
-15.71425006772797
 20
29.64502547786593
 30
0.0
 10
-15.05052444020944
 20
29.89661793023898
 30
0.0
 10
-14.69574826729959
 20
30.07316162573844
 30
0.0
 10
-14.52830762005751
 20
30.16834162905042
 30
0.0
  0
LINE
  5
78
330
1F
100
AcDbEntity
  8
0
  6
Continuous
 62
     7
370
    25
100
AcDbLine
 10
-22.1309685868
 20
27.7573487301
 30
0.0
 11
-22.1368102458
 21
27.7526901625
 31
0.0
  0
SPLINE
  5
79
330
1F
100
AcDbEntity
  8
0
  6
Continuous
 62
     7
370
    25
100
AcDbSpline
210
0.0
220
0.0
230
1.0
 70
     8
 71
     3
 72
    17
 73
    13
 74
     0
 42
0.00000001
 43
0.00000001
 40
0.0230106502467868
 40
0.0230106502467868
 40
0.0230106502467868
 40
0.0230106502467868
 40
0.0535415674265747
 40
0.0840724846063626
 40
0.1451343189659384
 40
0.2061961533255142
 40
0.2672579876850901
 40
0.3893816564042417
 40
0.5115053251233934
 40
0.633628993842545
 40
0.7557526625616967
 40
1.0
 40
1.0
 40
1.0
 40
1.0
 10
-26.17910573796741
 20
20.87714017077795
 30
0.0
 10
-26.04905304685043
 20
21.01920318817711
 30
0.0
 10
-25.79799054504693
 20
21.32579971371731
 30
0.0
 10
-25.405013194208
 20
21.91689976653711
 30
0.0
 10
-25.05662051013154
 20
22.61902628563889
 30
0.0
 10
-24.79135702186547
 20
23.32565188591757
 30
0.0
 10
-24.54200522774669
 20
24.09429972700599
 30
0.0
 10
-24.32600155731362
 20
24.72749628695079
 30
0.0
 10
-24.00072266981448
 20
25.4613768983013
 30
0.0
 10
-23.62974853974982
 20
26.11388784127082
 30
0.0
 10
-23.04740519809312
 20
26.92196750200418
 30
0.0
 10
-22.52199691099543
 20
27.44629799293389
 30
0.0
 10
-22.13681024578805
 20
27.75269016247986
 30
0.0
  0
SPLINE
  5
7A
330
1F
100
AcDbEntity
  8
0
  6
Continuous
 62
     7
370
    25
100
AcDbSpline
210
0.0
220
0.0
230
1.0
 70
     8
 71
     3
 72
    17
 73
    13
 74
     0
 42
0.00000001
 43
0.00000001
 40
0.0230106502467902
 40
0.0230106502467902
 40
0.0230106502467902
 40
0.0230106502467902
 40
0.2672579876850927
 40
0.3893816564042438
 40
0.5115053251233951
 40
0.6336289938425463
 40
0.7557526625616975
 40
0.8168144969212732
 40
0.8778763312808487
 40
0.9389381656404243
 40
0.9694690828202122
 40
1.0
 40
1.0
 40
1.0
 40
1.0
 10
-31.98277596823231
 20
15.40623966054917
 30
0.0
 10
-31.76977778655747
 20
15.84994756358431
 30
0.0
 10
-31.37550769849552
 20
16.47885727851086
 30
0.0
 10
-30.71727186624882
 20
17.22641469758274
 30
0.0
 10
-30.16367024483938
 20
17.73328507612646
 30
0.0
 10
-29.52057091446733
 20
18.21371234184293
 30
0.0
 10
-28.95131525276232
 20
18.56519983917875
 30
0.0
 10
-28.25742501195794
 20
18.97934009870027
 30
0.0
 10
-27.62754266993753
 20
19.395191866025
 30
0.0
 10
-27.02054459402641
 20
19.89108746691707
 30
0.0
 10
-26.53171034077261
 20
20.40574419092031
 30
0.0
 10
-26.2886674926282
 20
20.71873617684171
 30
0.0
 10
-26.17910573796788
 20
20.87714017077832
 30
0.0
  0
LINE
  5
7B
330
1F
100
AcDbEntity
  8
0
  6
Continuous
 62
     7
370
    25
100
AcDbLine
 10
-31.9827759682
 20
15.4062396605
 30
0.0
 11
-31.9860178444
 21
15.3995078354
 31
0.0
  0
SPLINE
  5
7C
330
1F
100
AcDbEntity
  8
0
  6
Continuous
 62
     7
370
    25
100
AcDbSpline
210
0.0
220
0.0
230
1.0
 70
     8
 71
     3
 72
    17
 73
    13
 74
     0
 42
0.00000001
 43
0.00000001
 40
0.0230106502467868
 40
0.0230106502467868
 40
0.0230106502467868
 40
0.0230106502467868
 40
0.0535415674265747
 40
0.0840724846063626
 40
0.1451343189659384
 40
0.2061961533255142
 40
0.2672579876850901
 40
0.3893816564042417
 40
0.5115053251233934
 40
0.633628993842545
 40
0.7557526625616967
 40
1.0
 40
1.0
 40
1.0
 40
1.0
 10
-32.64481089881112
 20
7.450965060362686
 30
0.0
 10
-32.58927630610727
 20
7.635387164223735
 30
0.0
 10
-32.49610405498643
 20
8.020553025777218
 30
0.0
 10
-32.39851239719984
 20
8.723622253553845
 30
0.0
 10
-32.38926271448347
 20
9.507378309041545
 30
0.0
 10
-32.45686192736964
 20
10.25911949029574
 30
0.0
 10
-32.5657075230691
 20
11.05983695428474
 30
0.0
 10
-32.64582863168151
 20
11.72404782224852
 30
0.0
 10
-32.67118134437748
 20
12.52638462579666
 30
0.0
 10
-32.62005909014276
 20
13.27523631404619
 30
0.0
 10
-32.44599849358366
 20
14.25596023768032
 30
0.0
 10
-32.20012045790864
 20
14.95633179866927
 30
0.0
 10
-31.98601784438459
 20
15.39950783535767
 30
0.0
  0
SPLINE
  5
7D
330
1F
100
AcDbEntity
  8
0
  6
Continuous
 62
     7
370
    25
100
AcDbSpline
210
0.0
220
0.0
230
1.0
 70
     8
 71
     3
 72
    17
 73
    13
 74
     0
 42
0.00000001
 43
0.00000001
 40
0.0230106502467902
 40
0.0230106502467902
 40
0.0230106502467902
 40
0.0230106502467902
 40
0.2672579876850927
 40
0.3893816564042438
 40
0.5115053251233951
 40
0.6336289938425463
 40
0.7557526625616975
 40
0.8168144969212732
 40
0.8778763312808487
 40
0.9389381656404243
 40
0.9694690828202122
 40
1.0
 40
1.0
 40
1.0
 40
1.0
 10
-35.50000232613326
 20
0.0037358811424296
 30
0.0
 10
-35.50061523956931
 20
0.4959193357096855
 30
0.0
 10
-35.41826386336004
 20
1.233614789610426
 30
0.0
 10
-35.14956687895987
 20
2.192738575280008
 30
0.0
 10
-34.87071186794014
 20
2.88961174788848
 30
0.0
 10
-34.49974897072912
 20
3.601492099676327
 30
0.0
 10
-34.13937205125283
 20
4.165162167247238
 30
0.0
 10
-33.69388727086709
 20
4.839357340238536
 30
0.0
 10
-33.30681420999074
 20
5.487322542020258
 30
0.0
 10
-32.97508887824513
 20
6.197475634967265
 30
0.0
 10
-32.75796561827163
 20
6.873262554561316
 30
0.0
 10
-32.67479371169259
 20
7.260710929498122
 30
0.0
 10
-32.64481089881124
 20
7.450965060362715
 30
0.0
  0
LINE
  5
7E
330
1F
100
AcDbEntity
  8
0
  6
Continuous
 62
     7
370
    25
100
AcDbLine
 10
-35.5000023261
 20
0.0037358811
 30
0.0
 11
-35.5000023261
 21
-0.0037358811
 31
0.0
  0
SPLINE
  5
7F
330
1F
100
AcDbEntity
  8
0
  6
Continuous
 62
     7
370
    25
100
AcDbSpline
210
0.0
220
0.0
230
1.0
 70
     8
 71
     3
 72
    17
 73
    13
 74
     0
 42
0.00000001
 43
0.00000001
 40
0.0230106502467868
 40
0.0230106502467868
 40
0.0230106502467868
 40
0.0230106502467868
 40
0.0535415674265747
 40
0.0840724846063626
 40
0.1451343189659384
 40
0.2061961533255142
 40
0.2672579876850901
 40
0.3893816564042417
 40
0.5115053251233934
 40
0.633628993842545
 40
0.7557526625616967
 40
1.0
 40
1.0
 40
1.0
 40
1.0
 10
-32.64481089881311
 20
-7.450965060346453
 30
0.0
 10
-32.67479371169446
 20
-7.260710929481862
 30
0.0
 10
-32.75796561827348
 20
-6.873262554545065
 30
0.0
 10
-32.97508887824699
 20
-6.197475634951005
 30
0.0
 10
-33.3068142099926
 20
-5.487322542003954
 30
0.0
 10
-33.69388727086897
 20
-4.839357340222193
 30
0.0
 10
-34.13937205125474
 20
-4.165162167230887
 30
0.0
 10
-34.49974897073098
 20
-3.60149209966007
 30
0.0
 10
-34.87071186794203
 20
-2.88961174787216
 30
0.0
 10
-35.14956687896179
 20
-2.192738575263702
 30
0.0
 10
-35.41826386336193
 20
-1.233614789594139
 30
0.0
 10
-35.50061523957122
 20
-0.495919335693319
 30
0.0
 10
-35.50000232613518
 20
-0.0037358811260304
 30
0.0
  0
SPLINE
  5
80
330
1F
100
AcDbEntity
  8
0
  6
Continuous
 62
     7
370
    25
100
AcDbSpline
210
0.0
220
0.0
230
1.0
 70
     8
 71
     3
 72
    17
 73
    13
 74
     0
 42
0.00000001
 43
0.00000001
 40
0.0230106502467902
 40
0.0230106502467902
 40
0.0230106502467902
 40
0.0230106502467902
 40
0.2672579876850927
 40
0.3893816564042438
 40
0.5115053251233951
 40
0.6336289938425463
 40
0.7557526625616975
 40
0.8168144969212732
 40
0.8778763312808487
 40
0.9389381656404243
 40
0.9694690828202122
 40
1.0
 40
1.0
 40
1.0
 40
1.0
 10
-31.98601784438651
 20
-15.39950783534124
 30
0.0
 10
-32.20012045791059
 20
-14.95633179865288
 30
0.0
 10
-32.44599849358558
 20
-14.25596023766401
 30
0.0
 10
-32.6200590901447
 20
-13.27523631402985
 30
0.0
 10
-32.67118134437943
 20
-12.52638462578032
 30
0.0
 10
-32.64582863168344
 20
-11.72404782223224
 30
0.0
 10
-32.56570752307105
 20
-11.05983695426837
 30
0.0
 10
-32.45686192737163
 20
-10.25911949027939
 30
0.0
 10
-32.38926271448546
 20
-9.507378309025235
 30
0.0
 10
-32.39851239720183
 20
-8.723622253537576
 30
0.0
 10
-32.49610405498844
 20
-8.020553025760961
 30
0.0
 10
-32.58927630610925
 20
-7.63538716420747
 30
0.0
 10
-32.6448108988131
 20
-7.45096506034642
 30
0.0
  0
LINE
  5
81
330
1F
100
AcDbEntity
  8
0
  6
Continuous
 62
     7
370
    25
100
AcDbLine
 10
-31.9860178444
 20
-15.3995078353
 30
0.0
 11
-31.9827759682
 21
-15.4062396605
 31
0.0
  0
SPLINE
  5
82
330
1F
100
AcDbEntity
  8
0
  6
Continuous
 62
     7
370
    25
100
AcDbSpline
210
0.0
220
0.0
230
1.0
 70
     8
 71
     3
 72
    17
 73
    13
 74
     0
 42
0.00000001
 43
0.00000001
 40
0.0230106502467868
 40
0.0230106502467868
 40
0.0230106502467868
 40
0.0230106502467868
 40
0.0535415674265747
 40
0.0840724846063626
 40
0.1451343189659384
 40
0.2061961533255142
 40
0.2672579876850901
 40
0.3893816564042417
 40
0.5115053251233934
 40
0.633628993842545
 40
0.7557526625616967
 40
1.0
 40
1.0
 40
1.0
 40
1.0
 10
-26.17910573797307
 20
-20.87714017076368
 30
0.0
 10
-26.28866749263339
 20
-20.71873617682707
 30
0.0
 10
-26.53171034077779
 20
-20.40574419090568
 30
0.0
 10
-27.02054459403161
 20
-19.89108746690246
 30
0.0
 10
-27.62754266994277
 20
-19.39519186601034
 30
0.0
 10
-28.25742501196321
 20
-18.97934009868559
 30
0.0
 10
-28.95131525276762
 20
-18.56519983916408
 30
0.0
 10
-29.52057091447256
 20
-18.21371234182833
 30
0.0
 10
-30.16367024484466
 20
-17.73328507611182
 30
0.0
 10
-30.71727186625412
 20
-17.22641469756813
 30
0.0
 10
-31.3755076985008
 20
-16.47885727849628
 30
0.0
 10
-31.76977778656283
 20
-15.84994756356966
 30
0.0
 10
-31.98277596823766
 20
-15.40623966053448
 30
0.0
  0
SPLINE
  5
83
330
1F
100
AcDbEntity
  8
0
  6
Continuous
 62
     7
370
    25
100
AcDbSpline
210
0.0
220
0.0
230
1.0
 70
     8
 71
     3
 72
    17
 73
    13
 74
     0
 42
0.00000001
 43
0.00000001
 40
0.0230106502467902
 40
0.0230106502467902
 40
0.0230106502467902
 40
0.0230106502467902
 40
0.2672579876850927
 40
0.3893816564042438
 40
0.5115053251233951
 40
0.6336289938425463
 40
0.7557526625616975
 40
0.8168144969212732
 40
0.8778763312808487
 40
0.9389381656404243
 40
0.9694690828202122
 40
1.0
 40
1.0
 40
1.0
 40
1.0
 10
-22.13681024579365
 20
-27.75269016246531
 30
0.0
 10
-22.52199691100102
 20
-27.44629799291937
 30
0.0
 10
-23.04740519809863
 20
-26.92196750198972
 30
0.0
 10
-23.62974853975535
 20
-26.11388784125634
 30
0.0
 10
-24.00072266982002
 20
-25.46137689828682
 30
0.0
 10
-24.32600155731912
 20
-24.72749628693635
 30
0.0
 10
-24.54200522775223
 20
-24.09429972699147
 30
0.0
 10
-24.79135702187101
 20
-23.32565188590308
 30
0.0
 10
-25.05662051013707
 20
-22.61902628562444
 30
0.0
 10
-25.4050131942135
 20
-21.91689976652269
 30
0.0
 10
-25.79799054505242
 20
-21.3257997137029
 30
0.0
 10
-26.04905304685592
 20
-21.01920318816267
 30
0.0
 10
-26.17910573797289
 20
-20.87714017076352
 30
0.0
  0
LINE
  5
84
330
1F
100
AcDbEntity
  8
0
  6
Continuous
 62
     7
370
    25
100
AcDbLine
 10
-22.1368102458
 20
-27.7526901625
 30
0.0
 11
-22.1309685868
 21
-27.75734873
 31
0.0
  0
SPLINE
  5
85
330
1F
100
AcDbEntity
  8
0
  6
Continuous
 62
     7
370
    25
100
AcDbSpline
210
0.0
220
0.0
230
1.0
 70
     8
 71
     3
 72
    17
 73
    13
 74
     0
 42
0.00000001
 43
0.00000001
 40
0.0230106502467868
 40
0.0230106502467868
 40
0.0230106502467868
 40
0.0230106502467868
 40
0.0535415674265747
 40
0.0840724846063626
 40
0.1451343189659384
 40
0.2061961533255142
 40
0.2672579876850901
 40
0.3893816564042417
 40
0.5115053251233934
 40
0.633628993842545
 40
0.7557526625616967
 40
1.0
 40
1.0
 40
1.0
 40
1.0
 10
-14.52830762006504
 20
-30.16834162903868
 30
0.0
 10
-14.69574826730712
 20
-30.07316162572669
 30
0.0
 10
-15.05052444021696
 20
-29.89661793022723
 30
0.0
 10
-15.71425006773549
 20
-29.64502547785418
 30
0.0
 10
-16.47629747453513
 20
-29.46160557453411
 30
0.0
 10
-17.22423317486253
 20
-29.36023178427225
 30
0.0
 10
-18.02909540388892
 20
-29.28817199571574
 30
0.0
 10
-18.69448174255936
 20
-29.21848347817367
 30
0.0
 10
-19.48234379661663
 20
-29.06466381055744
 30
0.0
 10
-20.20104443781732
 20
-28.84818812090633
 30
0.0
 10
-21.11844743860137
 20
-28.46025998346946
 30
0.0
 10
-21.74654621217011
 20
-28.06469928962974
 30
0.0
 10
-22.13096858682388
 20
-27.75734873004309
 30
0.0
  0
SPLINE
  5
86
330
1F
100
AcDbEntity
  8
0
  6
Continuous
 62
     7
370
    25
100
AcDbSpline
210
0.0
220
0.0
230
1.0
 70
     8
 71
     3
 72
    17
 73
    13
 74
     0
 42
0.00000001
 43
0.00000001
 40
0.0230106502467902
 40
0.0230106502467902
 40
0.0230106502467902
 40
0.0230106502467902
 40
0.2672579876850927
 40
0.3893816564042438
 40
0.5115053251233951
 40
0.6336289938425463
 40
0.7557526625616975
 40
0.8168144969212732
 40
0.8778763312808487
 40
0.9389381656404243
 40
0.9694690828202122
 40
1.0
 40
1.0
 40
1.0
 40
1.0
 10
-7.903135887860003
 20
-34.60911183850399
 30
0.0
 10
-8.38311566170192
 20
-34.50018826293241
 30
0.0
 10
-9.083990645252713
 20
-34.25574892628207
 30
0.0
 10
-9.959276491219525
 20
-33.78036361570437
 30
0.0
 10
-10.57662652095572
 20
-33.35343121279153
 30
0.0
 10
-11.18811153569697
 20
-32.83336084917166
 30
0.0
 10
-11.6574578091351
 20
-32.35659094158904
 30
0.0
 10
-12.21561981214781
 20
-31.77225285517593
 30
0.0
 10
-12.7612073144718
 20
-31.25069870220226
 30
0.0
 10
-13.3797395560711
 20
-30.76926648761118
 30
0.0
 10
-13.99026861607777
 20
-30.40721022457557
 30
0.0
 10
-14.34949536100225
 20
-30.2399082370915
 30
0.0
 10
-14.52830762006505
 20
-30.16834162903871
 30
0.0
  0
LINE
  5
87
330
1F
100
AcDbEntity
  8
0
  6
Continuous
 62
     7
370
    25
100
AcDbLine
 10
-7.9031358879
 20
-34.6091118385
 30
0.0
 11
-7.8958514583
 21
-34.610774462
 31
0.0
  0
SPLINE
  5
88
330
1F
100
AcDbEntity
  8
0
  6
Continuous
 62
     7
370
    25
100
AcDbSpline
210
0.0
220
0.0
230
1.0
 70
     8
 71
     3
 72
    17
 73
    13
 74
     0
 42
0.00000001
 43
0.00000001
 40
0.0230106502467868
 40
0.0230106502467868
 40
0.0230106502467868
 40
0.0230106502467868
 40
0.0535415674265747
 40
0.0840724846063626
 40
0.1451343189659384
 40
0.2061961533255142
 40
0.2672579876850901
 40
0.3893816564042417
 40
0.5115053251233934
 40
0.633628993842545
 40
0.7557526625616967
 40
1.0
 40
1.0
 40
1.0
 40
1.0
 10
-0.0000000000030187
 20
-33.48433303725245
 30
0.0
 10
-0.1921558661157955
 20
-33.47122859152715
 30
0.0
 10
-0.5883975917020617
 20
-33.46609983050963
 30
0.0
 10
-1.295555592894631
 20
-33.5274026205382
 30
0.0
 10
-2.061719495767959
 20
-33.69278697614023
 30
0.0
 10
-2.779570716123068
 20
-33.92596948537059
 30
0.0
 10
-3.535992097925313
 20
-34.21026249265801
 30
0.0
 10
-4.165721188759667
 20
-34.43617562048244
 30
0.0
 10
-4.942300224202056
 20
-34.63942942261232
 30
0.0
 10
-5.683752408919259
 20
-34.75622408708933
 30
0.0
 10
-6.678619662725974
 20
-34.80475915653321
 30
0.0
 10
-7.416144456570208
 20
-34.72089313042891
 30
0.0
 10
-7.895851458271714
 20
-34.6107744620242
 30
0.0
  0
SPLINE
  5
89
330
1F
100
AcDbEntity
  8
0
  6
Continuous
 62
     7
370
    25
100
AcDbSpline
210
0.0
220
0.0
230
1.0
 70
     8
 71
     3
 72
    17
 73
    13
 74
     0
 42
0.00000001
 43
0.00000001
 40
0.0230106502467902
 40
0.0230106502467902
 40
0.0230106502467902
 40
0.0230106502467902
 40
0.2672579876850927
 40
0.3893816564042438
 40
0.5115053251233951
 40
0.6336289938425463
 40
0.7557526625616975
 40
0.8168144969212732
 40
0.8778763312808487
 40
0.9389381656404243
 40
0.9694690828202122
 40
1.0
 40
1.0
 40
1.0
 40
1.0
 10
7.895851458265522
 20
-34.61077446202406
 30
0.0
 10
7.416144456564057
 20
-34.72089313042878
 30
0.0
 10
6.678619662719905
 20
-34.80475915653309
 30
0.0
 10
5.683752408913164
 20
-34.75622408708921
 30
0.0
 10
4.942300224195954
 20
-34.63942942261225
 30
0.0
 10
4.165721188753626
 20
-34.43617562048235
 30
0.0
 10
3.535992097919171
 20
-34.21026249265793
 30
0.0
 10
2.779570716116941
 20
-33.92596948537054
 30
0.0
 10
2.061719495761874
 20
-33.69278697614019
 30
0.0
 10
1.295555592888584
 20
-33.52740262053818
 30
0.0
 10
0.5883975916960256
 20
-33.46609983050962
 30
0.0
 10
0.1921558661097517
 20
-33.47122859152713
 30
0.0
 10
-0.0000000000030279
 20
-33.48433303725241
 30
0.0
  0
LINE
  5
8A
330
1F
100
AcDbEntity
  8
0
  6
Continuous
 62
     7
370
    25
100
AcDbLine
 10
7.8958514583
 20
-34.610774462
 30
0.0
 11
7.9031358879
 21
-34.6091118385
 31
0.0
  0
SPLINE
  5
8B
330
1F
100
AcDbEntity
  8
0
  6
Continuous
 62
     7
370
    25
100
AcDbSpline
210
0.0
220
0.0
230
1.0
 70
     8
 71
     3
 72
    17
 73
    13
 74
     0
 42
0.00000001
 43
0.00000001
 40
0.0230106502467868
 40
0.0230106502467868
 40
0.0230106502467868
 40
0.0230106502467868
 40
0.0535415674265747
 40
0.0840724846063626
 40
0.1451343189659384
 40
0.2061961533255142
 40
0.2672579876850901
 40
0.3893816564042417
 40
0.5115053251233934
 40
0.633628993842545
 40
0.7557526625616967
 40
1.0
 40
1.0
 40
1.0
 40
1.0
 10
14.52830762005987
 20
-30.16834162904242
 30
0.0
 10
14.34949536099708
 20
-30.23990823709519
 30
0.0
 10
13.9902686160726
 20
-30.40721022457926
 30
0.0
 10
13.37973955606592
 20
-30.76926648761487
 30
0.0
 10
12.76120731446658
 20
-31.25069870220595
 30
0.0
 10
12.21561981214255
 20
-31.77225285517967
 30
0.0
 10
11.65745780912984
 20
-32.35659094159281
 30
0.0
 10
11.18811153569178
 20
-32.83336084917538
 30
0.0
 10
10.57662652095047
 20
-33.35343121279524
 30
0.0
 10
9.959276491214293
 20
-33.7803636157081
 30
0.0
 10
9.083990645247498
 20
-34.2557489262858
 30
0.0
 10
8.383115661696628
 20
-34.50018826293616
 30
0.0
 10
7.903135887854679
 20
-34.60911183850774
 30
0.0
  0
SPLINE
  5
8C
330
1F
100
AcDbEntity
  8
0
  6
Continuous
 62
     7
370
    25
100
AcDbSpline
210
0.0
220
0.0
230
1.0
 70
     8
 71
     3
 72
    17
 73
    13
 74
     0
 42
0.00000001
 43
0.00000001
 40
0.0230106502467902
 40
0.0230106502467902
 40
0.0230106502467902
 40
0.0230106502467902
 40
0.2672579876850927
 40
0.3893816564042438
 40
0.5115053251233951
 40
0.6336289938425463
 40
0.7557526625616975
 40
0.8168144969212732
 40
0.8778763312808487
 40
0.9389381656404243
 40
0.9694690828202122
 40
1.0
 40
1.0
 40
1.0
 40
1.0
 10
22.13096858681861
 20
-27.75734873004691
 30
0.0
 10
21.74654621216487
 20
-28.06469928963355
 30
0.0
 10
21.11844743859621
 20
-28.46025998347322
 30
0.0
 10
20.20104443781213
 20
-28.84818812091009
 30
0.0
 10
19.48234379661144
 20
-29.06466381056124
 30
0.0
 10
18.69448174255423
 20
-29.21848347817744
 30
0.0
 10
18.02909540388369
 20
-29.28817199571953
 30
0.0
 10
17.22423317485732
 20
-29.36023178427606
 30
0.0
 10
16.47629747452998
 20
-29.46160557453791
 30
0.0
 10
15.71425006773038
 20
-29.64502547785796
 30
0.0
 10
15.05052444021186
 20
-29.89661793023101
 30
0.0
 10
14.69574826730201
 20
-30.07316162573047
 30
0.0
 10
14.52830762005993
 20
-30.16834162904247
 30
0.0
  0
LINE
  5
8D
330
1F
100
AcDbEntity
  8
0
  6
Continuous
 62
     7
370
    25
100
AcDbLine
 10
22.1309685868
 20
-27.75734873
 30
0.0
 11
22.1368102458
 21
-27.7526901625
 31
0.0
  0
SPLINE
  5
8E
330
1F
100
AcDbEntity
  8
0
  6
Continuous
 62
     7
370
    25
100
AcDbSpline
210
0.0
220
0.0
230
1.0
 70
     8
 71
     3
 72
    17
 73
    13
 74
     0
 42
0.00000001
 43
0.00000001
 40
0.0230106502467868
 40
0.0230106502467868
 40
0.0230106502467868
 40
0.0230106502467868
 40
0.0535415674265747
 40
0.0840724846063626
 40
0.1451343189659384
 40
0.2061961533255142
 40
0.2672579876850901
 40
0.3893816564042417
 40
0.5115053251233934
 40
0.633628993842545
 40
0.7557526625616967
 40
1.0
 40
1.0
 40
1.0
 40
1.0
 10
26.17910573797042
 20
-20.87714017077039
 30
0.0
 10
26.04905304685343
 20
-21.01920318816953
 30
0.0
 10
25.79799054504994
 20
-21.32579971370973
 30
0.0
 10
25.40501319421101
 20
-21.91689976652954
 30
0.0
 10
25.05662051013454
 20
-22.61902628563132
 30
0.0
 10
24.79135702186846
 20
-23.32565188591
 30
0.0
 10
24.54200522774968
 20
-24.09429972699841
 30
0.0
 10
24.32600155731662
 20
-24.72749628694321
 30
0.0
 10
24.00072266981747
 20
-25.46137689829372
 30
0.0
 10
23.62974853975281
 20
-26.11388784126325
 30
0.0
 10
23.04740519809609
 20
-26.9219675019966
 30
0.0
 10
22.52199691099841
 20
-27.4462979929263
 30
0.0
 10
22.13681024579103
 20
-27.75269016247228
 30
0.0
  0
SPLINE
  5
8F
330
1F
100
AcDbEntity
  8
0
  6
Continuous
 62
     7
370
    25
100
AcDbSpline
210
0.0
220
0.0
230
1.0
 70
     8
 71
     3
 72
    17
 73
    13
 74
     0
 42
0.00000001
 43
0.00000001
 40
0.0230106502467902
 40
0.0230106502467902
 40
0.0230106502467902
 40
0.0230106502467902
 40
0.2672579876850927
 40
0.3893816564042438
 40
0.5115053251233951
 40
0.6336289938425463
 40
0.7557526625616975
 40
0.8168144969212732
 40
0.8778763312808487
 40
0.9389381656404243
 40
0.9694690828202122
 40
1.0
 40
1.0
 40
1.0
 40
1.0
 10
31.98277596823441
 20
-15.40623966054094
 30
0.0
 10
31.7697777865596
 20
-15.8499475635761
 30
0.0
 10
31.37550769849762
 20
-16.47885727850266
 30
0.0
 10
30.71727186625095
 20
-17.22641469757451
 30
0.0
 10
30.1636702448415
 20
-17.73328507611823
 30
0.0
 10
29.52057091446945
 20
-18.2137123418347
 30
0.0
 10
28.95131525276444
 20
-18.56519983917051
 30
0.0
 10
28.25742501196006
 20
-18.97934009869203
 30
0.0
 10
27.62754266993965
 20
-19.39519186601676
 30
0.0
 10
27.02054459402851
 20
-19.89108746690885
 30
0.0
 10
26.53171034077471
 20
-20.40574419091206
 30
0.0
 10
26.2886674926303
 20
-20.71873617683346
 30
0.0
 10
26.17910573796998
 20
-20.87714017077006
 30
0.0
  0
LINE
  5
90
330
1F
100
AcDbEntity
  8
0
  6
Continuous
 62
     7
370
    25
100
AcDbLine
 10
31.9827759682
 20
-15.4062396605
 30
0.0
 11
31.9860178444
 21
-15.3995078353
 31
0.0
  0
SPLINE
  5
91
330
1F
100
AcDbEntity
  8
0
  6
Continuous
 62
     7
370
    25
100
AcDbSpline
210
0.0
220
0.0
230
1.0
 70
     8
 71
     3
 72
    17
 73
    13
 74
     0
 42
0.00000001
 43
0.00000001
 40
0.0230106502467925
 40
0.0230106502467925
 40
0.0230106502467925
 40
0.0230106502467925
 40
0.0535415674265802
 40
0.0840724846063679
 40
0.1451343189659434
 40
0.2061961533255189
 40
0.2672579876850943
 40
0.3893816564042453
 40
0.5115053251233962
 40
0.6336289938425472
 40
0.7557526625616982
 40
1.0
 40
1.0
 40
1.0
 40
1.0
 10
32.64481089881377
 20
-7.450965060354775
 30
0.0
 10
32.58927630610991
 20
-7.63538716421582
 30
0.0
 10
32.4961040549891
 20
-8.020553025769292
 30
0.0
 10
32.39851239720247
 20
-8.723622253545978
 30
0.0
 10
32.38926271448611
 20
-9.50737830903363
 30
0.0
 10
32.45686192737224
 20
-10.25911949028777
 30
0.0
 10
32.56570752307168
 20
-11.05983695427672
 30
0.0
 10
32.645828631684
 20
-11.72404782224055
 30
0.0
 10
32.67118134437997
 20
-12.5263846257887
 30
0.0
 10
32.62005909014524
 20
-13.27523631403821
 30
0.0
 10
32.44599849358612
 20
-14.25596023767229
 30
0.0
 10
32.20012045791105
 20
-14.95633179866127
 30
0.0
 10
31.98601784438698
 20
-15.39950783534968
 30
0.0
  0
MTEXT
  5
93
330
1F
100
AcDbEntity
  8
0
  6
Continuous
 62
     7
100
AcDbMText
 10
-35.5000023261
 20
-35.7988287444
 30
0.0
 40
4.83362
 41
0.0
 71
     1
 72
     1
  1
SOLIDWORKS Educational Product.
  7
SLDTEXTSTYLE0
 73
     1
 44
1.0
  0
MTEXT
  5
94
330
1F
100
AcDbEntity
  8
0
  6
Continuous
 62
     7
100
AcDbMText
 10
-35.5000023261
 20
-43.0492587444
 30
0.0
 40
4.83362
 41
0.0
 71
     1
 72
     1
  1
For Instructional Use Only.
  7
SLDTEXTSTYLE0
 73
     1
 44
1.0
  0
ENDSEC
  0
SECTION
  2
OBJECTS
  0
DICTIONARY
  5
C
330
0
100
AcDbDictionary
281
     1
  3
ACAD_GROUP
350
D
  3
ACAD_LAYOUT
350
1A
  3
ACAD_MLINESTYLE
350
17
  3
ACAD_PLOTSETTINGS
350
19
  3
ACAD_PLOTSTYLENAME
350
E
  3
ACAD_SCALELIST
350
47
  3
DWGPROPS
350
95
  0
DICTIONARY
  5
D
102
{ACAD_REACTORS
330
C
102
}
330
C
100
AcDbDictionary
281
     1
  0
DICTIONARY
  5
1A
102
{ACAD_REACTORS
330
C
102
}
330
C
100
AcDbDictionary
281
     1
  3
Layout1
350
1E
  3
Layout2
350
26
  3
Model
350
22
  0
DICTIONARY
  5
17
102
{ACAD_REACTORS
330
C
102
}
330
C
100
AcDbDictionary
281
     1
  3
Standard
350
18
  0
DICTIONARY
  5
19
102
{ACAD_REACTORS
330
C
102
}
330
C
100
AcDbDictionary
281
     1
  0
ACDBDICTIONARYWDFLT
  5
E
102
{ACAD_REACTORS
330
C
102
}
330
C
100
AcDbDictionary
281
     1
  3
Normal
350
F
100
AcDbDictionaryWithDefault
340
F
  0
DICTIONARY
  5
47
102
{ACAD_REACTORS
330
C
102
}
330
C
100
AcDbDictionary
281
     1
  3
A0
350
48
  3
A1
350
49
  3
A2
350
4A
  3
A3
350
4B
  3
A4
350
4C
  3
A5
350
4D
  3
A6
350
4E
  3
A7
350
4F
  3
A8
350
50
  3
A9
350
51
  3
B0
350
52
  3
B1
350
53
  3
B2
350
54
  3
B3
350
55
  3
B4
350
56
  3
B5
350
57
  3
B6
350
58
  0
XRECORD
  5
95
102
{ACAD_REACTORS
330
C
102
}
330
C
100
AcDbXrecord
280
     1
  1
DWGPROPS COOKIE
  2

  3

  4

  6

  7

  8
dampy
  9

300
=
301
=
302
=
303
=
304
=
305
=
306
=
307
=
308
=
309
=
 40
0.0
 41
2460384.78883022
 42
2460384.789075625
  1

 90
        0
  0
LAYOUT
  5
1E
102
{ACAD_REACTORS
330
1A
102
}
330
1A
100
AcDbPlotSettings
  1

  2
none_device
  4

  6

 40
0.0
 41
0.0
 42
0.0
 43
0.0
 44
0.0
 45
0.0
 46
0.0
 47
0.0
 48
0.0
 49
0.0
140
0.0
141
0.0
142
1.0
143
1.0
 70
   688
 72
     1
 73
     0
 74
     5
  7

 75
    16
147
1.0
148
0.0
149
0.0
100
AcDbLayout
  1
Layout1
 70
     1
 71
     1
 10
0.0
 20
0.0
 11
420.0
 21
297.0
 12
0.0
 22
0.0
 32
0.0
 14
1.0000000000E+20
 24
1.0000000000E+20
 34
1.0000000000E+20
 15
-1.0000000000E+20
 25
-1.0000000000E+20
 35
-1.0000000000E+20
146
0.0
 13
0.0
 23
0.0
 33
0.0
 16
1.0
 26
0.0
 36
0.0
 17
0.0
 27
1.0
 37
0.0
 76
     0
330
1B
  0
LAYOUT
  5
26
102
{ACAD_REACTORS
330
1A
102
}
330
1A
100
AcDbPlotSettings
  1

  2
none_device
  4

  6

 40
0.0
 41
0.0
 42
0.0
 43
0.0
 44
0.0
 45
0.0
 46
0.0
 47
0.0
 48
0.0
 49
0.0
140
0.0
141
0.0
142
1.0
143
1.0
 70
   688
 72
     1
 73
     0
 74
     5
  7

 75
    16
147
1.0
148
0.0
149
0.0
100
AcDbLayout
  1
Layout2
 70
     1
 71
     2
 10
0.0
 20
0.0
 11
0.0
 21
0.0
 12
0.0
 22
0.0
 32
0.0
 14
0.0
 24
0.0
 34
0.0
 15
0.0
 25
0.0
 35
0.0
146
0.0
 13
0.0
 23
0.0
 33
0.0
 16
1.0
 26
0.0
 36
0.0
 17
0.0
 27
1.0
 37
0.0
 76
     0
330
23
  0
LAYOUT
  5
22
102
{ACAD_REACTORS
330
1A
102
}
330
1A
100
AcDbPlotSettings
  1

  2
none_device
  4
ANSI_A_(11.00_x_8.50_Inches)
  6

 40
6.35
 41
19.05
 42
6.35000508
 43
19.05000254
 44
279.4
 45
215.9
 46
133.34999746
 47
88.89999873
 48
0.0
 49
0.0
140
0.0
141
0.0
142
0.1209772639
143
1.0
 70
  1696
 72
     0
 73
     0
 74
     0
  7

 75
     0
147
0.0179189148
148
-1300.4909072572
149
0.0
100
AcDbLayout
  1
Model
 70
     1
 71
     0
 10
0.0
 20
0.0
 11
420.0
 21
297.0
 12
0.0
 22
0.0
 32
0.0
 14
-35.5000023261
 24
-34.7792623527
 34
0.0
 15
35.5000023261
 25
34.7792623527
 35
0.0
146
0.0
 13
0.0
 23
0.0
 33
0.0
 16
1.0
 26
0.0
 36
0.0
 17
0.0
 27
1.0
 37
0.0
 76
     0
330
1F
331
29
  0
MLINESTYLE
  5
18
102
{ACAD_REACTORS
330
17
102
}
330
17
100
AcDbMlineStyle
  2
Standard
 70
     0
  3

 62
   256
 51
90.0
 52
90.0
 71
     2
 49
0.5
 62
   256
  6
BYLAYER
 49
-0.5
 62
   256
  6
BYLAYER
  0
ACDBPLACEHOLDER
  5
F
102
{ACAD_REACTORS
330
E
102
}
330
E
  0
SCALE
  5
48
102
{ACAD_REACTORS
330
47
102
}
330
47
100
AcDbScale
 70
     0
300
1:1
140
1.0
141
1.0
290
     1
  0
SCALE
  5
49
102
{ACAD_REACTORS
330
47
102
}
330
47
100
AcDbScale
 70
     0
300
1:2
140
1.0
141
2.0
290
     0
  0
SCALE
  5
4A
102
{ACAD_REACTORS
330
47
102
}
330
47
100
AcDbScale
 70
     0
300
1:4
140
1.0
141
4.0
290
     0
  0
SCALE
  5
4B
102
{ACAD_REACTORS
330
47
102
}
330
47
100
AcDbScale
 70
     0
300
1:5
140
1.0
141
5.0
290
     0
  0
SCALE
  5
4C
102
{ACAD_REACTORS
330
47
102
}
330
47
100
AcDbScale
 70
     0
300
1:8
140
1.0
141
8.0
290
     0
  0
SCALE
  5
4D
102
{ACAD_REACTORS
330
47
102
}
330
47
100
AcDbScale
 70
     0
300
1:10
140
1.0
141
10.0
290
     0
  0
SCALE
  5
4E
102
{ACAD_REACTORS
330
47
102
}
330
47
100
AcDbScale
 70
     0
300
1:16
140
1.0
141
16.0
290
     0
  0
SCALE
  5
4F
102
{ACAD_REACTORS
330
47
102
}
330
47
100
AcDbScale
 70
     0
300
1:20
140
1.0
141
20.0
290
     0
  0
SCALE
  5
50
102
{ACAD_REACTORS
330
47
102
}
330
47
100
AcDbScale
 70
     0
300
1:30
140
1.0
141
30.0
290
     0
  0
SCALE
  5
51
102
{ACAD_REACTORS
330
47
102
}
330
47
100
AcDbScale
 70
     0
300
1:40
140
1.0
141
40.0
290
     0
  0
SCALE
  5
52
102
{ACAD_REACTORS
330
47
102
}
330
47
100
AcDbScale
 70
     0
300
1:50
140
1.0
141
50.0
290
     0
  0
SCALE
  5
53
102
{ACAD_REACTORS
330
47
102
}
330
47
100
AcDbScale
 70
     0
300
1:100
140
1.0
141
100.0
290
     0
  0
SCALE
  5
54
102
{ACAD_REACTORS
330
47
102
}
330
47
100
AcDbScale
 70
     0
300
2:1
140
2.0
141
1.0
290
     0
  0
SCALE
  5
55
102
{ACAD_REACTORS
330
47
102
}
330
47
100
AcDbScale
 70
     0
300
4:1
140
4.0
141
1.0
290
     0
  0
SCALE
  5
56
102
{ACAD_REACTORS
330
47
102
}
330
47
100
AcDbScale
 70
     0
300
8:1
140
8.0
141
1.0
290
     0
  0
SCALE
  5
57
102
{ACAD_REACTORS
330
47
102
}
330
47
100
AcDbScale
 70
     0
300
10:1
140
10.0
141
1.0
290
     0
  0
SCALE
  5
58
102
{ACAD_REACTORS
330
47
102
}
330
47
100
AcDbScale
 70
     0
300
100:1
140
100.0
141
1.0
290
     0
  0
ENDSEC
  0
EOF
